<?xml version="1.0" encoding="utf-8"?>
<!-- Generator: Adobe Illustrator 16.0.0, SVG Export Plug-In . SVG Version: 6.00 Build 0)  -->
<!DOCTYPE svg PUBLIC "-//W3C//DTD SVG 1.1//EN" "http://www.w3.org/Graphics/SVG/1.1/DTD/svg11.dtd">
<svg version="1.1" id="Layer_1" xmlns="http://www.w3.org/2000/svg" xmlns:xlink="http://www.w3.org/1999/xlink" x="0px" y="0px"
	 width="248.696px" height="293.126px" viewBox="0 0 248.696 293.126" enable-background="new 0 0 248.696 293.126"
	 xml:space="preserve">
<g>
	<defs>
		<rect id="SVGID_1_" width="248.696" height="293.126"/>
	</defs>
	<clipPath id="SVGID_2_">
		<use xlink:href="#SVGID_1_"  overflow="visible"/>
	</clipPath>
	<path clip-path="url(#SVGID_2_)" fill="#A4C639" d="M72.501,0.709L72.501,0.709c-2.73,1.513-3.717,4.954-2.203,7.684l30.775,55.519
		c1.513,2.73,4.953,3.717,7.683,2.203c2.731-1.513,3.717-4.953,2.204-7.683L80.186,2.913C78.671,0.183,75.231-0.803,72.501,0.709"/>
	<path clip-path="url(#SVGID_2_)" fill="#A4C639" d="M227.826,93.126L227.826,93.126c-11.526,0-20.87,9.344-20.87,20.87v73.913
		c0,11.525,9.344,20.869,20.87,20.869s20.87-9.344,20.87-20.869v-73.913C248.696,102.47,239.353,93.126,227.826,93.126"/>
	<path clip-path="url(#SVGID_2_)" fill="#A4C639" d="M153.913,177.474L153.913,177.474c-11.526,0-20.87,9.344-20.87,20.87v73.913
		c0,11.526,9.344,20.869,20.87,20.869s20.87-9.343,20.87-20.869v-73.913C174.783,186.817,165.439,177.474,153.913,177.474"/>
	<path clip-path="url(#SVGID_2_)" fill="#A4C639" d="M176.194,0.709L176.194,0.709c2.729,1.513,3.717,4.954,2.203,7.684
		l-30.775,55.519c-1.513,2.73-4.953,3.717-7.683,2.203c-2.731-1.513-3.717-4.953-2.204-7.683l30.774-55.52
		C170.024,0.183,173.464-0.803,176.194,0.709"/>
	<path clip-path="url(#SVGID_2_)" fill="#A4C639" d="M20.87,93.126L20.87,93.126c11.526,0,20.87,9.344,20.87,20.87v73.913
		c0,11.525-9.344,20.869-20.87,20.869S0,199.435,0,187.909v-73.913C0,102.47,9.344,93.126,20.87,93.126"/>
	<path clip-path="url(#SVGID_2_)" fill="#A4C639" d="M94.783,177.474L94.783,177.474c11.526,0,20.87,9.344,20.87,20.87v73.913
		c0,11.526-9.344,20.869-20.87,20.869s-20.87-9.343-20.87-20.869v-73.913C73.913,186.817,83.257,177.474,94.783,177.474"/>
	<path clip-path="url(#SVGID_2_)" fill="#A4C639" d="M45.217,99.77v114.227c0,10.564,8.565,19.13,19.13,19.13h120
		c10.565,0,19.131-8.565,19.131-19.13V99.77H45.217z"/>
	<path clip-path="url(#SVGID_2_)" fill="#A4C639" d="M124.348,20.083c-43.5,0-78.789,32.403-79.115,72.487h158.23
		C203.138,52.486,167.848,20.083,124.348,20.083 M87.826,64.552c-3.903,0-7.078-3.175-7.078-7.078c0-3.903,3.175-7.079,7.078-7.079
		c3.903,0,7.079,3.176,7.079,7.079C94.905,61.377,91.729,64.552,87.826,64.552 M160.87,64.552c-3.903,0-7.079-3.175-7.079-7.078
		c0-3.903,3.176-7.079,7.079-7.079c3.902,0,7.078,3.176,7.078,7.079C167.948,61.377,164.772,64.552,160.87,64.552"/>
</g>
</svg>
