<?xml version="1.0" encoding="utf-8"?>
<!-- Generator: Adobe Illustrator 16.0.0, SVG Export Plug-In . SVG Version: 6.00 Build 0)  -->
<!DOCTYPE svg PUBLIC "-//W3C//DTD SVG 1.1//EN" "http://www.w3.org/Graphics/SVG/1.1/DTD/svg11.dtd">
<svg version="1.1" id="Layer_1" xmlns="http://www.w3.org/2000/svg" xmlns:xlink="http://www.w3.org/1999/xlink" x="0px" y="0px"
	 width="130.28px" height="160px" viewBox="0 0 130.28 160" enable-background="new 0 0 130.28 160" xml:space="preserve">
<g>
	<defs>
		<rect id="SVGID_1_" width="130.28" height="160"/>
	</defs>
	<clipPath id="SVGID_2_">
		<use xlink:href="#SVGID_1_"  overflow="visible"/>
	</clipPath>
	<path clip-path="url(#SVGID_2_)" fill="#C1C1BD" d="M108.806,85.003c0.225,24.213,21.242,32.271,21.475,32.373
		c-0.178,0.568-3.357,11.483-11.073,22.757c-6.669,9.747-13.59,19.458-24.492,19.659c-10.714,0.197-14.158-6.353-26.407-6.353
		c-12.244,0-16.072,6.151-26.213,6.55c-10.524,0.399-18.538-10.54-25.263-20.251C3.091,119.874-7.409,83.606,6.69,59.125
		c7.004-12.158,19.521-19.857,33.107-20.054c10.335-0.197,20.089,6.953,26.407,6.953c6.314,0,18.168-8.599,30.629-7.336
		c5.218,0.217,19.861,2.107,29.265,15.871C125.34,55.029,108.624,64.76,108.806,85.003 M88.672,25.546
		C94.259,18.783,98.02,9.368,96.993,0C88.939,0.323,79.2,5.366,73.425,12.126c-5.178,5.986-9.711,15.567-8.488,24.749
		C73.913,37.57,83.083,32.314,88.672,25.546"/>
</g>
</svg>
