<?xml version="1.0" encoding="utf-8"?>
<!-- Generator: Adobe Illustrator 18.0.0, SVG Export Plug-In . SVG Version: 6.00 Build 0)  -->
<!DOCTYPE svg PUBLIC "-//W3C//DTD SVG 1.1//EN" "http://www.w3.org/Graphics/SVG/1.1/DTD/svg11.dtd">
<svg version="1.1" xmlns="http://www.w3.org/2000/svg" xmlns:xlink="http://www.w3.org/1999/xlink" x="0px" y="0px"
	 viewBox="0 0 607.5 480.6" enable-background="new 0 0 607.5 480.6" xml:space="preserve">
<g id="TRUCK">
	<g>
		<g>
			<path fill="#CCCCCC" d="M356.9,98.2l-0.5-0.2c-2-0.7-4.3-0.8-6.6-1c-4.8-0.3-9.8-0.7-10.2-6.2c0.2-7.6,1.9-8.9,6.5-8.9
				c0.7,0,1.5,0,2.4,0.1c0.9,0,2,0.1,3.1,0.1c6.6,0.1,7.1,0.3,8.7,1.3c0.5,0.3,1.2,0.7,2.3,1.2l0.5,0.2l-0.3,0.4
				c0,0.1-4.9,7-5.9,12.5L356.9,98.2z M346.2,82.8c-4,0-5.5,0.7-5.7,8c0.3,4.7,4.5,5,9.3,5.3c2.2,0.1,4.4,0.3,6.3,0.9
				c1.1-4.8,4.6-10.3,5.7-11.9c-0.9-0.4-1.5-0.8-1.9-1c-1.4-0.9-1.9-1.1-8.2-1.2c-1.1,0-2.2,0-3.1-0.1
				C347.7,82.8,346.9,82.8,346.2,82.8z"/>
			<path fill="#CCCCCC" d="M525.4,98.1l-0.1-0.4c-2-7.1-5.9-12.2-5.9-12.3l-0.4-0.5l0.5-0.2c0.5-0.2,0.8-0.4,1.2-0.7
				c1.3-0.9,2.7-2,9.7-1.9c1.1,0,2.2,0,3.1-0.1c0.9,0,1.7-0.1,2.4-0.1c4.7,0,6.3,1.3,6.5,8.9c-0.4,5.6-5.5,6-10.4,6.3
				c-2.2,0.1-4.4,0.3-6.3,0.9L525.4,98.1z M520.4,85.3c1,1.4,3.9,5.8,5.6,11.7c1.9-0.5,4-0.7,6.1-0.8c5-0.3,9.2-0.6,9.6-5.4
				c-0.2-7.3-1.7-8-5.7-8c-0.7,0-1.5,0-2.4,0.1c-1,0-2,0.1-3.1,0.1c-0.3,0-0.6,0-0.9,0c-5.9,0-7.1,0.9-8.2,1.7
				C521,84.9,520.7,85.1,520.4,85.3z"/>
		</g>
		<g>
			<path fill="#CCCCCC" d="M368.8,173.8V202c0,1.9-1.5,3.4-3.4,3.4h-13.2c-1.9,0-3.4-1.5-3.4-3.4v-44.7c0,0,2.2,21.4,14.7,19
				C363.5,176.3,367.3,174.6,368.8,173.8z"/>
		</g>
		<g>
			<path fill="#CCCCCC" d="M513.9,173.8V202c0,1.9,1.5,3.4,3.4,3.4h13.2c1.9,0,3.4-1.5,3.4-3.4v-44.7c0,0-2.2,21.4-14.7,19
				C519.2,176.3,515.3,174.6,513.9,173.8z"/>
		</g>
		<path fill="#CCCCCC" d="M520.9,177.3c-1.1,0-2.2-0.2-3.3-0.6l-0.2-0.1c-4.6-2.8-9.7-3.6-20.8-3.3l-4.5,0c-4,0-4,0-8.2,0l-4.8,0
			h-75.8l-4.8,0c-4.3,0-4.3,0-8.2,0l-4.5,0c-1.4,0-2.7-0.1-3.9-0.1c-8.5,0-12.9,0.9-16.9,3.4l-0.2,0.1c-1.1,0.4-2.3,0.6-3.3,0.6
			c-7.2,0-12-7.9-14.3-23.5l-1.3-13.1l0-0.1c0.4-22.2,3.7-35.8,10.8-45.4c8.3-17.5,17.2-29.1,23.6-37.6c3.2-3.8,5.6-5.5,7.6-5.5
			c1,0,1.7,0.4,2.2,0.8c1.6-0.2,3.4-0.4,5.2-0.5c1.4-0.1,2.9-0.2,4.4-0.4l5-0.3c12.3-0.7,23.9-1.3,36.6-1.4l1.3,0
			c10.8,0,20.5,0.6,30.7,1.2c3.1,0.2,6.2,0.4,9.4,0.6c0.9,0.1,1.9,0.2,2.9,0.2c2.1,0.1,4.4,0.3,6.6,0.6c0.6-0.5,1.3-0.8,2.1-0.8
			c3.5,0,7.3,5,7.7,5.6c6.4,8.5,15.3,20.1,23.6,37.6c7.2,9.6,10.4,23.2,10.8,45.4l0,0.1l-1.3,13
			C532.9,169.4,528.1,177.3,520.9,177.3z M518.2,175.1c0.9,0.3,1.8,0.4,2.7,0.4c6.1,0,10.5-7.6,12.6-22l1.3-12.9
			c-0.4-21.8-3.6-35.1-10.5-44.4l-0.1-0.2c-8.3-17.4-17-28.9-23.5-37.4c-1.7-2.4-4.6-4.8-6.3-4.8c-0.5,0-0.8,0.2-1.2,0.6l-0.3,0.4
			l-0.5-0.1c-2.3-0.4-4.6-0.5-6.9-0.7c-1-0.1-2-0.1-2.9-0.2c-3.2-0.2-6.3-0.4-9.4-0.6c-10.3-0.6-19.9-1.2-30.6-1.2l-1.3,0
			c-12.6,0.1-24.2,0.7-36.5,1.4l-4.9,0.3c-1.5,0.2-3,0.3-4.4,0.4c-1.9,0.2-3.7,0.3-5.4,0.6l-0.4,0.1l-0.3-0.2
			c-0.5-0.4-0.9-0.7-1.5-0.7c-1,0-2.8,0.8-6.2,4.9c-6.4,8.4-15.2,19.9-23.4,37.3l-0.1,0.2c-7,9.3-10.1,22.6-10.5,44.4l1.3,12.9
			c2.1,14.3,6.4,21.9,12.6,21.9c0.9,0,1.8-0.1,2.7-0.4c4.9-3,10.2-3.8,21.7-3.5l4.4,0c4,0,4,0,8.3,0l4.8,0l80.6,0c4.3,0,4.3,0,8.3,0
			l4.5,0c1.4,0,2.7-0.1,3.9-0.1C509.2,171.6,513.9,172.5,518.2,175.1z"/>
		<rect x="377.9" y="131.2" fill="#CCCCCC" width="0.9" height="7.5"/>
		
			<rect x="372.2" y="103" transform="matrix(2.478842e-002 0.9997 -0.9997 2.478842e-002 472.361 -277.2421)" fill="#CCCCCC" width="12.2" height="0.9"/>
		
			<rect x="354.4" y="109.2" transform="matrix(9.122945e-002 0.9958 -0.9958 9.122945e-002 436.2726 -249.563)" fill="#CCCCCC" width="0.9" height="10.2"/>
		
			<rect x="354.4" y="109.2" transform="matrix(9.122945e-002 0.9958 -0.9958 9.122945e-002 436.2726 -249.563)" fill="#CCCCCC" width="0.9" height="10.2"/>
		
			<rect x="367.9" y="91.3" transform="matrix(3.188697e-002 0.9995 -0.9995 3.188697e-002 449.7947 -277.8049)" fill="#CCCCCC" width="0.9" height="3.9"/>
		<rect x="503.4" y="131.2" fill="#CCCCCC" width="0.9" height="7.5"/>
		
			<rect x="503.5" y="97.4" transform="matrix(0.9997 2.529443e-002 -2.529443e-002 0.9997 2.7789 -12.7127)" fill="#CCCCCC" width="0.9" height="12.2"/>
		
			<rect x="522.2" y="113.8" transform="matrix(0.9958 9.170576e-002 -9.170576e-002 0.9958 12.6996 -47.8756)" fill="#CCCCCC" width="10.2" height="0.9"/>
		
			<rect x="522.2" y="113.8" transform="matrix(0.9958 9.170576e-002 -9.170576e-002 0.9958 12.6996 -47.8756)" fill="#CCCCCC" width="10.2" height="0.9"/>
		<g>
			<path fill="#CCCCCC" d="M512,131.4c-0.4,0-0.9,0-1.3,0H371.4c-0.4,0-0.9,0-1.3,0c-7,0-10-0.6-11.5-2.3c-1.6-1.8-1.2-4.6-0.6-9.3
				c1.1-9.5,4.7-10.8,12-10.7l71.1,0l71.1,0c0.3,0,0.7,0,1,0c6.6,0,9.9,1.6,11,10.7c0.6,4.7,1,7.5-0.6,9.3
				C522,130.8,519,131.4,512,131.4z M441.1,130.5h69.6c7.6,0.1,10.8-0.4,12.1-2c1.3-1.5,1-4.2,0.4-8.6c-1-9-4.1-10-11.1-9.9l-71.1,0
				l-71.1,0c-0.3,0-0.7,0-1,0c-6.3,0-9.1,1.4-10.1,9.9c-0.6,4.5-0.9,7.1,0.4,8.6c1.4,1.5,4.6,2.1,12.1,2H441.1z"/>
			<path fill="#CCCCCC" d="M367.6,130.1c-3.5,0-5.7-0.7-7-2.1c-1.6-1.9-1.4-5-0.9-8.1c1.2-7.5,2.3-9.2,10.8-9.1l0.4,0l-0.1,19.2
				l-0.4,0C369.4,130,368.5,130.1,367.6,130.1z M369.6,111.6c-7,0-7.9,1.5-8.9,8.3c-0.6,3.9-0.5,6,0.7,7.4c1.3,1.5,4,2.1,8.7,1.7
				l0.1-17.5C369.9,111.6,369.7,111.6,369.6,111.6z"/>
			<path fill="#CCCCCC" d="M378.4,129.9h-7.1v-19.3h7.1V129.9z M372.2,129h5.4v-17.5h-5.4V129z"/>
			<path fill="#CCCCCC" d="M389.3,129.9h-10.1v-19.3h10.1V129.9z M380.1,129h8.3v-17.5h-8.3V129z"/>
			<path fill="#CCCCCC" d="M399.7,129.9H390v-19.3h9.7V129.9z M390.9,129h7.9v-17.5h-7.9V129z"/>
			<path fill="#CCCCCC" d="M407.4,129.9h-6.9v-19.3h6.9V129.9z M401.4,129h5.1v-17.5h-5.1V129z"/>
			<path fill="#CCCCCC" d="M514.6,130.1C514.6,130.1,514.6,130.1,514.6,130.1c-0.9,0-1.8,0-2.9-0.1l-0.4,0l-0.1-19.2l0.4,0
				c8.5-0.1,9.6,1.5,10.8,9.1c0.5,3.1,0.8,6.2-0.9,8.1C520.3,129.4,518.1,130.1,514.6,130.1z M512.2,129.1c4.7,0.3,7.4-0.2,8.7-1.7
				c1.1-1.3,1.3-3.5,0.7-7.4c-1.1-7-2-8.4-9.4-8.4L512.2,129.1z"/>
			<path fill="#CCCCCC" d="M510.9,129.9h-7.1v-19.3h7.1V129.9z M504.7,129h5.4v-17.5h-5.4V129z"/>
			<path fill="#CCCCCC" d="M502.9,129.9h-10.1v-19.3h10.1V129.9z M493.7,129h8.3v-17.5h-8.3V129z"/>
			<path fill="#CCCCCC" d="M492.2,129.9h-9.7v-19.3h9.7V129.9z M483.4,129h7.9v-17.5h-7.9V129z"/>
			<path fill="#CCCCCC" d="M481.7,129.9h-6.9v-19.3h6.9V129.9z M475.7,129h5.1v-17.5h-5.1V129z"/>
		</g>
		
			<rect x="512" y="92.8" transform="matrix(0.9995 3.220834e-002 -3.220834e-002 0.9995 3.2712 -16.5043)" fill="#CCCCCC" width="3.8" height="0.9"/>
		<path fill="#CCCCCC" d="M353.1,103.5l-0.6-0.7c7.9-6.9,11.6-6.7,18.9-6.3c1.7,0.1,3.6,0.2,5.9,0.2c12.2-1.1,27.8-1.1,42.8-1
			c5.7,0,11.5,0,17.2,0l0-0.1h7.8l0,0.1c5.7,0,11.5,0,17.2,0c15-0.1,30.6-0.1,42.9,1c2.2,0,4.1-0.1,5.8-0.2c7.3-0.4,11-0.6,18.9,6.3
			l-0.6,0.7c-7.6-6.6-10.9-6.5-18.3-6c-1.7,0.1-3.7,0.2-5.9,0.2c-12.3-1.1-27.8-1.1-42.8-1c-7,0-14.2,0.1-21,0
			c-6.9,0.1-14.1,0.1-21,0c-15-0.1-30.6-0.1-42.8,1c-2.3,0-4.2-0.1-6-0.2C364,97,360.7,96.8,353.1,103.5z"/>
		<polygon fill="#CCCCCC" points="535.4,141.5 523.4,140.7 438.9,140.7 438.9,139.8 523.4,139.8 535.5,140.6 		"/>
		
			<rect x="523.4" y="140.2" transform="matrix(0.9974 7.199236e-002 -7.199236e-002 0.9974 11.4989 -37.7505)" fill="#CCCCCC" width="12" height="0.9"/>
		<g>
			<path fill="#CCCCCC" d="M534.3,155.9l-0.4-0.1c-1.1-0.2-2.2-0.4-3.4-0.7c-2.3-0.5-4.7-1-7.4-1c-0.6,0-1.2,0-1.7,0.1l-160.4,0
				c-1-0.1-1.9-0.1-2.9-0.1c-3.1,0-5.9,0.4-8.5,0.8l-1.7,0.3l-0.1-0.4c-0.8-3.6-1.1-10.4-1.2-13.5l0-0.4l0.4-0.1
				c2-0.4,4.1-0.4,6.4-0.4c2.3,0,4.6,0,7.2-0.4l161.1,0c2.7,0.4,5,0.4,7.3,0.4c2.2,0,4.4,0,6.4,0.4l0.4,0.1l0,0.4
				c-0.1,3.3-0.4,10.6-1.2,14.1L534.3,155.9z M523,153.3c2.8,0,5.3,0.5,7.6,1c1,0.2,2,0.4,3,0.6c0.7-3.5,1-9.9,1.1-13.2
				c-1.8-0.3-3.8-0.3-5.8-0.4c-2.2,0-4.7,0-7.4-0.4l-160.9,0c-2.6,0.4-5.1,0.4-7.3,0.4c-2.1,0-4,0-5.8,0.4c0.1,3.1,0.4,9,1.1,12.5
				l0.8-0.1c2.7-0.4,5.5-0.9,8.7-0.9c1,0,1.9,0,2.9,0.1l160.3,0C521.8,153.3,522.4,153.3,523,153.3z"/>
			<path fill="#CCCCCC" d="M512.3,93.8l-0.6,0c-18-0.4-39.3-0.5-55.9-0.5c-3.6,0-7.2,0-10.7,0l0,0l-7.9,0c-3.5,0-7.1,0-10.7,0
				c-16.5,0-37.9,0.1-55.9,0.5l-0.6,0l0.2-0.6c5.5-15.4,10.3-27,15.6-33.6l0.1-0.2l0.2,0c20.3-1.4,37.7-2.1,54.8-2.2v0l0.4,0
				c17.1,0,34.5,0.7,54.8,2.2l0.2,0l0.1,0.2c5.3,6.6,10.1,18.2,15.6,33.6L512.3,93.8z M455.8,92.4c16.4,0,37.4,0.1,55.3,0.5
				c-5.4-14.9-10-26.1-15.2-32.6c-20.3-1.4-37.7-2.1-54.8-2.1c-17.1,0-34.5,0.7-54.8,2.1c-5.1,6.5-9.8,17.7-15.2,32.6
				c17.9-0.4,38.9-0.5,55.3-0.5c5,0,9.9,0,14.7,0C445.9,92.4,450.8,92.4,455.8,92.4z"/>
			<path fill="#CCCCCC" d="M475.8,129.9h-69.4v-19.4h69.4V129.9z M440.9,129.1h34v-17.6h-67.6v17.6H440.9z"/>
		</g>
		<rect x="378.8" y="138.1" fill="#CCCCCC" width="124.5" height="0.9"/>
		<g>
			<path fill="#CCCCCC" d="M358.5,96.1l0.4-0.9c8.1-17.7,15.7-28.7,22-37l0.7-1l0.1,1.2c0.1,2.8-1.4,5.3-3.6,9.2
				c-2.9,5-7.3,12.6-11.3,25.9l-0.1,0.2L358.5,96.1z M380.7,59.9c-6,8-13.1,18.5-20.6,34.8L366,93c3.9-13.3,8.3-20.8,11.3-25.8
				C379,64.1,380.3,61.9,380.7,59.9z"/>
			<path fill="#CCCCCC" d="M523.7,96.1l-8.2-2.4l-0.1-0.2c-3.9-13.3-8.3-20.9-11.3-25.9c-2.3-3.9-3.8-6.5-3.6-9.2l0.1-1.2l0.7,1
				c6.3,8.4,13.9,19.3,22,37L523.7,96.1z M516.2,93l5.9,1.7c-7.5-16.3-14.6-26.8-20.6-34.8c0.4,2.1,1.7,4.3,3.4,7.3
				C507.8,72.2,512.2,79.7,516.2,93z"/>
			<path fill="#CCCCCC" d="M510,92.5l-0.7,0c-25.3-0.6-48.7-0.7-68.2-0.7c-19.5,0-42.9,0.1-68.2,0.7l-0.7,0l0.2-0.6
				c4.5-12.4,9-24,14.4-30.8l0.1-0.2l0.2,0c18.7-1.3,36.3-2,53.7-2v0l0.4,0c17.4,0,34.9,0.7,53.7,2l0.2,0l0.1,0.2
				c5.5,6.8,9.9,18.5,14.4,30.8L510,92.5z M445.1,90.9c18.5,0,40.2,0.1,63.6,0.7c-4.4-12-8.7-23.2-14-29.8c-18.7-1.3-36.3-2-53.6-2
				c-17.4,0-34.9,0.7-53.6,2c-5.2,6.6-9.6,17.8-14,29.8c23.4-0.6,45.1-0.7,63.6-0.7v0l1.8,0l2.7,0l1.7,0L445.1,90.9z"/>
		</g>
		<path fill="#CCCCCC" d="M471.7,130h-61.2c-1.5,0-2.5-1.1-2.5-2.7v-12.4c0-1.5,1.1-2.6,2.5-2.6h61.2c1.4,0,2.5,1.1,2.5,2.6v12.4
			C474.2,128.8,473.1,130,471.7,130z M440.9,129.1h30.8c1,0,1.6-0.7,1.6-1.8v-12.4c0-1-0.7-1.8-1.6-1.8h-61.2c-1,0-1.6,0.7-1.6,1.8
			v12.4c0,1.1,0.7,1.8,1.6,1.8H440.9z"/>
		<path fill="#CCCCCC" d="M468.6,128.2h-55c-1.3,0-2.2-1-2.2-2.3v-9.6c0-1.2,1-2.2,2.2-2.2h55c1.2,0,2.2,1,2.2,2.2v9.6
			C470.8,127.2,469.9,128.2,468.6,128.2z M413.6,114.9c-0.8,0-1.4,0.6-1.4,1.4v9.6c0,0.8,0.6,1.4,1.4,1.4h55c0.8,0,1.4-0.6,1.4-1.4
			v-9.6c0-0.8-0.6-1.4-1.4-1.4H413.6z"/>
		<path fill="#CCCCCC" d="M390.1,60.1l-3,0l0.3-0.6c1.2-2.4,1.2-2.7,1.9-5.7l0.1-0.3l2.6-0.1l-0.1,0.5c-0.3,2.5-0.8,3.8-1.7,6
			L390.1,60.1z M388.6,59.2l1,0c0.8-1.7,1.2-2.9,1.5-5l-0.9,0C389.6,56.7,389.4,57.3,388.6,59.2z"/>
		<path fill="#CCCCCC" d="M495,60.1l-3.1-0.2l-0.1-0.2c-0.9-2.2-1.3-3.4-1.6-5.8l-0.1-0.5l2.6,0.1l0.1,0.3c0.6,3,0.7,3.3,1.9,5.7
			L495,60.1z M492.4,59.1l1.1,0.1c-0.9-1.8-1-2.4-1.6-4.9l-0.9,0C491.3,56.2,491.6,57.3,492.4,59.1z"/>
	</g>
	<g>
		<path fill="#CCCCCC" d="M268.2,454.7C268.2,454.7,268.2,454.7,268.2,454.7c-58.9,0-111.7-0.9-129-1.3c-20.3-1.9-34.7-2.5-45.3-3
			c-23.8-1-28.7-1.2-36.7-13.1c-9.7-14.4-11.3-61.1-11.6-76.5h0l0-0.9v-3.5h0.1c0.3-15.4,1.9-62.1,11.6-76.5
			c8-11.9,12.9-12.1,36.7-13.1c10.6-0.4,25-1.1,45.2-3c17.4-0.3,70-1.3,129-1.3c51.2,0,93.2,0.7,124.9,2.1
			c15.6,0.7,29.8,1.1,43.6,1.5c62.8,1.8,100.7,2.9,102.6,26.7c3,10.3,8.8,55.8,9.4,64.8l0,1.7c-0.2,2.3-5.8,55-9.4,64.9
			c-2,23.7-39.9,24.8-102.6,26.7c-13.8,0.4-28.1,0.8-43.6,1.5C361.3,454,319.3,454.7,268.2,454.7z M47.4,359.3l0,0.6
			c0.2,10.2,1.5,61.7,11.3,76.4c7.5,11.2,11.7,11.3,35.3,12.3c10.6,0.4,25.1,1.1,45.3,3c17.3,0.3,70.1,1.3,128.9,1.3c0,0,0,0,0,0
			c51.1,0,93.1-0.7,124.8-2.1c15.6-0.7,29.8-1.1,43.6-1.5c61.8-1.8,99.2-2.9,100.9-25.2l0.1-0.2c3.6-9.4,9.3-63.9,9.4-64.5l0-1.5
			c-0.7-8.9-6.5-54.4-9.4-64.5l0-0.2c-1.8-22.3-39.1-23.4-100.9-25.2c-13.8-0.4-28.1-0.8-43.7-1.5c-31.7-1.4-73.7-2.1-124.8-2.1
			c-59,0-111.6,0.9-128.9,1.3c-20.2,1.9-34.7,2.5-45.2,3c-23.6,1-27.8,1.2-35.3,12.3c-9.8,14.7-11.1,66.2-11.3,76.4L47.4,359.3z"/>
		<path fill="#CCCCCC" d="M353.7,444.6c-63.4,0-206-1-273.9-9.9c-17.3-2.1-17.2-17-17.2-17.1c0-0.1-3-17.8-4.3-55v-8
			c1.3-37.2,4.3-54.9,4.3-55.1c0-0.1,2.4-15.4,17.2-17c88.3-11.5,303.2-9.8,305.3-9.8c1.1,0,105.5,3,136.8,11.1l-0.2,0.9
			c-31.1-8.1-135.5-11.1-136.6-11.1c-2.2,0-217-1.7-305.2,9.8c-14.2,1.5-16.4,16.1-16.5,16.3c0,0.2-3,17.9-4.3,55v7.9
			c1.3,37.1,4.2,54.8,4.3,54.9c0,0.7,0,14.3,16.5,16.3c88.2,11.5,303.1,9.8,305.2,9.8c1,0,105.5-3.1,136.6-11.2l0.2,0.9
			c-31.2,8.1-135.8,11.2-136.8,11.3C384.7,444.5,372.8,444.6,353.7,444.6z"/>
		<path fill="#CCCCCC" d="M124.5,432.2c-2.5-0.1-60.4-3.6-66-5.9l0.3-0.8c5.5,2.3,65.1,5.8,65.8,5.9L124.5,432.2z"/>
		<path fill="#CCCCCC" d="M484.4,448.6l-0.6-0.6c0.2-0.2,5-5.2,11-5.2c24.2-0.8,36.4-3.7,40.2-17.9c3-8.4,4.4-19.5,5.1-24.9
			c0.1-0.9,0.2-1.5,0.3-2c-3,1-13.8,3.2-51.2,10.1c-26.6,4.9-56.7,10.5-65.1,12.8c-17.4,4.9-18.5,11.5-18.4,13.7
			c2.3,1.1,28.7,0.8,59.5-0.8c34.8-1.7,58.6-4.1,60.8-6l0.6,0.7c-3.5,3.1-47.1,5.5-60.3,6.2c-27,1.3-57.6,2.1-61,0.7
			c-0.3-0.1-0.5-0.3-0.5-0.6c-0.2-2.1,0.6-9.5,19-14.8c8.5-2.4,37.3-7.7,65.1-12.9c24.1-4.4,49-9,51.6-10.2c0.1-0.4,0.2-0.4,0.4-0.4
			c0.1,0,0.4,0,0.5,0.5c0,0.1,0,0.2-0.1,0.4c-0.1,0.4-0.2,1.5-0.4,2.6c-0.7,5.4-2.1,16.5-5.1,25c-4.3,16-19.7,17.8-41,18.5
			C489.2,443.7,484.5,448.6,484.4,448.6z"/>
		<path fill="#CCCCCC" d="M490.9,408l-0.2-0.9c0.2,0,23.3-4.2,42.4-2.1l-0.1,0.9C514,403.8,491.1,408,490.9,408z"/>
		<path fill="#CCCCCC" d="M393.8,452.1c-0.3-0.2-7.9-4.6-9-7.9c-1-3-5.9-6.6-6-6.7l0.5-0.7c0.2,0.2,5.2,3.8,6.3,7.1
			c1,3,8.5,7.4,8.6,7.4L393.8,452.1z"/>
		<path fill="#CCCCCC" d="M58.9,291.8l-0.3-0.8c5.6-2.4,63-5.6,65.5-5.8l0,0.9C123.4,286.1,64.4,289.5,58.9,291.8z"/>
		<path fill="#CCCCCC" d="M336.1,440c-37.8,0-99.8-1.8-185.7-5.3c-6.8-0.3-11.4-0.5-12.4-0.5c-5.5-0.1-12.6-0.8-19.1-4.9l0.5-0.8
			c6.3,4,13.2,4.6,18.6,4.7c1,0,5.3,0.2,12.4,0.5c144,6,220.8,7,228.3,3c0.2-0.1,0.4-0.2,1.2-0.4c1.2-0.4,3.3-1,4-1.9l0.7,0.6
			c-0.8,1-3,1.7-4.4,2.1c-0.4,0.1-0.8,0.3-0.9,0.3C376.3,439.2,361.8,440,336.1,440z"/>
		<path fill="#CCCCCC" d="M119.7,288.5l-0.5-0.7c5.7-4.2,11.4-4.6,17-5c1.8-0.1,3.5-0.2,5.2-0.5c3.1-0.5,62.8-2.7,119.3-4
			c76.1-1.8,116-1.3,118.7,1.3c0.1,0.1,0.5,0.2,0.9,0.3c1.4,0.4,3.4,1.1,4.3,2.1l-0.7,0.6c-0.7-0.8-2.7-1.5-3.8-1.8
			c-0.8-0.2-1.1-0.3-1.2-0.5c-0.9-1.2-14.2-3.5-118.1-1.1c-59.6,1.4-116.4,3.6-119.2,4c-1.7,0.3-3.5,0.4-5.3,0.5
			C130.8,284.1,125.2,284.4,119.7,288.5z"/>
		<g>
			<path fill="#CCCCCC" d="M317.7,440.4c-44.7,0-115.4-1.6-179.8-6.2l0-0.5l-0.1-0.4c0.1,0,0.7-0.3,1.6-0.6
				c32.9-13.8,48.5-17.3,55.7-17.9c9.3-0.7,21.4-1,36-1c21.8,0,47.4,0.8,66.7,2.1c27.6,1.8,47.3,10.3,47.5,10.4
				c33.9,9.6,34.2,10.5,34.3,10.9l0.1,0.2l-0.2,0.2l0,0C377,440,339.9,440.4,317.7,440.4z M139.8,433.4
				c63.9,4.5,133.6,6.1,177.9,6.1c38.4,0,57.7-1.1,60.7-2.3c-3-1.4-21.2-6.7-33.4-10.2c-0.3-0.1-19.8-8.5-47.2-10.3
				c-19.3-1.3-44.9-2.1-66.7-2.1c-14.6,0-26.7,0.3-35.9,1C188,416.2,172.6,419.7,139.8,433.4z"/>
			<path fill="#CCCCCC" d="M231,303.5C231,303.5,231,303.5,231,303.5c-14.6,0-26.7-0.3-36-1c-7.2-0.5-22.8-4.1-55.7-18.2
				c-0.8-0.4-1.5-0.6-1.6-0.7l0.1-0.3l0-0.5C204,278.5,274.8,277,319,277c26.5,0,58.1,0.5,60.4,2.8l0,0l0.2,0.2l-0.1,0.3
				c-0.2,0.9-11.8,4.5-34.3,10.9c-0.1,0.1-19.9,8.5-47.4,10.3C278.4,302.7,252.9,303.5,231,303.5z M139.8,283.5
				c32.7,14,48.2,17.5,55.3,18.1c9.2,0.7,21.3,1,35.9,1c21.8,0,47.4-0.8,66.7-2.1c27.4-1.8,47-10.2,47.2-10.3
				c12.3-3.5,30.5-8.9,33.4-10.2c-2.4-1-19.1-2.2-59.4-2.2C275.2,277.8,205.3,279.3,139.8,283.5z"/>
		</g>
		<g>
			<path fill="#CCCCCC" d="M181.9,410.2l2-4.4l0.2,0c3.6-0.5,17.9-0.8,42.5-0.8c41.7,0,99.5,0.8,100.1,0.8l0.6,0l-1.2,4.3l-0.3,0
				c-0.6,0-58.6-0.8-100.5-0.8c-24.6,0-38.9,0.3-42.5,0.8L181.9,410.2z M225.2,408.4c40.2,0,95.3,0.7,100.2,0.8l0.7-2.6
				c-6.1-0.1-60-0.8-99.5-0.8c-24,0-38.1,0.3-42.1,0.8l-1.1,2.5C188,408.7,202,408.4,225.2,408.4z"/>
			<path fill="#CCCCCC" d="M231.4,312.1C231.4,312.1,231.4,312.1,231.4,312.1c-27.6,0-43.6-0.3-47.5-0.9l-0.3,0l-1.6-4.4l0.7,0.1
				c6.2,0.9,9.3,1.4,28.6,1.4c18.4,0,52.4-0.4,114.2-1.2l0.3,0l1.1,4.3l-0.6,0C326.1,311.5,272.6,312.1,231.4,312.1z M184.4,310.4
				c4.3,0.6,20.1,0.8,47.1,0.8c0,0,0,0,0,0c38.9,0,88.7-0.6,94.6-0.7l-0.7-2.6c-61.6,0.8-95.6,1.2-113.9,1.2
				c-18.6,0-22.2-0.4-28-1.3L184.4,310.4z"/>
		</g>
		<path fill="#CCCCCC" d="M541,320.6C541,320.6,541,320.6,541,320.6c-0.2,0-0.3,0-0.5-0.4c-2.6-1.1-27.5-5.7-51.5-10.2
			c-27.9-5.2-56.7-10.5-65.2-12.9c-18.4-5.2-19.2-12.6-19-14.8c0-0.3,0.2-0.5,0.5-0.6c3.4-1.3,33.9-0.6,61,0.7
			c13.3,0.7,56.8,3.1,60.3,6.2l-0.6,0.7c-2.2-1.9-26.1-4.3-60.8-6c-30.8-1.5-57.3-1.8-59.5-0.8c-0.1,2.1,1,8.8,18.4,13.7
			c8.4,2.4,38.5,7.9,65.1,12.9c37.4,6.9,48.2,9,51.2,10.1c-0.1-0.5-0.2-1.1-0.3-2c-0.7-5.3-2.1-16.4-5.1-24.8
			c-3.8-14.2-16-17.1-40.2-18c-6,0-10.8-4.9-11-5.2l0.6-0.6c0,0,4.8,4.9,10.4,4.9c21.4,0.7,36.8,2.5,41.1,18.6
			c3,8.5,4.5,19.6,5.1,25c0.1,1.1,0.3,2.2,0.4,2.6c0.1,0.1,0.2,0.2,0.1,0.4C541.4,320.5,541.1,320.6,541,320.6z"/>
		<path fill="#CCCCCC" d="M520.8,312.7c-15.5,0-29.9-2.5-30.1-2.5l0.2-0.9c0.2,0,23.1,4,42,1.9l0.1,0.9
			C529,312.5,524.9,312.7,520.8,312.7z"/>
		<path fill="#CCCCCC" d="M121.5,451.1h-0.9c0-0.1-0.1-2.4-4.2-2.9c-4.5-0.5-35.7-2.4-36.1-2.4c-0.1,0-15.3,0.4-20.2-13
			c-5-13.7-8.3-42.4-8.3-71.6V356c0-29.1,3.3-57.9,8.3-71.6c4.9-13.4,20.1-13,20.2-13c0.3,0,31.5-1.9,36-2.4
			c4.1-0.5,4.2-2.7,4.2-2.8l0.9,0c0,0.1-0.1,3.2-4.9,3.7c-4.5,0.5-35.8,2.4-36.1,2.4c-0.2,0-14.7-0.4-19.4,12.4
			c-4.9,13.6-8.3,42.2-8.3,71.3v5.3c0,29.1,3.3,57.7,8.3,71.3c4.6,12.8,19.2,12.4,19.3,12.4c0.4,0,31.7,1.9,36.2,2.4
			C121.4,447.9,121.5,450.9,121.5,451.1z"/>
		<g>
			<path fill="#CCCCCC" d="M119.5,429.5C119.5,429.5,119.5,429.5,119.5,429.5c-0.3,0-0.4,0-0.6-0.1c-0.1-0.1-0.3-0.1-0.5-0.2
				c-14.9-6.2-23.8-28.6-25.2-63.1c-0.1-1.8-0.2-3.4-0.2-5c0-0.5,0-1,0-1.5l0-0.9l0-0.9c0-0.5,0-1,0-1.5c0-1.6,0.1-3.3,0.2-5.1
				c1.4-34.5,10.3-56.9,25.3-63.2c0.2-0.1,0.4-0.2,0.5-0.2c0.1-0.1,0.3-0.1,0.6-0.1c5,0,53.2,14.1,55.3,14.7c0.1,0,5.3,0.7,8,4.5
				c1.5,2.1,2,4.7,1.4,7.7c-4.1,21.6-4.1,67.8,0,88.2c1.9,9.6-9.3,12.1-9.4,12.2C172.9,415.5,124.5,429.5,119.5,429.5z M119.4,428.6
				c0,0,0.1,0,0.1,0c4.9,0,54.6-14.4,55.1-14.6c0.5-0.1,10.5-2.3,8.8-11.1c-4.1-20.5-4.1-66.8,0-88.5c0.5-2.8,0.1-5.1-1.3-7
				c-2.5-3.4-7.4-4.1-7.5-4.1c-0.6-0.2-50.2-14.7-55.1-14.7c-0.1,0-0.2,0-0.2,0c-0.1,0.1-0.3,0.1-0.6,0.3
				c-14.6,6.1-23.4,28.3-24.7,62.4c-0.1,1.8-0.2,3.4-0.2,5c0,0.5,0,1,0,1.5l0,0.9l0,0.9c0,0.5,0,1,0,1.5c0,1.6,0.1,3.2,0.2,5
				c1.3,34.1,10.1,56.3,24.6,62.3C119.1,428.4,119.3,428.5,119.4,428.6C119.4,428.6,119.4,428.6,119.4,428.6z"/>
			<path fill="#CCCCCC" d="M390.9,436.7C390.9,436.7,390.9,436.7,390.9,436.7c-4.1,0-6.9-1.4-7-1.5c-0.4-0.1-50.8-14.4-56.6-15.8
				c-1.3-0.3-2.3-1-2.8-2.1c-1.1-2.1-0.2-4.8-0.1-4.9c0.1-0.2,7.5-21.8,7.7-53.8c-0.2-32-7.6-53.6-7.7-53.8c0-0.1-1.1-2.6-0.1-4.7
				c0.6-1.1,1.6-1.9,3.1-2.2c5.7-1.4,54.8-15.3,56.6-15.9c0.4-0.2,3-1.5,6.8-1.5c7.7,0,21.7,5.5,30,42.1c4.1,16.5,4.1,56.2,0,72
				C413.2,431.2,398.8,436.7,390.9,436.7z M390.8,281.4c-3.8,0-6.4,1.4-6.4,1.4c-0.6,0.2-51,14.5-56.8,15.9
				c-1.2,0.3-2.1,0.9-2.5,1.8c-0.8,1.7,0.1,4,0.1,4c0.1,0.2,7.5,22,7.8,54.1c-0.2,32.1-7.7,53.9-7.8,54.1c0,0-0.8,2.4,0.1,4.2
				c0.4,0.8,1.2,1.3,2.3,1.6c5.8,1.4,56.2,15.7,56.7,15.9c0.1,0,2.8,1.4,6.7,1.4c7.6,0,21.6-5.4,29-41.3c4.1-15.8,4.1-55.2,0-71.6
				C411.8,286.8,398.1,281.4,390.8,281.4z"/>
		</g>
		<g>
			<path fill="#CCCCCC" d="M121.1,425.4L121.1,425.4c-0.2,0-0.4,0-0.5-0.1c-0.1-0.1-0.3-0.1-0.5-0.2c-14.6-6.1-22.9-29-23.3-64.4
				c0-0.5,0-3.7,0-4.1c0.4-35.4,8.7-58.3,23.3-64.4c0.2-0.1,0.4-0.2,0.5-0.2c0.1-0.1,0.3-0.1,0.5-0.1c4.6,0,49.1,12.9,51,13.4
				c0.1,0,10.1,3.2,8.7,11.2c-2.4,13.4-4.5,65.2,0,84.2c1.6,6.9-8.2,11-8.6,11.2C170.1,412.5,125.7,425.4,121.1,425.4z M121.1,292.7
				c-0.1,0-0.1,0-0.1,0c-0.1,0-0.3,0.1-0.5,0.2c-14.3,6-22.4,28.5-22.8,63.6c0,0.5,0,3.6,0,4.1c0.4,35.1,8.5,57.6,22.8,63.6
				c0.3,0.1,0.4,0.2,0.6,0.3c0,0,0,0,0.1,0c4.5,0,50.3-13.3,50.7-13.4c0.1,0,9.5-4,8.1-10.2c-4.5-19.1-2.4-71.1,0-84.6
				c1.3-7.3-8-10.2-8.1-10.2C171.3,306,125.5,292.7,121.1,292.7z"/>
			<path fill="#CCCCCC" d="M384.7,432C384.7,432,384.7,432,384.7,432c-2,0-3.4-0.8-3.7-1c-2-0.6-45.5-12.6-50.7-14
				c-1.3-0.3-2.2-1-2.6-2c-1-2,0.2-4.6,0.2-4.7c0.1-0.2,6.8-21.7,6.9-51.7c-0.1-30-6.9-51.5-6.9-51.7c0-0.1-1.2-2.7-0.3-4.7
				c0.5-1,1.4-1.7,2.7-2c5.2-1.2,48.7-13.4,50.7-14c0.3-0.2,1.7-1,3.8-1c5.3,0,15.1,5.3,21.9,40.9c3.1,11.9,3.2,32.3,3.1,32.4
				c0,0.1-0.7,20.9-3.2,32.4C399.5,426.7,389.8,432,384.7,432z M384.8,286.2c-2,0-3.3,0.9-3.3,0.9l-0.1,0.1
				c-0.5,0.1-45.5,12.8-50.8,14c-1,0.2-1.8,0.8-2.1,1.5c-0.8,1.6,0.3,4,0.3,4c0.1,0.3,6.9,21.9,7,52c-0.1,30.1-6.9,51.8-7,52
				c0,0.1-1,2.4-0.2,4c0.4,0.7,1.1,1.3,2.1,1.5c5.3,1.4,50.4,13.9,50.8,14l0.1,0.1c0,0,1.3,0.9,3.3,0.9c4.9,0,14.1-5.2,21.1-40.2
				c2.4-11.4,3.1-32.1,3.1-32.2c0-0.2,0-20.4-3.1-32.2C399.1,291.4,389.7,286.2,384.8,286.2z"/>
		</g>
		<g>
			<path fill="#CCCCCC" d="M353,464.3L353,464.3c-1.4,0-2.5-0.5-3-1.4c-0.6-1-0.6-2.2,0.1-3.6l8.7-17.5l0.4,0.1
				c0.4,0.1,0.8,0.2,1.1,0.2c0.8,0,1-0.3,1.4-0.9c0.4-0.6,0.9-1.3,2.3-1.3l12.4,2.4c0.4,0,0.6,0.1,0.7,0.4c0.2,0.6-0.5,1.1-4.2,3.1
				c-2.8,1.5-6.6,3.6-7.1,4.8l-5.3,9.2C359,462.3,355.8,464.3,353,464.3z M359.2,442.9l-8.3,16.9c-0.5,1.1-0.6,2-0.1,2.7
				c0.4,0.7,1.2,1,2.3,1l0,0.4v-0.4c2.4,0,5.3-1.8,6.4-4.1l5.3-9.2c0.6-1.3,3.6-3,7.5-5.1c1.2-0.7,2.7-1.5,3.4-2l-11.9-2.3
				c-0.8,0-1.1,0.4-1.5,0.9c-0.4,0.6-0.9,1.2-2.1,1.2C359.9,443,359.6,442.9,359.2,442.9z"/>
			<path fill="#CCCCCC" d="M363.8,277.3c-1.4,0-1.9-0.7-2.3-1.3c-0.4-0.5-0.6-0.9-1.4-0.9c-0.3,0-0.7,0.1-1.1,0.2l-0.4,0.1
				l-8.7-17.5c-0.7-1.3-0.7-2.6-0.1-3.6c0.6-0.9,1.6-1.4,3-1.4c2.8,0,6,2,7.2,4.6l5.3,9.1c0.6,1.2,4.4,3.3,7.2,4.8
				c3.7,2,4.4,2.5,4.2,3.1c-0.1,0.3-0.3,0.4-0.8,0.4L363.8,277.3z M360.2,274.3c1.2,0,1.7,0.7,2.1,1.2c0.4,0.5,0.6,0.9,1.5,0.9
				l0,0.4l0-0.4l11.8-2.3c-0.7-0.5-2.1-1.3-3.4-1.9c-3.9-2.1-6.9-3.9-7.5-5.2l-5.3-9.1c-1.1-2.3-4-4.1-6.4-4.1c-1.1,0-1.9,0.4-2.3,1
				c-0.4,0.7-0.4,1.7,0.1,2.7l8.3,16.9C359.6,274.3,359.9,274.3,360.2,274.3z"/>
		</g>
		<g>
			<path fill="#CCCCCC" d="M516.7,436.8L516.7,436.8L516.7,436.8l-0.2-0.8c0.2-0.1,16.3-7.6,16-30.3l0-0.1l0-0.1
				c1.5-4.1,4.3-4.3,4.9-4.3c0.1,0,0.1,0,0.1,0l0.4,0l0,0.4c0,0.5-1.1,11.5-3.5,17.6C530,436.6,517.3,436.8,516.7,436.8z
				 M533.5,405.8c0.2,18.4-10.2,27.1-14.6,29.9c3.8-0.8,11.5-3.9,14.8-16.6c2.1-5.3,3.2-14.6,3.4-16.9
				C536.2,402.4,534.5,403,533.5,405.8z"/>
			<path fill="#CCCCCC" d="M537.5,316c-0.5,0-3.3-0.2-4.9-4.3l0-0.1l0-0.1c0.3-22.7-15.9-30.2-16-30.3l0.2-0.8c0,0,0,0,0,0
				c0.6,0,13.3,0.2,17.8,17.5c2.4,6,3.4,17.1,3.5,17.5l0,0.4l-0.4,0C537.6,316,537.5,316,537.5,316z M533.5,311.5
				c1.1,2.8,2.8,3.4,3.6,3.6c-0.2-2.3-1.3-11.6-3.4-16.8c-3.3-12.7-11.1-15.9-14.8-16.7C523.2,284.4,533.6,293.1,533.5,311.5z"/>
		</g>
		<path fill="#CCCCCC" d="M537,395.4C537,395.4,537,395.4,537,395.4c-1,0-1.7-0.3-2.1-0.8c-0.4-0.6-0.5-1.4-0.2-2.5
			c1.3-4.4,2.3-26.8,2.6-33.5c-0.3-6.7-1.2-29-2.6-33.4c-0.3-1.1-0.3-1.9,0.2-2.5c0.4-0.5,1.1-0.8,2.1-0.8c2.3,0,5.4,1.4,5.6,1.5
			l0.2,0.1l0,0.3c0.3,3.5,3.2,33.8,3.1,35c0.1,1.1-2.8,31.5-3.1,34.9l0,0.3l-0.2,0.1C542.4,394,539.3,395.4,537,395.4z M537,322.7
			c-0.7,0-1.2,0.2-1.4,0.5c-0.3,0.4-0.2,1.2,0,1.7c1.4,4.5,2.4,26.9,2.6,33.7c-0.3,6.8-1.2,29.2-2.6,33.7c-0.2,0.5-0.3,1.3,0,1.7
			c0.2,0.3,0.7,0.5,1.4,0.5c1.7,0,4.2-1,5-1.3c0.9-9.6,3.1-33.6,3.1-34.6c0.1-1-2.2-25.1-3.1-34.6
			C541.2,323.7,538.7,322.7,537,322.7z"/>
		<path fill="#CCCCCC" d="M379.3,280.4l-0.5-0.7c0,0,5-3.7,6-6.7c1.1-3.3,8.7-7.6,9-7.8l0.4,0.8c-0.1,0-7.6,4.3-8.6,7.3
			C384.5,276.6,379.5,280.3,379.3,280.4z"/>
		<g>
			<path fill="#CCCCCC" d="M277,439.9l-13.8-0.3l-0.1-0.4c0-0.1-2.5-12.7-4.5-24.5l-0.1-0.3l0.3-0.1c0.1-0.1,0.4-0.1,1.1-0.1
				c1.9,0,5.9,0.3,6.1,0.3l0.3,0l0.1,0.3c0.1,0.1,5.3,14.6,10.3,24.4L277,439.9z M263.9,438.7l11.6,0.2c-4.6-9-9.2-21.6-9.9-23.6
				c-1-0.1-4.1-0.3-5.7-0.3c-0.2,0-0.3,0-0.4,0C261.4,425.6,263.5,436.7,263.9,438.7z"/>
			<path fill="#CCCCCC" d="M260.6,303.1c-1.4,0-1.6-0.1-1.8-0.1l-0.3-0.1l0.1-0.3c2.6-13.9,4.7-24.1,4.7-24.2l0.1-0.3l13.3-0.3
				l-0.3,0.6c-3.5,8-10,24.2-10.1,24.4l-0.1,0.3l-0.3,0C265.8,302.9,262.6,303.1,260.6,303.1z M259.5,302.2c0.2,0,0.5,0,1.1,0
				c1.6,0,4.1-0.1,4.9-0.2c0.8-2.1,6.4-15.9,9.7-23.5l-11.2,0.2C263.7,280.7,261.8,290,259.5,302.2z"/>
			<path fill="#CCCCCC" d="M185.3,436.9l-7.7-0.3l0.5-0.7c0.1-0.1,10.3-13.5,17.6-21.1l0.1-0.1l8.4-0.4l-0.8,0.8
				c-7.3,7.6-17.9,21.5-18,21.7L185.3,436.9z M179.3,435.8l5.5,0.2c1.2-1.6,10.4-13.5,17.2-20.7l-5.8,0.3
				C189.9,422.2,181.5,433,179.3,435.8z"/>
			<path fill="#CCCCCC" d="M204.2,303.1l-8.2-0.5l-0.1-0.1c-7.9-9-17.5-21-17.6-21.1l-0.5-0.7l7.6-0.5l0.1,0.2
				c0.1,0.1,10.2,12.9,18.1,21.9L204.2,303.1z M196.4,301.7l5.7,0.3c-7.3-8.3-16-19.4-17.3-21l-5.4,0.4
				C181.6,284,189.6,293.9,196.4,301.7z"/>
		</g>
		<path fill="#CCCCCC" d="M198.6,302.5L181,281.2c-4.8-7-7-11.3-4.7-14.2c3.5-3.8,14.3-3.6,14.8-3.5l0,0.9c-0.1,0-10.8-0.2-14.1,3.2
			c-1.9,2.4,0.3,6.6,4.7,13.1l17.5,21.2L198.6,302.5z"/>
		<path fill="#CCCCCC" d="M190.6,453.9c-2.3,0-11.1-0.2-14.2-3.5c-2.3-2.9-0.2-7.2,4.6-14.2l17.5-21.3l0.7,0.6l-17.5,21.2
			c-4.4,6.4-6.6,10.6-4.7,13.1c3.2,3.4,13.9,3.2,14,3.2l0,0.9C191.1,453.9,190.9,453.9,190.6,453.9z"/>
		<path fill="#CCCCCC" d="M274.7,454c-0.2-0.4-4.8-8.7-3.1-14.6l-9.1-24.4l0.8-0.3l9.2,24.7l0,0.1c-1.8,5.6,2.9,13.9,2.9,14
			L274.7,454z"/>
		<path fill="#CCCCCC" d="M263.3,302.2l-0.8-0.3l9.5-23.7c-1.8-5.9,2.5-14.5,2.7-14.9l0.8,0.4c0,0.1-4.4,8.8-2.6,14.4l0,0.2
			L263.3,302.2z"/>
	</g>
	<g>
		<g>
			<path fill="#CCCCCC" d="M74.4,103l-0.8-3.8L60,96.7c-2.8-0.6-5.5-1.1-5.5-6.5c0.3-6.8,2-7.9,5.9-7.9l11.4,0.6
				c3.2,0.6,4.2,4,5,7.1c0.3,1,0.5,2,0.8,2.8l3.3,1.2l-2,4.7L74.4,103z M60.3,83.1c-3.2,0-4.7,0.7-4.9,7c0,4.7,2,5.1,4.8,5.6
				l14.2,2.7l0.6,2.7L78,98l1.5-3.6l-2.8-1l-0.1-0.2c-0.4-0.9-0.7-1.9-0.9-3.1c-0.8-2.9-1.6-5.9-4.2-6.4L60.3,83.1z"/>
			<path fill="#CCCCCC" d="M246.8,103l-4.4-4.6l-1.9-4.6l3.3-1.2c0.3-0.8,0.6-1.7,0.8-2.8c0.8-3,1.7-6.5,4.9-7.1l11.4-0.6
				c0,0,0,0,0,0c3.9,0,5.6,1.1,5.9,7.9c0,5.4-2.7,6-5.5,6.5l-13.6,2.6L246.8,103z M243.2,98l3.1,3.2l0.6-2.7l14.2-2.7
				c2.8-0.5,4.8-0.9,4.8-5.6c-0.2-6.4-1.7-7-5-7l-11.3,0.6c-2.6,0.5-3.4,3.5-4.1,6.4c-0.3,1.1-0.6,2.2-1,3.1l-0.1,0.2l-2.8,1
				L243.2,98z"/>
		</g>
		<g>
			<path fill="#CCCCCC" d="M90.7,182.2v19.4c0,2.2-1.6,3.8-3.8,3.8H72c-2.2,0-3.8-1.6-3.8-3.8v-50.3
				C68.2,151.3,69.9,186.4,90.7,182.2z"/>
		</g>
		<g>
			<path fill="#CCCCCC" d="M230.9,182.2v19.4c0,2.2,1.6,3.8,3.8,3.8h14.9c2.2,0,3.8-1.6,3.8-3.8v-50.3
				C253.4,151.3,251.8,186.4,230.9,182.2z"/>
		</g>
		<g>
			<path fill="#CCCCCC" d="M234,183.3c-1.4,0-2.8-0.2-4.3-0.7c-8.6-2.1-31.6-3.3-63-3.3c-2,0-4,0-6,0v0l-0.4,0c-2,0-4,0-6,0
				c-31.4,0-54.3,1.2-63,3.3c-1.4,0.4-2.8,0.6-4.2,0.6c-4.1,0-7.8-1.9-11-5.6c-7.1-8.3-10.4-24.9-8.8-34.5l0.1-0.7h186.2l0.1,0.7
				c1.5,9.6-1.7,26.2-8.8,34.5C241.8,181.4,238.1,183.3,234,183.3z M166.8,177.6c31.5,0,54.6,1.2,63.4,3.4c1.3,0.4,2.6,0.6,3.8,0.6
				c3.5,0,6.8-1.7,9.6-5c6.6-7.7,9.7-23,8.5-32.3H69.1c-1.2,9.3,1.9,24.6,8.5,32.3c3.8,4.5,8.3,6,13.4,4.4c8.9-2.2,32-3.4,63.5-3.4
				c2.1,0,4.1,0,6.2,0C162.7,177.6,164.7,177.6,166.8,177.6z"/>
			<path fill="#CCCCCC" d="M253.7,144.2H67.6l-0.2-0.7c-5.5-24.8,3.9-41.9,10.2-45.5c7.3-20.7,22.4-49.4,30.6-49.4
				c0.9,0,1.6,0.3,2.3,0.8c17.5-1.7,33.4-2.5,50.1-2.6l1.8,0c14.7,0,30.1,0.8,48.4,2.6c0.7-0.6,1.4-0.8,2.3-0.8
				c8.2,0,23.3,28.7,30.6,49.4c6.3,3.6,15.7,20.7,10.2,45.5L253.7,144.2z M69,142.4h183.2c4.8-22.8-3.6-39.9-9.7-43l-0.3-0.2
				l-0.1-0.3c-7.7-21.8-22.6-48.5-29-48.5c-0.5,0-0.9,0.2-1.3,0.6l-0.3,0.3l-0.4,0c-18.4-1.8-33.8-2.6-48.6-2.6l-1.8,0
				c-16.8,0.1-32.8,0.9-50.4,2.6l-0.4,0l-0.3-0.3c-0.4-0.4-0.8-0.6-1.3-0.6c-6.5,0-21.4,26.7-29,48.5l-0.1,0.3l-0.3,0.2
				C72.6,102.6,64.2,119.6,69,142.4z"/>
		</g>
		<path fill="#CCCCCC" d="M87.1,122.5l-5.5-15.3c-0.9-5.1,1.3-6.8,3.6-8.7c0.3-0.2,0.6-0.5,0.9-0.7l0.6,0.7
			c-0.3,0.3-0.6,0.5-0.9,0.7c-2.3,1.8-4.1,3.3-3.3,7.7l5.5,15.2L87.1,122.5z"/>
		<path fill="#CCCCCC" d="M87.1,122.5l-5.5-15.3c-0.9-5.1,1.3-6.8,3.6-8.7c0.3-0.2,0.6-0.5,0.9-0.7l0.6,0.7
			c-0.3,0.3-0.6,0.5-0.9,0.7c-2.3,1.8-4.1,3.3-3.3,7.7l5.5,15.2L87.1,122.5z"/>
		<path fill="#CCCCCC" d="M85.8,124.1l-0.8-0.8c-5.2-4.8-10.5-9.9-12.2-19.3l0.9-0.2c1.6,9.2,6.9,14.1,12,18.8l0.8,0.8L85.8,124.1z"
			/>
		<path fill="#CCCCCC" d="M79.4,126.2l-0.1-0.1c-4.5-2.9-9.6-6.3-11.5-10.5l0.8-0.4c1.8,4,6.8,7.2,11.2,10.1l0.1,0.1L79.4,126.2z"/>
		<path fill="#CCCCCC" d="M77.8,98.3l0.3-0.7c3.1-8.1,11.1-28.1,20.1-39.9l0.7,0.5c-7.7,13.5-12.4,25.1-17.5,39.4l-0.1,0.3
			L77.8,98.3z M93.3,66.6c-6.3,10.9-11.7,24-14.2,30.6l1.5-0.2C84.6,86,88.3,76.6,93.3,66.6z"/>
		<path fill="#CCCCCC" d="M105.9,168.8c-2.2,0-4.3-0.1-6.1-0.2c-5.9-0.4-9.6-1.5-10.8-3.4c-0.9-1.2-1.1-2.1-0.8-2.8
			c0.5-1,2.2-1.1,4.4-1H114c2.4,0.1,3.4,0.6,3.7,3.2l0,0.2c0,2.5-0.2,3.3-4.5,3.9C110.6,168.8,108.1,168.8,105.9,168.8z M91.8,162.2
			c-0.7,0-2.5,0-2.8,0.6c-0.1,0.2-0.1,0.7,0.7,1.9c1.1,1.6,4.6,2.7,10.2,3c3.6,0.3,8.1,0.3,13.3,0c3.7-0.5,3.7-0.8,3.7-3v-0.1
			c-0.3-2.1-0.8-2.3-2.9-2.4H92.6C92.3,162.2,92,162.2,91.8,162.2z"/>
		<path fill="#CCCCCC" d="M109.3,57.9l-2.6,0l0.3-0.6c1.1-2.3,1.9-4,2.5-7l0.1-0.3l2-0.1l-0.1,0.5c-0.3,2.2-1.1,4.9-2.1,7.3
			L109.3,57.9z M108.2,57l0.6,0c0.9-2.1,1.6-4.3,1.9-6.2l-0.2,0C109.8,53.4,109.1,55,108.2,57z"/>
		<path fill="#CCCCCC" d="M131,143.7c-3.9,0-9.7-2.3-12.1-4H78.2l-2,3.6l-0.8-0.4l2.3-4.1h41.5l0.1,0.1c2.2,1.6,8,3.9,11.7,3.9
			V143.7z"/>
		<path fill="#CCCCCC" d="M115.9,122.8H87.6v-0.9h27.5c0.6-7.1-8.8-16.2-22.5-21.9l0.3-0.8c14.6,6,24.1,15.5,23,23.2L115.9,122.8z"
			/>
		
			<rect x="79.2" y="130.5" transform="matrix(7.633497e-002 0.9971 -0.9971 7.633497e-002 210.1477 35.002)" fill="#CCCCCC" width="13.9" height="0.9"/>
		<path fill="#CCCCCC" d="M234.1,122.5l-0.8-0.3l5.5-15.3c0.8-4.4-1-5.8-3.3-7.7c-0.3-0.2-0.6-0.5-0.9-0.7l0.6-0.7
			c0.3,0.2,0.6,0.5,0.9,0.7c2.3,1.8,4.5,3.6,3.6,8.6L234.1,122.5z"/>
		<path fill="#CCCCCC" d="M235.5,124.1l-0.6-0.6l0.8-0.8c5.1-4.7,10.3-9.7,12-18.8l0.9,0.2c-1.7,9.4-7,14.5-12.2,19.3L235.5,124.1z"
			/>
		<path fill="#CCCCCC" d="M241.8,126.2l-0.5-0.7l0.1-0.1c4.4-2.9,9.4-6.1,11.2-10.1l0.8,0.4c-1.9,4.2-7,7.5-11.5,10.5L241.8,126.2z"
			/>
		<path fill="#CCCCCC" d="M235.8,98.5l-0.6,0c-22.4-1-46.1-1.5-70.4-1.5c-1.4,0-2.9,0-4.3,0c-1.4,0-2.9,0-4.3,0
			c-24.3,0-47.9,0.5-70.4,1.5l-0.6,0l0.1-0.5c2.8-15.4,8.8-29,17.5-40.4l0.1-0.2l0.2,0c19.7-1.5,37.9-2.2,57.3-2.2l1,0
			c18.3,0,36.2,0.7,56.3,2.3l0.2,0l0.1,0.2c8.8,11.3,14.7,24.9,17.5,40.4L235.8,98.5z M103.6,58.3c-8.5,11.1-14.3,24.3-17.1,39.3
			c22.3-1,45.8-1.5,69.8-1.5c1.4,0,2.9,0,4.3,0c1.4,0,2.9,0,4.3,0c24.1,0,47.6,0.5,69.8,1.5c-2.8-15-8.6-28.2-17.1-39.3
			c-20-1.5-37.8-2.2-56-2.2l-1,0C141.4,56.1,123.3,56.8,103.6,58.3z"/>
		<path fill="#CCCCCC" d="M243.5,98.3l-3.5-0.5l-0.1-0.3c-5.1-14.3-9.8-25.9-17.5-39.4l0.7-0.5c9,11.8,17,31.8,20.1,39.9L243.5,98.3
			z M240.6,97l1.5,0.2c-2.5-6.6-7.8-19.8-14.2-30.6C232.9,76.6,236.7,86,240.6,97z"/>
		<path fill="#CCCCCC" d="M215.3,168.8c-2.2,0-4.7-0.1-7.3-0.2c-4.4-0.6-4.5-1.4-4.5-3.9v-0.1c0.4-2.7,1.3-3.2,3.7-3.3h21.5
			c0.3,0,0.5,0,0.8,0c1.8,0,3.1,0.2,3.6,1.1c0.3,0.7,0.1,1.6-0.8,2.8c-1.3,1.9-4.9,3-10.8,3.4C219.6,168.8,217.6,168.8,215.3,168.8z
			 M229.5,162.2c-0.3,0-0.5,0-0.8,0h-21.5c-2,0.1-2.6,0.3-2.8,2.4l0,0c0,2.2,0,2.5,3.7,3c2.6,0.1,5,0.2,7.2,0.2h0
			c2.2,0,4.2-0.1,6-0.2c5.6-0.3,9.1-1.4,10.2-3c0.9-1.2,0.8-1.7,0.7-1.9C231.9,162.2,230.1,162.2,229.5,162.2z"/>
		<path fill="#CCCCCC" d="M176.4,141.5h-31.5c-23-0.3-23.9-3.1-26.1-9.7l0-0.1c-1.5-4.5-1.7-7.1-0.7-8.6c1.3-1.9,4.3-1.9,8.5-2
			c1.1,0,2.2,0,3.4-0.1c9.6-0.4,19.9-0.5,30.7-0.6l0.4,0c9.7,0,19.5,0.4,29,0.7l1.3,0c1.3,0.1,2.6,0.1,3.7,0.1
			c4,0.1,6.9,0.1,8.2,1.9c1.1,1.5,0.9,4.1-0.7,8.5C200.4,138.6,199.5,141.2,176.4,141.5L176.4,141.5z M161,121.3h-0.4
			c-10.8,0-21.1,0.2-30.7,0.6c-1.2,0.1-2.4,0.1-3.4,0.1c-3.9,0.1-6.7,0.2-7.8,1.7c-0.9,1.3-0.6,3.7,0.8,7.8l0,0.1
			c2.1,6.2,3,8.8,25.3,9.1h31.5c22.5-0.3,23.2-2.5,25.3-9.2c1.4-4.1,1.7-6.5,0.8-7.7c-1-1.4-3.7-1.5-7.5-1.5c-1.2,0-2.4,0-3.8-0.1
			l-1.3,0C180.5,121.7,170.6,121.3,161,121.3z"/>
		<path fill="#CCCCCC" d="M175.2,140.4C175.2,140.4,175.2,140.4,175.2,140.4c-1.7,0-3.6,0-5.5-0.1h-18.1c-1.9,0-3.7,0.1-5.4,0.1
			c-23.4,0-24.5-3.5-25.9-8.3l-0.2-0.6c-1.4-4-1.6-6.3-0.7-7.6c1-1.4,3-1.5,5.9-1.5c0.9,0,2,0,3.1-0.1c6.1-0.3,12.7-0.4,21.3-0.4
			c3.6,0,7.1,0,10.6,0l0.3,0c1.6,0,3.1,0,4.7,0c10.1,0,19.1,0.2,27.5,0.6c1.2,0.1,2.3,0.1,3.3,0.1c2.8,0,4.8,0.1,5.7,1.4
			c0.9,1.3,0.7,3.5-0.7,7.5l-0.2,0.7C199.5,136.9,198.4,140.4,175.2,140.4z M169.7,139.4c2,0,3.8,0.1,5.5,0.1
			c22.6,0,23.6-3.2,24.9-7.6l0.2-0.7c1.2-3.6,1.5-5.8,0.8-6.7c-0.7-1-2.5-1-5-1.1c-1,0-2.1,0-3.4-0.1c-8.4-0.4-17.4-0.6-27.5-0.6
			c-1.6,0-3.2,0-4.7,0l-0.3,0c-3.5,0-7.1,0-10.6,0c-8.6,0-15.2,0.1-21.3,0.4c-1.1,0.1-2.2,0.1-3.1,0.1c-2.6,0.1-4.5,0.1-5.2,1.2
			c-0.7,1-0.4,3.2,0.8,6.8l0.2,0.6c1.5,4.8,2.6,8.1,30.5,7.6H169.7z"/>
		<path fill="#CCCCCC" d="M211.9,57.9l-0.1-0.3c-1.1-2.4-1.8-5.1-2.1-7.3l-0.1-0.5l2,0.1l0.1,0.3c0.6,3,1.4,4.7,2.5,7l0.3,0.6
			L211.9,57.9z M210.6,50.8c0.3,1.9,1,4.1,1.9,6.2l0.6,0c-0.9-2-1.6-3.6-2.2-6.2L210.6,50.8z"/>
		<g>
			<path fill="#CCCCCC" d="M234,97.1l-0.6,0c-24.4-1.2-47.8-1.7-71.5-1.7h-2.4c-23.8,0-47.2,0.6-71.6,1.7l-0.6,0l0.1-0.6
				C90.6,82,96.2,69.4,104.1,59l0.1-0.2l0.2,0c17.4-1.5,33.4-2.2,50.2-2.2c1.9,0,3.8,0,5.7,0h0.4c1.9,0,3.8,0,5.7,0
				c16.8,0,32.8,0.7,50.2,2.2l0.2,0l0.1,0.2c7.9,10.3,13.5,22.9,16.7,37.6L234,97.1z M161.8,94.5c23.6,0,46.8,0.6,71,1.7
				c-3.2-14.2-8.7-26.5-16.3-36.5c-17.3-1.5-33.2-2.2-50-2.2c-1.9,0-3.8,0-5.7,0h-0.4c-1.9,0-3.8,0-5.7,0c-16.8,0-32.6,0.7-50,2.2
				c-7.7,10.1-13.2,22.4-16.4,36.5c24.2-1.1,47.4-1.7,71.1-1.7l1.5,0L161.8,94.5z"/>
			<g>
				<path fill="#CCCCCC" d="M119.7,138.5l-37.4-0.1c-2.5,0-3.8-0.4-4.6-1.3c-1-1.1-0.7-2.9-0.4-5.5l0-0.3c1.3-7.3,3.3-7.8,6.5-8
					c0.3,0,0.6,0,0.9-0.1l30.1,0L119.7,138.5z M84.8,124.1c-0.3,0-0.6,0-0.8,0.1c-2.6,0.2-4.4,0.3-5.7,7.3l0,0.3
					c-0.3,2.4-0.6,4,0.2,4.8c0.6,0.7,1.8,1,3.9,1l36.2,0.1l-4.3-13.5H84.8z"/>
				<path fill="#CCCCCC" d="M201.5,138.5l4.9-15.3h30.1c0.3,0,0.6,0.1,0.9,0.1c3.2,0.2,5.2,0.7,6.5,8l0,0.3c0.4,2.6,0.6,4.4-0.4,5.5
					c-0.8,0.9-2.1,1.3-4.6,1.3L201.5,138.5z M207,124.1l-4.3,13.5l36.2-0.1c2.1,0,3.4-0.3,3.9-1c0.7-0.8,0.5-2.4,0.2-4.8l0-0.3
					c-1.3-6.9-3-7.1-5.7-7.3c-0.3,0-0.6,0-0.9-0.1L207,124.1z"/>
			</g>
		</g>
		<path fill="#CCCCCC" d="M195.6,169h-70c-2.1,0-3.8-1.2-3.8-2.8v-1.9c0-1.5,1.6-2.7,3.8-2.7h70c2.2,0,3.8,1.2,3.8,2.7v1.9
			C199.4,167.8,197.8,169,195.6,169z M125.6,162.6c-1.6,0-2.9,0.8-2.9,1.8v1.9c0,1,1.3,1.9,2.9,1.9h70c1.6,0,2.9-0.8,2.9-1.9v-1.9
			c0-1-1.3-1.8-2.9-1.8H125.6z"/>
		<path fill="#CCCCCC" d="M190.4,143.8v-0.9c3.7,0,9.2-2.3,11.5-4l0.1-0.1h41.5l2.3,4.1l-0.8,0.4l-2.1-3.6h-40.7
			C199.8,141.4,194.2,143.8,190.4,143.8z"/>
		<path fill="#CCCCCC" d="M233.6,122.8h-28.3l-0.1-0.4c-1.1-7.7,8.4-17.2,23-23.2l0.3,0.8c-13.8,5.6-23.1,14.8-22.5,21.9h27.5V122.8
			z"/>
		<path fill="#CCCCCC" d="M236.7,100.2c-26.7-1.1-51.6-1.6-76-1.6c-25,0-49.9,0.6-76,1.6l0-0.9c26.1-1.1,51-1.6,76.1-1.6
			c24.4,0,49.3,0.5,76.1,1.6L236.7,100.2z"/>
		<path fill="#CCCCCC" d="M252.2,160.2H69l-0.1-0.3c0-0.1-1.6-6-1.4-12.8l0-0.4h186.4l0,0.4c0,0.2,0.5,5.5-1.6,12.9L252.2,160.2z
			 M69.6,159.3h181.9c1.7-5.9,1.6-10.5,1.5-11.8H68.4C68.3,153.1,69.3,158,69.6,159.3z"/>
		<path fill="#CCCCCC" d="M187.3,159H134c-1.3,0-2.4-1.2-2.4-2.8v-7.5c0-1.6,1-2.8,2.4-2.8h53.3c1.4,0,2.4,1.2,2.4,2.8v7.5
			C189.7,157.8,188.6,159,187.3,159z M134,146.9c-1.1,0-1.6,1-1.6,1.9v7.5c0,1,0.7,1.9,1.6,1.9h53.3c0.9,0,1.6-0.8,1.6-1.9v-7.5
			c0-0.9-0.5-1.9-1.6-1.9H134z"/>
		
			<rect x="234.6" y="124" transform="matrix(0.9971 7.585578e-002 -7.585578e-002 0.9971 10.6088 -17.4541)" fill="#CCCCCC" width="0.9" height="13.9"/>
		<rect x="125.6" y="137.2" fill="#CCCCCC" width="70.3" height="0.9"/>
		<rect x="122.6" y="135.3" fill="#CCCCCC" width="76.2" height="0.9"/>
		<rect x="119.6" y="127.7" fill="#CCCCCC" width="82.1" height="0.9"/>
		<rect x="120.1" y="129.8" fill="#CCCCCC" width="81" height="0.9"/>
		<rect x="120.8" y="131.8" fill="#CCCCCC" width="79.6" height="0.9"/>
		<rect x="121.4" y="133.6" fill="#CCCCCC" width="78.4" height="0.9"/>
		<rect x="119.4" y="125.8" fill="#CCCCCC" width="82.6" height="0.9"/>
		<rect x="119.5" y="123.9" fill="#CCCCCC" width="82.3" height="0.9"/>
	</g>
	<rect x="571" y="277.5" fill="#CCCCCC" width="1" height="159"/>
	<rect x="571" y="59.5" fill="#CCCCCC" width="1" height="141.1"/>
	<rect x="19.5" y="49.1" fill="#CCCCCC" width="89.4" height="1"/>
	<rect x="18" y="448.1" fill="#CCCCCC" width="62.9" height="1"/>
	<rect x="496.5" y="53.1" fill="#CCCCCC" width="90.7" height="1"/>
	<rect x="525.9" y="204.6" fill="#CCCCCC" width="61.3" height="1"/>
	<rect x="498.9" y="446.1" fill="#CCCCCC" width="91.4" height="1"/>
	<rect x="498.9" y="269.1" fill="#CCCCCC" width="91.4" height="1"/>
	<g>
		<rect x="27.6" y="56.6" fill="#CCCCCC" width="0.8" height="381.9"/>
		<polygon fill="#CCCCCC" points="28.1,63.8 23.7,63.8 25.9,60 28.1,56.3 30.2,60 32.4,63.8 		"/>
		<polygon fill="#CCCCCC" points="28.1,434.5 32.4,434.5 30.2,438.3 28.1,442 25.9,438.3 23.7,434.5 		"/>
	</g>
</g>
<g id="Isolation_Mode">
	<polygon fill="#CCCCCC" points="571.6,63.8 567.2,63.8 569.4,60 571.6,56.3 573.7,60 575.9,63.8 	"/>
	<polygon fill="#CCCCCC" points="571.6,193.8 575.9,193.8 573.7,197.5 571.6,201.3 569.4,197.5 567.2,193.8 	"/>
	<polygon fill="#CCCCCC" points="571.6,281.3 567.2,281.3 569.4,277.5 571.6,273.8 573.7,277.5 575.9,281.3 	"/>
	<polygon fill="#CCCCCC" points="571.6,435.3 575.9,435.3 573.7,439 571.6,442.8 569.4,439 567.2,435.3 	"/>
</g>
</svg>
