<?xml version="1.0" encoding="utf-8"?>
<!-- Generator: Adobe Illustrator 18.0.0, SVG Export Plug-In . SVG Version: 6.00 Build 0)  -->
<!DOCTYPE svg PUBLIC "-//W3C//DTD SVG 1.1//EN" "http://www.w3.org/Graphics/SVG/1.1/DTD/svg11.dtd">
<svg version="1.1" id="Layer_1" xmlns="http://www.w3.org/2000/svg" xmlns:xlink="http://www.w3.org/1999/xlink" x="0px" y="0px"
	 width="175px" height="175px" viewBox="0 0 175 175" enable-background="new 0 0 175 175" xml:space="preserve">
<g id="Isolation_Mode">
</g>
<path fill="#CCCCCC" d="M120,75c0.8,0.3,1.6,0.5,2.5,0.6c0.1,0,0.3,0,0.3,0c3,0,5.8-1.9,7-4.6c0.8-1.9,0.8-3.9,0-5.8
	c-0.8-1.9-2.3-3.3-4.1-4.1c-0.8-0.3-1.6-0.5-2.5-0.6c-0.1,0-0.2,0-0.3,0c-3,0-5.8,1.9-7,4.6c-0.7,1.7-0.8,3.6-0.2,5.3l-14.1,7.9
	c-2-3.2-4.7-5.7-8.1-7.3c-2.7-1.3-5.7-2-8.7-2c-0.8,0-1.6,0.1-2.5,0.2l-5.5-23.2c1.6-0.9,2.8-2.3,3.4-4c0.7-1.9,0.6-4-0.3-5.7
	c-0.9-1.8-2.4-3.2-4.3-3.9C74.8,32.1,74,32,73.2,32c-3.2,0-6,2-7.1,5c-0.7,1.9-0.6,4,0.3,5.7c0.9,1.8,2.4,3.2,4.3,3.9
	c0.9,0.3,1.7,0.5,2.5,0.5c0.1,0,0.2,0,0.3,0L79,70c-5.1,1.6-9.4,5.3-11.9,10.2c-1.1,2.2-1.8,4.7-2,7.2l-21.5,1.9
	c-0.1-0.2-0.2-0.5-0.3-0.7c-0.9-1.8-2.4-3.2-4.3-3.9c-0.9-0.3-1.7-0.5-2.5-0.5c-3.2,0-6,2-7.1,5c-0.7,1.9-0.6,4,0.3,5.7
	c0.9,1.8,2.4,3.2,4.3,3.9c0.9,0.3,1.7,0.5,2.5,0.5c3.2,0,6-2,7.1-5c0.1-0.4,0.3-0.9,0.4-1.5L65.2,91c0.6,6.1,4,11.6,9.2,14.8
	l-8.2,18.7c-0.6-0.1-1.1-0.2-1.6-0.2c-3.2,0-6,2-7.1,5c-0.7,1.9-0.6,4,0.3,5.7c0.9,1.8,2.4,3.2,4.3,3.9c0.9,0.3,1.7,0.5,2.5,0.5
	c3.2,0,6-2,7.1-5c1.1-3,0.1-6.3-2.2-8.3l8.2-18.7c2.3,0.9,4.7,1.4,7.2,1.4c4.1,0,8-1.2,11.4-3.6l19.4,25.3c-0.6,0.7-1.2,1.6-1.5,2.5
	c-0.7,1.9-0.6,4,0.3,5.7c0.9,1.8,2.4,3.2,4.3,3.9c0.9,0.3,1.7,0.5,2.5,0.5c3.2,0,6-2,7.1-5c0.7-1.9,0.6-4-0.3-5.7
	c-0.9-1.8-2.4-3.2-4.3-3.9c-0.9-0.3-1.7-0.5-2.5-0.5c-0.9,0-1.8,0.2-2.7,0.5l-19.5-25.7c1.5-1.5,2.8-3.4,3.7-5.3
	c2.3-4.8,2.7-10.2,0.9-15c-0.1-0.3-0.2-0.7-0.3-1l14.4-8C118.3,74.1,119.1,74.6,120,75z M60.6,130.2c0.6-1.7,2.2-2.8,4-2.8
	c0.4,0,1,0.1,1.4,0.2c2.2,0.8,3.4,3.3,2.6,5.5c-0.6,1.7-2.2,2.8-4,2.8c-0.4,0-1-0.1-1.5-0.2c-1-0.4-1.9-1.1-2.4-2.2
	C60.2,132.4,60.2,131.2,60.6,130.2z M77.3,40.8c-0.6,1.7-2.2,2.8-4,2.8l-0.1,0c-0.1,0-0.1,0-0.2,0c-0.3,0-0.7-0.1-1.2-0.2
	c-1-0.4-1.9-1.1-2.4-2.2c-0.5-1.1-0.5-2.2-0.1-3.3c0.6-1.7,2.2-2.8,4-2.8c0.4,0,1,0.1,1.5,0.2c1,0.4,1.9,1.1,2.4,2.2
	C77.7,38.6,77.7,39.8,77.3,40.8z M99.2,95.8c-2.7,5.5-8.1,8.9-14.3,8.9c-2.4,0-4.8-0.5-7-1.6c-7.9-3.9-11.1-13.4-7.3-21.2
	c2.7-5.5,8.1-8.9,14.3-8.9c2.4,0,4.8,0.5,7,1.6c3.8,1.9,6.7,5.1,8,9.1C101.3,87.7,101,92,99.2,95.8z M122.7,131.4
	c1,0.4,1.9,1.1,2.4,2.2c0.5,1.1,0.5,2.3,0.1,3.3c-0.6,1.7-2.2,2.8-4,2.8c-0.4,0-1-0.1-1.5-0.2c-1-0.4-1.9-1.1-2.4-2.2
	c-0.5-1.1-0.5-2.2-0.1-3.3c0.6-1.7,2.2-2.8,4-2.8C121.7,131.1,122.2,131.2,122.7,131.4z M119,66.4c0.7-1.6,2.2-2.6,4-2.6
	c0.1,0,0.1,0,0.2,0c0.6,0.1,1.1,0.2,1.5,0.3c1,0.4,1.9,1.3,2.3,2.3c0.4,1,0.4,2.2,0,3.3c-0.7,1.6-2.2,2.6-3.9,2.6
	c-0.1,0-0.1,0-0.2,0c-0.6-0.1-1.1-0.2-1.5-0.3c-1-0.4-1.9-1.3-2.3-2.3C118.5,68.6,118.5,67.4,119,66.4z M36.6,96
	c-0.4,0-1-0.1-1.5-0.2c-1-0.4-1.9-1.1-2.4-2.2c-0.5-1.1-0.5-2.3-0.1-3.3c0.6-1.7,2.2-2.8,4-2.8c0.4,0,1,0.1,1.5,0.2
	c1,0.4,1.9,1.1,2.4,2.2c0.5,1,0.5,2.2,0.1,3.3C40,94.9,38.4,96,36.6,96z"/>
<g id="_xB9_Ã_xBC_h_x5F_1">
</g>
<g id="Layer_1_1_">
</g>
</svg>
