<?xml version="1.0" encoding="utf-8"?>
<!-- Generator: Adobe Illustrator 16.0.0, SVG Export Plug-In . SVG Version: 6.00 Build 0)  -->
<!DOCTYPE svg PUBLIC "-//W3C//DTD SVG 1.1//EN" "http://www.w3.org/Graphics/SVG/1.1/DTD/svg11.dtd">
<svg version="1.1" id="Layer_1" xmlns="http://www.w3.org/2000/svg" xmlns:xlink="http://www.w3.org/1999/xlink" x="0px" y="0px"
	 width="175px" height="175px" viewBox="0 0 175 175" enable-background="new 0 0 175 175" xml:space="preserve">
<g id="Isolation_Mode">
</g>
<path fill="#FF9933" d="M120,75c0.8,0.3,1.6,0.5,2.5,0.6c0.1,0,0.3,0,0.3,0c3,0,5.8-1.9,7-4.6c0.8-1.9,0.8-3.9,0-5.8
	c-0.8-1.9-2.3-3.3-4.1-4.1c-0.8-0.3-1.601-0.5-2.5-0.6c-0.101,0-0.2,0-0.3,0c-3,0-5.801,1.9-7,4.6c-0.7,1.7-0.801,3.6-0.2,5.3
	L101.6,78.3c-2-3.2-4.699-5.7-8.1-7.3c-2.7-1.3-5.7-2-8.7-2c-0.8,0-1.6,0.1-2.5,0.2L76.8,46c1.6-0.9,2.8-2.3,3.4-4
	c0.7-1.9,0.6-4-0.3-5.7c-0.9-1.8-2.4-3.2-4.3-3.9C74.8,32.1,74,32,73.2,32c-3.2,0-6,2-7.1,5c-0.7,1.9-0.6,4,0.3,5.7
	c0.9,1.8,2.4,3.2,4.3,3.9c0.9,0.3,1.7,0.5,2.5,0.5c0.1,0,0.2,0,0.3,0L79,70c-5.1,1.6-9.4,5.3-11.9,10.2c-1.1,2.2-1.8,4.7-2,7.2
	l-21.5,1.9c-0.1-0.2-0.2-0.5-0.3-0.7c-0.9-1.8-2.4-3.2-4.3-3.899c-0.9-0.3-1.7-0.5-2.5-0.5c-3.2,0-6,2-7.1,5
	c-0.7,1.899-0.6,4,0.3,5.7c0.9,1.8,2.4,3.199,4.3,3.899c0.9,0.3,1.7,0.5,2.5,0.5c3.2,0,6-2,7.1-5c0.1-0.399,0.3-0.899,0.4-1.5
	L65.2,91c0.6,6.1,4,11.6,9.2,14.8l-8.2,18.7c-0.6-0.1-1.1-0.2-1.6-0.2c-3.2,0-6,2-7.1,5c-0.7,1.9-0.6,4,0.3,5.7
	c0.9,1.8,2.4,3.2,4.3,3.9c0.9,0.3,1.7,0.5,2.5,0.5c3.2,0,6-2,7.1-5c1.1-3,0.1-6.301-2.2-8.301l8.2-18.699
	c2.3,0.899,4.7,1.399,7.2,1.399c4.1,0,8-1.2,11.4-3.6l19.4,25.3c-0.601,0.7-1.2,1.6-1.5,2.5c-0.7,1.9-0.601,4,0.3,5.7
	c0.9,1.8,2.4,3.2,4.3,3.899c0.9,0.301,1.7,0.5,2.5,0.5c3.2,0,6-2,7.101-5c0.699-1.899,0.6-4-0.301-5.699
	c-0.899-1.801-2.399-3.2-4.3-3.9c-0.899-0.3-1.7-0.5-2.5-0.5c-0.899,0-1.8,0.2-2.7,0.5l-19.5-25.7c1.5-1.5,2.801-3.399,3.7-5.3
	c2.3-4.8,2.7-10.2,0.9-15c-0.101-0.3-0.2-0.7-0.3-1l14.399-8C118.3,74.1,119.1,74.6,120,75z M60.6,130.2c0.6-1.7,2.2-2.8,4-2.8
	c0.4,0,1,0.1,1.4,0.199c2.2,0.801,3.4,3.301,2.6,5.5c-0.6,1.7-2.2,2.801-4,2.801c-0.4,0-1-0.101-1.5-0.2c-1-0.4-1.9-1.101-2.4-2.2
	S60.2,131.2,60.6,130.2z M77.3,40.8c-0.6,1.7-2.2,2.8-4,2.8h-0.1c-0.1,0-0.1,0-0.2,0c-0.3,0-0.7-0.1-1.2-0.2c-1-0.4-1.9-1.1-2.4-2.2
	c-0.5-1.1-0.5-2.2-0.1-3.3c0.6-1.7,2.2-2.8,4-2.8c0.4,0,1,0.1,1.5,0.2c1,0.4,1.9,1.1,2.4,2.2S77.7,39.8,77.3,40.8z M99.2,95.8
	c-2.7,5.5-8.101,8.9-14.3,8.9c-2.4,0-4.8-0.5-7-1.601C70,99.2,66.8,89.7,70.6,81.9c2.7-5.5,8.1-8.9,14.3-8.9c2.4,0,4.8,0.5,7,1.6
	c3.8,1.9,6.699,5.1,8,9.1C101.3,87.7,101,92,99.2,95.8z M122.7,131.4c1,0.399,1.899,1.1,2.399,2.199
	c0.5,1.101,0.5,2.301,0.101,3.301c-0.601,1.699-2.2,2.8-4,2.8c-0.4,0-1-0.101-1.5-0.2c-1-0.4-1.9-1.1-2.4-2.2
	c-0.5-1.1-0.5-2.2-0.1-3.3c0.6-1.7,2.2-2.8,4-2.8C121.7,131.1,122.2,131.2,122.7,131.4z M119,66.4c0.7-1.6,2.2-2.6,4-2.6
	c0.1,0,0.1,0,0.2,0c0.6,0.1,1.1,0.2,1.5,0.3c1,0.4,1.899,1.3,2.3,2.3s0.4,2.2,0,3.3c-0.7,1.6-2.2,2.6-3.9,2.6c-0.1,0-0.1,0-0.199,0
	c-0.601-0.1-1.101-0.2-1.5-0.3c-1-0.4-1.9-1.3-2.301-2.3C118.5,68.6,118.5,67.4,119,66.4z M36.6,96c-0.4,0-1-0.1-1.5-0.2
	c-1-0.399-1.9-1.1-2.4-2.2c-0.5-1.1-0.5-2.3-0.1-3.3c0.6-1.7,2.2-2.8,4-2.8c0.4,0,1,0.1,1.5,0.2c1,0.399,1.9,1.1,2.4,2.2
	c0.5,1,0.5,2.199,0.1,3.3C40,94.9,38.4,96,36.6,96z"/>
<g id="_xB9_Ã_xBC_h_x5F_1">
</g>
<g id="Layer_1_1_">
</g>
</svg>
