<?xml version="1.0" encoding="utf-8"?>
<!-- Generator: Adobe Illustrator 18.0.0, SVG Export Plug-In . SVG Version: 6.00 Build 0)  -->
<!DOCTYPE svg PUBLIC "-//W3C//DTD SVG 1.1//EN" "http://www.w3.org/Graphics/SVG/1.1/DTD/svg11.dtd">
<svg version="1.1" xmlns="http://www.w3.org/2000/svg" xmlns:xlink="http://www.w3.org/1999/xlink" x="0px" y="0px"
	 viewBox="0 0 490.6 407.9" enable-background="new 0 0 490.6 407.9" xml:space="preserve">
<g id="Layer_1">
	<path opacity="0.6" fill="#F7AD41" d="M375.8,56.2h-38.3c-0.9,0-1.6,0.7-1.6,1.6v30.3c0,0.9,0.7,1.6,1.6,1.6h38.3
		c0.9,0,1.6-0.7,1.6-1.6V57.8C377.4,56.9,376.6,56.2,375.8,56.2z M367.8,58.6c0.9,0,1.6,0.7,1.6,1.6c0,0.9-0.7,1.6-1.6,1.6
		c-0.9,0-1.6-0.7-1.6-1.6C366.2,59.3,366.9,58.6,367.8,58.6z M363,58.6c0.9,0,1.6,0.7,1.6,1.6c0,0.9-0.7,1.6-1.6,1.6
		c-0.9,0-1.6-0.7-1.6-1.6C361.4,59.3,362.1,58.6,363,58.6z M374.2,86.5h-35.1V64.2h35.1V86.5z M372.6,61.8c-0.9,0-1.6-0.7-1.6-1.6
		c0-0.9,0.7-1.6,1.6-1.6c0.9,0,1.6,0.7,1.6,1.6C374.2,61.1,373.5,61.8,372.6,61.8z M353.8,74.4c0,3.2-2.6,5.7-5.7,5.7
		s-5.7-2.6-5.7-5.7c0-3.2,2.6-5.7,5.7-5.7S353.8,71.3,353.8,74.4z M371.3,70.2h-14.9v-1.3h14.9V70.2z M371.3,73.5h-14.9v-1.3h14.9
		V73.5z M371.3,76.2h-14.9v-1.3h14.9V76.2z M371.3,79.6h-14.9v-1.3h14.9V79.6z"/>
	<path fill="#CCCCCC" d="M443,148.1h-60.3c-1.4,0-2.5,1.1-2.5,2.5v42.7c0,1.4,1.1,2.5,2.5,2.5H443c1.4,0,2.5-1.1,2.5-2.5v-42.7
		C445.5,149.2,444.3,148.1,443,148.1z M441.7,188.3h-57.8v-36.4h57.8V188.3z M394.8,205.9h36v-5h-36V205.9z M405.8,165.4l5.9,7.4
		l2.8,0.6l1.4-2.3l-2.7-0.6l-7.4-9.4l-10.9,15.3l6.2-4.4L405.8,165.4z M390.4,184.5H435v1.6l2.5-2.5l-2.5-2.5v1.7h-40.4l11.1-7.9
		l9.5,7l4.3-7.3l10.7,2.5l0.6-2.4l-9.9-2.3l8.4-14.1l-2.2-1.3l-12.6,21.2l-8.7-6.5l-13.7,9.7v-23.8h1.7l-2.5-2.5l-2.5,2.5h1.7V184.5
		z"/>
	<path opacity="0.4" fill="#CCCCCC" d="M129.2,274.7H93.6c-0.8,0-1.5,0.7-1.5,1.6v26.8c0,0.9,0.7,1.6,1.5,1.6h35.6
		c0.8,0,1.5-0.7,1.5-1.6v-26.8C130.7,275.4,130,274.7,129.2,274.7z M128.4,299.9H94.3V277h34.2V299.9z M100.7,310.9H122v-3.2h-21.3
		V310.9z M107.2,285.5l3.5,4.7l1.7,0.4l0.8-1.4l-1.6-0.4l-4.4-5.9l-6.4,9.6l3.7-2.8L107.2,285.5z M98.2,297.5h26.3v1l1.5-1.6
		l-1.5-1.6v1.1h-23.9l6.6-5l5.6,4.4l2.6-4.6l6.3,1.6l0.3-1.5l-5.9-1.4l5-8.8l-1.3-0.8l-7.5,13.3l-5.2-4.1l-8.1,6.1v-14.9h1l-1.5-1.6
		l-1.5,1.6h1V297.5z"/>
	<path opacity="0.4" fill="#CCCCCC" d="M309.1,301.2H267c-1,0-1.8,0.8-1.8,1.8v29.8c0,1,0.8,1.8,1.8,1.8h42.1c1,0,1.8-0.8,1.8-1.8
		v-29.8C310.8,301.9,310.1,301.2,309.1,301.2z M308.2,329.2h-40.3v-25.4h40.3V329.2z M275.5,341.5h25.1V338h-25.1V341.5z
		 M283.2,313.3l4.1,5.2l1.9,0.4l0.9-1.6l-1.9-0.4l-5.2-6.5l-7.6,10.7l4.4-3.1L283.2,313.3z M272.4,326.6h31.1v1.2l1.8-1.8l-1.8-1.8
		v1.2h-28.2l7.8-5.5l6.6,4.9l3-5.1l7.5,1.7l0.4-1.7l-6.9-1.6l5.8-9.8l-1.5-0.9l-8.8,14.8l-6.1-4.5l-9.5,6.8v-16.6h1.2l-1.8-1.8
		l-1.8,1.8h1.2V326.6z"/>
	<path opacity="0.4" fill="#FFD45C" d="M204.5,131.2h-37.9c-0.9,0-1.6,0.7-1.6,1.6v26.9c0,0.9,0.7,1.6,1.6,1.6h37.9
		c0.9,0,1.6-0.7,1.6-1.6v-26.9C206.1,131.9,205.4,131.2,204.5,131.2z M203.8,156.5h-36.4v-22.9h36.4V156.5z M174.2,167.6h22.7v-3.2
		h-22.7V167.6z M183,153.3h-12.5v-17.1H183V153.3z M201.2,142.7h-16.5v-6.5h16.5V142.7z M201.2,153.3h-16.5v-8.7h16.5V153.3z"/>
	<path opacity="0.8" fill="#CCCCCC" d="M270.4,24.7H202c-1.6,0-2.8,1.3-2.8,2.8v54.1c0,1.6,1.3,2.8,2.8,2.8h68.4
		c1.6,0,2.8-1.3,2.8-2.8V27.5C273.2,25.9,271.9,24.7,270.4,24.7z M256.1,28.9c1.6,0,2.8,1.3,2.8,2.8c0,1.6-1.3,2.8-2.8,2.8
		c-1.6,0-2.8-1.3-2.8-2.8C253.3,30.2,254.5,28.9,256.1,28.9z M247.6,28.9c1.6,0,2.8,1.3,2.8,2.8c0,1.6-1.3,2.8-2.8,2.8
		c-1.6,0-2.8-1.3-2.8-2.8C244.7,30.2,246,28.9,247.6,28.9z M267.5,78.8h-62.7V38.9h62.7V78.8z M264.7,34.6c-1.6,0-2.8-1.3-2.8-2.8
		c0-1.6,1.3-2.8,2.8-2.8c1.6,0,2.8,1.3,2.8,2.8C267.5,33.3,266.2,34.6,264.7,34.6z M217.2,73.6c3.1,0,5.7-2.6,5.7-5.7
		c0-1.4-0.5-2.7-1.4-3.7l4.2-5.2c0.8,0.5,1.8,0.8,2.9,0.8c1,0,2-0.3,2.9-0.8l3.8,4.7c-0.6,0.9-1,2-1,3.2c0,3.1,2.6,5.7,5.7,5.7
		s5.7-2.6,5.7-5.7c0-1.2-0.4-2.4-1.1-3.3L251,55c0.7,0.3,1.5,0.5,2.3,0.5c3.1,0,5.7-2.6,5.7-5.7c0-3.1-2.6-5.7-5.7-5.7
		s-5.7,2.6-5.7,5.7c0,1.3,0.4,2.5,1.2,3.5l-6.3,8.5c-0.7-0.3-1.6-0.6-2.4-0.6c-0.9,0-1.8,0.2-2.6,0.6l-3.9-4.9
		c0.5-0.8,0.8-1.8,0.8-2.9c0-3.1-2.6-5.7-5.7-5.7c-3.1,0-5.7,2.6-5.7,5.7c0,1.1,0.3,2,0.8,2.9l-4.5,5.6c-0.6-0.2-1.3-0.4-2-0.4
		c-3.1,0-5.7,2.6-5.7,5.7C211.5,71.1,214.1,73.6,217.2,73.6z M253.3,47c1.6,0,2.8,1.3,2.8,2.8c0,1.6-1.3,2.8-2.8,2.8
		s-2.8-1.3-2.8-2.8C250.4,48.2,251.7,47,253.3,47z M240,64.1c1.6,0,2.8,1.3,2.8,2.8c0,1.6-1.3,2.8-2.8,2.8s-2.8-1.3-2.8-2.8
		C237.1,65.3,238.4,64.1,240,64.1z M228.6,51.2c1.6,0,2.8,1.3,2.8,2.8c0,1.6-1.3,2.8-2.8,2.8c-1.6,0-2.8-1.3-2.8-2.8
		C225.7,52.5,227,51.2,228.6,51.2z M217.2,65.1c1.6,0,2.8,1.3,2.8,2.8c0,1.6-1.3,2.8-2.8,2.8s-2.8-1.3-2.8-2.8
		C214.4,66.4,215.6,65.1,217.2,65.1z"/>
	<g>
		<path fill="none" d="M241.8,147c-0.8,1.7,0.7,3.7,2.5,4.4"/>
	</g>
	<g opacity="0.6">
		<path fill="#F7AD41" d="M142,67.7h-39.3c-0.9,0-1.6,0.7-1.6,1.6v31.1c0,0.9,0.7,1.6,1.6,1.6H142c0.9,0,1.6-0.7,1.6-1.6V69.3
			C143.7,68.4,142.9,67.7,142,67.7z M133.8,70.1c0.9,0,1.6,0.7,1.6,1.6c0,0.9-0.7,1.6-1.6,1.6c-0.9,0-1.6-0.7-1.6-1.6
			C132.2,70.9,132.9,70.1,133.8,70.1z M128.9,70.1c0.9,0,1.6,0.7,1.6,1.6c0,0.9-0.7,1.6-1.6,1.6c-0.9,0-1.6-0.7-1.6-1.6
			C127.3,70.9,128,70.1,128.9,70.1z M140.4,98.8h-36V75.9h36V98.8z M138.7,73.4c-0.9,0-1.6-0.7-1.6-1.6c0-0.9,0.7-1.6,1.6-1.6
			c0.9,0,1.6,0.7,1.6,1.6C140.4,72.7,139.6,73.4,138.7,73.4z"/>
		<path fill="#F7AD41" d="M128.3,90.7c0.5-0.8,1.3-1.1,2.2-1c0.2-0.6,0.3-1.3,0.3-2c-0.8-0.1-1.5-0.8-1.7-1.7
			c-0.2-0.9,0.3-1.7,1-2.1c-0.3-0.6-0.6-1.2-1-1.7c-0.7,0.4-1.7,0.4-2.4-0.2c-0.7-0.6-0.9-1.5-0.6-2.3c-0.6-0.3-1.2-0.5-1.9-0.7
			c-0.3,0.8-1,1.4-1.9,1.4c-0.9,0-1.7-0.6-1.9-1.4c-0.7,0.2-1.3,0.4-1.9,0.7c0.3,0.8,0.1,1.7-0.6,2.3c-0.7,0.6-1.6,0.6-2.4,0.2
			c-0.4,0.5-0.7,1.1-1,1.7c0.8,0.4,1.2,1.3,1,2.1c-0.2,0.9-0.9,1.5-1.7,1.7c0,0.7,0.1,1.3,0.3,2c0.8-0.2,1.7,0.2,2.2,1
			c0.4,0.8,0.3,1.7-0.2,2.4c0.5,0.5,1,0.9,1.5,1.3c0.5-0.7,1.4-1,2.3-0.7c0.8,0.3,1.4,1.1,1.3,2c0.3,0,0.7,0.1,1,0.1
			c0.3,0,0.7,0,1-0.1c0-0.9,0.5-1.7,1.3-2c0.8-0.3,1.8,0,2.3,0.7c0.6-0.4,1.1-0.8,1.5-1.3C128,92.4,127.8,91.5,128.3,90.7z
			 M122.4,91.4c-2.3,0-4.1-1.8-4.1-4.1c0-2.3,1.8-4.1,4.1-4.1c2.3,0,4.1,1.8,4.1,4.1C126.5,89.5,124.6,91.4,122.4,91.4z"/>
	</g>
</g>
<g id="Isolation_Mode">
	<g>
		<g>
			<g>
				<path d="M215.4,243.5c-0.2,0.8-0.5,1.9-0.2,3.8c0.4,2,1.6,3.3,2.3,4.1c1.7,1.9,3.3,2.7,5.7,3.9c2.4,1.2,8.4,2.7,10.9,3
					c5.2,0.7,13.5,0,19.5-5.1c3.5-3-1.9-10-6.9-17.8c-1.5-2.3-2.7-4.8-4.2-7c-1.5-2.2-3.1-4.4-4.5-6.8c-1.7-2.7-2.2-5.4-2.5-7.4
					c-0.2-1.5-0.4-2.6-0.3-4.5c0.1-0.9,0.1-1.6,0.3-2.2c0.2-0.6,0.4-1.6,0.9-2.4c0.5-0.8,1.7-2,2.9-2.1c2.2-0.1,4.9,1.2,6.7,2.4
					l5.1-3.1c-0.8-0.7-1.6-1.2-2.5-1.9c-1.6-1.3-1.7-1.9-3.9-2.4c-1.3-0.3-3.3-0.5-5.3-0.3c-3.1,0.4-4.5,1.6-5.1,2.1
					c-0.3,0.3-1.9,1.8-2.5,2.6c-1,1.5-2.2,3.7-2.4,6.8c-0.2,3.3,0.3,6.8,0.7,8.3c0.7,2.7,2.4,6.3,3.9,8.4c1.5,2.2,1.8,2.5,3.4,4.9
					c0.4,0.6,1.6,2.1,1.9,2.8c0.3,0.7,0.8,1.4,1.1,2.1c0.8,1.8,1.1,2.4,1.3,3.7c0.1,0.5-0.2,1.7-0.4,1.9c-0.9,1.2-2.1,2.1-5.5,2
					c-2.1-0.1-0.7,0.1-3-0.1c1.1-0.6,0.9-0.4,2.6-1.5c3.1-2,2.5-6.7-0.6-8.7c-3.8-2.3-7.4-1.9-9.3-1.9c-0.4,0-1.1,0,0.1-0.7
					c2.1-1.2,2.4-2.4,2.5-3.4c0.2-3.7-3.8-5.5-9.2-5.2c-2.2,0.1-3.8,0.3-5.3,0.4c-0.2,0,0.2-0.2,0.9-0.8c0.6-0.6,1.1-1.4,0.9-2.3
					c-0.4-1.7-2.3-2-3.2-2c-1.5-0.1-5.8,0.3-5.6,1.7c0.1,0.6,1.2,0.8,2.2,0.8c0.8,0.1,1.9,0.1,2.4,0c-0.4,0.2-0.9,0.3-1.7,0.7
					c-1,0.5-1.5,0.7-2.3,1.1c-3.9,2.1-3.5,6.9,3.3,7c1.8,0,2.8-0.2,2.5,0c-1.3,0.6-2,1.3-2.5,1.8c-2.2,2.2-2.7,4-2.3,5.8
					c0.4,1.5,2,3.8,5.6,4.4c1.8,0.3,2,0.3,2.7,0.4C216.8,241.1,215.8,242.1,215.4,243.5z"/>
			</g>
			<path d="M224,239.8c1.4-0.4,4-0.6,4.9,0.8c0,0.1,0.2,0,0.1-0.1c-1-1.5-3.5-1.4-5-0.9C223.9,239.7,223.9,239.8,224,239.8
				L224,239.8z"/>
			<g>
				<path fill="#F7AD41" d="M242.6,241c-0.1,0.4-0.4,1.1-0.7,1.5c-0.4,0.5-1.5,1.2-1.9,1.4c-1.5,0.7-2.2,0.8-4.4,0.6
					c-2-0.1-3.5-0.3-6-0.7c2-0.8,3.5-1.5,5-2.7c1.9-1.4,2.4-4.9-0.5-6.8c-3.6-2.2-7.9-2.5-9.9-2.4c-1.8,0.1-2.9,0-2.9,0
					s2.6-1.2,3.4-1.8c1.4-1.1,2-1.6,2.1-3.2c0-1.3-1.6-4.6-8.3-4.2c-1.1,0.1-6.3,0.5-7.3,0.6c-0.5,0,0.3-0.5,1.1-1.1
					c0.8-0.6,2.2-1.5,2.1-2.7c-0.2-1.9-3.8-1.5-3.8-1.5s-2.9,0.1-3.4,0.6c-0.4,0.4,1.9,0.3,2.7,0.4c0.7,0.1,2.4,0.1,2.1,0.6
					c-0.9,0.8-1.5,1-2.2,1.4c-0.7,0.4-1.2,0.6-2.2,1c-3.8,2.1-2.1,5.5,3.4,5.5c3.1,0,9.1-1.2,6.3,0c-1.8,0.8-3.5,1.1-5.6,2.9
					c-2.6,2.3-2.5,3.7-2.2,5.1c0.3,1.4,2.3,3.2,5.9,3.6c1.9,0.2,2.1,0.6,4.2,0.3c-0.6,0.3-0.9,0.5-1.4,0.9c-0.9,0.9-1.5,1.6-1.8,2.4
					c-0.5,1.1-0.6,2.6-0.2,3.7c0.3,1.1,0.9,2.3,1.5,3.1c1.4,1.8,3.4,3,5.7,4.3c2.3,1.2,6.7,2.2,9.1,2.5c4.9,0.3,9.9-0.9,12.8-4.2
					c2.9-3.3,4.6-9.2-0.1-16.8c-1.4-2.3-2.5-4.6-4-6.8c-1.4-2.2-2.9-4.3-4.2-6.6c-1.6-2.6-2.1-5.2-2.4-7.2c-0.2-1.5-0.4-2.5-0.3-4.4
					c0.1-0.9,0.1-1.6,0.3-2.1c0.2-0.6,0.4-1.5,0.8-2.4c0.5-0.8,1.6-1.9,2.7-2c2.1-0.1,4.6,1.2,6.3,2.4l4.8-3
					c-0.8-0.7-1.5-1.2-2.3-1.8c-1.5-1.2-1.7-1.6-3.8-2.1c-1.2-0.3-2.8-0.5-4.8-0.3c-2.9,0.4-4,1.8-4.6,2.3c-0.3,0.3-1,1-1.5,1.8
					c-0.9,1.5-2.2,3.8-2.4,6.8c-0.2,2.6,0.1,5.2,0.6,7.2c0.7,2.6,2.6,7.1,4.1,9.1c1.5,2,2.8,3.6,4.3,6c0.4,0.6,0.9,1.4,1.2,2.1
					c0.3,0.7,0.6,1.2,0.9,1.8C242.3,237.8,242.9,239,242.6,241z"/>
			</g>
			<g>
				<path d="M234.6,214.3c0.2,1.6,0.6,3.5,1.2,4.6c3.1,6.1,5.8,9.6,8.6,14.2c2.6,4.2,4.5,8.5,3.4,13.4c-0.9,3.9-5,9.1-11.9,10
					l-4.2,0.2c1.2,0.7,6,1.3,11.2,0.8c3-0.1,6-1.1,8.3-2.5c8.3-5.1,8.3-11.8,6.7-16.8c-1-3-3.6-6.8-5.8-9.1c-2.5-2.6-5-4.6-8.3-8.9
					c-2-2.6-1.7-4.6-2.3-7.7c-0.1-0.3-0.1-0.6-0.1-0.9c2.3-5,1.8-7.5-2.2-7.9c-1.2-0.1-3,0.5-3.7,1.9c-0.5,0.8-0.7,1.6-1,2.9
					C234.4,209.9,234.4,212.5,234.6,214.3z"/>
			</g>
			<g>
				<path fill="#FFFFFF" d="M235.3,214.4c0.2,1.6,0.7,3.6,1.3,4.7c2.5,5.1,5.4,9.2,8.3,14.1c2.5,3.9,4.5,8.1,3.7,13.2
					c-0.8,4.8-5,8.8-8.9,10c-1.5,0.5-2.7,0.5-2.7,0.5c2.9,0.2,5.3-0.1,6.4-0.2c2.8-0.3,5.1-1.1,7.3-2.6c7.1-4.9,8.1-10.5,6.1-16.1
					c-1-2.9-2.6-5.3-5.1-8.1c-2.3-2.6-4.4-5.1-7.8-8.8c-1.9-2.1-2.6-5-3.1-8.1c-0.1-0.3-0.1-0.6-0.1-0.9c2.1-4.9,2.7-7.1-1-7.7
					c-1.1-0.2-2.7,0.1-3.3,1.3c-0.4,0.8-0.9,2-1.1,3.3C235,211.2,235.1,212.5,235.3,214.4z"/>
			</g>
			<g>
				<path fill="#F7AD41" d="M242.1,203c0.1-0.2,0.7-0.5,0.9-0.9c0.2-0.3,1.6-2.4,2.2-2.8c-0.7-0.2-1.6-0.4-1.7-0.5
					c-1.2-0.3-2-0.4-4-0.2c-0.9,0.1-1.6,0.3-2.2,0.6c0.8,5.1,1.3,3.5,1.7,4.1c0.1,0,0.3,0.2,0.4,0.2c1,0.2,0.5-0.1,1.6,0.5
					C241.7,203.4,241.3,203.9,242.1,203z"/>
			</g>
			<path fill-rule="evenodd" clip-rule="evenodd" d="M235,244.4c-1.4-0.4-7.5,0.5-8.9,8C226.2,252.4,223.5,240,235,244.4z"/>
			<path d="M217.7,239.8c-0.1,0.2,0,0.6,0,0.6s-0.2,0.6-0.3,1.3c1.4-1.9,5-3.7,7.1-4.3c2.4-0.7,3.5-0.5,3.4-0.7
				c0.1-0.3-2.1-0.1-2.5,0C223.2,237.1,221.3,237.4,217.7,239.8z"/>
			<path d="M222.6,232c0.2,0,0.4-0.1,0.7-0.1c0,0,0.1,0,0.1,0c0.1,0,0.2,0,0.4,0c0.4,0,0.8,0,1.2,0c0.7,0,1.5-0.1,2.2-0.1
				c0-0.1,0-0.4-0.1-0.5c-4.3-0.2-4.4-0.2-6.8,0.2c-0.6,0.1-3.4,0.7-3.6,1c0.1,0.2,0.1,0.1,2.6-0.3C220,232.2,221.5,232,222.6,232z"
				/>
			<path fill-rule="evenodd" clip-rule="evenodd" d="M241.3,242.6c-1,2.1-4.6,3.5-3.2,11.2C238.2,253.8,230.5,245.9,241.3,242.6z"/>
			<path d="M234,202.7c0.1,1.4,0.4,2.5,0.4,3.3c-0.9-0.4-1.7-2.1-1.9-3.8c0,0,2.4-2.3,2.2-1.9C235.2,199.6,234,201.1,234,202.7z"/>
			<path d="M218.6,243c1.7-1.9,5.1-3.5,9.3-1.3c-6.6-6.6-13,1.2-12.5,3.7c0.5,2.8,2.7,4.2,2.8,4.3C216.8,247.6,216.8,245,218.6,243z
				"/>
			<path d="M240.6,233.8c2,1.6,3.3,1.1,4.1,1.2c-1.3,1.7-3.5,1.1-3.8,1c0,0-2.1-4.4-3.2-5.2C239,231.8,239.2,232.1,240.6,233.8z"/>
			<path d="M235.5,226.3c2,0.9,3.4,0.3,3.9,0.4c-0.5,0.9-2.2,2.7-3.5,1.6c0,0-2.3-3.3-3.5-4.8C233.5,224.7,233.9,225.5,235.5,226.3z
				"/>
			<path d="M231.3,218.2c1.7,1.5,3.3,0.9,4.1,1c-1.2,1.6-3.6,1.4-3.9,1.3c0,0-1.3-4.2-1.8-5.5C230.6,217.4,230,216.4,231.3,218.2z"
				/>
			<path d="M230.6,209.6c0.6,1.9,1.3,2.2,2.1,3c-1.9,0.7-2.8-1-3-1.2c0,0,0.6-4.1,0.6-5.5C230.3,207.5,230.1,207.7,230.6,209.6z"/>
			<path fill-rule="evenodd" clip-rule="evenodd" d="M222.4,237.3c0.5,0.3,1.6-0.3,2.1,0.1c3.6-0.9,6.2-0.5,8.6,1.7
				c0,0-0.7-2.5-2.5-3.2C229.2,235.4,227.5,234.9,222.4,237.3z"/>
			<path fill-rule="evenodd" clip-rule="evenodd" d="M214.9,237.3c0.5-2.5,3.5-5.7,9.4-5.6C224.3,231.7,215.2,227.3,214.9,237.3z"/>
			<path fill-rule="evenodd" clip-rule="evenodd" d="M242.3,238.5c0.9,1,0.6,4.6,4.9,7.2C247.2,245.8,239.8,246.7,242.3,238.5z"/>
			<path fill-rule="evenodd" clip-rule="evenodd" d="M210.4,231.9c3-3.3,8.1-5.2,12.2-1.7C222.5,230.2,219.1,222.1,210.4,231.9z"/>
			<path d="M240.3,199.7c-0.7,1-1,1.8-1.4,2.4c-0.4-0.7-0.1-2.3,0.6-3.4c0,0,2.8-0.3,2.4-0.2C242.6,198.2,241.1,198.7,240.3,199.7z"
				/>
			<path d="M227,233.1c-2.4,0.7-3.6,2.9-4.6,4.4c-0.5-2.5,1.4-5.5,3.3-5.9c5.2-1.1,8.1,2.2,8.4,2.3
				C231.4,232.8,228.9,232.5,227,233.1z"/>
			<path d="M247.3,223.9c-0.3,0.4-0.5,0.8-0.8,1.2c-0.5,0.7-1.5,1.1-2.4,1.3c-1.1,0.3-2.4,0.3-3.5,0.1c0,0.1,0,0.1,0,0.2
				c1.3,0.3,2.6,0.4,4,0c1.4-0.4,2.6-1.4,3-2.5C247.5,224.1,247.4,224,247.3,223.9z"/>
			<path d="M257.6,237.2c-2.9,3.1-5.9,3.4-9.3,3.3c0,0.1,0.1,0.2,0,0.3c1.2,0.2,2.2,0.3,3.5,0.2c2.3-0.2,4.3-1,5.9-3.3
				C257.6,237.5,257.6,237.4,257.6,237.2z"/>
			<path d="M258.4,244.4c-1.7,1.5-2.3,2.7-5.4,3.2c-2.1,0.4-3.9,0.2-5.2-0.1c0,0.2-0.1,0.3-0.2,0.5c1.2,0.5,3,0.9,5,0.6
				c2.6-0.3,3.8-0.7,5.9-3.3C258.6,245.1,258.5,244.3,258.4,244.4z"/>
			<path d="M256,250.2c-0.7,1.3-2.6,2.8-5.3,3.5c-0.9,0.2-2.2,0.5-3.2,0.3c-1-0.2-1.8-0.5-2.7-0.9c-0.2-0.1-0.3-0.2-0.5-0.3
				c-0.1,0.1-0.1,0.2-0.2,0.3c0.3,0.3,0.7,0.6,1.1,0.8c0.8,0.5,1.7,0.7,2.6,0.8c1.6,0.3,3.6,0,5.1-0.9
				C255.8,251.8,256.1,250,256,250.2z"/>
			<path d="M252.6,229.8c-1.7,2.7-3.9,3.1-8,3.2c0,0.1,0.1,0.2,0.1,0.3c1,0.2,2,0.2,3.1,0.1c1.8-0.2,4.3-0.9,5.1-3.4
				C252.8,229.8,252.6,229.7,252.6,229.8z"/>
			<g>
				<path d="M243.7,219.8c0,0.1-0.1,0.1-0.1,0.1c-0.5,0.4-0.8,0.8-1.4,1c-0.6,0.3-1.1,0.4-1.9,0.6c-1.2,0.2-2.2,0-2.8-0.3
					c-0.1,0,0.4,0.3,0.5,0.4c1.1,0.6,3.3,0.2,4.3-0.2c0.5-0.2,1.1-0.6,1.5-1c0.1-0.1,0.1-0.1,0.2-0.2
					C243.8,220,243.7,219.9,243.7,219.8z"/>
			</g>
			<g>
				<path d="M241.7,215.7c-0.1,0-0.1,0.1-0.2,0.1c-0.5,0.3-1,0.5-1.6,0.6c-0.6,0.1-1.1,0.1-2,0.1c-1.2-0.1-2.1-0.5-2.7-1
					c-0.1,0,0.3,0.4,0.4,0.5c0.9,0.9,3.2,1.1,4.2,0.9c0.6-0.1,1.2-0.3,1.7-0.6c0.1-0.1,0.2-0.1,0.3-0.2
					C241.7,216,241.7,215.8,241.7,215.7z"/>
			</g>
			<g>
				<path d="M240,211.5c-0.2,0.1-0.4,0.1-0.7,0.1c-0.6,0-1.1,0-2-0.1c-1.2-0.2-2.1-0.7-2.6-1.2c-0.1,0,0.3,0.4,0.3,0.5
					c0.8,0.9,3.1,1.3,4.1,1.3c0.4,0,0.7-0.1,1.1-0.2C240.2,211.8,240.1,211.6,240,211.5z"/>
			</g>
			<g>
				<path d="M239.2,207.6c-0.3-0.2-0.6-0.4-1-0.7c-1-0.8-1.5-1.6-1.7-2.3c-0.1-0.1,0,0.5,0.1,0.6c0.2,1,1.6,2.2,2.5,2.8
					C239.1,207.9,239.1,207.8,239.2,207.6z"/>
			</g>
			<g>
				<path fill-rule="evenodd" clip-rule="evenodd" fill="#F7AD41" d="M255.9,200.1c-1.4-0.4-5.9-2.4-6.2-3.4c-0.6-1.9-1-1.9-1.8-2.2
					c-0.8-0.3-1.8,1-2.3,1.3c-10.9-5-14.4,3.8-14.5,4.6c-0.1,0.7-0.5,1.1-0.5,1.1c-6.5,6.6-2,8.6-2,8.6s0,0.3,0.6,0.5
					c0.1,0,0.3,0.1,0.4,0.1c0.4,0.1,0.7,0.3,1,0.6c0.4,0.2,0.8,0.3,1.2,0.5c1.6,0.8,3.2,0.9,4.9,1.5c2.1,0.7,4.2,1.7,6.4,2.2
					c0.1-0.1,0.2-0.2,0.3-0.2c1.3-0.3,4.8-1.2,5.3-1.9c1.5-1.8,1.8-3.2,4.9-3.3C258,210,261.8,201.7,255.9,200.1z"/>
				<path d="M236.4,213.2c0.7,0.6,1.2,0.7,1.9,1.1c1.8,0.5,3.9,1.3,5.5,1.3c3.8-0.2,5.7-1.4,6.6-3.1l4.1-1.9c2.5,0.2,3.9-1.3,5.1-7
					c0.7-3.5-5.2-4-6.6-5.1c-1.4-1.1-2.6-1.6-3.2-2.8c-0.3-0.5-1-1.4-1.8-1.5c-1.1-0.1-1.8,0.3-2.4,0.8c-4.3-3.2-12.9-1.3-14.9,4.3
					c-0.2,0.6-0.2,1.2-0.4,1.7c-0.4,0.8-1.3,1.2-1.8,1.8c-1,1.2-2.3,3.4-1.9,5.3c0.2,1.1,0.2,1,0.6,1.7c0.3,0.4,0.5,0.7,0.6,0.8
					c0.2,0.2,0.5,0.5,1.2,1.1c0.8,0.6,3.2,1.6,6,1.8c1.9,0.1,1.2,0.1,3.1,0.7c-0.6-0.6-1.7-1.4-2.3-1.7c-3.9-0.1-7.6-2.9-7.9-4.9
					c-0.3-2.4,1.7-4.4,3.4-6c0.2-0.2,0.3-0.4,0.3-0.5c0.5-2,1.3-3.7,2.8-4.6c3.5-2.2,8.3-2,10.9,0c0.6-1,1.8-1.8,2.6-1.7
					c0.4,0.1,0.4,0.3,0.7,0.7c0.7,0.9,0.9,1.9,1.2,2.1c2.3,1.5,5.6,2.6,7.7,3.9c1.3,0.8-0.1,5.7-1.1,6.7c-1.3,1.3-2.8,0.9-4.3,1.6
					c0,0-3,1.9-7.7,1.5c-1.8-0.1-3.9-0.4-5.3-0.9c-0.7-0.3-1.4-0.7-2.2-1.1c-0.2,0-0.3-0.1-0.4-0.1c2.2,1.4,5.1,2.2,8.1,2.5
					c0.6,0.1-0.2,0.7,0.8,1l2.2,0.2c0.8,0,1.1-0.2,1.2-0.1c-0.6,0.8-2.8,2.3-6.4,2c-2.4-0.2-6.2-1.9-8.5-3.9c0.7,0.5,0.8,1,1.5,1.8"
					/>
				<path fill-rule="evenodd" clip-rule="evenodd" d="M249.6,211.1c0.6,0.5-1.4,1.6-1.4,1.6c-10,0.4-13.2-5.8-13.2-5.8
					C238.8,212,249.6,211.1,249.6,211.1z"/>
				<path d="M247.8,211.1c-4.6,0.2-7.4-0.8-10.1-2.3c-1.8-1-3.3-2.5-3.5-4.4c0-0.4,0-0.5,0.4-0.8c-0.8,0.1-1.1,0.8-1.4,1.5
					c0.3-0.3,0.4-0.5,0.5-0.1c1,4,6.5,6.9,11.6,7.5L247.8,211.1z"/>
				<path d="M236.7,213.3c0.8,0.5,1,0.7,1.8,1.1c1.6,0.7,3.2,1.3,5.9,1.2c2.6-0.1,3.6-0.8,4.7-1.7c-0.1-0.2-0.1-0.3-0.2-0.5
					c0-0.1,0-0.2,0-0.3c-0.9,0.8-3.1,1.8-6.1,1.5c-2.4-0.2-6.2-1.9-8.5-3.9C234.2,210.7,235.3,212.4,236.7,213.3z"/>
				<g>
					<path fill-rule="evenodd" clip-rule="evenodd" d="M256.2,205c0.8,0.2,1.8-1,1.2-1.7C256.4,202.4,255.4,204.2,256.2,205z"/>
					<path fill-rule="evenodd" clip-rule="evenodd" fill="#945F28" d="M256.4,205.1c0.4,0.1,1-0.6,0.8-1
						C256.7,203.7,256,204.6,256.4,205.1z"/>
				</g>
				<g>
					<path fill-rule="evenodd" clip-rule="evenodd" fill="#FFFFFF" d="M247.4,192.9c0.8-0.3,1.8-1.1,3.3,0.6
						c1.6,1.7,1.3,3.6-0.1,4.6c0,0-2.9-0.9-5.4-0.4C245.4,196.6,246.2,193.4,247.4,192.9z"/>
					<path fill-rule="evenodd" clip-rule="evenodd" d="M248,192.1c1.8-0.3,4.4,1.4,3.7,4.2c-0.1-2.2-2.4-3.9-3.7-3.3
						c-0.6,0.3-1.1,0.9-1.5,1.5c-0.2,0.3-0.8,1.7,0.1,2c0.3,0.1,0.9,0.2,1.1-0.3c0.2-0.6-0.3-1.2-0.4-1.1c0.9-0.7,2.4,0.9,1.4,2.4
						c0.4,0.2,3-0.3,4.7,1.7c-3.1-1.4-6.9-1.6-8.8-1.2c0.6-0.4,0.6-0.6,0.6-0.7C244.7,194.3,246.4,192.4,248,192.1z"/>
				</g>
				<path d="M252.5,210.3c-0.5,0.2-1.1,0.4-1.6,0.4c2,3.6,3.1,7.7,3.1,7.7l0.7-3l2.2,1.6C256.5,215.2,254.4,212.5,252.5,210.3z"/>
				<g>
					<path fill-rule="evenodd" clip-rule="evenodd" fill="#FFFFFF" d="M242,198.4c1.1-2,1.1-4.6-1.6-5.9c-2.6-1.3-3.7,0.3-4.6,1.1
						c-1.4,1.3-1.2,5.5-1,6.9C237.9,198.9,241.9,198.5,242,198.4C242,198.5,242.2,198,242,198.4z"/>
					<path fill-rule="evenodd" clip-rule="evenodd" d="M233.3,201.3c1.7-1,5.8-2.2,9.7-2.9c0.8-0.1-0.9-0.2-0.9-0.2
						c-1.6,0-2.6,0.5-2.9,0.4c0.7-2.4-1.9-3.7-2.8-2.3c0.1-0.1,1,0.3,0.9,1.2c0,0.8-0.9,1-1.3,1c-1.4,0.2-1.1-1.9-0.9-2.4
						c0.3-1,0.6-2,1.3-2.8c1.5-1.5,5.3-0.6,6.2,2.1c-0.1-4-4.3-4.7-6.5-3.3c-2,1.3-3.4,4.7-1.6,8.2
						C233.7,201.1,234.7,200.2,233.3,201.3z"/>
				</g>
				<g>
					<path fill-rule="evenodd" clip-rule="evenodd" d="M246.5,205.2c0.5-1.4,2.5-0.7,2.4,1.3c-0.8,0.5-1.5,0.4-2.1-0.2
						C246.8,206.5,246.2,205.7,246.5,205.2z"/>
					<path fill-rule="evenodd" clip-rule="evenodd" fill="#945F28" d="M246.9,206.3c0.1-0.9,1.5-0.9,1.8,0.3
						c-0.4,0.5-0.9,0.5-1.4,0.3C247.4,207,246.9,206.7,246.9,206.3z"/>
				</g>
			</g>
			<path fill="#F7AD41" d="M234.6,214.1l-4.3-1.7c0,0,0.7,0.1,1.6-0.1c1.1-0.2,2.4-1.3,2.4-1.3L234.6,214.1z"/>
			<polygon points="236,212.7 234.6,213.5 234.2,210.7 236,212.1 			"/>
			<path fill-rule="evenodd" clip-rule="evenodd" d="M219.9,222.8c-0.5-0.3-3.7,0.1-5.1,3.6C214.7,226.4,211.7,220.8,219.9,222.8z"
				/>
			<path d="M225.1,224.5c-1.6-0.6-3.1-0.3-5.5,1.7c1.1-5.9,7.4-2.9,8.1-1.2c0.7,1.7-0.4,3.2-0.4,3.3
				C227.4,226.7,226.7,225.2,225.1,224.5z"/>
		</g>
		<g>
			<path d="M265.9,245.8c-0.4-0.2-0.7-0.3-0.8-0.5c-0.1-0.2-0.2-0.4-0.2-0.6c0.6-4.8,0.8-5.7,1.4-10.3c0.6-4.5,1.2-8.9,1.7-13.3
				c0.4-0.7,1.1-1.4,2.3-2.1c1.2-0.7,2-0.4,2.5,0.8c-0.5,4.3-1,8.7-1.6,13.2c-0.5,4.6-0.7,5.4-1.2,10.2c-0.5,1-1,1.7-1.7,2
				C267.6,245.6,266.8,245.8,265.9,245.8z"/>
			<path d="M280,242.6c-1.6-0.8-7.1-5.7-8.3-6.8c-1.2-0.3-1.7-0.8-1.6-1.4c0.1-0.6,0.4-1.3,1-2c0.6-0.7,1.3-1.3,2-1.9
				c0.8-0.6,1.3-1.1,1.6-1.3c0.1-0.1,0.5-0.7,1.3-1.8c0.8-1.1,1.6-2.2,2.6-3.3c1-1.1,2-1.9,3-2.5c1-0.6,1.8-0.4,2.4,0.5
				c0.2,0.8,0,1.6-0.6,2.6c-0.5,1-1.2,2-2.1,3c-0.8,1-1.7,1.9-2.6,2.8c-0.9,0.9-1.6,1.6-2.2,2.2c0,0.1,0.4,0.7,1.2,1.8
				c0.7,1.1,1.5,2.2,2.1,3.4c0.7,1.2,1.1,2.3,1.3,3.3C281.4,242.2,281,242.6,280,242.6z"/>
			<path d="M301.2,230.2c0.1-3.2-0.2-6-1-8.3c-1.1-1.6-2.4-2.5-3.8-2.7c-1.4-0.2-2.8-0.1-4.2,0.4c-1.4,0.5-2.7,1.4-4,2.5
				c-1.3,1.1-2.2,2.3-3,3.4c-0.3,0.7-0.6,1.9-0.9,3.5c-0.3,1.6-0.5,3.3-0.6,5c-0.1,1.7-0.2,4.1-0.1,5.5c0.1,1.4,0.4,2.2,0.9,2.5
				c0.9,0,1.2-0.1,1.6-0.5c0.4-0.4,0.9-1.1,1.1-1.8c0.1-0.7,0.5-2.1,0.5-2.9c0-0.8,0-1.5,0-2.2c2,0.4,3.7,0.4,5.2-0.1
				c1.4-0.5,2.9-1.4,4.5-2.6c0,0,0.1,0.7,0.3,1.8c0.2,1.2,0.5,1.2,0.8,2.4c0.3,1.2,0.7,2.1,1.2,2.8c0.5,0.6,0.9,0.4,1.4-0.8
				C301,235.3,301.1,233.4,301.2,230.2z M298.8,226.8c-0.3,1-0.8,2-1.5,2.8c-0.7,0.8-1.7,1.5-2.8,1.9c-1.1,0.5-2.2,0.7-3.3,0.7
				c-2.1-0.6-3.2-1.7-3.1-3.3c0.1-1.6,0.7-3.1,1.9-4.4c1.1-1.3,2.6-2.2,4.2-2.6c1.7-0.5,3.1,0.1,4.2,1.7
				C299,224.7,299.1,225.8,298.8,226.8z"/>
			<path d="M317.5,232.4c0.3-3.1,0.1-5.8-0.5-8.2c-1-1.6-2.2-2.5-3.6-2.6c-1.3-0.2-2.6,0.1-3.9,0.8c-1.2,0.7-2.4,1.6-3.4,2.7
				c-1,1.1-1.8,2.3-2.3,3.3c-0.2,0.7-0.4,1.7-0.5,3.1c-0.1,1.4-0.2,2.8-0.2,4.2c0,1.4,0.1,2.6,0.2,3.7c0.1,1.1,0.4,1.7,0.7,1.9
				c0.7,0.1,1.2-0.1,1.5-0.4c0.3-0.3,0.5-0.7,0.6-1.2c0.1-0.5,0.1-1.1,0.1-1.7c0-0.6-0.1-1.2-0.1-1.7c1.6,0.4,2.9,0.3,4.1-0.1
				c1.2-0.4,2.4-1.2,3.8-2.3c0,0-0.2,1-0.2,2.3c0,1.1-0.1,2.3,0.3,3.4c0.3,1,0.7,1.5,1.2,2c0.4,0.2,0.8,0.3,1.2-0.6
				C316.6,238.7,317.2,235.4,317.5,232.4z M315.5,229.3c-0.3,1-0.8,1.9-1.4,2.6c-0.7,0.7-1.5,1.3-2.4,1.8c-0.9,0.4-1.9,0.6-2.8,0.6
				c-1.7-0.5-2.6-1.5-2.6-2.9c0-1.4,0.5-2.8,1.4-4.1c1-1.3,2.2-2.2,3.7-2.8c1.5-0.6,2.8-0.1,3.9,1.5
				C315.7,227.2,315.7,228.2,315.5,229.3z"/>
		</g>
	</g>
	<g>
		<g>
			<path fill="#FFD45C" d="M435.3,246.2c-0.1-0.4-0.2-0.9-0.5-1.2c-0.5-0.7-1.4-1.2-2.3-1.2h-17.9h-8.9h-4.5c-0.4,0-0.7,0-1.2,0
				c-0.4,0.1-0.9,0.2-1.2,0.5c-0.7,0.5-1.2,1.4-1.2,2.3v17.9v8.9v4.5c0,0.4,0,0.7,0,1.2c0.1,0.4,0.2,0.9,0.5,1.2
				c0.5,0.7,1.4,1.2,2.3,1.2h17.9h8.9h4.5c0.4,0,0.7,0,1.2,0c0.4-0.1,0.9-0.2,1.2-0.5c0.7-0.5,1.2-1.4,1.2-2.3v-17.9v-8.9v-4.5
				C435.3,247,435.3,246.7,435.3,246.2z M434.4,247.4v4.5v8.9v17.9c0,0.6-0.3,1.2-0.8,1.5c-0.2,0.2-0.5,0.3-0.8,0.3
				c-0.3,0-0.7,0-1.1,0h-4.5h-8.9h-17.9c-0.6,0-1.2-0.3-1.5-0.8c-0.2-0.2-0.3-0.5-0.3-0.8c0-0.3,0-0.7,0-1.1v-4.5v-8.9v-17.9
				c0-0.6,0.3-1.2,0.8-1.5c0.2-0.2,0.5-0.3,0.8-0.3c0.3,0,0.7,0,1.1,0h4.5h8.9h17.9c0.6,0,1.2,0.3,1.5,0.8c0.2,0.2,0.3,0.5,0.3,0.8
				C434.4,246.6,434.4,247,434.4,247.4z"/>
			<path fill="#FFD45C" d="M432.3,281.8l-0.4,0l-0.2,0l-31.3,0c-1,0-2-0.5-2.6-1.3c-0.3-0.4-0.5-0.9-0.5-1.4c0-0.3,0-0.6,0-0.8
				c0-0.1,0-0.2,0-0.4v-31.3c0-1,0.5-2,1.3-2.6c0.4-0.3,0.9-0.5,1.4-0.5c0.2,0,0.4,0,0.6,0l0.4,0l0.2,0h31.3c1,0,2,0.5,2.6,1.3
				c0.3,0.4,0.5,0.9,0.5,1.4c0,0.3,0,0.6,0,0.9c0,0.1,0,0.2,0,0.4v31.3c0,1-0.5,2-1.3,2.6c-0.4,0.3-0.9,0.5-1.4,0.5
				C432.7,281.8,432.5,281.8,432.3,281.8z M431.9,281.1l0.4,0c0.2,0,0.3,0,0.5,0c0.4-0.1,0.8-0.2,1.1-0.4c0.6-0.4,1-1.2,1-2v-31.3
				c0-0.1,0-0.3,0-0.4c0-0.2,0-0.5,0-0.8c-0.1-0.4-0.2-0.8-0.4-1.1c-0.4-0.6-1.2-1-2-1l-31.9,0c-0.2,0-0.3,0-0.5,0
				c-0.4,0.1-0.8,0.2-1.1,0.4c-0.6,0.4-1,1.2-1,2v31.3c0,0.1,0,0.3,0,0.4c0,0.2,0,0.5,0,0.8c0.1,0.4,0.2,0.8,0.4,1.1
				c0.4,0.6,1.2,1,2,1L431.9,281.1z M432.3,280.9l-0.4,0l-0.2,0h-31.3c-0.7,0-1.4-0.4-1.8-1c-0.2-0.3-0.3-0.6-0.4-1
				c0-0.2,0-0.5,0-0.7c0-0.1,0-0.2,0-0.4v-31.3c0-0.7,0.4-1.4,0.9-1.8c0.3-0.2,0.6-0.3,1-0.4c0.1,0,0.3,0,0.5,0l0.4,0l0.1,0h31.3
				c0.7,0,1.4,0.4,1.8,0.9c0.2,0.3,0.3,0.6,0.4,1c0,0.2,0,0.5,0,0.7c0,0.1,0,0.2,0,0.4v31.3c0,0.7-0.4,1.4-1,1.8
				c-0.3,0.2-0.6,0.3-1,0.4C432.7,280.9,432.5,280.9,432.3,280.9z M431.9,280.2l0.4,0c0.2,0,0.3,0,0.4,0c0.2,0,0.5-0.1,0.7-0.3
				c0.4-0.3,0.7-0.8,0.7-1.2v-31.3c0-0.1,0-0.2,0-0.4c0-0.2,0-0.5,0-0.6c0-0.2-0.1-0.5-0.3-0.7c-0.3-0.4-0.8-0.7-1.2-0.7l-31.9,0
				c-0.2,0-0.3,0-0.4,0c-0.2,0-0.5,0.1-0.7,0.3c-0.4,0.3-0.7,0.8-0.7,1.2v31.3c0,0.1,0,0.2,0,0.4c0,0.2,0,0.5,0,0.6
				c0,0.2,0.1,0.5,0.3,0.7c0.3,0.4,0.8,0.7,1.2,0.7L431.9,280.2z"/>
		</g>
		<g>
			<path fill="#FFD45C" d="M400.9,278.2h17.2H432V247h-31.2V278.2z M401.8,248h29.3v29.3h-13h-16.3V248z"/>
			<path fill="#FFD45C" d="M432.4,278.6h-31.9v-31.9h31.9V278.6z M401.2,277.9h30.5v-30.5h-30.5V277.9z M431.5,277.7h-30v-30h30
				V277.7z M402.1,277h28.6v-28.6h-28.6V277z"/>
		</g>
		<g>
			<path fill="#FFD45C" d="M403.2,281.6l2,3.9h22.5l2-3.9H423H403.2z M427.1,284.6h-21.4l-1.1-2.1H423h5.2L427.1,284.6z"/>
			<path fill="#FFD45C" d="M427.9,285.9H405l-2.4-4.6h27.7L427.9,285.9z M405.4,285.2h22l1.7-3.2h-25.4L405.4,285.2z M427.3,284.9
				h-21.8l-1.4-2.8h24.7L427.3,284.9z M406,284.2h20.9l0.7-1.4h-22.3L406,284.2z"/>
		</g>
		<g>
			<path fill="#FFD45C" d="M405,288.3h14.2h8.6V286H405V288.3z M405.9,286.9h21v0.5h-7.7h-13.3V286.9z"/>
			<path fill="#FFD45C" d="M428.2,288.7h-23.6v-3h23.6V288.7z M405.4,288h22.2v-1.6h-22.2V288z M427.3,287.8h-21.8v-1.2h21.8V287.8z
				"/>
		</g>
		<g>
			<path fill="#FFD45C" d="M429.7,243.3l-2-3.9h-22.5l-2,3.9H423H429.7z M405.8,240.3h21.4l1.1,2.1H423h-18.3L405.8,240.3z"/>
			<path fill="#FFD45C" d="M430.3,243.6h-27.7l2.4-4.6h22.9L430.3,243.6z M403.8,242.9h25.4l-1.7-3.2h-22L403.8,242.9z M428.8,242.7
				h-24.7l1.4-2.8h21.8L428.8,242.7z M405.3,242h22.3l-0.7-1.4H406L405.3,242z"/>
		</g>
		<g>
			<path fill="#FFD45C" d="M427.9,236.2h-8.6H405v2.3h22.9V236.2z M427,237.6h-21v-0.5h13.3h7.7V237.6z"/>
			<path fill="#FFD45C" d="M428.2,238.9h-23.6v-3h23.6V238.9z M405.4,238.2h22.2v-1.6h-22.2V238.2z M427.3,238h-21.8v-1.2h21.8V238z
				"/>
		</g>
		<g>
			<path fill="#FFD45C" d="M424.6,270.8h0.9c0-4.4-1.8-8.8-4.9-11.9c-3.1-3.1-7.5-4.9-11.9-4.9v0.9c4.2,0,8.3,1.7,11.2,4.6
				C422.9,262.5,424.6,266.6,424.6,270.8z"/>
			<path fill="#FFD45C" d="M425.9,271.1h-1.6l0-0.4c0-4.1-1.6-8.1-4.5-11c-2.9-2.9-6.8-4.5-10.9-4.5l-0.4,0v-1.6l0.4,0
				c4.5,0,8.9,1.8,12,5c3.2,3.2,5,7.6,5,12.1L425.9,271.1z M425,270.4h0.2c-0.1-4.2-1.8-8.3-4.8-11.3c-3-3-7.1-4.7-11.3-4.8v0.2
				c4.1,0.1,8.2,1.8,11.1,4.7C423.2,262.2,424.9,266.3,425,270.4z"/>
		</g>
		<g>
			<path fill="#FFD45C" d="M419.1,270.8c0-2.7-1.1-5.4-3-7.3c-1.9-1.9-4.6-3.1-7.3-3v0.9c2.5,0,4.9,1,6.7,2.8
				c1.8,1.7,2.8,4.2,2.8,6.7H419.1z"/>
			<path fill="#FFD45C" d="M419.5,271.1h-1.6l0-0.4c0-2.4-1-4.7-2.7-6.4c-1.7-1.7-4-2.7-6.4-2.7h-0.4l0-0.4V260l0.3,0
				c2.9,0,5.6,1.1,7.6,3.1c2,2,3.2,4.8,3.1,7.6L419.5,271.1z M418.6,270.4h0.2c-0.1-2.5-1.1-5-2.9-6.7c-1.8-1.8-4.2-2.9-6.7-2.9v0.2
				c2.5,0.1,4.9,1.1,6.6,2.9C417.5,265.6,418.5,268,418.6,270.4z"/>
		</g>
		<g>
			<path fill="#FFD45C" d="M408.8,265.7v0.9c1.1,0,2.2,0.4,3,1.2c0.8,0.8,1.2,1.9,1.2,3h0.9c0-1.3-0.5-2.7-1.5-3.6
				C411.4,266.2,410.1,265.7,408.8,265.7z"/>
			<path fill="#FFD45C" d="M414.2,271.1h-1.6l0-0.4c0-1-0.4-2-1.1-2.7c-0.7-0.7-1.7-1.1-2.7-1.1h-0.4l0-0.4v-1.3l0.3,0
				c1.5,0,2.9,0.6,3.9,1.6c1,1,1.6,2.4,1.6,3.9L414.2,271.1z M413.3,270.4h0.2c-0.1-1.1-0.6-2.2-1.4-3c-0.8-0.8-1.9-1.3-3-1.4v0.2
				c1.1,0.1,2.1,0.6,2.9,1.3C412.7,268.3,413.2,269.3,413.3,270.4z"/>
		</g>
	</g>
	<g opacity="0.8">
		<g>
			<path fill="#CCCCCC" d="M105.1,143c-0.1-0.6-0.3-1.1-0.6-1.6c-0.7-1-1.8-1.6-3-1.5H78.3H66.6h-5.8c-0.5,0-0.9,0-1.5,0
				c-0.6,0.1-1.1,0.3-1.6,0.6c-1,0.7-1.6,1.8-1.5,3v23.3v11.6v5.8c0,0.5,0,0.9,0,1.5c0.1,0.6,0.3,1.1,0.6,1.6c0.7,1,1.8,1.6,3,1.5
				H83h11.6h5.8c0.5,0,0.9,0,1.5,0c0.6-0.1,1.1-0.3,1.6-0.6c1-0.7,1.6-1.8,1.5-3V162v-11.6v-5.8C105.2,144,105.2,143.6,105.1,143z
				 M104,144.6v5.8V162v23.3c0,0.8-0.4,1.5-1,2c-0.3,0.2-0.7,0.4-1.1,0.4c-0.3,0-0.9,0-1.4,0h-5.8H83H59.7c-0.8,0-1.5-0.4-2-1
				c-0.2-0.3-0.4-0.7-0.4-1.1c0-0.3,0-0.9,0-1.4v-5.8v-11.6v-23.3c0-0.8,0.4-1.5,1-2c0.3-0.2,0.7-0.4,1.1-0.4c0.3,0,0.9,0,1.4,0h5.8
				h11.6h23.3c0.8,0,1.5,0.4,2,1c0.2,0.3,0.4,0.7,0.4,1.1C104,143.5,104,144.1,104,144.6z"/>
			<path fill="#CCCCCC" d="M101.3,189.4l-0.6,0l-0.2,0l-40.8,0c-1.3,0-2.6-0.7-3.3-1.7c-0.4-0.5-0.6-1.1-0.7-1.8c0-0.5,0-0.8,0-1.1
				c0-0.2,0-0.3,0-0.5v-40.8c0-1.3,0.7-2.6,1.7-3.3c0.5-0.4,1.1-0.6,1.8-0.7c0.3,0,0.6,0,0.8,0l0.6,0l0.2,0h40.8
				c1.3,0,2.6,0.7,3.3,1.7c0.4,0.5,0.6,1.1,0.7,1.8c0,0.5,0,0.8,0,1.1c0,0.2,0,0.3,0,0.5v40.8c0,1.3-0.7,2.6-1.7,3.3
				c-0.5,0.4-1.1,0.6-1.8,0.7C101.8,189.4,101.5,189.4,101.3,189.4z M100.7,188.5l0.6,0c0.2,0,0.4,0,0.7,0c0.5-0.1,1-0.3,1.4-0.5
				c0.8-0.6,1.4-1.6,1.4-2.6v-40.8c0-0.2,0-0.3,0-0.5c0-0.3,0-0.6,0-1c-0.1-0.5-0.3-1-0.5-1.4c-0.6-0.8-1.6-1.4-2.6-1.4l-41.5,0
				c-0.2,0-0.4,0-0.7,0c-0.5,0.1-1,0.3-1.4,0.5c-0.8,0.6-1.4,1.6-1.4,2.6v40.8c0,0.2,0,0.3,0,0.5c0,0.3,0,0.6,0,1
				c0.1,0.5,0.3,1,0.5,1.4c0.6,0.8,1.6,1.4,2.6,1.4L100.7,188.5z M101.3,188.2l-0.6,0l-0.2,0H59.7c-0.9,0-1.8-0.5-2.4-1.2
				c-0.3-0.4-0.4-0.8-0.5-1.3c0-0.3,0-0.6,0-1c0-0.2,0-0.3,0-0.5v-40.8c0-0.9,0.5-1.8,1.2-2.4c0.4-0.3,0.8-0.4,1.3-0.5
				c0.2,0,0.4,0,0.7,0l0.6,0l0.2,0h40.8c0.9,0,1.8,0.5,2.4,1.2c0.3,0.4,0.4,0.8,0.5,1.3c0,0.3,0,0.6,0,1c0,0.2,0,0.3,0,0.5v40.8
				c0,0.9-0.5,1.8-1.2,2.4c-0.4,0.3-0.8,0.4-1.3,0.5C101.7,188.2,101.5,188.2,101.3,188.2z M100.7,187.3l0.6,0c0.2,0,0.4,0,0.5,0
				c0.3,0,0.6-0.2,0.9-0.3c0.5-0.4,0.9-1,0.9-1.6v-40.8c0-0.1,0-0.3,0-0.5c0-0.3,0-0.6,0-0.8c0-0.3-0.2-0.6-0.3-0.9
				c-0.4-0.5-1-0.8-1.6-0.8l-41.5,0c-0.2,0-0.4,0-0.5,0c-0.3,0-0.6,0.2-0.9,0.3c-0.5,0.4-0.8,1-0.8,1.6v40.8c0,0.1,0,0.3,0,0.5
				c0,0.3,0,0.6,0,0.8c0,0.3,0.2,0.6,0.3,0.9c0.4,0.5,1,0.9,1.6,0.9L100.7,187.3z"/>
		</g>
		<g>
			<path fill="#CCCCCC" d="M60.3,184.7h22.5h18.2v-40.6H60.3V184.7z M61.5,145.3h38.2v38.2h-17H61.5V145.3z"/>
			<path fill="#CCCCCC" d="M101.4,185.2H59.9v-41.5h41.5V185.2z M60.8,184.3h39.7v-39.7H60.8V184.3z M100.2,184H61.1v-39.2h39.2V184
				z M62,183.1h37.3v-37.3H62V183.1z"/>
		</g>
		<g>
			<path fill="#CCCCCC" d="M63.4,189.1l2.6,5.1h29.3l2.6-5.1h-8.7H63.4z M94.5,193H66.7l-1.4-2.7h23.9h6.8L94.5,193z"/>
			<path fill="#CCCCCC" d="M95.5,194.7H65.7l-3.1-6h36.1L95.5,194.7z M66.3,193.8H95l2.2-4.2H64.1L66.3,193.8z M94.8,193.5H66.4
				l-1.9-3.6h32.1L94.8,193.5z M67,192.6h27.3l0.9-1.8H66.1L67,192.6z"/>
		</g>
		<g>
			<path fill="#CCCCCC" d="M65.7,197.9h18.5h11.3v-3H65.7V197.9z M66.9,196.1h27.4v0.6H84.3H66.9V196.1z"/>
			<path fill="#CCCCCC" d="M96,198.3H65.3v-3.9H96V198.3z M66.2,197.4h28.9v-2.1H66.2V197.4z M94.8,197.2H66.5v-1.5h28.3V197.2z"/>
		</g>
		<g>
			<path fill="#CCCCCC" d="M97.9,139.1l-2.6-5.1H66l-2.6,5.1h25.8H97.9z M66.7,135.3h27.8l1.4,2.7h-6.8H65.3L66.7,135.3z"/>
			<path fill="#CCCCCC" d="M98.7,139.6H62.6l3.1-6h29.8L98.7,139.6z M64.1,138.7h33.1l-2.2-4.2H66.3L64.1,138.7z M96.7,138.4H64.6
				l1.9-3.6h28.4L96.7,138.4z M66.1,137.5h29.1l-0.9-1.8H67L66.1,137.5z"/>
		</g>
		<g>
			<path fill="#CCCCCC" d="M95.5,130H84.3H65.7v3h29.8V130z M94.4,131.8H66.9v-0.6h17.4h10.1V131.8z"/>
			<path fill="#CCCCCC" d="M96,133.5H65.3v-3.9H96V133.5z M66.2,132.6h28.9v-2.1H66.2V132.6z M94.8,132.3H66.5v-1.5h28.3V132.3z"/>
		</g>
		<g>
			<path fill="#CCCCCC" d="M91.3,175h1.2c0-5.7-2.3-11.4-6.4-15.5c-4-4.1-9.7-6.4-15.5-6.4v1.2c5.4,0,10.8,2.2,14.6,6.1
				C89.1,164.2,91.3,169.6,91.3,175z"/>
			<path fill="#CCCCCC" d="M92.9,175.5h-2.1l0-0.5c0-5.3-2.1-10.5-5.9-14.3c-3.7-3.8-8.9-5.9-14.2-5.9l-0.6,0v-2.1l0.6,0
				c5.8,0,11.6,2.4,15.7,6.5c4.2,4.1,6.6,9.9,6.5,15.8L92.9,175.5z M91.7,174.5H92c-0.1-5.5-2.4-10.8-6.3-14.7
				c-3.9-3.9-9.2-6.2-14.7-6.3v0.3c5.4,0.1,10.7,2.3,14.5,6.2C89.4,163.9,91.6,169.1,91.7,174.5z"/>
		</g>
		<g>
			<path fill="#CCCCCC" d="M84.1,175c0-3.5-1.4-7.1-4-9.6c-2.5-2.5-6-4-9.6-4v1.2c3.2,0,6.4,1.3,8.7,3.6c2.3,2.3,3.6,5.5,3.6,8.7
				H84.1z"/>
			<path fill="#CCCCCC" d="M84.6,175.5h-2.1l0-0.5c0-3.1-1.3-6.2-3.5-8.4c-2.2-2.2-5.2-3.5-8.3-3.5h-0.5l-0.1-0.5V161l0.5,0
				c3.7,0,7.3,1.5,9.9,4.1c2.6,2.6,4.1,6.2,4.1,9.9L84.6,175.5z M83.4,174.5h0.3c-0.1-3.3-1.5-6.5-3.8-8.8c-2.3-2.3-5.5-3.7-8.8-3.8
				v0.3c3.2,0.1,6.3,1.5,8.6,3.7C81.9,168.2,83.3,171.3,83.4,174.5z"/>
		</g>
		<g>
			<path fill="#CCCCCC" d="M70.6,168.4v1.2c1.4,0,2.8,0.6,3.9,1.6c1,1,1.6,2.4,1.6,3.9h1.2c0-1.7-0.7-3.5-1.9-4.7
				C74.1,169.1,72.4,168.3,70.6,168.4z"/>
			<path fill="#CCCCCC" d="M77.7,175.5h-2.1l0-0.5c0-1.3-0.5-2.6-1.5-3.5c-0.9-0.9-2.2-1.5-3.5-1.5h-0.5l0-0.5v-1.6l0.5,0
				c1.9,0,3.7,0.8,5,2.1c1.3,1.3,2.1,3.2,2.1,5L77.7,175.5z M76.5,174.5h0.3c-0.1-1.5-0.8-2.9-1.8-3.9c-1-1-2.5-1.7-3.9-1.8v0.3
				c1.4,0.1,2.7,0.7,3.7,1.7C75.8,171.8,76.4,173.2,76.5,174.5z"/>
		</g>
	</g>
	<g>
		<g>
			<path fill="#FFD45C" d="M240.9,334.6c-0.1-0.5-0.2-0.9-0.5-1.3c-0.5-0.8-1.5-1.2-2.4-1.2h-18.7h-9.4h-4.7c-0.4,0-0.7,0-1.2,0
				c-0.5,0.1-0.9,0.2-1.3,0.5c-0.8,0.5-1.2,1.5-1.2,2.4v18.7v9.4v4.7c0,0.4,0,0.7,0,1.2c0.1,0.5,0.2,0.9,0.5,1.3
				c0.5,0.8,1.5,1.2,2.4,1.2h18.7h9.4h4.7c0.4,0,0.7,0,1.2,0c0.5-0.1,0.9-0.2,1.3-0.5c0.8-0.5,1.2-1.5,1.2-2.4v-18.7v-9.4v-4.7
				C240.9,335.4,240.9,335.1,240.9,334.6z M239.9,335.8v4.7v9.4v18.7c0,0.6-0.3,1.2-0.8,1.6c-0.3,0.2-0.6,0.3-0.9,0.3
				c-0.3,0-0.7,0-1.1,0h-4.7h-9.4h-18.7c-0.6,0-1.2-0.3-1.6-0.8c-0.2-0.3-0.3-0.6-0.3-0.9c0-0.3,0-0.7,0-1.1V363v-9.4v-18.7
				c0-0.6,0.3-1.2,0.8-1.6c0.3-0.2,0.6-0.3,0.9-0.3c0.3,0,0.7,0,1.1,0h4.7h9.4H238c0.6,0,1.2,0.3,1.6,0.8c0.2,0.3,0.3,0.6,0.3,0.9
				C240,335,239.9,335.4,239.9,335.8z"/>
			<path fill="#FFD45C" d="M237.8,371.8l-0.4,0l-0.2,0l-32.8,0c-1.1,0-2.1-0.5-2.7-1.4c-0.3-0.4-0.5-0.9-0.6-1.5c0-0.4,0-0.6,0-0.9
				c0-0.1,0-0.2,0-0.4v-32.8c0-1.1,0.5-2.1,1.4-2.7c0.4-0.3,0.9-0.5,1.5-0.6c0.3,0,0.5,0,0.7,0l0.4,0l0.2,0H238
				c1.1,0,2.1,0.5,2.7,1.4c0.3,0.4,0.5,0.9,0.6,1.5c0,0.4,0,0.6,0,0.9c0,0.1,0,0.2,0,0.4v32.8c0,1.1-0.5,2.1-1.4,2.7
				c-0.4,0.3-0.9,0.5-1.5,0.6C238.2,371.8,237.9,371.8,237.8,371.8z M237.3,371.1l0.4,0c0.2,0,0.3,0,0.6,0c0.4-0.1,0.8-0.2,1.1-0.4
				c0.7-0.5,1.1-1.3,1.1-2.1v-32.8c0-0.1,0-0.3,0-0.4c0-0.2,0-0.5,0-0.8c-0.1-0.4-0.2-0.8-0.4-1.1c-0.5-0.7-1.3-1.1-2.1-1.1l-33.4,0
				c-0.2,0-0.4,0-0.6,0c-0.4,0.1-0.8,0.2-1.1,0.4c-0.7,0.5-1.1,1.3-1.1,2.1v32.8c0,0.1,0,0.3,0,0.4c0,0.2,0,0.5,0,0.8
				c0.1,0.4,0.2,0.8,0.4,1.1c0.5,0.7,1.3,1.1,2.1,1.1L237.3,371.1z M237.7,370.9l-0.4,0l-0.2,0h-32.8c-0.8,0-1.5-0.4-1.9-1
				c-0.2-0.3-0.3-0.6-0.4-1c0-0.2,0-0.5,0-0.8c0-0.1,0-0.3,0-0.4v-32.8c0-0.8,0.4-1.5,1-1.9c0.3-0.2,0.6-0.3,1-0.4
				c0.1,0,0.3,0,0.5,0l0.5,0l0.2,0H238c0.8,0,1.5,0.4,1.9,1c0.2,0.3,0.3,0.6,0.4,1c0,0.2,0,0.5,0,0.8c0,0.1,0,0.3,0,0.4v32.8
				c0,0.8-0.4,1.5-1,1.9c-0.3,0.2-0.6,0.3-1,0.4C238.1,370.9,237.9,370.9,237.7,370.9z M237.3,370.1l0.4,0c0.2,0,0.3,0,0.4,0
				c0.3,0,0.5-0.1,0.7-0.3c0.4-0.3,0.7-0.8,0.7-1.3v-32.8c0-0.1,0-0.3,0-0.4c0-0.2,0-0.5,0-0.7c0-0.3-0.1-0.5-0.3-0.7
				c-0.3-0.4-0.8-0.7-1.3-0.7l-33.4,0c-0.2,0-0.3,0-0.4,0c-0.3,0-0.5,0.1-0.7,0.3c-0.4,0.3-0.7,0.8-0.7,1.3v32.8c0,0.1,0,0.3,0,0.4
				c0,0.3,0,0.5,0,0.7c0,0.3,0.1,0.5,0.3,0.7c0.3,0.4,0.8,0.7,1.3,0.7L237.3,370.1z"/>
		</g>
		<g>
			<path fill="#FFD45C" d="M204.9,368.1h18h14.6v-32.6h-32.6V368.1z M205.8,336.4h30.7v30.7h-13.6h-17.1V336.4z"/>
			<path fill="#FFD45C" d="M237.9,368.4h-33.4v-33.4h33.4V368.4z M205.2,367.7h31.9v-31.9h-31.9V367.7z M236.9,367.5h-31.5V336h31.5
				V367.5z M206.2,366.7h30v-30h-30V366.7z"/>
		</g>
		<g>
			<path fill="#FFD45C" d="M207.3,371.6l2.1,4.1h23.5l2.1-4.1h-7H207.3z M232.4,374.7H210l-1.1-2.2H228h5.4L232.4,374.7z"/>
			<path fill="#FFD45C" d="M233.2,376.1h-24l-2.5-4.8h29L233.2,376.1z M209.6,375.3h23.1l1.7-3.3h-26.6L209.6,375.3z M232.6,375.1
				h-22.8l-1.5-2.9h25.8L232.6,375.1z M210.2,374.4h21.9l0.7-1.4h-23.4L210.2,374.4z"/>
		</g>
		<g>
			<path fill="#FFD45C" d="M209.2,378.6h14.9h9.1v-2.4h-24V378.6z M210.2,377.2h22v0.5h-8.1h-13.9V377.2z"/>
			<path fill="#FFD45C" d="M233.5,379h-24.7v-3.2h24.7V379z M209.6,378.3h23.2v-1.7h-23.2V378.3z M232.6,378.1h-22.8v-1.2h22.8
				V378.1z"/>
		</g>
		<g>
			<path fill="#FFD45C" d="M235.1,331.4l-2.1-4.1h-23.5l-2.1,4.1H228H235.1z M210,328.3h22.4l1.1,2.2H228h-19.2L210,328.3z"/>
			<path fill="#FFD45C" d="M235.7,331.8h-29l2.5-4.8h24L235.7,331.8z M207.9,331.1h26.6l-1.7-3.3h-23.1L207.9,331.1z M234.1,330.9
				h-25.8l1.5-2.9h22.8L234.1,330.9z M209.5,330.1h23.4l-0.7-1.4h-21.9L209.5,330.1z"/>
		</g>
		<g>
			<path fill="#FFD45C" d="M233.2,324.1h-9.1h-14.9v2.4h24V324.1z M232.2,325.6h-22v-0.5h13.9h8.1V325.6z"/>
			<path fill="#FFD45C" d="M233.5,326.9h-24.7v-3.2h24.7V326.9z M209.6,326.2h23.2v-1.7h-23.2V326.2z M232.6,325.9h-22.8v-1.2h22.8
				V325.9z"/>
		</g>
		<g>
			<path fill="#FFD45C" d="M229.7,360.3h1c0-4.6-1.9-9.2-5.1-12.4c-3.2-3.3-7.8-5.2-12.4-5.1v1c4.4,0,8.7,1.8,11.7,4.9
				C228,351.6,229.8,355.9,229.7,360.3z"/>
			<path fill="#FFD45C" d="M231.1,360.6h-1.7l0-0.4c0-4.3-1.7-8.5-4.8-11.5c-3-3-7.2-4.8-11.4-4.8l-0.5,0v-1.7l0.5,0
				c4.7,0,9.3,1.9,12.6,5.3c3.4,3.3,5.3,8,5.3,12.7L231.1,360.6z M230.1,359.9h0.2c-0.1-4.4-1.9-8.7-5-11.8c-3.1-3.1-7.4-5-11.8-5
				v0.2c4.3,0.1,8.6,1.9,11.6,5C228.2,351.3,230,355.5,230.1,359.9z"/>
		</g>
		<g>
			<path fill="#FFD45C" d="M224,360.3c0-2.8-1.2-5.7-3.2-7.7c-2-2-4.8-3.2-7.7-3.2v1c2.6,0,5.2,1.1,7,2.9c1.8,1.8,2.9,4.4,2.9,7H224
				z"/>
			<path fill="#FFD45C" d="M224.4,360.6h-1.7l0-0.4c0-2.5-1-5-2.8-6.7c-1.8-1.8-4.2-2.8-6.7-2.8h-0.4l0-0.4V349l0.4,0
				c3,0,5.9,1.2,7.9,3.3c2.1,2.1,3.3,5,3.3,7.9L224.4,360.6z M223.4,359.9h0.2c-0.1-2.6-1.2-5.2-3.1-7.1c-1.9-1.9-4.4-3-7.1-3.1v0.2
				c2.6,0.1,5.1,1.2,6.9,3C222.2,354.8,223.3,357.3,223.4,359.9z"/>
		</g>
		<g>
			<path fill="#FFD45C" d="M213.1,354.9v1c1.2,0,2.3,0.5,3.1,1.3c0.8,0.8,1.3,1.9,1.3,3.1h1c0-1.4-0.6-2.8-1.6-3.8
				C215.9,355.5,214.5,354.9,213.1,354.9z"/>
			<path fill="#FFD45C" d="M218.8,360.6h-1.7l0-0.4c0-1.1-0.4-2.1-1.2-2.8c-0.7-0.7-1.8-1.2-2.8-1.2h-0.4l0-0.4v-1.3l0.4,0
				c1.5,0,3,0.6,4,1.7c1.1,1.1,1.7,2.5,1.7,4L218.8,360.6z M217.9,359.9h0.2c-0.1-1.2-0.6-2.3-1.4-3.1c-0.8-0.8-2-1.4-3.2-1.4v0.2
				c1.1,0.1,2.2,0.6,3,1.4C217.3,357.7,217.8,358.8,217.9,359.9z"/>
		</g>
	</g>
	<g opacity="0.6">
		<g>
			<g>
				<path fill="#F7AD41" d="M66,225.2c0.5,0,0.8,0.4,0.8,0.8v4.2c0,0.5-0.4,0.8-0.8,0.8h-6.2c-0.5,0-0.8-0.4-0.8-0.8V226
					c0-0.5,0.4-0.8,0.8-0.8H66L66,225.2z M66,224.3h-6.2c-0.9,0-1.7,0.8-1.7,1.7v4.2c0,0.9,0.8,1.7,1.7,1.7H66
					c0.9,0,1.7-0.8,1.7-1.7V226C67.7,225.1,66.9,224.3,66,224.3L66,224.3z"/>
			</g>
		</g>
		<g>
			<g>
				<path fill="#F7AD41" d="M62.9,228.7c0,0-0.1,0-0.1,0l-3.7-3.1c-0.1-0.1-0.1-0.2,0-0.3c0.1-0.1,0.2-0.1,0.3,0l3.5,3l3.5-3
					c0.1-0.1,0.2-0.1,0.3,0c0.1,0.1,0.1,0.2,0,0.3l-3.7,3.1C63,228.7,62.9,228.7,62.9,228.7z"/>
			</g>
		</g>
		<g>
			<g>
				<path fill="#F7AD41" d="M59.2,230.9c-0.1,0-0.1,0-0.2-0.1c-0.1-0.1-0.1-0.2,0-0.3l3-2.6c0.1-0.1,0.2-0.1,0.3,0
					c0.1,0.1,0.1,0.2,0,0.3l-3,2.6C59.3,230.9,59.3,230.9,59.2,230.9z"/>
			</g>
		</g>
		<g>
			<g>
				<path fill="#F7AD41" d="M66.6,230.8c0,0-0.1,0-0.1,0l-3.1-2.6c-0.1-0.1-0.1-0.2,0-0.3c0.1-0.1,0.2-0.1,0.3,0l3.1,2.6
					c0.1,0.1,0.1,0.2,0,0.3C66.7,230.8,66.6,230.8,66.6,230.8z"/>
			</g>
		</g>
	</g>
	<g opacity="0.6">
		<g>
			<g>
				<path fill="#F7AD41" d="M86.4,227.1c0.5,0,0.9,0.4,0.9,0.9v4.7c0,0.5-0.4,0.9-0.9,0.9h-7c-0.5,0-0.9-0.4-0.9-0.9v-4.7
					c0-0.5,0.4-0.9,0.9-0.9H86.4L86.4,227.1z M86.4,226.2h-7c-1,0-1.9,0.9-1.9,1.9v4.7c0,1,0.8,1.9,1.9,1.9h7c1,0,1.9-0.9,1.9-1.9
					v-4.7C88.3,227,87.5,226.2,86.4,226.2L86.4,226.2z"/>
			</g>
		</g>
		<g>
			<g>
				<path fill="#F7AD41" d="M82.9,231.2c-0.1,0-0.1,0-0.2-0.1l-4.1-3.5c-0.1-0.1-0.1-0.2,0-0.3c0.1-0.1,0.2-0.1,0.3,0l4,3.4l4-3.4
					c0.1-0.1,0.2-0.1,0.3,0c0.1,0.1,0.1,0.2,0,0.3l-4.1,3.5C83,231.2,83,231.2,82.9,231.2z"/>
			</g>
		</g>
		<g>
			<g>
				<path fill="#F7AD41" d="M78.8,233.6c-0.1,0-0.1,0-0.2-0.1c-0.1-0.1-0.1-0.2,0-0.3l3.4-2.9c0.1-0.1,0.2-0.1,0.3,0
					c0.1,0.1,0.1,0.2,0,0.3l-3.4,2.9C78.9,233.6,78.8,233.6,78.8,233.6z"/>
			</g>
		</g>
		<g>
			<g>
				<path fill="#F7AD41" d="M87.1,233.5c-0.1,0-0.1,0-0.2-0.1l-3.5-2.9c-0.1-0.1-0.1-0.2,0-0.3c0.1-0.1,0.2-0.1,0.3,0l3.5,2.9
					c0.1,0.1,0.1,0.2,0,0.3C87.2,233.5,87.2,233.5,87.1,233.5z"/>
			</g>
		</g>
	</g>
	<g opacity="0.6">
		<g>
			<g>
				<path fill="#F7AD41" d="M98,232c0.4,0,0.7,0.3,0.7,0.7v3.4c0,0.4-0.3,0.7-0.7,0.7h-5.1c-0.4,0-0.7-0.3-0.7-0.7v-3.4
					c0-0.4,0.3-0.7,0.7-0.7H98L98,232z M98,231.3h-5.1c-0.8,0-1.4,0.6-1.4,1.4v3.4c0,0.8,0.6,1.4,1.4,1.4H98c0.8,0,1.4-0.6,1.4-1.4
					v-3.4C99.3,232,98.7,231.3,98,231.3L98,231.3z"/>
			</g>
		</g>
		<g>
			<g>
				<path fill="#F7AD41" d="M95.4,235c0,0-0.1,0-0.1,0l-3-2.5c-0.1-0.1-0.1-0.2,0-0.2c0.1-0.1,0.2-0.1,0.2,0l2.9,2.4l2.9-2.4
					c0.1-0.1,0.2-0.1,0.2,0c0.1,0.1,0.1,0.2,0,0.2l-3,2.5C95.5,235,95.5,235,95.4,235z"/>
			</g>
		</g>
		<g>
			<g>
				<path fill="#F7AD41" d="M92.4,236.7c0,0-0.1,0-0.1-0.1c-0.1-0.1-0.1-0.2,0-0.2l2.5-2.1c0.1-0.1,0.2-0.1,0.2,0
					c0.1,0.1,0.1,0.2,0,0.2l-2.5,2.1C92.5,236.7,92.5,236.7,92.4,236.7z"/>
			</g>
		</g>
		<g>
			<g>
				<path fill="#F7AD41" d="M98.4,236.7c0,0-0.1,0-0.1,0l-2.5-2.1c-0.1-0.1-0.1-0.2,0-0.2c0.1-0.1,0.2-0.1,0.2,0l2.5,2.1
					c0.1,0.1,0.1,0.2,0,0.2C98.5,236.6,98.5,236.7,98.4,236.7z"/>
			</g>
		</g>
	</g>
	<g opacity="0.6">
		<g>
			<g>
				<path fill="#F7AD41" d="M108.2,236.6c0.3,0,0.5,0.2,0.5,0.5v2.7c0,0.3-0.2,0.5-0.5,0.5h-4c-0.3,0-0.5-0.2-0.5-0.5v-2.7
					c0-0.3,0.2-0.5,0.5-0.5H108.2L108.2,236.6z M108.2,236h-4c-0.6,0-1.1,0.5-1.1,1.1v2.7c0,0.6,0.5,1.1,1.1,1.1h4
					c0.6,0,1.1-0.5,1.1-1.1v-2.7C109.3,236.5,108.8,236,108.2,236L108.2,236z"/>
			</g>
		</g>
		<g>
			<g>
				<path fill="#F7AD41" d="M106.2,238.8C106.2,238.8,106.2,238.8,106.2,238.8l-2.4-2c-0.1,0-0.1-0.1,0-0.2c0-0.1,0.1-0.1,0.2,0
					l2.3,1.9l2.3-1.9c0.1,0,0.1,0,0.2,0c0,0.1,0,0.1,0,0.2L106.2,238.8C106.3,238.8,106.3,238.8,106.2,238.8z"/>
			</g>
		</g>
		<g>
			<g>
				<path fill="#F7AD41" d="M103.9,240.2c0,0-0.1,0-0.1,0c0-0.1,0-0.1,0-0.2l1.9-1.7c0.1,0,0.1,0,0.2,0c0,0.1,0,0.1,0,0.2
					L103.9,240.2C104,240.2,103.9,240.2,103.9,240.2z"/>
			</g>
		</g>
		<g>
			<g>
				<path fill="#F7AD41" d="M108.6,240.2C108.6,240.2,108.5,240.2,108.6,240.2l-2.1-1.7c-0.1,0-0.1-0.1,0-0.2c0-0.1,0.1-0.1,0.2,0
					l2,1.7c0.1,0,0.1,0.1,0,0.2C108.7,240.2,108.6,240.2,108.6,240.2z"/>
			</g>
		</g>
	</g>
	<g opacity="0.6">
		<g>
			<g>
				<path fill="#F7AD41" d="M117.2,239.4c0.3,0,0.5,0.2,0.5,0.5v2.7c0,0.3-0.2,0.5-0.5,0.5h-4c-0.3,0-0.5-0.2-0.5-0.5v-2.7
					c0-0.3,0.2-0.5,0.5-0.5H117.2L117.2,239.4z M117.2,238.8h-4c-0.6,0-1.1,0.5-1.1,1.1v2.7c0,0.6,0.5,1.1,1.1,1.1h4
					c0.6,0,1.1-0.5,1.1-1.1v-2.7C118.3,239.3,117.8,238.8,117.2,238.8L117.2,238.8z"/>
			</g>
		</g>
		<g>
			<g>
				<path fill="#F7AD41" d="M115.2,241.7C115.2,241.7,115.2,241.7,115.2,241.7l-2.4-2c-0.1,0-0.1-0.1,0-0.2c0-0.1,0.1-0.1,0.2,0
					l2.3,1.9l2.3-1.9c0.1,0,0.1,0,0.2,0c0,0.1,0,0.1,0,0.2L115.2,241.7C115.3,241.7,115.3,241.7,115.2,241.7z"/>
			</g>
		</g>
		<g>
			<g>
				<path fill="#F7AD41" d="M112.9,243c0,0-0.1,0-0.1,0c0-0.1,0-0.1,0-0.2l1.9-1.7c0.1,0,0.1,0,0.2,0c0,0.1,0,0.1,0,0.2L112.9,243
					C113,243,112.9,243,112.9,243z"/>
			</g>
		</g>
		<g>
			<g>
				<path fill="#F7AD41" d="M117.6,243C117.6,243,117.5,243,117.6,243l-2.1-1.7c-0.1,0-0.1-0.1,0-0.2c0-0.1,0.1-0.1,0.2,0l2,1.7
					c0.1,0,0.1,0.1,0,0.2C117.7,243,117.6,243,117.6,243z"/>
			</g>
		</g>
	</g>
	<g opacity="0.6">
		<g>
			<g>
				<path fill="#F7AD41" d="M126,243.1c0.3,0,0.5,0.2,0.5,0.5v2.4c0,0.3-0.2,0.5-0.5,0.5h-3.6c-0.3,0-0.5-0.2-0.5-0.5v-2.4
					c0-0.3,0.2-0.5,0.5-0.5H126L126,243.1z M126,242.6h-3.6c-0.5,0-1,0.4-1,1v2.4c0,0.5,0.4,1,1,1h3.6c0.5,0,1-0.4,1-1v-2.4
					C127,243,126.5,242.6,126,242.6L126,242.6z"/>
			</g>
		</g>
		<g>
			<g>
				<path fill="#F7AD41" d="M124.2,245.2C124.1,245.2,124.1,245.1,124.2,245.2l-2.2-1.8c-0.1,0-0.1-0.1,0-0.2c0-0.1,0.1-0.1,0.2,0
					l2.1,1.7l2.1-1.7c0.1,0,0.1,0,0.2,0c0,0.1,0,0.1,0,0.2L124.2,245.2C124.2,245.1,124.2,245.2,124.2,245.2z"/>
			</g>
		</g>
		<g>
			<g>
				<path fill="#F7AD41" d="M122,246.4C122,246.4,122,246.4,122,246.4c-0.1-0.1-0.1-0.2-0.1-0.2l1.8-1.5c0.1,0,0.1,0,0.2,0
					c0,0.1,0,0.1,0,0.2L122,246.4C122.1,246.4,122.1,246.4,122,246.4z"/>
			</g>
		</g>
		<g>
			<g>
				<path fill="#F7AD41" d="M126.3,246.4C126.3,246.4,126.3,246.4,126.3,246.4l-1.9-1.5c-0.1,0-0.1-0.1,0-0.2c0-0.1,0.1-0.1,0.2,0
					l1.8,1.5C126.4,246.2,126.5,246.3,126.3,246.4C126.4,246.3,126.4,246.4,126.3,246.4z"/>
			</g>
		</g>
	</g>
	<g opacity="0.6">
		<g>
			<g>
				<path fill="#F7AD41" d="M134,246.4c0.3,0,0.5,0.2,0.5,0.5v2.3c0,0.3-0.2,0.5-0.5,0.5h-3.4c-0.3,0-0.5-0.2-0.5-0.5v-2.3
					c0-0.3,0.2-0.5,0.5-0.5H134L134,246.4z M134,245.9h-3.4c-0.5,0-0.9,0.4-0.9,0.9v2.3c0,0.5,0.4,0.9,0.9,0.9h3.4
					c0.5,0,0.9-0.4,0.9-0.9v-2.3C135,246.3,134.5,245.9,134,245.9L134,245.9z"/>
			</g>
		</g>
		<g>
			<g>
				<path fill="#F7AD41" d="M132.3,248.3C132.3,248.3,132.3,248.3,132.3,248.3l-2.1-1.7c0,0-0.1-0.1,0-0.2c0,0,0.1-0.1,0.2,0
					l1.9,1.6l1.9-1.6c0,0,0.1,0,0.2,0c0,0,0,0.1,0,0.2L132.3,248.3C132.4,248.3,132.4,248.3,132.3,248.3z"/>
			</g>
		</g>
		<g>
			<g>
				<path fill="#F7AD41" d="M130.3,249.5C130.3,249.5,130.2,249.5,130.3,249.5c-0.1-0.1-0.1-0.2-0.1-0.2l1.7-1.4c0,0,0.1,0,0.2,0
					c0,0,0,0.1,0,0.2L130.3,249.5C130.4,249.5,130.3,249.5,130.3,249.5z"/>
			</g>
		</g>
		<g>
			<g>
				<path fill="#F7AD41" d="M134.4,249.5C134.3,249.5,134.3,249.5,134.4,249.5l-1.8-1.4c0,0-0.1-0.1,0-0.2c0,0,0.1-0.1,0.2,0
					l1.7,1.4C134.5,249.3,134.5,249.4,134.4,249.5C134.4,249.5,134.4,249.5,134.4,249.5z"/>
			</g>
		</g>
	</g>
	<g opacity="0.6">
		<g>
			<g>
				<path fill="#F7AD41" d="M142.4,245.4c0.2,0,0.4,0.2,0.4,0.4v2c0,0.2-0.2,0.4-0.4,0.4h-3c-0.2,0-0.4-0.2-0.4-0.4v-2
					c0-0.2,0.2-0.4,0.4-0.4H142.4L142.4,245.4z M142.4,245h-3c-0.4,0-0.8,0.4-0.8,0.8v2c0,0.4,0.4,0.8,0.8,0.8h3
					c0.4,0,0.8-0.4,0.8-0.8v-2C143.2,245.4,142.8,245,142.4,245L142.4,245z"/>
			</g>
		</g>
		<g>
			<g>
				<path fill="#F7AD41" d="M140.9,247.2C140.9,247.2,140.8,247.2,140.9,247.2l-1.8-1.5c0,0,0-0.1,0-0.1c0,0,0.1,0,0.1,0l1.7,1.4
					l1.7-1.4c0,0,0.1,0,0.1,0c0,0,0,0.1,0,0.1L140.9,247.2C140.9,247.2,140.9,247.2,140.9,247.2z"/>
			</g>
		</g>
		<g>
			<g>
				<path fill="#F7AD41" d="M139.1,248.2C139.1,248.2,139.1,248.2,139.1,248.2c-0.1-0.1-0.1-0.1-0.1-0.2l1.5-1.2c0,0,0.1,0,0.1,0
					c0,0,0,0.1,0,0.1L139.1,248.2C139.2,248.2,139.2,248.2,139.1,248.2z"/>
			</g>
		</g>
		<g>
			<g>
				<path fill="#F7AD41" d="M142.7,248.2C142.6,248.2,142.6,248.2,142.7,248.2l-1.6-1.3c0,0,0-0.1,0-0.1c0,0,0.1,0,0.1,0l1.5,1.2
					C142.8,248,142.8,248.1,142.7,248.2C142.7,248.2,142.7,248.2,142.7,248.2z"/>
			</g>
		</g>
	</g>
	<g opacity="0.6">
		<g>
			<path fill="#F7AD41" d="M51.4,249.3v-28.7c0-0.5,0.5-1,1.1-1h19.9c0.6,0,1.1,0.4,1.1,1v28.7c0,0.5-0.5,1-1.1,1H52.5
				C51.9,250.3,51.4,249.9,51.4,249.3z M72.9,220.7c0-0.3-0.3-0.5-0.6-0.5H52.5c-0.3,0-0.6,0.2-0.6,0.5v28.7c0,0.3,0.3,0.5,0.6,0.5
				h19.9c0.3,0,0.6-0.2,0.6-0.5V220.7z M53.5,247.3v-25.8h17.9v25.8H53.5z M54,222v24.8h16.9V222H54z"/>
		</g>
		<path fill="#F7AD41" d="M61.6,248.6c0-0.4,0.4-0.8,0.8-0.8s0.8,0.4,0.8,0.8c0,0.4-0.4,0.8-0.8,0.8S61.6,249.1,61.6,248.6z
			 M62.7,248.6c0-0.2-0.1-0.3-0.3-0.3s-0.3,0.1-0.3,0.3c0,0.2,0.1,0.3,0.3,0.3S62.7,248.8,62.7,248.6z"/>
	</g>
	<circle opacity="0.6" fill="#F7AD41" cx="56.6" cy="235.3" r="1.4"/>
	<circle opacity="0.6" fill="#F7AD41" cx="56.6" cy="239.3" r="1.4"/>
	<circle opacity="0.6" fill="#F7AD41" cx="56.6" cy="243.5" r="1.4"/>
	<g opacity="0.6">
		<rect x="59" y="234.3" fill="#F7AD41" width="9.9" height="0.7"/>
		<rect x="59" y="235.6" fill="#F7AD41" width="9.9" height="0.7"/>
	</g>
	<g opacity="0.6">
		<rect x="59" y="238.3" fill="#F7AD41" width="9.9" height="0.7"/>
		<rect x="59" y="239.6" fill="#F7AD41" width="9.9" height="0.7"/>
	</g>
	<g opacity="0.6">
		<rect x="59" y="242.5" fill="#F7AD41" width="9.9" height="0.7"/>
		<rect x="59" y="243.8" fill="#F7AD41" width="9.9" height="0.7"/>
	</g>
	<g>
		<g opacity="0.2">
			<polygon fill="#8C8C8C" points="305.3,96.5 294.3,96.5 294.3,97.4 306.3,97.4 306.3,91.9 305.3,92.6 			"/>
			<rect x="292.9" y="94.5" fill="#8C8C8C" width="2.3" height="0.9"/>
			<path fill="#8C8C8C" d="M294.3,89.7v1.1l5.4,4c0.2,0.1,0.4,0.2,0.5,0.2c0.2,0,0.4-0.1,0.5-0.2l5.4-4v-1.1L294.3,89.7z
				 M300.3,94.1l-4.8-3.6h9.6L300.3,94.1z"/>
			<rect x="291.1" y="92.4" fill="#8C8C8C" width="4.1" height="0.9"/>
		</g>
		<g opacity="0.2">
			<g>
				<path fill="#8C8C8C" d="M284.7,122.1V83.1c0-0.7,0.7-1.4,1.5-1.4h27.1c0.8,0,1.5,0.6,1.5,1.4v39.1c0,0.7-0.7,1.4-1.5,1.4h-27.1
					C285.3,123.5,284.7,122.9,284.7,122.1z M314.1,83.1c0-0.4-0.4-0.7-0.8-0.7h-27.1c-0.5,0-0.8,0.3-0.8,0.7v39.1
					c0,0.4,0.4,0.7,0.8,0.7h27.1c0.5,0,0.8-0.3,0.8-0.7V83.1z M287.5,119.4V84.3h24.4v35.1H287.5z M288.2,84.9v33.8h23.1V84.9H288.2
					z"/>
			</g>
			<path fill="#8C8C8C" d="M298.6,121.2c0-0.6,0.5-1.1,1.1-1.1s1.1,0.5,1.1,1.1c0,0.6-0.5,1.1-1.1,1.1S298.6,121.8,298.6,121.2z
				 M300.1,121.2c0-0.2-0.2-0.4-0.4-0.4s-0.4,0.2-0.4,0.4c0,0.2,0.2,0.4,0.4,0.4S300.1,121.4,300.1,121.2z"/>
		</g>
		<circle opacity="0.2" fill="#8C8C8C" cx="291.9" cy="103" r="1.9"/>
		<circle opacity="0.2" fill="#8C8C8C" cx="291.9" cy="108.4" r="1.9"/>
		<circle opacity="0.2" fill="#8C8C8C" cx="291.9" cy="114.2" r="1.9"/>
		<g opacity="0.2">
			<rect x="295.1" y="101.7" fill="#8C8C8C" width="13.5" height="0.9"/>
			<rect x="295.1" y="103.5" fill="#8C8C8C" width="13.5" height="0.9"/>
		</g>
		<g opacity="0.2">
			<rect x="295.1" y="107.1" fill="#8C8C8C" width="13.5" height="0.9"/>
			<rect x="295.1" y="108.9" fill="#8C8C8C" width="13.5" height="0.9"/>
		</g>
		<g opacity="0.2">
			<rect x="295.1" y="112.8" fill="#8C8C8C" width="13.5" height="0.9"/>
			<rect x="295.1" y="114.6" fill="#8C8C8C" width="13.5" height="0.9"/>
		</g>
	</g>
	<path fill="#FFD45C" d="M413.1,90.7l-7.9-3.8l26.1-6.8l-5.4,20.6l-5.9-4.9l-5,5.8L413.1,90.7z M419.2,95.2l-2.6-2.1l9.3-8.5
		l-11.5,6.8l-0.2-0.1l1.4,8L419.2,95.2z"/>
	<path opacity="0.1" fill="#CCCCCC" d="M170.9,63l-5-5.8L160,62l-5.4-20.6l26.1,6.8l-7.9,3.8L170.9,63z M170.3,60.6l1.4-8l-0.2,0.1
		L160,45.9l9.3,8.5l-2.6,2.1L170.3,60.6z"/>
	<g>
		<g opacity="0.1">
			<path fill="#CCCCCC" d="M310.4,395.7l-22,4.6c-1.6,0.3-3.1-0.7-3.4-2.2l-2.7-12.6c-0.3-1.6,0.7-3.1,2.2-3.4l22-4.6
				c1.6-0.3,3.1,0.7,3.4,2.2l2.7,12.6C312.9,393.8,311.9,395.4,310.4,395.7z M284.9,383.6c-0.7,0.2-1.2,0.9-1,1.6l2.7,12.6
				c0.2,0.7,0.9,1.2,1.6,1l22-4.6c0.7-0.2,1.2-0.9,1-1.6l-2.7-12.6c-0.2-0.7-0.9-1.2-1.6-1L284.9,383.6z"/>
		</g>
		<g opacity="0.1">
			<path fill="#CCCCCC" d="M285.6,385c1,0.3,2.1,0.6,3.1,0.9c1,0.3,2,0.7,3.1,1.1c1,0.4,2,0.7,3,1.1c1,0.4,2,0.8,3,1.2l-0.6,0.1
				l1.1-1.2l1.2-1.1c0.8-0.8,1.6-1.5,2.4-2.2c0.4-0.4,0.8-0.7,1.2-1.1l1.2-1.1c0.8-0.7,1.6-1.4,2.5-2.1c-0.7,0.9-1.4,1.7-2.1,2.5
				l-1.1,1.2c-0.4,0.4-0.7,0.8-1.1,1.2c-0.7,0.8-1.5,1.6-2.2,2.4l-1.1,1.2l-1.1,1.2l-0.3,0.3l-0.3-0.1c-1-0.4-2-0.8-3-1.2
				c-1-0.4-2-0.8-3-1.3c-1-0.4-2-0.9-2.9-1.3C287.5,386,286.5,385.5,285.6,385z"/>
		</g>
	</g>
	<g>
		<g opacity="0.1">
			<path fill="#FFD45C" d="M70.1,332.1l-19.3-11.5c-1.4-0.8-1.8-2.6-1-4l6.6-11.1c0.8-1.4,2.6-1.8,4-1L79.7,316c1.4,0.8,1.8,2.6,1,4
				l-6.6,11.1C73.3,332.4,71.5,332.9,70.1,332.1z M59.6,305.9c-0.6-0.4-1.5-0.2-1.8,0.5l-6.6,11.1c-0.4,0.6-0.2,1.5,0.5,1.8
				l19.3,11.5c0.6,0.4,1.5,0.2,1.8-0.5l6.6-11.1c0.4-0.6,0.2-1.5-0.5-1.8L59.6,305.9z"/>
		</g>
		<g opacity="0.1">
			<path fill="#FFD45C" d="M59.1,307.4c0.6,0.9,1.1,1.9,1.6,2.8c0.5,0.9,1,1.9,1.5,2.8c0.5,1,1,1.9,1.5,2.9c0.5,1,1,1.9,1.4,2.9
				l-0.5-0.3l1.6-0.1l1.6-0.1c1.1,0,2.2-0.1,3.3-0.1c0.5,0,1.1,0,1.6,0l1.6,0c1.1,0,2.2,0,3.3,0.1c-1.1,0.2-2.2,0.3-3.2,0.4
				l-1.6,0.2c-0.5,0.1-1.1,0.1-1.6,0.1c-1.1,0.1-2.2,0.2-3.2,0.2l-1.6,0.1l-1.6,0.1l-0.4,0l-0.2-0.3c-0.5-1-0.9-1.9-1.4-2.9
				c-0.4-1-0.9-2-1.3-3c-0.4-1-0.8-2-1.3-3C59.9,309.4,59.5,308.4,59.1,307.4z"/>
		</g>
	</g>
	<g opacity="0.8">
		<path fill="#CCCCCC" d="M147,331.3h-45.4c-1.4,0-2.5,1-2.5,2.3v65.4c0,1.3,1.1,2.3,2.5,2.3H147c1.4,0,2.5-1,2.5-2.3v-65.4
			C149.5,332.4,148.4,331.3,147,331.3z M124.3,399.6c-1,0-1.8-0.8-1.8-1.8c0-1,0.8-1.8,1.8-1.8c1,0,1.8,0.8,1.8,1.8
			C126.1,398.8,125.3,399.6,124.3,399.6z M144.7,394.7h-40.9v-58.8h40.9V394.7z"/>
		<circle fill="#CCCCCC" cx="110.9" cy="359.9" r="3.2"/>
		<g>
			<rect x="116.3" y="357.6" fill="#CCCCCC" width="25.3" height="1.5"/>
			<rect x="116.3" y="360.7" fill="#CCCCCC" width="25.3" height="1.5"/>
		</g>
		<g>
			<rect x="107.7" y="343.5" fill="#CCCCCC" width="33.9" height="1.3"/>
			<rect x="107.7" y="346.1" fill="#CCCCCC" width="33.9" height="1.3"/>
		</g>
		<g>
			<rect x="107.7" y="348.5" fill="#CCCCCC" width="33.9" height="1.3"/>
			<rect x="107.7" y="351.1" fill="#CCCCCC" width="33.9" height="1.3"/>
		</g>
		<path fill="#CCCCCC" d="M125.3,389.4h-18.2v-21.5h18.2V389.4z M109.2,387.4h14.2v-17.5h-14.2V387.4z"/>
		<path fill="#CCCCCC" d="M142.2,389.3h-15V368h15V389.3z M129.1,387.5h11.4v-17.7h-11.4V387.5z"/>
	</g>
	<g>
		<path fill="#FFCC66" d="M320.5,276.1H173.8c-16,0-29-13-29-29s13-29,29-29c0.3,0,0.7,0,1,0c6.1-17.7,22.5-29.6,41.4-29.6
			c0,0,0.1,0,0.1,0c5.4-24.5,27.2-42.2,52.5-42.2c27.7,0,50.8,21.1,53.5,48.4c21.6,0.9,38.9,18.8,38.9,40.6
			C361.1,257.8,342.9,276.1,320.5,276.1z M173.8,222.1c-13.8,0-25,11.2-25,25c0,13.8,11.2,25,25,25h146.7
			c20.2,0,36.6-16.4,36.6-36.6c0-20.2-16.4-36.7-36.6-36.7h-2l-0.1-1.9c-1.6-26.1-23.4-46.5-49.6-46.5c-24,0-44.5,17.1-48.9,40.6
			l-0.3,1.7l-1.7-0.1c-0.6,0-1.1,0-1.7,0c-17.7,0-32.9,11.3-38.1,28.2l-0.5,1.5l-1.6-0.1C175.2,222.1,174.5,222.1,173.8,222.1z"/>
	</g>
	<g opacity="0.8">
		<g>
			<g>
				<g>
					<path fill="#F7AD41" d="M361.2,324.9c0.6,0,1,0.5,1,1v5.2c0,0.6-0.5,1-1,1h-7.8c-0.6,0-1-0.5-1-1V326c0-0.6,0.5-1,1-1H361.2
						L361.2,324.9z M361.2,323.9h-7.8c-1.2,0-2.1,0.9-2.1,2.1v5.2c0,1.2,0.9,2.1,2.1,2.1h7.8c1.2,0,2.1-0.9,2.1-2.1V326
						C363.3,324.8,362.4,323.9,361.2,323.9L361.2,323.9z"/>
				</g>
			</g>
			<g>
				<g>
					<path fill="#F7AD41" d="M357.3,329.4c-0.1,0-0.1,0-0.2-0.1l-4.6-3.9c-0.1-0.1-0.1-0.3,0-0.4c0.1-0.1,0.3-0.1,0.4,0l4.4,3.8
						l4.4-3.8c0.1-0.1,0.3-0.1,0.4,0c0.1,0.1,0.1,0.3,0,0.4l-4.6,3.9C357.5,329.4,357.4,329.4,357.3,329.4z"/>
				</g>
			</g>
			<g>
				<g>
					<path fill="#F7AD41" d="M352.7,332.1c-0.1,0-0.1,0-0.2-0.1c-0.1-0.1-0.1-0.3,0-0.4l3.8-3.2c0.1-0.1,0.3-0.1,0.4,0
						c0.1,0.1,0.1,0.3,0,0.4l-3.8,3.2C352.9,332,352.8,332.1,352.7,332.1z"/>
				</g>
			</g>
			<g>
				<g>
					<path fill="#F7AD41" d="M362,332c-0.1,0-0.1,0-0.2-0.1l-3.9-3.2c-0.1-0.1-0.1-0.3,0-0.4c0.1-0.1,0.3-0.1,0.4,0l3.9,3.2
						c0.1,0.1,0.1,0.3,0,0.4C362.1,332,362,332,362,332z"/>
				</g>
			</g>
		</g>
		<g>
			<g>
				<g>
					<path fill="#F7AD41" d="M351.2,310.3c0.5,0,0.8,0.4,0.8,0.8v4.1c0,0.5-0.4,0.8-0.8,0.8h-6.1c-0.5,0-0.8-0.4-0.8-0.8v-4.1
						c0-0.5,0.4-0.8,0.8-0.8H351.2L351.2,310.3z M351.2,309.5h-6.1c-0.9,0-1.6,0.7-1.6,1.6v4.1c0,0.9,0.7,1.6,1.6,1.6h6.1
						c0.9,0,1.6-0.7,1.6-1.6v-4.1C352.8,310.2,352.1,309.5,351.2,309.5L351.2,309.5z"/>
				</g>
			</g>
			<g>
				<g>
					<path fill="#F7AD41" d="M348.1,313.8c0,0-0.1,0-0.1,0l-3.6-3.1c-0.1-0.1-0.1-0.2,0-0.3c0.1-0.1,0.2-0.1,0.3,0l3.5,2.9l3.5-2.9
						c0.1-0.1,0.2-0.1,0.3,0c0.1,0.1,0.1,0.2,0,0.3l-3.6,3.1C348.2,313.8,348.2,313.8,348.1,313.8z"/>
				</g>
			</g>
			<g>
				<g>
					<path fill="#F7AD41" d="M344.5,315.9c-0.1,0-0.1,0-0.2-0.1c-0.1-0.1-0.1-0.2,0-0.3l3-2.5c0.1-0.1,0.2-0.1,0.3,0
						c0.1,0.1,0.1,0.2,0,0.3l-3,2.5C344.6,315.9,344.6,315.9,344.5,315.9z"/>
				</g>
			</g>
			<g>
				<g>
					<path fill="#F7AD41" d="M351.7,315.9c0,0-0.1,0-0.1,0l-3.1-2.5c-0.1-0.1-0.1-0.2,0-0.3c0.1-0.1,0.2-0.1,0.3,0l3.1,2.5
						c0.1,0.1,0.1,0.2,0,0.3C351.9,315.8,351.8,315.9,351.7,315.9z"/>
				</g>
			</g>
		</g>
		<g>
			<g>
				<g>
					<path fill="#F7AD41" d="M341.6,296.9c0.5,0,0.8,0.4,0.8,0.8v4.1c0,0.5-0.4,0.8-0.8,0.8h-6.1c-0.5,0-0.8-0.4-0.8-0.8v-4.1
						c0-0.5,0.4-0.8,0.8-0.8H341.6L341.6,296.9z M341.6,296h-6.1c-0.9,0-1.6,0.7-1.6,1.6v4.1c0,0.9,0.7,1.6,1.6,1.6h6.1
						c0.9,0,1.6-0.7,1.6-1.6v-4.1C343.2,296.8,342.5,296,341.6,296L341.6,296z"/>
				</g>
			</g>
			<g>
				<g>
					<path fill="#F7AD41" d="M338.5,300.4c0,0-0.1,0-0.1,0l-3.6-3.1c-0.1-0.1-0.1-0.2,0-0.3c0.1-0.1,0.2-0.1,0.3,0l3.5,2.9l3.5-2.9
						c0.1-0.1,0.2-0.1,0.3,0c0.1,0.1,0.1,0.2,0,0.3l-3.6,3.1C338.6,300.4,338.6,300.4,338.5,300.4z"/>
				</g>
			</g>
			<g>
				<g>
					<path fill="#F7AD41" d="M334.9,302.5c-0.1,0-0.1,0-0.2-0.1c-0.1-0.1-0.1-0.2,0-0.3l3-2.5c0.1-0.1,0.2-0.1,0.3,0
						c0.1,0.1,0.1,0.2,0,0.3l-3,2.5C335,302.5,335,302.5,334.9,302.5z"/>
				</g>
			</g>
			<g>
				<g>
					<path fill="#F7AD41" d="M342.2,302.4c0,0-0.1,0-0.1,0l-3.1-2.5c-0.1-0.1-0.1-0.2,0-0.3c0.1-0.1,0.2-0.1,0.3,0l3.1,2.5
						c0.1,0.1,0.1,0.2,0,0.3C342.3,302.4,342.2,302.4,342.2,302.4z"/>
				</g>
			</g>
		</g>
		<g>
			<g>
				<g>
					<path fill="#F7AD41" d="M333.9,284c0.4,0,0.7,0.3,0.7,0.7v3.7c0,0.4-0.3,0.7-0.7,0.7h-5.5c-0.4,0-0.7-0.3-0.7-0.7v-3.7
						c0-0.4,0.3-0.7,0.7-0.7H333.9L333.9,284z M333.9,283.2h-5.5c-0.8,0-1.5,0.7-1.5,1.5v3.7c0,0.8,0.7,1.5,1.5,1.5h5.5
						c0.8,0,1.5-0.7,1.5-1.5v-3.7C335.4,283.9,334.8,283.2,333.9,283.2L333.9,283.2z"/>
				</g>
			</g>
			<g>
				<g>
					<path fill="#F7AD41" d="M331.2,287.2c0,0-0.1,0-0.1,0l-3.3-2.8c-0.1-0.1-0.1-0.2,0-0.3c0.1-0.1,0.2-0.1,0.3,0l3.2,2.7l3.2-2.7
						c0.1-0.1,0.2-0.1,0.3,0c0.1,0.1,0.1,0.2,0,0.3l-3.3,2.8C331.2,287.2,331.2,287.2,331.2,287.2z"/>
				</g>
			</g>
			<g>
				<g>
					<path fill="#F7AD41" d="M327.9,289.1c-0.1,0-0.1,0-0.1-0.1c-0.1-0.1-0.1-0.2,0-0.3l2.7-2.3c0.1-0.1,0.2-0.1,0.3,0
						c0.1,0.1,0.1,0.2,0,0.3L328,289C328,289.1,327.9,289.1,327.9,289.1z"/>
				</g>
			</g>
			<g>
				<g>
					<path fill="#F7AD41" d="M334.4,289c0,0-0.1,0-0.1,0l-2.8-2.3c-0.1-0.1-0.1-0.2,0-0.3c0.1-0.1,0.2-0.1,0.3,0l2.8,2.3
						c0.1,0.1,0.1,0.2,0,0.3C334.6,289,334.5,289,334.4,289z"/>
				</g>
			</g>
		</g>
		<g>
			<circle fill="#F7AD41" cx="362.5" cy="368.4" r="2.7"/>
			<circle fill="#F7AD41" cx="362.5" cy="376.1" r="2.7"/>
			<circle fill="#F7AD41" cx="362.5" cy="384.3" r="2.7"/>
			<path opacity="0.8" fill="#F7AD41" d="M385.3,339.8h-29.2c-1.3,0-2.4,1.1-2.4,2.4v56.9c0,1.3,1.1,2.4,2.4,2.4h29.2
				c1.3,0,2.4-1.1,2.4-2.4v-56.9C387.7,340.9,386.6,339.8,385.3,339.8z M370.7,400.8c-1.2,0-2.2-1-2.2-2.2c0-1.2,1-2.2,2.2-2.2
				c1.2,0,2.2,1,2.2,2.2C372.9,399.8,371.9,400.8,370.7,400.8z M384.1,395.3h-26.7v-51.9h26.7V395.3z"/>
			<g>
				<rect x="367.2" y="366.4" fill="#F7AD41" width="14.7" height="1.3"/>
				<rect x="367.2" y="369" fill="#F7AD41" width="14.7" height="1.3"/>
			</g>
			<g>
				<rect x="375.1" y="350.9" fill="#F7AD41" width="6.2" height="1.1"/>
				<rect x="375.1" y="353.2" fill="#F7AD41" width="6.2" height="1.1"/>
			</g>
			<g>
				<rect x="375.1" y="355.2" fill="#F7AD41" width="6.2" height="1.1"/>
				<rect x="375.1" y="357.4" fill="#F7AD41" width="6.2" height="1.1"/>
			</g>
			<g>
				<rect x="367.2" y="374.2" fill="#F7AD41" width="14.7" height="1.3"/>
				<rect x="367.2" y="376.8" fill="#F7AD41" width="14.7" height="1.3"/>
			</g>
			<g>
				<rect x="367.2" y="382.4" fill="#F7AD41" width="14.7" height="1.3"/>
				<rect x="367.2" y="385" fill="#F7AD41" width="14.7" height="1.3"/>
			</g>
			<g>
				<g>
					<g>
						<path fill="#F7AD41" d="M370.2,350.3c0.6,0,1.1,0.5,1.1,1.1v5.4c0,0.6-0.5,1.1-1.1,1.1h-8c-0.6,0-1.1-0.5-1.1-1.1v-5.4
							c0-0.6,0.5-1.1,1.1-1.1H370.2L370.2,350.3z M370.2,349.2h-8c-1.2,0-2.2,1-2.2,2.2v5.4c0,1.2,1,2.2,2.2,2.2h8
							c1.2,0,2.2-1,2.2-2.2v-5.4C372.4,350.2,371.4,349.2,370.2,349.2L370.2,349.2z"/>
					</g>
				</g>
				<g>
					<g>
						<path fill="#F7AD41" d="M366.2,354.9c-0.1,0-0.1,0-0.2-0.1l-4.7-4c-0.1-0.1-0.1-0.3,0-0.4c0.1-0.1,0.3-0.1,0.4,0l4.5,3.9
							l4.5-3.9c0.1-0.1,0.3-0.1,0.4,0c0.1,0.1,0.1,0.3,0,0.4l-4.7,4C366.3,354.9,366.3,354.9,366.2,354.9z"/>
					</g>
				</g>
				<g>
					<g>
						<path fill="#F7AD41" d="M361.5,357.6c-0.1,0-0.2,0-0.2-0.1c-0.1-0.1-0.1-0.3,0-0.4l3.9-3.3c0.1-0.1,0.3-0.1,0.4,0
							c0.1,0.1,0.1,0.3,0,0.4l-3.9,3.3C361.6,357.6,361.6,357.6,361.5,357.6z"/>
					</g>
				</g>
				<g>
					<g>
						<path fill="#F7AD41" d="M371,357.6c-0.1,0-0.1,0-0.2-0.1l-4-3.3c-0.1-0.1-0.1-0.3,0-0.4c0.1-0.1,0.3-0.1,0.4,0l4,3.3
							c0.1,0.1,0.1,0.3,0,0.4C371.1,357.6,371,357.6,371,357.6z"/>
					</g>
				</g>
			</g>
		</g>
	</g>
	<path opacity="0.3" fill="#CCCCCC" d="M235.3,155.6c-0.5,0-0.9-0.4-0.9-0.9v-2.8c0-0.5,0.4-0.9,0.9-0.9s0.9,0.4,0.9,0.9v2.8
		C236.3,155.2,235.9,155.6,235.3,155.6z M235.3,149.9c-0.5,0-0.9-0.4-0.9-0.9v-2.8c0-0.5,0.4-0.9,0.9-0.9s0.9,0.4,0.9,0.9v2.8
		C236.3,149.5,235.9,149.9,235.3,149.9z M235.3,144.2c-0.5,0-0.9-0.4-0.9-0.9v-2.8c0-0.5,0.4-0.9,0.9-0.9s0.9,0.4,0.9,0.9v2.8
		C236.3,143.8,235.9,144.2,235.3,144.2z M235.3,138.5c-0.5,0-0.9-0.4-0.9-0.9v-2.8c0-0.5,0.4-0.9,0.9-0.9s0.9,0.4,0.9,0.9v2.8
		C236.3,138.1,235.9,138.5,235.3,138.5z M235.3,132.8c-0.5,0-0.9-0.4-0.9-0.9V129c0-0.5,0.4-0.9,0.9-0.9s0.9,0.4,0.9,0.9v2.8
		C236.3,132.4,235.9,132.8,235.3,132.8z M235.3,127.1c-0.5,0-0.9-0.4-0.9-0.9v-2.8c0-0.5,0.4-0.9,0.9-0.9s0.9,0.4,0.9,0.9v2.8
		C236.3,126.7,235.9,127.1,235.3,127.1z M235.3,121.4c-0.5,0-0.9-0.4-0.9-0.9v-2.8c0-0.5,0.4-0.9,0.9-0.9s0.9,0.4,0.9,0.9v2.8
		C236.3,121,235.9,121.4,235.3,121.4z M235.3,115.7c-0.5,0-0.9-0.4-0.9-0.9v-2.8c0-0.5,0.4-0.9,0.9-0.9s0.9,0.4,0.9,0.9v2.8
		C236.3,115.3,235.9,115.7,235.3,115.7z M235.3,110c-0.5,0-0.9-0.4-0.9-0.9v-2.8c0-0.5,0.4-0.9,0.9-0.9s0.9,0.4,0.9,0.9v2.8
		C236.3,109.6,235.9,110,235.3,110z M235.3,104.3c-0.5,0-0.9-0.4-0.9-0.9v-2.8c0-0.5,0.4-0.9,0.9-0.9s0.9,0.4,0.9,0.9v2.8
		C236.3,103.9,235.9,104.3,235.3,104.3z M235.3,98.6c-0.5,0-0.9-0.4-0.9-0.9v-2.8c0-0.5,0.4-0.9,0.9-0.9s0.9,0.4,0.9,0.9v2.8
		C236.3,98.2,235.9,98.6,235.3,98.6z M235.3,92.9c-0.5,0-0.9-0.4-0.9-0.9v-2.8c0-0.5,0.4-0.9,0.9-0.9s0.9,0.4,0.9,0.9V92
		C236.3,92.5,235.9,92.9,235.3,92.9z M235.3,87.2c-0.5,0-0.9-0.4-0.9-0.9v-2.8c0-0.5,0.4-0.9,0.9-0.9s0.9,0.4,0.9,0.9v2.8
		C236.3,86.8,235.9,87.2,235.3,87.2z"/>
	<path opacity="0.3" fill="#CCCCCC" d="M239.8,155.6c-0.5,0-0.9-0.4-0.9-0.9v-2.8c0-0.5,0.4-0.9,0.9-0.9s0.9,0.4,0.9,0.9v2.8
		C240.8,155.2,240.4,155.6,239.8,155.6z M239.8,149.9c-0.5,0-0.9-0.4-0.9-0.9v-2.8c0-0.5,0.4-0.9,0.9-0.9s0.9,0.4,0.9,0.9v2.8
		C240.8,149.5,240.4,149.9,239.8,149.9z M239.8,144.2c-0.5,0-0.9-0.4-0.9-0.9v-2.8c0-0.5,0.4-0.9,0.9-0.9s0.9,0.4,0.9,0.9v2.8
		C240.8,143.8,240.4,144.2,239.8,144.2z M239.8,138.5c-0.5,0-0.9-0.4-0.9-0.9v-2.8c0-0.5,0.4-0.9,0.9-0.9s0.9,0.4,0.9,0.9v2.8
		C240.8,138.1,240.4,138.5,239.8,138.5z M239.8,132.8c-0.5,0-0.9-0.4-0.9-0.9V129c0-0.5,0.4-0.9,0.9-0.9s0.9,0.4,0.9,0.9v2.8
		C240.8,132.4,240.4,132.8,239.8,132.8z M239.8,127.1c-0.5,0-0.9-0.4-0.9-0.9v-2.8c0-0.5,0.4-0.9,0.9-0.9s0.9,0.4,0.9,0.9v2.8
		C240.8,126.7,240.4,127.1,239.8,127.1z M239.8,121.4c-0.5,0-0.9-0.4-0.9-0.9v-2.8c0-0.5,0.4-0.9,0.9-0.9s0.9,0.4,0.9,0.9v2.8
		C240.8,121,240.4,121.4,239.8,121.4z M239.8,115.7c-0.5,0-0.9-0.4-0.9-0.9v-2.8c0-0.5,0.4-0.9,0.9-0.9s0.9,0.4,0.9,0.9v2.8
		C240.8,115.3,240.4,115.7,239.8,115.7z M239.8,110c-0.5,0-0.9-0.4-0.9-0.9v-2.8c0-0.5,0.4-0.9,0.9-0.9s0.9,0.4,0.9,0.9v2.8
		C240.8,109.6,240.4,110,239.8,110z M239.8,104.3c-0.5,0-0.9-0.4-0.9-0.9v-2.8c0-0.5,0.4-0.9,0.9-0.9s0.9,0.4,0.9,0.9v2.8
		C240.8,103.9,240.4,104.3,239.8,104.3z M239.8,98.6c-0.5,0-0.9-0.4-0.9-0.9v-2.8c0-0.5,0.4-0.9,0.9-0.9s0.9,0.4,0.9,0.9v2.8
		C240.8,98.2,240.4,98.6,239.8,98.6z M239.8,92.9c-0.5,0-0.9-0.4-0.9-0.9v-2.8c0-0.5,0.4-0.9,0.9-0.9s0.9,0.4,0.9,0.9V92
		C240.8,92.5,240.4,92.9,239.8,92.9z M239.8,87.2c-0.5,0-0.9-0.4-0.9-0.9v-2.8c0-0.5,0.4-0.9,0.9-0.9s0.9,0.4,0.9,0.9v2.8
		C240.8,86.8,240.4,87.2,239.8,87.2z"/>
	<rect x="299" y="124.4" opacity="0.3" fill="#CCCCCC" width="2" height="31"/>
	<rect x="183.8" y="166.9" opacity="0.3" fill="#CCCCCC" width="1.7" height="36.2"/>
	<g opacity="0.3">
		<rect x="136.8" y="102.8" fill="#CCCCCC" width="1" height="1"/>
		<path fill="#CCCCCC" d="M137.8,181.4h-1v-2h1V181.4z M137.8,177.3h-1v-2h1V177.3z M137.8,173.2h-1v-2h1V173.2z M137.8,169.1h-1v-2
			h1V169.1z M137.8,165h-1v-2h1V165z M137.8,161h-1v-2h1V161z M137.8,156.9h-1v-2h1V156.9z M137.8,152.8h-1v-2h1V152.8z
			 M137.8,148.7h-1v-2h1V148.7z M137.8,144.6h-1v-2h1V144.6z M137.8,140.5h-1v-2h1V140.5z M137.8,136.4h-1v-2h1V136.4z M137.8,132.4
			h-1v-2h1V132.4z M137.8,128.3h-1v-2h1V128.3z M137.8,124.2h-1v-2h1V124.2z M137.8,120.1h-1v-2h1V120.1z M137.8,116h-1v-2h1V116z
			 M137.8,111.9h-1v-2h1V111.9z M137.8,107.9h-1v-2h1V107.9z"/>
		<rect x="136.8" y="183.4" fill="#CCCCCC" width="1" height="1"/>
	</g>
	<g opacity="0.3">
		
			<rect x="136.9" y="185" transform="matrix(0.7071 0.7071 -0.7071 0.7071 171.3676 -42.8155)" fill="#CCCCCC" width="1" height="1"/>
		<path fill="#CCCCCC" d="M168.7,217.5l-1.4-1.4l0.7-0.7l1.4,1.4L168.7,217.5z M165.8,214.6l-1.4-1.4l0.7-0.7l1.4,1.4L165.8,214.6z
			 M163,211.8l-1.4-1.4l0.7-0.7l1.4,1.4L163,211.8z M160.2,208.9l-1.4-1.4l0.7-0.7l1.4,1.4L160.2,208.9z M157.3,206.1l-1.4-1.4
			l0.7-0.7l1.4,1.4L157.3,206.1z M154.5,203.2l-1.4-1.4l0.7-0.7l1.4,1.4L154.5,203.2z M151.6,200.4l-1.4-1.4l0.7-0.7l1.4,1.4
			L151.6,200.4z M148.8,197.6l-1.4-1.4l0.7-0.7l1.4,1.4L148.8,197.6z M145.9,194.7l-1.4-1.4l0.7-0.7l1.4,1.4L145.9,194.7z
			 M143.1,191.9l-1.4-1.4l0.7-0.7l1.4,1.4L143.1,191.9z M140.2,189l-1.4-1.4l0.7-0.7l1.4,1.4L140.2,189z"/>
		
			<rect x="170.3" y="218.4" transform="matrix(0.7071 0.7071 -0.7071 0.7071 204.8274 -56.6747)" fill="#CCCCCC" width="1" height="1"/>
	</g>
	<path opacity="0.3" fill="#CCCCCC" d="M219.8,323.7h-1v-1.8h1V323.7z M219.8,320.2h-1v-1.8h1V320.2z M219.8,316.7h-1v-1.8h1V316.7z
		 M219.8,313.2h-1v-1.8h1V313.2z M219.8,309.7h-1v-1.8h1V309.7z M219.8,306.2h-1v-1.8h1V306.2z M219.8,302.7h-1v-1.8h1V302.7z
		 M219.8,299.2h-1v-1.8h1V299.2z M219.8,295.7h-1v-1.8h1V295.7z M219.8,292.2h-1v-1.8h1V292.2z M219.8,288.7h-1v-1.8h1V288.7z
		 M219.8,285.2h-1v-1.8h1V285.2z M219.8,281.7h-1v-1.8h1V281.7z M219.8,278.2h-1v-1.8h1V278.2z"/>
	<path opacity="0.3" fill="#CCCCCC" d="M222.1,323.7h-1v-1.8h1V323.7z M222.1,320.2h-1v-1.8h1V320.2z M222.1,316.7h-1v-1.8h1V316.7z
		 M222.1,313.2h-1v-1.8h1V313.2z M222.1,309.7h-1v-1.8h1V309.7z M222.1,306.2h-1v-1.8h1V306.2z M222.1,302.7h-1v-1.8h1V302.7z
		 M222.1,299.2h-1v-1.8h1V299.2z M222.1,295.7h-1v-1.8h1V295.7z M222.1,292.2h-1v-1.8h1V292.2z M222.1,288.7h-1v-1.8h1V288.7z
		 M222.1,285.2h-1v-1.8h1V285.2z M222.1,281.7h-1v-1.8h1V281.7z M222.1,278.2h-1v-1.8h1V278.2z"/>
	<rect x="168.3" y="276.4" opacity="0.3" fill="#CCCCCC" width="2" height="36.5"/>
	<path opacity="0.3" fill="#CCCCCC" d="M284.7,299.8h-2v-2h2V299.8z M284.7,295.8h-2v-2h2V295.8z M284.7,291.8h-2v-2h2V291.8z
		 M284.7,287.8h-2v-2h2V287.8z M284.7,283.8h-2v-2h2V283.8z M284.7,279.8h-2v-2h2V279.8z"/>
	<path opacity="0.3" fill="#CCCCCC" d="M397.9,265.8c-0.6,0-1-0.4-1-1s0.4-1,1-1h0c0.6,0,1,0.4,1,1S398.4,265.8,397.9,265.8z
		 M394.8,265.8h-3c-0.6,0-1-0.4-1-1s0.4-1,1-1h3c0.6,0,1,0.4,1,1S395.4,265.8,394.8,265.8z M388.8,265.8h-3c-0.6,0-1-0.4-1-1
		s0.4-1,1-1h3c0.6,0,1,0.4,1,1S389.4,265.8,388.8,265.8z M382.8,265.8h-3c-0.6,0-1-0.4-1-1s0.4-1,1-1h3c0.6,0,1,0.4,1,1
		S383.4,265.8,382.8,265.8z M376.8,265.8h-3c-0.6,0-1-0.4-1-1s0.4-1,1-1h3c0.6,0,1,0.4,1,1S377.4,265.8,376.8,265.8z M370.8,265.8
		h-3c-0.6,0-1-0.4-1-1s0.4-1,1-1h3c0.6,0,1,0.4,1,1S371.4,265.8,370.8,265.8z M364.8,265.8h-3c-0.6,0-1-0.4-1-1s0.4-1,1-1h3
		c0.6,0,1,0.4,1,1S365.4,265.8,364.8,265.8z M358.8,265.8h-3c-0.6,0-1-0.4-1-1s0.4-1,1-1h3c0.6,0,1,0.4,1,1S359.4,265.8,358.8,265.8
		z M352.8,265.8h-3c-0.6,0-1-0.4-1-1s0.4-1,1-1h3c0.6,0,1,0.4,1,1S353.4,265.8,352.8,265.8z"/>
	<path opacity="0.3" fill="#CCCCCC" d="M399.6,262c-0.6,0-1-0.4-1-1s0.4-1,1-1h0c0.6,0,1,0.4,1,1S400.2,262,399.6,262z M396.6,262
		h-3c-0.6,0-1-0.4-1-1s0.4-1,1-1h3c0.6,0,1,0.4,1,1S397.1,262,396.6,262z M390.6,262h-3c-0.6,0-1-0.4-1-1s0.4-1,1-1h3
		c0.6,0,1,0.4,1,1S391.1,262,390.6,262z M384.6,262h-3c-0.6,0-1-0.4-1-1s0.4-1,1-1h3c0.6,0,1,0.4,1,1S385.1,262,384.6,262z
		 M378.6,262h-3c-0.6,0-1-0.4-1-1s0.4-1,1-1h3c0.6,0,1,0.4,1,1S379.1,262,378.6,262z M372.6,262h-3c-0.6,0-1-0.4-1-1s0.4-1,1-1h3
		c0.6,0,1,0.4,1,1S373.1,262,372.6,262z M366.6,262h-3c-0.6,0-1-0.4-1-1s0.4-1,1-1h3c0.6,0,1,0.4,1,1S367.1,262,366.6,262z
		 M360.6,262h-3c-0.6,0-1-0.4-1-1s0.4-1,1-1h3c0.6,0,1,0.4,1,1S361.1,262,360.6,262z M354.6,262h-3c-0.6,0-1-0.4-1-1s0.4-1,1-1h3
		c0.6,0,1,0.4,1,1S355.1,262,354.6,262z"/>
	<g opacity="0.6">
		<g>
			<g>
				<path fill="#F7AD41" d="M368.8,97.5c0.5,0,1,0.4,1,1v4.8c0,0.5-0.4,1-1,1h-7.2c-0.5,0-1-0.4-1-1v-4.8c0-0.5,0.4-1,1-1H368.8
					L368.8,97.5z M368.8,96.5h-7.2c-1.1,0-1.9,0.9-1.9,1.9v4.8c0,1.1,0.9,1.9,1.9,1.9h7.2c1.1,0,1.9-0.9,1.9-1.9v-4.8
					C370.8,97.4,369.9,96.5,368.8,96.5L368.8,96.5z"/>
			</g>
		</g>
		<g>
			<g>
				<path fill="#F7AD41" d="M365.2,101.6c-0.1,0-0.1,0-0.2-0.1l-4.2-3.6c-0.1-0.1-0.1-0.2,0-0.3c0.1-0.1,0.2-0.1,0.3,0l4.1,3.5
					l4.1-3.5c0.1-0.1,0.3-0.1,0.3,0c0.1,0.1,0.1,0.3,0,0.3l-4.2,3.6C365.4,101.6,365.3,101.6,365.2,101.6z"/>
			</g>
		</g>
		<g>
			<g>
				<path fill="#F7AD41" d="M361,104.1c-0.1,0-0.1,0-0.2-0.1c-0.1-0.1-0.1-0.3,0-0.3l3.5-3c0.1-0.1,0.3-0.1,0.3,0
					c0.1,0.1,0.1,0.3,0,0.3l-3.5,3C361.1,104.1,361.1,104.1,361,104.1z"/>
			</g>
		</g>
		<g>
			<g>
				<path fill="#F7AD41" d="M369.5,104c-0.1,0-0.1,0-0.2-0.1l-3.6-3c-0.1-0.1-0.1-0.2,0-0.3c0.1-0.1,0.2-0.1,0.3,0l3.6,3
					c0.1,0.1,0.1,0.2,0,0.3C369.6,104,369.6,104,369.5,104z"/>
			</g>
		</g>
	</g>
	<g opacity="0.6">
		<g>
			<g>
				<path fill="#F7AD41" d="M361.1,112.2c0.4,0,0.8,0.3,0.8,0.8v3.8c0,0.4-0.3,0.8-0.8,0.8h-5.6c-0.4,0-0.8-0.3-0.8-0.8v-3.8
					c0-0.4,0.3-0.8,0.8-0.8H361.1L361.1,112.2z M361.1,111.4h-5.6c-0.8,0-1.5,0.7-1.5,1.5v3.8c0,0.8,0.7,1.5,1.5,1.5h5.6
					c0.8,0,1.5-0.7,1.5-1.5v-3.8C362.6,112.1,361.9,111.4,361.1,111.4L361.1,111.4z"/>
			</g>
		</g>
		<g>
			<g>
				<path fill="#F7AD41" d="M358.3,115.4c0,0-0.1,0-0.1,0l-3.3-2.8c-0.1-0.1-0.1-0.2,0-0.3c0.1-0.1,0.2-0.1,0.3,0l3.2,2.7l3.2-2.7
					c0.1-0.1,0.2-0.1,0.3,0c0.1,0.1,0.1,0.2,0,0.3l-3.3,2.8C358.4,115.4,358.3,115.4,358.3,115.4z"/>
			</g>
		</g>
		<g>
			<g>
				<path fill="#F7AD41" d="M355,117.3c-0.1,0-0.1,0-0.1-0.1c-0.1-0.1-0.1-0.2,0-0.3l2.8-2.3c0.1-0.1,0.2-0.1,0.3,0
					c0.1,0.1,0.1,0.2,0,0.3l-2.8,2.3C355.1,117.3,355,117.3,355,117.3z"/>
			</g>
		</g>
		<g>
			<g>
				<path fill="#F7AD41" d="M361.6,117.3c0,0-0.1,0-0.1,0l-2.8-2.3c-0.1-0.1-0.1-0.2,0-0.3c0.1-0.1,0.2-0.1,0.3,0l2.8,2.3
					c0.1,0.1,0.1,0.2,0,0.3C361.7,117.3,361.7,117.3,361.6,117.3z"/>
			</g>
		</g>
	</g>
	<g opacity="0.6">
		<g>
			<g>
				<path fill="#F7AD41" d="M353.5,123.5c0.4,0,0.8,0.3,0.8,0.8v3.8c0,0.4-0.3,0.8-0.8,0.8h-5.6c-0.4,0-0.8-0.3-0.8-0.8v-3.8
					c0-0.4,0.3-0.8,0.8-0.8H353.5L353.5,123.5z M353.5,122.8h-5.6c-0.8,0-1.5,0.7-1.5,1.5v3.8c0,0.8,0.7,1.5,1.5,1.5h5.6
					c0.8,0,1.5-0.7,1.5-1.5v-3.8C355,123.4,354.3,122.8,353.5,122.8L353.5,122.8z"/>
			</g>
		</g>
		<g>
			<g>
				<path fill="#F7AD41" d="M350.7,126.7c0,0-0.1,0-0.1,0l-3.3-2.8c-0.1-0.1-0.1-0.2,0-0.3c0.1-0.1,0.2-0.1,0.3,0l3.2,2.7l3.2-2.7
					c0.1-0.1,0.2-0.1,0.3,0c0.1,0.1,0.1,0.2,0,0.3l-3.3,2.8C350.7,126.7,350.7,126.7,350.7,126.7z"/>
			</g>
		</g>
		<g>
			<g>
				<path fill="#F7AD41" d="M347.3,128.7c-0.1,0-0.1,0-0.1-0.1c-0.1-0.1-0.1-0.2,0-0.3l2.8-2.3c0.1-0.1,0.2-0.1,0.3,0
					c0.1,0.1,0.1,0.2,0,0.3l-2.8,2.3C347.4,128.7,347.4,128.7,347.3,128.7z"/>
			</g>
		</g>
		<g>
			<g>
				<path fill="#F7AD41" d="M354,128.6c0,0-0.1,0-0.1,0l-2.8-2.3c-0.1-0.1-0.1-0.2,0-0.3c0.1-0.1,0.2-0.1,0.3,0l2.8,2.3
					c0.1,0.1,0.1,0.2,0,0.3C354.1,128.6,354,128.6,354,128.6z"/>
			</g>
		</g>
	</g>
	<g opacity="0.6">
		<g>
			<g>
				<path fill="#F7AD41" d="M346.3,133.8c0.4,0,0.7,0.3,0.7,0.7v3.4c0,0.4-0.3,0.7-0.7,0.7h-5.1c-0.4,0-0.7-0.3-0.7-0.7v-3.4
					c0-0.4,0.3-0.7,0.7-0.7H346.3L346.3,133.8z M346.3,133.1h-5.1c-0.8,0-1.4,0.6-1.4,1.4v3.4c0,0.8,0.6,1.4,1.4,1.4h5.1
					c0.8,0,1.4-0.6,1.4-1.4v-3.4C347.7,133.7,347.1,133.1,346.3,133.1L346.3,133.1z"/>
			</g>
		</g>
		<g>
			<g>
				<path fill="#F7AD41" d="M343.8,136.8c0,0-0.1,0-0.1,0l-3-2.6c-0.1-0.1-0.1-0.2,0-0.2c0.1-0.1,0.2-0.1,0.2,0l2.9,2.5l2.9-2.5
					c0.1-0.1,0.2-0.1,0.2,0c0.1,0.1,0.1,0.2,0,0.2l-3,2.6C343.8,136.7,343.8,136.8,343.8,136.8z"/>
			</g>
		</g>
		<g>
			<g>
				<path fill="#F7AD41" d="M340.7,138.5c0,0-0.1,0-0.1-0.1c-0.1-0.1-0.1-0.2,0-0.2l2.5-2.1c0.1-0.1,0.2-0.1,0.2,0
					c0.1,0.1,0.1,0.2,0,0.2l-2.5,2.1C340.8,138.5,340.8,138.5,340.7,138.5z"/>
			</g>
		</g>
		<g>
			<g>
				<path fill="#F7AD41" d="M346.8,138.5c0,0-0.1,0-0.1,0l-2.6-2.1c-0.1-0.1-0.1-0.2,0-0.2c0.1-0.1,0.2-0.1,0.2,0l2.6,2.1
					c0.1,0.1,0.1,0.2,0,0.2C346.9,138.4,346.8,138.5,346.8,138.5z"/>
			</g>
		</g>
	</g>
	<g opacity="0.6">
		<g>
			<g>
				<path fill="#F7AD41" d="M339.4,145.9c0.4,0,0.7,0.3,0.7,0.7v3.4c0,0.4-0.3,0.7-0.7,0.7h-5.1c-0.4,0-0.7-0.3-0.7-0.7v-3.4
					c0-0.4,0.3-0.7,0.7-0.7H339.4L339.4,145.9z M339.4,145.2h-5.1c-0.8,0-1.4,0.6-1.4,1.4v3.4c0,0.8,0.6,1.4,1.4,1.4h5.1
					c0.8,0,1.4-0.6,1.4-1.4v-3.4C340.7,145.9,340.1,145.2,339.4,145.2L339.4,145.2z"/>
			</g>
		</g>
		<g>
			<g>
				<path fill="#F7AD41" d="M336.8,148.9c0,0-0.1,0-0.1,0l-3-2.6c-0.1-0.1-0.1-0.2,0-0.2c0.1-0.1,0.2-0.1,0.2,0l2.9,2.5l2.9-2.5
					c0.1-0.1,0.2-0.1,0.2,0c0.1,0.1,0.1,0.2,0,0.2l-3,2.6C336.9,148.9,336.9,148.9,336.8,148.9z"/>
			</g>
		</g>
		<g>
			<g>
				<path fill="#F7AD41" d="M333.8,150.6c0,0-0.1,0-0.1-0.1c-0.1-0.1-0.1-0.2,0-0.2l2.5-2.1c0.1-0.1,0.2-0.1,0.2,0
					c0.1,0.1,0.1,0.2,0,0.2l-2.5,2.1C333.9,150.6,333.8,150.6,333.8,150.6z"/>
			</g>
		</g>
		<g>
			<g>
				<path fill="#F7AD41" d="M339.8,150.6c0,0-0.1,0-0.1,0l-2.6-2.1c-0.1-0.1-0.1-0.2,0-0.2c0.1-0.1,0.2-0.1,0.2,0l2.6,2.1
					c0.1,0.1,0.1,0.2,0,0.2C339.9,150.6,339.9,150.6,339.8,150.6z"/>
			</g>
		</g>
	</g>
	<g opacity="0.6">
		<g>
			<g>
				<path fill="#F7AD41" d="M332.4,157.7c0.4,0,0.7,0.3,0.7,0.7v3.4c0,0.4-0.3,0.7-0.7,0.7h-5.1c-0.4,0-0.7-0.3-0.7-0.7v-3.4
					c0-0.4,0.3-0.7,0.7-0.7H332.4L332.4,157.7z M332.4,157h-5.1c-0.8,0-1.4,0.6-1.4,1.4v3.4c0,0.8,0.6,1.4,1.4,1.4h5.1
					c0.8,0,1.4-0.6,1.4-1.4v-3.4C333.8,157.6,333.2,157,332.4,157L332.4,157z"/>
			</g>
		</g>
		<g>
			<g>
				<path fill="#F7AD41" d="M329.8,160.6c0,0-0.1,0-0.1,0l-3-2.6c-0.1-0.1-0.1-0.2,0-0.2c0.1-0.1,0.2-0.1,0.2,0l2.9,2.5l2.9-2.5
					c0.1-0.1,0.2-0.1,0.2,0c0.1,0.1,0.1,0.2,0,0.2l-3,2.6C329.9,160.6,329.9,160.6,329.8,160.6z"/>
			</g>
		</g>
		<g>
			<g>
				<path fill="#F7AD41" d="M326.8,162.4c0,0-0.1,0-0.1-0.1c-0.1-0.1-0.1-0.2,0-0.2l2.5-2.1c0.1-0.1,0.2-0.1,0.2,0
					c0.1,0.1,0.1,0.2,0,0.2l-2.5,2.1C326.9,162.4,326.9,162.4,326.8,162.4z"/>
			</g>
		</g>
		<g>
			<g>
				<path fill="#F7AD41" d="M332.9,162.3c0,0-0.1,0-0.1,0l-2.6-2.1c-0.1-0.1-0.1-0.2,0-0.2c0.1-0.1,0.2-0.1,0.2,0l2.6,2.1
					c0.1,0.1,0.1,0.2,0,0.2C333,162.3,332.9,162.3,332.9,162.3z"/>
			</g>
		</g>
	</g>
	<g opacity="0.6">
		<g>
			<g>
				<path fill="#F7AD41" d="M328.9,171.4c0.4,0,0.7,0.3,0.7,0.7v3.4c0,0.4-0.3,0.7-0.7,0.7h-5.1c-0.4,0-0.7-0.3-0.7-0.7v-3.4
					c0-0.4,0.3-0.7,0.7-0.7H328.9L328.9,171.4z M328.9,170.7h-5.1c-0.8,0-1.4,0.6-1.4,1.4v3.4c0,0.8,0.6,1.4,1.4,1.4h5.1
					c0.8,0,1.4-0.6,1.4-1.4v-3.4C330.2,171.4,329.6,170.7,328.9,170.7L328.9,170.7z"/>
			</g>
		</g>
		<g>
			<g>
				<path fill="#F7AD41" d="M326.3,174.4c0,0-0.1,0-0.1,0l-3-2.6c-0.1-0.1-0.1-0.2,0-0.2c0.1-0.1,0.2-0.1,0.2,0l2.9,2.5l2.9-2.5
					c0.1-0.1,0.2-0.1,0.2,0c0.1,0.1,0.1,0.2,0,0.2l-3,2.6C326.4,174.4,326.4,174.4,326.3,174.4z"/>
			</g>
		</g>
		<g>
			<g>
				<path fill="#F7AD41" d="M323.3,176.1c0,0-0.1,0-0.1-0.1c-0.1-0.1-0.1-0.2,0-0.2l2.5-2.1c0.1-0.1,0.2-0.1,0.2,0
					c0.1,0.1,0.1,0.2,0,0.2l-2.5,2.1C323.4,176.1,323.3,176.1,323.3,176.1z"/>
			</g>
		</g>
		<g>
			<g>
				<path fill="#F7AD41" d="M329.3,176.1c0,0-0.1,0-0.1,0l-2.6-2.1c-0.1-0.1-0.1-0.2,0-0.2c0.1-0.1,0.2-0.1,0.2,0l2.6,2.1
					c0.1,0.1,0.1,0.2,0,0.2C329.4,176.1,329.4,176.1,329.3,176.1z"/>
			</g>
		</g>
	</g>
	
		<rect x="158.6" y="308.5" transform="matrix(0.7071 0.7071 -0.7071 0.7071 274.991 -18.2744)" opacity="0.3" fill="#CCCCCC" width="2" height="28.6"/>
	<g opacity="0.3">
		<path opacity="0.2" fill="#CCCCCC" d="M147.1,283.4c-0.5,0-1-0.4-1-1v-0.8c0-0.5,0.4-1,1-1s1,0.4,1,1v0.8
			C148,283,147.6,283.4,147.1,283.4z M147.1,279.7c-0.5,0-1-0.4-1-1v-3c0-0.5,0.4-1,1-1s1,0.4,1,1v3
			C148,279.2,147.6,279.7,147.1,279.7z M147.1,273.8c-0.5,0-1-0.4-1-1v-3c0-0.5,0.4-1,1-1s1,0.4,1,1v3
			C148,273.3,147.6,273.8,147.1,273.8z M147.1,267.9c-0.5,0-1-0.4-1-1v-3c0-0.5,0.4-1,1-1s1,0.4,1,1v3
			C148,267.4,147.6,267.9,147.1,267.9z M147.1,262c-0.5,0-1-0.4-1-1v-3c0-0.5,0.4-1,1-1s1,0.4,1,1v3C148,261.5,147.6,262,147.1,262z
			 M147.1,256c-0.5,0-1-0.4-1-1v-3c0-0.5,0.4-1,1-1s1,0.4,1,1v3C148,255.6,147.6,256,147.1,256z"/>
		<path opacity="0.2" fill="#CCCCCC" d="M130,303.5c-0.3,0-0.5-0.1-0.7-0.3c-0.4-0.4-0.4-1,0-1.4l0.4-0.4c0.4-0.4,1-0.4,1.4,0
			s0.4,1,0,1.4l-0.4,0.4C130.5,303.4,130.3,303.5,130,303.5z M132.5,301c-0.3,0-0.5-0.1-0.7-0.3c-0.4-0.4-0.4-1,0-1.4l2.1-2.1
			c0.4-0.4,1-0.4,1.4,0s0.4,1,0,1.4l-2.1,2.1C133,300.9,132.8,301,132.5,301z M136.7,296.7c-0.3,0-0.5-0.1-0.7-0.3
			c-0.4-0.4-0.4-1,0-1.4l2.1-2.1c0.4-0.4,1-0.4,1.4,0c0.4,0.4,0.4,1,0,1.4l-2.1,2.1C137.3,296.6,137,296.7,136.7,296.7z M141,292.5
			c-0.3,0-0.5-0.1-0.7-0.3c-0.4-0.4-0.4-1,0-1.4l2.1-2.1c0.4-0.4,1-0.4,1.4,0c0.4,0.4,0.4,1,0,1.4l-2.1,2.1
			C141.5,292.4,141.2,292.5,141,292.5z M145.2,288.2c-0.3,0-0.5-0.1-0.7-0.3c-0.4-0.4-0.4-1,0-1.4l2.1-2.1c0.4-0.4,1-0.4,1.4,0
			c0.4,0.4,0.4,1,0,1.4l-2.1,2.1C145.7,288.2,145.5,288.2,145.2,288.2z"/>
	</g>
	<path opacity="0.3" fill="#CCCCCC" d="M364.7,202.4c-0.3,0-0.5-0.1-0.7-0.3c-0.4-0.4-0.4-1,0-1.4l0.8-0.8c0.4-0.4,1-0.4,1.4,0
		c0.4,0.4,0.4,1,0,1.4l-0.8,0.8C365.2,202.3,364.9,202.4,364.7,202.4z M367.5,199.5c-0.3,0-0.5-0.1-0.7-0.3c-0.4-0.4-0.4-1,0-1.4
		l2.1-2.2c0.4-0.4,1-0.4,1.4,0c0.4,0.4,0.4,1,0,1.4l-2.1,2.2C368.1,199.4,367.8,199.5,367.5,199.5z M371.7,195.2
		c-0.3,0-0.5-0.1-0.7-0.3c-0.4-0.4-0.4-1,0-1.4l2.1-2.2c0.4-0.4,1-0.4,1.4,0c0.4,0.4,0.4,1,0,1.4l-2.1,2.2
		C372.2,195.1,372,195.2,371.7,195.2z M375.9,190.9c-0.3,0-0.5-0.1-0.7-0.3c-0.4-0.4-0.4-1,0-1.4l2.1-2.2c0.4-0.4,1-0.4,1.4,0
		c0.4,0.4,0.4,1,0,1.4l-2.1,2.2C376.4,190.8,376.2,190.9,375.9,190.9z M380.1,186.6c-0.3,0-0.5-0.1-0.7-0.3c-0.4-0.4-0.4-1,0-1.4
		l2.1-2.2c0.4-0.4,1-0.4,1.4,0c0.4,0.4,0.4,1,0,1.4l-2.1,2.2C380.6,186.5,380.3,186.6,380.1,186.6z"/>
	<path opacity="0.3" fill="#CCCCCC" d="M361.2,201.9h-2.8c-0.5,0-0.9-0.4-0.9-0.9s0.4-0.9,0.9-0.9h2.8c0.5,0,0.9,0.4,0.9,0.9
		S361.7,201.9,361.2,201.9z M355.6,201.9h-2.8c-0.5,0-0.9-0.4-0.9-0.9s0.4-0.9,0.9-0.9h2.8c0.5,0,0.9,0.4,0.9,0.9
		S356.1,201.9,355.6,201.9z M350,201.9h-2.8c-0.5,0-0.9-0.4-0.9-0.9s0.4-0.9,0.9-0.9h2.8c0.5,0,0.9,0.4,0.9,0.9
		S350.5,201.9,350,201.9z M344.4,201.9h-2.8c-0.5,0-0.9-0.4-0.9-0.9s0.4-0.9,0.9-0.9h2.8c0.5,0,0.9,0.4,0.9,0.9
		S344.9,201.9,344.4,201.9z"/>
</g>
<g id="_x3C_Layer_x3E_">
</g>
</svg>
