<?xml version="1.0" encoding="utf-8"?>
<!-- Generator: Adobe Illustrator 16.0.0, SVG Export Plug-In . SVG Version: 6.00 Build 0)  -->
<!DOCTYPE svg PUBLIC "-//W3C//DTD SVG 1.1//EN" "http://www.w3.org/Graphics/SVG/1.1/DTD/svg11.dtd">
<svg version="1.1" id="Layer_1" xmlns="http://www.w3.org/2000/svg" xmlns:xlink="http://www.w3.org/1999/xlink" x="0px" y="0px"
	 width="175px" height="175px" viewBox="0 0 175 175" enable-background="new 0 0 175 175" xml:space="preserve">
<g id="Isolation_Mode">
	<g>
		<g>
			<path fill="#FF9933" d="M147.2,106.5l1.399-2.9c0.9-1.8,1.4-3.899,1.4-6c0-7.5-6.1-13.6-13.6-13.6S122.8,90.1,122.8,97.6
				c0,2,0.5,4,1.4,6l1.399,2.9H46l1.4-2.9c0.9-1.8,1.4-3.899,1.4-6c0-7.5-6.1-13.6-13.6-13.6s-13.6,6.1-13.6,13.6c0,2,0.5,4,1.4,6
				l1.4,2.9h-3.8c-1.2,0-2.3-0.2-3.4-0.5c-1.2-0.3-2.2-0.9-3.2-1.6l-2-1.4c-1.9-1.3-3.4-3.1-4.5-5.1S5.8,93.7,5.8,91.3V80.6
				c0-2,0.7-3.9,2.1-5.4c1.3-1.5,3.1-2.5,5.1-2.8l66.3-9.5c1-0.2,2-0.3,3-0.3c1.1-0.1,2-0.1,3-0.1h7.2c1.5,0,3,0.1,4.3,0.4
				c1.2,0.2,2.601,0.5,4.101,1L130,74.1l7.6,1.2c1.301,0.2,2.601,0.5,3.7,0.8c1.2,0.3,2.4,0.8,3.601,1.3l24.5,10.8
				c1.399,0.6,2.5,1.7,3,3.2s0.5,3-0.101,4.3l-1.7,3.7c-1,2.1-2.5,3.899-4.5,5.199c-2,1.301-4.3,2-6.6,2h-12.3V106.5z M158.4,102.6
				v-0.1h1c1.6,0,3.1-0.4,4.5-1.3c1.3-0.8,2.3-2,3-3.5L168.6,94c0.2-0.4,0.2-0.8,0-1.3c-0.199-0.4-0.399-0.7-0.899-0.9L143.3,81
				c-1.1-0.5-2.3-0.9-3.1-1.1c-1.2-0.3-2.3-0.6-3.2-0.7l-8-1.2L99.5,67.6c-1.2-0.4-2.4-0.7-3.5-0.9c-1.2-0.2-2.4-0.3-3.7-0.3h-7.2
				c-0.8,0-1.8,0-2.7,0.1c-0.9,0-1.8,0.1-2.6,0.3l-66.3,9.5c-1,0.1-2,0.6-2.7,1.5c-0.7,0.8-1.1,1.8-1.1,2.9v10.6
				c0,1.7,0.4,3.3,1.2,4.8c0.8,1.5,1.9,2.7,3.2,3.7l2,1.4c0.6,0.399,1.3,0.8,1.9,1c-0.4-1.5-0.6-3-0.6-4.5c0-9.7,7.9-17.5,17.5-17.5
				c9.7,0,17.5,7.899,17.5,17.5c0,1.7-0.2,3.3-0.7,4.899h67.6c-0.5-1.6-0.7-3.199-0.7-4.899c0-9.7,7.9-17.5,17.5-17.5
				c9.601,0,17.5,7.899,17.5,17.5c0,1.7-0.199,3.3-0.699,4.899H158.4z"/>
			<path fill="#FF9933" d="M171.5,91.6c-0.4-1.199-1.3-2.1-2.4-2.6L144.7,78.2c-1.2-0.5-2.3-1-3.5-1.3c-1.2-0.3-2.4-0.6-3.601-0.8
				l-7.699-1.2l-29.2-10.2c-1.3-0.4-2.7-0.8-4-1c-1.4-0.3-2.8-0.4-4.101-0.4h-7.2c-1,0-2,0.1-2.9,0.1c-1,0.1-2,0.2-2.9,0.3
				l-66.3,9.5c-1.8,0.3-3.3,1.1-4.5,2.4c-1.2,1.3-1.8,3-1.8,4.8V91c0,2.2,0.5,4.2,1.6,6.2c1,1.899,2.4,3.6,4.1,4.8l2,1.4
				c0.8,0.6,1.8,1.1,2.9,1.399c1,0.3,2.1,0.5,3.1,0.5h2.2l-0.7-1.399c-1-2-1.5-4.2-1.5-6.4c0-8,6.5-14.6,14.6-14.6
				c8,0,14.6,6.5,14.6,14.6c0,2.2-0.5,4.4-1.5,6.4l-0.7,1.399H124l-0.7-1.399c-1-2-1.5-4.2-1.5-6.4c0-8,6.5-14.6,14.601-14.6
				c8,0,14.6,6.5,14.6,14.6c0,2.2-0.5,4.4-1.5,6.4l-0.7,1.399h10.7c2.2,0,4.3-0.6,6.1-1.8c1.801-1.2,3.2-2.8,4.101-4.8l1.7-3.7
				C171.9,94.1,171.9,92.8,171.5,91.6z M159.4,103.5L159.4,103.5v0.1h-7.7c0.7-1.899,1.1-3.899,1.1-5.899
				c0-9.101-7.399-16.5-16.5-16.5c-9.1,0-16.5,7.399-16.5,16.5c0,2,0.4,4,1.101,5.899H50.5c0.7-1.899,1.1-3.899,1.1-5.899
				c0-9.101-7.4-16.5-16.5-16.5S18.6,88.6,18.6,97.7c0,2,0.4,4,1.1,5.8c-0.5-0.1-1.1-0.2-1.6-0.4c-0.8-0.3-1.6-0.699-2.3-1.199
				l-2-1.4c-1.5-1.1-2.7-2.4-3.6-4.1C9.4,94.8,8.9,93,8.9,91.1V80.7c0-1.3,0.5-2.5,1.3-3.5c0.8-1,2-1.6,3.3-1.8l66.3-9.5
				c0.9-0.2,1.8-0.3,2.8-0.3c0.9-0.1,1.9-0.1,2.8-0.1h7.2c1.301,0,2.5,0.1,3.801,0.3c1.3,0.2,2.5,0.5,3.699,1L129.5,77l7.8,1.2
				c1.2,0.2,2.3,0.4,3.4,0.7c1.1,0.3,2.2,0.7,3.2,1.2L168.3,90.9c0.7,0.3,1.2,0.8,1.4,1.5C170,93.1,170,93.8,169.6,94.5l-1.699,3.7
				c-0.7,1.6-1.9,3-3.4,3.899C162.9,103,161.2,103.5,159.4,103.5z"/>
			<path fill="#FF9933" d="M91.1,82.5c-1,0-2.5-0.2-3.399-0.3h-0.1l-17.9-5.5c-1.4-0.3-2.4-1.6-2.3-3.1c0-1.4,1.1-2.7,2.5-3l13-1.7
				c0.8-0.1,2.3-0.3,3.3-0.3H92.1c1,0,2.601,0.3,3.7,0.8l26.5,8.9c1.5,0.6,2.7,1.2,2.4,2.7c-0.101,0.7-0.7,1.4-1.9,1.4H92L91.1,82.5
				z M88.4,78.8c0.699,0.1,1.899,0.3,2.699,0.3h22.5l-19.1-6.4c-0.7-0.3-1.8-0.6-2.4-0.6h-5l0,0h-0.9c-0.8,0-2,0.1-2.7,0.3h-0.1
				l-11.3,1.5L88.4,78.8z"/>
			<g>
				<g>
					<path fill="#FF9933" d="M164,93.2l-11.4-4l-1.1-6.1l15.6,6.8c0.601,0.3,1.101,0.6,1.601,1.199l0.7,0.801L164,93.2z"/>
				</g>
			</g>
			<polygon fill="#FF9933" points="63.4,81.3 48,70.1 50.2,67.1 66.5,79 75.8,105.1 72.3,106.3 			"/>
			<polygon fill="#FF9933" points="65.7,79.6 50.4,68.5 49.4,69.9 64.2,80.7 72.9,105 74.5,104.5 			"/>
			<g>
				<path fill="#FF9933" d="M35.4,109.9c-6.8,0-12.3-5.5-12.3-12.301c0-6.8,5.5-12.3,12.3-12.3c6.8,0,12.3,5.5,12.3,12.3
					C47.7,104.4,42.2,109.9,35.4,109.9z M35.4,89.4c-4.5,0-8.2,3.699-8.2,8.199s3.7,8.2,8.2,8.2s8.2-3.7,8.2-8.2
					S39.9,89.4,35.4,89.4z"/>
				<path fill="#FF9933" d="M136.7,109.7c-6.7,0-12.101-5.4-12.101-12.101c0-6.699,5.4-12.1,12.101-12.1s12.1,5.4,12.1,12.1
					C148.7,104.3,143.3,109.7,136.7,109.7z M136.7,89.7c-4.4,0-8,3.6-8,8c0,4.399,3.6,8,8,8c4.399,0,8-3.601,8-8
					C144.6,93.3,141,89.7,136.7,89.7z"/>
			</g>
		</g>
		<rect y="48.7" fill="#FF9933" width="4" height="74.5"/>
		<rect x="99.5" y="47.7" fill="#FF9933" width="4.1" height="18.1"/>
		<rect x="100.5" y="49.7" fill="#FF9933" width="2.1" height="16.1"/>
		<g>
			<rect x="12.2" y="52" fill="#FF9933" width="82.6" height="3.7"/>
			<polygon fill="#FF9933" points="11.5,56.6 6.3,53.8 16.6,48.2 16.6,59.4 			"/>
			<polygon fill="#FF9933" points="15.6,53.8 15.6,57.8 12,55.8 8.3,53.8 12,51.8 15.6,49.8 			"/>
			<polygon fill="#FF9933" points="88.4,48.2 98.7,53.8 93.5,56.6 88.4,59.4 			"/>
			<polygon fill="#FF9933" points="89.4,53.8 89.4,49.8 93,51.8 96.7,53.8 93,55.8 89.4,57.8 			"/>
		</g>
		<rect x="168.2" y="91.9" fill="#FF9933" width="4" height="31.8"/>
		<g>
			<rect x="10.5" y="116.6" fill="#FF9933" width="151.6" height="3.801"/>
			<polygon fill="#FF9933" points="9.8,121.4 4.5,118.5 9.8,115.6 15,112.8 15,124.2 			"/>
			<polygon fill="#FF9933" points="14,118.5 14,122.5 10.3,120.5 6.6,118.5 10.3,116.4 14,114.4 			"/>
			<polygon fill="#FF9933" points="157.1,112.8 162.3,115.5 167.7,118.5 162.3,121.4 157.1,124.2 			"/>
			<polygon fill="#FF9933" points="158.1,118.5 158.1,114.4 161.8,116.4 165.6,118.5 161.8,120.5 158.1,122.5 			"/>
		</g>
	</g>
</g>
<g id="Ñëîé_1">
</g>
<g id="_xB9_Ï_xBC_h_x5F_1">
</g>
<g id="Layer_1_1_">
</g>
</svg>
