<?xml version="1.0" encoding="utf-8"?>
<!-- Generator: Adobe Illustrator 16.0.0, SVG Export Plug-In . SVG Version: 6.00 Build 0)  -->
<!DOCTYPE svg PUBLIC "-//W3C//DTD SVG 1.1//EN" "http://www.w3.org/Graphics/SVG/1.1/DTD/svg11.dtd">
<svg version="1.1" id="Layer_1" xmlns="http://www.w3.org/2000/svg" xmlns:xlink="http://www.w3.org/1999/xlink" x="0px" y="0px"
	 width="175px" height="175px" viewBox="0 0 175 175" enable-background="new 0 0 175 175" xml:space="preserve">
<g id="Isolation_Mode">
	<g>
		<path fill="#CCCCCC" d="M63.4,123.1c-10,0-18.2-8.1-18.2-18.199c0-10.101,8.1-18.2,18.2-18.2s18.2,8.1,18.2,18.2
			C81.6,115,73.4,123.1,63.4,123.1z M63.4,88.4c-9.1,0-16.5,7.399-16.5,16.5c0,9.1,7.4,16.5,16.5,16.5s16.5-7.4,16.5-16.5
			C79.9,95.8,72.5,88.4,63.4,88.4z"/>
		<path fill="#CCCCCC" d="M112.1,67.7c-3.5,0-6.8-1.9-8.6-5c-1.3-2.3-1.7-5-1-7.5s2.3-4.7,4.6-6c1.5-0.9,3.2-1.3,5-1.3
			c3.5,0,6.801,1.9,8.601,5c1.3,2.3,1.7,5,1,7.5s-2.3,4.7-4.601,6C115.5,67.3,113.8,67.7,112.1,67.7z M112,49.6
			c-1.4,0-2.9,0.4-4.1,1.1c-1.9,1.1-3.301,2.9-3.9,5c-0.6,2.1-0.3,4.3,0.8,6.2c1.4,2.5,4.2,4.1,7.2,4.1c1.4,0,2.9-0.4,4.1-1.1
			c1.9-1.1,3.301-2.9,3.9-5s0.3-4.3-0.8-6.2C117.8,51.2,115,49.6,112,49.6z"/>
		<path fill="#CCCCCC" d="M53.9,142.9c-0.3,0-0.6-0.101-0.9-0.101c-3.2-0.899-6.2-2.1-9.1-3.8c-0.8-0.5-1.4-1.3-1.6-2.2
			c-0.2-0.899,0.1-1.899,0.6-2.7c1.9-2.5,1.7-6-0.6-8.3c-1.2-1.2-2.8-1.8-4.4-1.8c-1.4,0-2.7,0.5-3.8,1.3
			c-0.8,0.601-1.7,0.8-2.7,0.601c-0.9-0.2-1.7-0.801-2.2-1.601c-1.6-2.899-2.9-5.899-3.8-9.1c-0.2-0.9-0.1-1.9,0.5-2.7
			c0.5-0.8,1.4-1.3,2.3-1.4c3.1-0.399,5.4-3.1,5.4-6.199c0-3.101-2.4-5.801-5.4-6.2c-0.9-0.101-1.8-0.601-2.3-1.4s-0.7-1.8-0.5-2.7
			c0.9-3.199,2.1-6.199,3.8-9.1c0.5-0.8,1.3-1.4,2.2-1.6c0.9-0.2,1.9,0.1,2.7,0.6c1.1,0.9,2.4,1.3,3.8,1.3c1.7,0,3.2-0.6,4.4-1.8
			c2.2-2.2,2.4-5.8,0.6-8.3c-0.6-0.8-0.8-1.7-0.6-2.7c0.2-0.9,0.8-1.7,1.6-2.2c2.9-1.6,5.9-2.9,9.1-3.8c0.9-0.2,1.9-0.1,2.7,0.5
			c0.8,0.5,1.3,1.4,1.4,2.3c0.4,3.1,3.1,5.4,6.2,5.4c3.2,0,5.8-2.4,6.2-5.4c0.1-0.9,0.6-1.8,1.4-2.3c0.8-0.5,1.8-0.7,2.7-0.5
			c3.2,0.9,6.2,2.1,9.1,3.8c0.8,0.5,1.4,1.3,1.6,2.2c0.2,0.9-0.1,1.9-0.6,2.7c-1.9,2.5-1.7,6,0.6,8.3c1.2,1.2,2.8,1.8,4.4,1.8
			c1.399,0,2.7-0.5,3.8-1.3c0.8-0.6,1.7-0.8,2.7-0.6c0.899,0.2,1.7,0.8,2.2,1.6c1.6,2.9,2.899,5.9,3.8,9.1c0.2,0.9,0.1,1.9-0.5,2.7
			c-0.5,0.8-1.4,1.3-2.3,1.4C95.3,99.1,93,101.8,93,104.9c0,3.1,2.4,5.8,5.4,6.199c0.899,0.101,1.8,0.601,2.3,1.4s0.7,1.8,0.5,2.7
			c-0.9,3.2-2.101,6.2-3.8,9.1c-0.5,0.8-1.301,1.4-2.2,1.601C95,126,94.7,126,94.6,126l0,0c-0.699,0-1.399-0.2-2-0.7
			c-1.1-0.899-2.399-1.3-3.8-1.3c-1.7,0-3.2,0.6-4.4,1.8c-2.2,2.2-2.4,5.8-0.6,8.3c0.6,0.801,0.8,1.7,0.6,2.7
			c-0.2,0.9-0.8,1.7-1.6,2.2c-2.8,1.6-5.9,2.9-9.1,3.8c-0.9,0.2-1.9,0.101-2.7-0.5c-0.8-0.5-1.3-1.399-1.4-2.3
			c-0.4-3.1-3.1-5.4-6.2-5.4c-3.2,0-5.8,2.4-6.2,5.4c-0.1,0.9-0.6,1.8-1.4,2.3C55.2,142.7,54.5,142.9,53.9,142.9z M37.9,122.4
			c2.1,0,4.1,0.8,5.6,2.3c2.8,2.8,3.1,7.3,0.7,10.399c-0.3,0.4-0.4,0.9-0.3,1.301c0.1,0.399,0.4,0.899,0.8,1.1
			c2.7,1.6,5.7,2.8,8.7,3.6c0.5,0.101,1,0.101,1.3-0.199c0.4-0.301,0.6-0.7,0.8-1.2c0.5-3.9,3.9-6.9,7.9-6.9c3.9,0,7.3,2.9,7.9,6.9
			c0.1,0.5,0.3,0.899,0.8,1.2c0.4,0.3,0.9,0.3,1.3,0.199c3.1-0.8,5.9-2,8.7-3.6c0.4-0.2,0.7-0.6,0.8-1.1s0-0.9-0.3-1.301
			c-2.4-3.1-2.1-7.6,0.7-10.399c1.5-1.5,3.5-2.3,5.601-2.3c1.699,0,3.399,0.6,4.8,1.6c0.3,0.2,0.6,0.3,1,0.3l0,0
			c0.1,0,0.2,0,0.3-0.1c0.5-0.101,0.9-0.4,1.1-0.8c1.601-2.7,2.801-5.7,3.601-8.7c0.1-0.5,0.1-0.9-0.2-1.3
			c-0.3-0.4-0.7-0.601-1.2-0.801C94.4,112.1,91.4,108.7,91.4,104.7s2.899-7.3,6.899-7.9c0.5-0.1,0.9-0.3,1.2-0.8s0.3-0.9,0.2-1.3
			c-0.8-3-2-5.9-3.601-8.7c-0.199-0.4-0.6-0.7-1.1-0.8c-0.5-0.1-1,0-1.3,0.3c-1.4,1-3.101,1.6-4.8,1.6c-2.101,0-4.101-0.8-5.601-2.3
			c-2.8-2.8-3.1-7.3-0.7-10.4c0.3-0.4,0.4-0.9,0.3-1.3c-0.1-0.5-0.4-0.9-0.8-1.1c-2.7-1.6-5.7-2.8-8.7-3.6c-0.5-0.1-1-0.1-1.3,0.2
			c-0.4,0.3-0.6,0.7-0.8,1.2c-0.5,3.9-3.9,6.9-7.9,6.9c-3.9,0-7.4-2.9-7.9-6.8c-0.1-0.5-0.3-0.9-0.8-1.2c-0.5-0.3-0.9-0.3-1.3-0.2
			c-3,0.8-5.9,2-8.7,3.6c-0.4,0.2-0.7,0.6-0.8,1.1s0,0.9,0.3,1.3c2.4,3.1,2.1,7.6-0.7,10.4c-1.5,1.5-3.5,2.3-5.6,2.3
			c-1.7,0-3.4-0.6-4.8-1.6c-0.3-0.3-0.9-0.4-1.3-0.3c-0.4,0.1-0.9,0.4-1.1,0.8c-1.6,2.7-2.8,5.7-3.6,8.7c-0.1,0.5-0.1,0.9,0.2,1.3
			c0.3,0.4,0.7,0.601,1.2,0.801c3.9,0.5,6.9,3.899,6.9,7.899s-2.9,7.3-6.9,7.9c-0.5,0.1-0.9,0.3-1.2,0.8c-0.3,0.4-0.3,0.9-0.2,1.3
			c0.8,3,2,5.9,3.6,8.7c0.2,0.4,0.6,0.7,1.1,0.8c0.5,0.101,1,0,1.3-0.3C34.5,123,36.2,122.4,37.9,122.4z"/>
		<g>
			<path fill="#CCCCCC" d="M63.4,85.7c-10.6,0-19.2,8.6-19.2,19.2c0,10.6,8.6,19.199,19.2,19.199s19.2-8.6,19.2-19.199
				C82.6,94.3,73.9,85.7,63.4,85.7z M63.4,120.4c-8.6,0-15.5-7-15.5-15.5s7-15.5,15.5-15.5c8.6,0,15.5,7,15.5,15.5
				S71.9,120.4,63.4,120.4z"/>
			<path fill="#CCCCCC" d="M112.1,46.9c-1.899,0-3.8,0.5-5.5,1.5c-2.5,1.4-4.3,3.8-5.1,6.6s-0.4,5.7,1.1,8.3
				c2,3.4,5.601,5.5,9.5,5.5c1.9,0,3.7-0.5,5.5-1.5c2.5-1.4,4.301-3.8,5.101-6.6c0.8-2.8,0.399-5.7-1.101-8.3
				C119.6,49,116,46.9,112.1,46.9z M119.1,59.6c-0.5,1.9-1.699,3.4-3.399,4.4c-1.101,0.6-2.4,1-3.601,1c-2.6,0-5-1.4-6.3-3.6
				c-1-1.7-1.2-3.6-0.7-5.5s1.7-3.4,3.4-4.4c1.1-0.6,2.4-1,3.6-1c2.601,0,5,1.4,6.301,3.6C119.3,55.8,119.6,57.8,119.1,59.6z"/>
			<path fill="#CCCCCC" d="M98.7,99.6c1.2-0.199,2.399-0.899,3-1.899c0.7-1,0.899-2.3,0.6-3.601c-0.899-3.199-2.1-6.2-3.8-9.3
				c-0.6-1.1-1.7-1.9-2.9-2.1c-0.3,0-0.5-0.1-0.8-0.1c-1,0-1.899,0.3-2.6,0.9c-1,0.7-2.101,1.1-3.2,1.1c-1.4,0-2.8-0.6-3.7-1.6
				c-1.9-1.9-2.1-4.9-0.5-6.9c0.8-1,1.1-2.2,0.8-3.5c-0.3-1.2-1.1-2.2-2.1-2.8c-2.9-1.7-6-3-9.3-3.9c-0.3-0.1-0.7-0.1-1.1-0.1
				c-0.9,0-1.7,0.2-2.4,0.7c-1,0.7-1.7,1.8-1.9,3c-0.3,2.6-2.6,4.6-5.2,4.6c-2.7,0-4.9-2-5.2-4.6c-0.2-1.2-0.9-2.4-1.9-3
				c-0.7-0.5-1.5-0.8-2.4-0.8c-0.4,0-0.8,0-1.1,0.1c-3.2,0.9-6.2,2.1-9.3,3.8c-1.1,0.6-1.9,1.7-2.1,2.9c-0.2,1.2,0.1,2.5,0.8,3.4
				c1.5,2.1,1.3,5.1-0.5,7c-1,1-2.3,1.6-3.7,1.6c-1.2,0-2.3-0.4-3.2-1.1c-0.8-0.6-1.7-0.9-2.7-0.9c-0.3,0-0.5,0-0.9,0.1
				c-1.2,0.3-2.2,1.1-2.8,2.1c-1.7,2.9-3,6-3.9,9.3c-0.3,1.2-0.1,2.5,0.6,3.5c0.7,1,1.8,1.7,3,1.9c2.6,0.3,4.6,2.6,4.6,5.199
				c0,2.7-2,4.9-4.6,5.2c-1.2,0.2-2.4,0.9-3,1.9c-0.7,1-0.9,2.3-0.6,3.6c0.9,3.2,2.1,6.2,3.8,9.3c0.6,1.101,1.7,1.9,2.9,2.101
				c0.3,0,0.5,0.1,0.8,0.1c1,0,1.9-0.3,2.6-0.899c1-0.7,2.1-1.101,3.2-1.101c1.4,0,2.8,0.601,3.7,1.601
				c1.9,1.899,2.1,4.899,0.5,6.899c-0.8,1-1.1,2.2-0.8,3.5c0.3,1.2,1.1,2.2,2.1,2.8c2.9,1.7,6.1,3,9.4,3.9c0.3,0.1,0.7,0.1,1,0.1
				c0.9,0,1.7-0.3,2.4-0.699c1-0.7,1.7-1.801,1.9-3c0.3-2.601,2.6-4.601,5.2-4.601c2.7,0,4.9,2,5.2,4.601c0.2,1.199,0.9,2.399,1.9,3
				c0.7,0.5,1.5,0.8,2.4,0.8c0.4,0,0.8,0,1.1-0.101c3.2-0.899,6.4-2.199,9.3-3.8c1.1-0.6,1.9-1.7,2.1-2.899c0.2-1.2-0.1-2.5-0.8-3.4
				c-1.5-2.1-1.3-5.1,0.5-7c1-1,2.3-1.6,3.7-1.6c1.2,0,2.3,0.399,3.2,1.1c0.7,0.6,1.7,0.9,2.6,0.9c0.2,0,0.5,0,0.9-0.101
				c1.2-0.3,2.2-1.1,2.8-2.1c1.7-2.9,3-6.101,3.9-9.3c0.3-1.2,0.1-2.5-0.601-3.5c-0.699-1-1.8-1.7-3-1.9c-2.6-0.3-4.6-2.6-4.6-5.2
				C94.1,102.2,96.1,100,98.7,99.6z M98.1,113.7c0.301,0.1,0.5,0.2,0.5,0.399c0.101,0.101,0.101,0.2,0.101,0.5
				c-0.8,3-2,5.801-3.5,8.5c-0.101,0.2-0.3,0.301-0.5,0.301H94.6c-0.1,0-0.199,0-0.399-0.101c-1.601-1.2-3.4-1.8-5.4-1.8
				c-2.4,0-4.6,0.9-6.3,2.6c-3.2,3.2-3.5,8.2-0.8,11.7c0.2,0.3,0.1,0.4,0.1,0.5c-0.1,0.2-0.2,0.4-0.3,0.5
				c-2.8,1.601-5.6,2.7-8.5,3.5c-0.1,0-0.1,0-0.2,0c-0.1,0-0.2,0-0.3-0.1c-0.2-0.101-0.3-0.3-0.3-0.5c-0.6-4.4-4.4-7.7-8.8-7.7
				s-8.2,3.3-8.8,7.7c-0.1,0.3-0.2,0.5-0.4,0.6c0,0-0.1,0.101-0.2,0.101s-0.1,0-0.2,0c-3-0.801-5.8-2-8.5-3.5
				c-0.2-0.101-0.3-0.301-0.3-0.5c0-0.101-0.1-0.2,0.1-0.5c2.7-3.5,2.4-8.5-0.8-11.7c-1.7-1.7-3.9-2.601-6.3-2.601
				c-2,0-3.8,0.601-5.5,1.9c-0.1,0.1-0.2,0.1-0.3,0.1h-0.1c-0.2-0.1-0.4-0.199-0.5-0.3c-1.5-2.7-2.7-5.6-3.5-8.5
				c-0.1-0.3,0-0.399,0.1-0.5c0.1-0.2,0.3-0.3,0.5-0.3c4.4-0.6,7.7-4.4,7.7-8.8c0-4.4-3.3-8.2-7.7-8.8c-0.3-0.101-0.5-0.2-0.5-0.301
				c-0.1-0.1-0.1-0.199-0.1-0.5c0.8-3,2-5.8,3.5-8.5c0.1-0.2,0.3-0.3,0.5-0.3h0.1c0.1,0,0.3,0,0.4,0.1c1.6,1.2,3.4,1.8,5.4,1.8
				c2.4,0,4.6-0.9,6.3-2.6c3.2-3.2,3.5-8.2,0.8-11.7C44.9,74.1,45,74,45,73.9c0.1-0.2,0.2-0.4,0.3-0.5c2.7-1.5,5.6-2.7,8.5-3.5
				c0.1,0,0.1,0,0.2,0s0.2,0,0.3,0.1c0.2,0.1,0.3,0.3,0.3,0.5c0.6,4.4,4.4,7.7,8.9,7.7c4.4,0,8.2-3.3,8.8-7.7
				c0.1-0.3,0.2-0.5,0.4-0.6c0,0,0.1-0.1,0.2-0.1s0.1,0,0.2,0c3,0.8,5.8,2,8.5,3.5c0.2,0.1,0.3,0.3,0.3,0.5c0,0.1,0.1,0.2-0.1,0.5
				c-2.7,3.5-2.4,8.5,0.8,11.7c1.7,1.7,3.9,2.6,6.3,2.6c1.899,0,3.8-0.6,5.399-1.8c0.101-0.1,0.2-0.1,0.3-0.1H94.7
				c0.2,0.1,0.399,0.2,0.5,0.3c1.5,2.7,2.7,5.6,3.5,8.5c0.1,0.3,0,0.4-0.101,0.5c-0.1,0.2-0.3,0.3-0.5,0.3
				C93.7,96.9,90.4,100.7,90.4,105.1C90.4,109.3,93.7,113.1,98.1,113.7z"/>
			<path fill="#CCCCCC" d="M138.1,55.6c-0.8-0.7-1.8-1.2-2.899-1.2c-0.2,0-0.3,0-0.5,0c-0.101,0-0.2,0-0.3,0c-1.2,0-2.2-0.8-2.5-1.9
				c-0.301-1.2,0.3-2.6,1.5-3.1c1.199-0.5,2-1.5,2.399-2.7c0.4-1.2,0.2-2.5-0.5-3.6c-2.2-3.5-5.1-6.4-8.6-8.6
				c-0.7-0.4-1.5-0.7-2.3-0.7c-0.4,0-0.9,0.1-1.301,0.2c-1.199,0.4-2.199,1.2-2.699,2.4c-0.4,1-1.4,1.6-2.4,1.6
				c-0.2,0-0.4,0-0.7-0.1c-1.2-0.3-2-1.5-1.899-2.8c0.1-1.2-0.301-2.5-1.2-3.4c-0.8-0.8-2-1.3-3.101-1.3H111c-4,0.1-8,1.2-11.7,3.1
				c-1.1,0.6-1.899,1.6-2.2,2.9c-0.199,1.3,0,2.6,0.801,3.5c0.8,1.1,0.699,2.5-0.2,3.4c-0.5,0.5-1.2,0.8-1.9,0.8
				c-0.6,0-1.1-0.2-1.5-0.5c-0.8-0.6-1.7-0.9-2.6-0.9c-0.3,0-0.7,0-1,0.1c-1.2,0.3-2.3,1.1-2.8,2.2c-1.9,3.6-2.9,7.6-3.1,11.7
				c-0.1,1.3,0.4,2.5,1.4,3.3c0.8,0.7,1.8,1.2,2.899,1.2c0.2,0,0.301,0,0.5,0c0.101,0,0.2,0,0.301,0c1.199,0,2.199,0.8,2.5,1.9
				c0.3,1.2-0.301,2.6-1.5,3.1c-1.2,0.5-2,1.5-2.4,2.7c-0.4,1.2-0.2,2.5,0.5,3.5c2.2,3.5,5.1,6.4,8.6,8.6c0.7,0.4,1.5,0.7,2.301,0.7
				c0.399,0,0.899-0.1,1.3-0.2c1.2-0.4,2.2-1.2,2.7-2.4c0.399-1,1.399-1.6,2.399-1.6c0.2,0,0.4,0,0.7,0.1c1.2,0.3,2,1.5,1.9,2.8
				c-0.101,1.2,0.3,2.5,1.199,3.4c0.801,0.8,2,1.3,3.101,1.3h0.1l0,0c4-0.1,8-1.2,11.7-3.1c1.1-0.6,1.9-1.6,2.2-2.9
				c0.2-1.3,0-2.6-0.8-3.5c-0.801-1.1-0.7-2.5,0.199-3.4c0.5-0.5,1.2-0.8,1.9-0.8c0.6,0,1.1,0.2,1.5,0.5c0.8,0.6,1.7,0.9,2.6,0.9
				c0.301,0,0.7,0,1-0.1c1.2-0.3,2.301-1.1,2.801-2.2c1.899-3.6,2.899-7.6,3.1-11.7C139.5,57.7,139,56.5,138.1,55.6z M133.1,69
				c-0.1,0.2-0.199,0.3-0.399,0.3H132.6c-0.1,0-0.3,0-0.3-0.1c-1-0.8-2.3-1.3-3.7-1.3c-1.699,0-3.3,0.7-4.5,1.9
				c-2.199,2.2-2.5,5.7-0.6,8.2c0.1,0.1,0.1,0.3,0.1,0.4c0,0.2-0.199,0.4-0.399,0.5c-3.2,1.7-6.601,2.6-10.2,2.7
				c-0.2,0-0.4-0.1-0.4-0.2c-0.1-0.1-0.199-0.4-0.199-0.6c0.3-3-1.601-6-4.601-6.8c-0.5-0.1-1.1-0.2-1.6-0.2c-2.5,0-4.7,1.4-5.8,3.7
				c-0.101,0.1-0.2,0.4-0.4,0.4h-0.1H99.8c-0.1,0-0.3,0-0.399-0.1C96.3,75.9,93.8,73.4,92,70.4c-0.1-0.2-0.1-0.4-0.1-0.6
				c0.1-0.2,0.199-0.3,0.3-0.4c2.8-1.2,4.399-4.4,3.6-7.3c-0.7-2.7-3.2-4.7-6.1-4.7c-0.101,0-0.3,0-0.4,0c-0.1,0-0.1,0-0.1,0H89.1
				c0,0-0.1,0-0.199,0c-0.2,0-0.301-0.1-0.4-0.1c-0.1-0.1-0.2-0.3-0.2-0.5c0.101-3.5,1-7,2.7-10.2c0.1-0.2,0.2-0.3,0.4-0.3h0.1
				c0.2,0,0.3,0.1,0.3,0.1c1,0.8,2.3,1.3,3.7,1.3c1.7,0,3.3-0.7,4.5-1.9c2.2-2.2,2.5-5.7,0.6-8.2c-0.1-0.1-0.1-0.3-0.1-0.4
				c0-0.2,0.2-0.4,0.4-0.5c3.3-1.7,6.6-2.6,10.199-2.7c0.2,0,0.4,0.1,0.4,0.2c0.1,0.1,0.2,0.4,0.2,0.6c-0.3,3,1.6,6,4.6,6.8
				c0.5,0.1,1.101,0.2,1.601,0.2c2.5,0,4.699-1.4,5.699-3.7c0.101-0.2,0.2-0.4,0.4-0.4h0.1h0.101h0.1c0.101,0,0.3,0,0.4,0.1
				c3.1,1.9,5.6,4.4,7.399,7.4c0.101,0.2,0.101,0.4,0.101,0.6c-0.101,0.1-0.2,0.3-0.3,0.4c-2.801,1.2-4.4,4.4-3.601,7.4
				c0.8,2.7,3.3,4.6,6.101,4.6c0.199,0,0.5,0,0.699,0h0.101c0.2,0,0.3,0.1,0.399,0.1c0.101,0.1,0.2,0.3,0.2,0.5
				C135.7,62.3,134.8,65.8,133.1,69z"/>
		</g>
		<path fill="#CCCCCC" d="M113,84.3c-0.9,0-1.8-0.4-2.4-1c-0.6-0.7-1-1.7-0.899-2.6c0.2-1.8-0.9-3.5-2.7-3.9
			c-1.8-0.4-3.6,0.5-4.3,2.1c-0.4,0.9-1.2,1.6-2.101,1.8C99.7,81,98.7,80.9,97.9,80.4C94.6,78.3,91.8,75.5,89.6,72.1
			c-0.5-0.8-0.6-1.8-0.3-2.7s0.9-1.7,1.8-2.1c1.601-0.7,2.5-2.5,2.101-4.3c-0.5-1.7-2.101-2.9-3.9-2.7c-1,0.1-1.9-0.2-2.6-0.9
			c-0.7-0.6-1.1-1.6-1-2.5c0.2-3.9,1.2-7.8,3-11.3c0.5-0.9,1.3-1.4,2.2-1.7c0.899-0.2,1.899,0,2.699,0.6c1.4,1,3.5,0.9,4.7-0.3
			c1.3-1.3,1.4-3.3,0.3-4.7c-0.6-0.8-0.8-1.7-0.6-2.7c0.2-0.9,0.8-1.7,1.7-2.2c3.5-1.8,7.3-2.9,11.3-3h0.1c0.9,0,1.801,0.4,2.4,1
			c0.6,0.7,1,1.7,0.9,2.6c-0.2,1.8,0.899,3.5,2.699,3.9c1.801,0.4,3.601-0.5,4.301-2.1c0.399-0.9,1.199-1.6,2.1-1.8
			c0.9-0.3,1.9-0.2,2.7,0.3c3.399,2.1,6.1,4.9,8.3,8.3c0.5,0.8,0.6,1.8,0.3,2.7s-0.899,1.7-1.8,2.1c-1.6,0.7-2.5,2.5-2.1,4.3
			c0.5,1.7,2.1,2.9,3.899,2.7c1-0.1,1.9,0.2,2.601,0.9c0.699,0.6,1.1,1.6,1,2.5c-0.2,3.9-1.2,7.8-3,11.3c-0.5,0.9-1.301,1.4-2.2,1.7
			c-0.9,0.3-1.9,0-2.7-0.6c-1.4-1-3.5-0.9-4.7,0.3c-1.3,1.3-1.399,3.3-0.3,4.7c0.6,0.8,0.8,1.7,0.6,2.7
			c-0.199,0.9-0.8,1.7-1.699,2.2c-3.5,1.8-7.301,2.9-11.301,3H113L113,84.3z M106.1,74.9c0.5,0,0.9,0.1,1.4,0.2
			c2.5,0.7,4.2,3.1,3.9,5.7c-0.101,0.5,0.1,1,0.399,1.3c0.3,0.3,0.8,0.5,1.2,0.5h0.1c3.801-0.1,7.301-1.1,10.601-2.8
			c0.399-0.2,0.8-0.6,0.899-1.1c0.101-0.5,0-1-0.3-1.3c-1.6-2.1-1.3-5,0.5-6.9c1-1,2.3-1.6,3.8-1.6c1.2,0,2.301,0.3,3.101,1
			c0.399,0.3,0.899,0.4,1.3,0.3c0.5-0.1,0.9-0.4,1.1-0.9c1.7-3.2,2.7-6.9,2.801-10.6c0-0.5-0.2-0.9-0.5-1.3
			C136.1,57,135.6,56.9,135.1,57c-2.6,0.3-5-1.4-5.699-3.9c-0.7-2.5,0.6-5.2,3-6.2c0.5-0.2,0.8-0.6,0.899-1
			c0.101-0.5,0.101-1-0.2-1.4c-2-3.2-4.6-5.8-7.699-7.7c-0.4-0.2-0.9-0.3-1.4-0.2s-0.8,0.5-1,0.9c-0.9,1.9-2.7,3.2-4.9,3.2
			c-0.5,0-0.899-0.1-1.399-0.2c-2.5-0.7-4.2-3.1-3.9-5.7c0.101-0.5-0.1-1-0.399-1.3c-0.301-0.3-0.801-0.5-1.2-0.5
			c-3.8,0.1-7.3,1.1-10.601,2.8c-0.399,0.2-0.8,0.6-0.899,1.1c-0.101,0.5,0,1,0.3,1.3c1.6,2.1,1.3,5-0.5,6.9c-1,1-2.3,1.6-3.8,1.6
			c-1.2,0-2.3-0.3-3.101-1c-0.399-0.3-0.899-0.4-1.3-0.3c-0.5,0.1-0.899,0.4-1.1,0.9c-1.7,3.2-2.7,6.9-2.8,10.6
			c0,0.5,0.2,0.9,0.5,1.3c0.3,0.4,0.8,0.5,1.3,0.4c0.2,0,0.399-0.1,0.6-0.1c2.4,0,4.5,1.6,5.101,3.9c0.699,2.5-0.601,5.2-3,6.2
			c-0.5,0.2-0.801,0.6-0.9,1c-0.1,0.5-0.1,1,0.2,1.4c2,3.2,4.6,5.8,7.7,7.7C99.3,78.9,99.8,79,100.3,78.9s0.8-0.5,1-0.9
			C102.1,76.1,104,74.9,106.1,74.9z"/>
	</g>
</g>
<g id="Ñëîé_1">
</g>
<g id="_xB9_Ï_xBC_h_x5F_1">
</g>
<g id="Layer_1_1_">
</g>
</svg>
