<?xml version="1.0" encoding="utf-8"?>
<!-- Generator: Adobe Illustrator 16.0.0, SVG Export Plug-In . SVG Version: 6.00 Build 0)  -->
<!DOCTYPE svg PUBLIC "-//W3C//DTD SVG 1.1//EN" "http://www.w3.org/Graphics/SVG/1.1/DTD/svg11.dtd">
<svg version="1.1" id="Layer_1" xmlns="http://www.w3.org/2000/svg" xmlns:xlink="http://www.w3.org/1999/xlink" x="0px" y="0px"
	 width="93.005px" height="127.2px" viewBox="0 0 93.005 127.2" enable-background="new 0 0 93.005 127.2" xml:space="preserve">
<g>
	<defs>
		<rect id="SVGID_1_" width="93.005" height="127.2"/>
	</defs>
	<clipPath id="SVGID_2_">
		<use xlink:href="#SVGID_1_"  overflow="visible"/>
	</clipPath>
	<path clip-path="url(#SVGID_2_)" fill="#FFFFFF" d="M89.909,49.74c2.04-11.22-7.561-20.16-22.2-25.2
		c-3.96-13.92-12.84-22.2-25.86-22.2c-7.56,0-14.28,2.94-18.6,7.56c-9.72,0.6-9.78,12-18.24,28.32
		c-6.6,12.78-1.38,26.04,14.58,28.08c-2.52,5.761-3.78,12.48-3.9,19.261c-8.1-9.301-5.88-18.9-10.44-18.66
		c-5.7,0.3,1.62,20.46,11.64,31.68c0.42,1.86,0.9,3.66,1.5,5.46c-3.54,1.2-7.2,4.86-7.2,9.12c0,4.8,3.3,5.28,7.56,5.28
		c-0.12,0.54-0.24,1.14-0.24,1.68c0,1.2,0.42,2.4,1.5,3.24c1.08,0.84,2.64,1.2,4.74,1.32h0.9h0.06c4.5,0,7.62-1.261,9.54-3.061
		c1.98-1.8,2.7-4.02,2.7-5.88c0-0.48-0.06-0.96-0.18-1.38c-0.06-0.18-0.06-0.42-0.18-0.78c3.6-0.36,7.26-0.36,10.92-0.06
		c-0.06,0.359-0.12,0.66-0.18,0.84c-0.12,0.359-0.18,0.84-0.18,1.26c0,1.86,0.84,4.14,2.88,5.88c2.04,1.8,5.22,3.12,9.779,3.12h0.9
		c2.1-0.06,3.54-0.479,4.62-1.26s1.5-1.98,1.5-3.12c0-0.6-0.12-1.2-0.24-1.86c4.38-0.06,7.74-0.42,7.74-5.279
		c0-4.261-3.66-7.86-7.2-9.12c3.78-11.58,3.42-25.08-0.66-35.82l-0.24-0.18c4.2-0.84,8.04-2.221,11.341-4.08
		c1.439,2.34,2.819,4.56,6.12,4.08c4.979-0.721,7.02-8.1,2.819-12.48C88.769,53.76,89.549,51.84,89.909,49.74"/>
	<path clip-path="url(#SVGID_2_)" d="M62.069,127.2h-0.96c-5.94,0-9.48-2.04-11.34-3.72c-2.28-1.98-3.661-4.74-3.661-7.561
		c-1.86-0.06-3.66-0.06-5.52,0.061c0,2.819-1.32,5.58-3.54,7.56c-1.8,1.68-5.22,3.66-11.16,3.66h-1.08
		c-2.76-0.12-4.68-0.72-6.06-1.86c-1.38-1.08-2.28-2.699-2.4-4.56c-3.3-0.3-7.38-1.68-7.38-7.62c0-4.5,3.18-8.34,6.66-10.38
		c-0.3-0.96-0.54-1.98-0.78-3.061c-8.1-9.3-15.96-26.22-13.32-32.46c0.66-1.619,2.04-2.64,3.78-2.699h0.3c3.84,0,4.86,3.6,5.88,7.08
		c0.6,2.04,1.26,4.439,2.52,6.899c0.48-3.6,1.32-7.08,2.46-10.32c-6.6-1.5-11.64-5.1-14.34-10.26c-3.12-6-2.82-13.56,0.96-20.76
		c2.64-5.04,4.38-9.6,6-13.62c3.36-8.64,5.88-14.94,13.26-15.9C27.269,2.82,34.409,0,42.029,0c13.439,0,23.28,8.04,27.84,22.74
		c16.26,5.88,24.66,16.08,22.62,27.48c-0.3,1.68-0.84,3.42-1.68,5.22c1.859,2.7,2.399,6.12,1.319,9.359
		c-1.08,3.181-3.54,5.4-6.6,5.82c-0.42,0.061-0.84,0.12-1.2,0.12c-2.94,0-4.74-1.62-6-3.36c-2.22,1.08-4.62,1.98-7.2,2.641
		c3.3,10.26,3.48,22.26,0.48,32.939c3.54,2.04,6.72,5.88,6.72,10.38c0,5.94-4.02,7.32-7.5,7.62c-0.12,1.86-1.02,3.54-2.46,4.62
		C66.629,126.54,64.709,127.08,62.069,127.2 M43.709,111.061c1.74,0,3.48,0.06,5.22,0.239l2.46,0.181l-0.239,2.399
		c-0.061,0.54-0.181,0.96-0.181,1.2l-0.06,0.12c0,0-0.061,0.18-0.061,0.6c0,0.54,0.12,2.46,2.04,4.08
		c1.86,1.681,4.681,2.521,8.221,2.521h0.84c1.56-0.061,2.64-0.3,3.24-0.78c0.479-0.36,0.54-0.96,0.54-1.2
		c0-0.42-0.12-0.899-0.181-1.319l-0.66-2.94h3c5.101-0.06,5.341-0.72,5.341-2.88c0-3-2.881-5.88-5.58-6.84l-2.221-0.78l0.721-2.22
		c3.479-10.74,3.359-23.221-0.36-33.48l-4.44-2.939l5.7-1.141c3.9-0.779,7.561-2.1,10.62-3.84l1.98-1.14l1.26,2.04
		c1.5,2.399,2.1,3.12,3.66,2.88c1.2-0.18,2.279-1.14,2.76-2.64c0.54-1.62,0.48-3.96-1.32-5.82L84.81,56.1l0.84-1.56
		c1.02-1.92,1.62-3.54,1.92-5.28c1.68-9.12-6.061-17.52-20.641-22.5l-1.199-0.42l-0.36-1.2c-2.64-9.3-8.88-20.46-23.58-20.46
		c-6.66,0-12.78,2.46-16.86,6.84l-0.66,0.72l-0.96,0.06c-4.86,0.3-6.6,4.2-10.02,12.96c-1.62,4.14-3.48,8.82-6.18,14.1
		c-3,5.76-3.36,11.76-0.96,16.32c2.34,4.5,7.2,7.44,13.68,8.28l3.18,0.42l-1.26,2.94c-2.34,5.34-3.6,11.64-3.72,18.3l-0.12,6.24
		l-4.08-4.68c-4.56-5.221-6.12-10.62-7.14-14.221c-0.3-1.08-0.72-2.46-1.08-3.18c-0.42,3.78,4.44,17.7,13.08,27.3l0.42,0.48
		l0.12,0.6c0.42,1.92,0.9,3.6,1.44,5.22l0.78,2.28l-2.28,0.78c-2.7,0.899-5.58,3.779-5.58,6.84c0,2.1,0.24,2.88,5.22,2.88h2.88
		l-0.54,2.82c-0.12,0.479-0.18,0.899-0.18,1.26c0,0.42,0.12,1.02,0.54,1.32c0.6,0.479,1.68,0.72,3.36,0.84h0.84
		c3.54,0,6.24-0.84,7.98-2.4c1.74-1.62,1.98-3.42,1.98-4.08c0-0.3,0-0.54-0.06-0.72c-0.06-0.18-0.06-0.3-0.12-0.48
		c0-0.119-0.06-0.239-0.06-0.42l-0.6-2.64l2.7-0.24C39.629,111.12,41.669,111.061,43.709,111.061"/>
	<path clip-path="url(#SVGID_2_)" fill="#FFFFFF" d="M90.689,49.02c2.04-11.22-7.561-20.16-22.2-25.2
		c-3.96-13.92-12.84-22.2-25.86-22.2c-7.56,0-14.28,2.94-18.6,7.56c-9.72,0.6-9.78,12-18.24,28.32
		c-6.6,12.78-1.38,26.04,14.58,28.08c-2.52,5.76-3.78,12.48-3.9,19.26c-8.1-9.3-5.88-18.899-10.44-18.659
		c-5.7,0.3,1.62,20.46,11.64,31.68c0.42,1.859,0.9,3.66,1.5,5.46c-3.54,1.2-7.2,4.86-7.2,9.12c0,4.8,3.3,5.279,7.56,5.279
		c-0.12,0.54-0.24,1.141-0.24,1.681c0,1.2,0.42,2.399,1.5,3.24c1.08,0.84,2.64,1.199,4.74,1.319h0.9h0.06c4.5,0,7.62-1.26,9.54-3.06
		c1.98-1.8,2.7-4.021,2.7-5.88c0-0.48-0.06-0.96-0.18-1.38c-0.06-0.181-0.06-0.421-0.18-0.78c3.6-0.36,7.26-0.36,10.92-0.061
		c-0.06,0.36-0.12,0.66-0.18,0.841c-0.12,0.359-0.181,0.84-0.181,1.26c0,1.859,0.841,4.14,2.881,5.88
		c2.039,1.8,5.22,3.12,9.779,3.12h0.9c2.1-0.061,3.54-0.48,4.62-1.26c1.08-0.78,1.5-1.98,1.5-3.12c0-0.601-0.12-1.2-0.24-1.86
		c4.38-0.06,7.74-0.42,7.74-5.28c0-4.26-3.66-7.859-7.2-9.12c3.72-11.579,3.42-25.079-0.66-35.819l-0.24-0.181
		c4.2-0.84,8.04-2.22,11.34-4.08c1.44,2.34,2.82,4.56,6.12,4.08c4.98-0.72,7.021-8.1,2.82-12.479
		C89.549,53.04,90.27,51.06,90.689,49.02"/>
	<path clip-path="url(#SVGID_2_)" d="M62.789,125.521h-0.96c-4.5,0-8.22-1.2-10.74-3.48c-2.16-1.859-3.359-4.439-3.359-7.02
		c0-0.24,0-0.48,0.06-0.721c-2.46-0.119-4.92-0.119-7.38,0.061c0,0.24,0.06,0.479,0.06,0.78c0,2.579-1.2,5.159-3.24,6.96
		c-1.68,1.56-4.92,3.42-10.56,3.42h-1.02c-2.58-0.12-4.32-0.66-5.58-1.62c-1.32-1.021-2.1-2.58-2.1-4.44v-0.24
		c-3.3-0.18-7.38-1.079-7.38-6.779c0-4.44,3.3-8.16,6.84-9.96c-0.36-1.261-0.72-2.521-1.02-3.9C7.769,88.8,0.809,72.3,3.089,66.9
		c0.54-1.32,1.62-2.101,2.94-2.16h0.24c3.18,0,4.02,2.94,5.04,6.42c0.78,2.64,1.74,6,3.96,9.54c0.42-4.92,1.5-9.6,3.06-13.86
		c-6.84-1.319-12.06-4.8-14.76-10.02c-3-5.76-2.64-13.02,0.96-19.92c2.64-5.1,4.44-9.66,6-13.74c3.3-8.46,5.7-14.58,12.84-15.36
		c4.8-4.86,11.76-7.62,19.26-7.62c13.141,0,22.74,7.98,27.12,22.56c16.08,5.7,24.48,15.6,22.44,26.64c-0.301,1.8-0.9,3.54-1.86,5.46
		c1.98,2.52,2.52,5.88,1.5,8.94c-0.96,2.88-3.18,4.8-5.88,5.22c-0.36,0.061-0.72,0.061-1.08,0.061c-2.88,0-4.5-1.801-5.7-3.66
		c-2.58,1.319-5.58,2.399-8.64,3.18c3.6,10.5,3.78,23.04,0.54,34.021c3.54,1.739,6.84,5.52,6.84,9.96c0,5.699-4.14,6.6-7.5,6.779
		v0.42c0,1.74-0.78,3.36-2.1,4.32C66.989,124.98,65.249,125.46,62.789,125.521 M44.489,111.181c1.74,0,3.42,0.06,5.16,0.239
		l1.5,0.12l-0.181,1.5c-0.06,0.48-0.12,0.84-0.18,1.021v0.06c-0.06,0.12-0.06,0.36-0.06,0.84c0,1.681,0.899,3.48,2.34,4.8
		c2.04,1.801,5.04,2.761,8.76,2.761h0.9c1.8-0.061,3-0.36,3.72-0.96c0.84-0.601,0.899-1.561,0.899-1.92
		c0-0.48-0.119-1.021-0.239-1.5l-0.42-1.801h1.859c5.101-0.06,6.24-0.779,6.24-3.779c0-3.48-3.12-6.601-6.18-7.681l-1.38-0.479
		l0.479-1.38c3.54-11.04,3.42-23.82-0.479-34.38l-2.82-1.921l3.54-0.72c4.02-0.78,7.74-2.16,10.86-3.9l1.26-0.72l0.779,1.26
		c1.32,2.16,2.16,3.36,3.9,3.36c0.18,0,0.42,0,0.66-0.06c1.56-0.24,2.88-1.44,3.479-3.24c0.601-1.86,0.54-4.56-1.5-6.72l-0.779-0.78
		l0.54-0.96c1.02-1.98,1.68-3.72,1.979-5.52c1.74-9.6-6.18-18.36-21.18-23.52l-0.72-0.24l-0.24-0.78
		c-3.84-13.62-12.54-21.12-24.42-21.12c-6.9,0-13.26,2.58-17.52,7.08l-0.42,0.42l-0.6,0.06c-5.46,0.36-7.26,4.38-10.8,13.5
		c-1.62,4.08-3.42,8.76-6.18,13.98c-3.12,6.06-3.48,12.3-0.96,17.16c2.52,4.74,7.62,7.86,14.4,8.7l1.98,0.24l-0.78,1.86
		c-2.34,5.399-3.66,11.88-3.78,18.659l-0.06,3.9l-2.58-2.939c-4.44-5.101-5.88-10.2-6.96-13.86c-0.84-3-1.32-4.26-2.1-4.26h-0.12
		c-0.18,0-0.24,0-0.36,0.3c-1.5,3.6,4.38,19.2,13.08,28.859l0.24,0.301l0.06,0.359c0.42,1.92,0.9,3.66,1.5,5.28l0.48,1.44
		l-1.44,0.479c-3.06,1.021-6.18,4.2-6.18,7.68c0,3,1.2,3.78,6.06,3.78h1.8l-0.36,1.8c-0.12,0.48-0.18,0.96-0.18,1.38
		c0,0.601,0.18,1.5,0.9,2.04c0.78,0.601,1.98,0.9,3.84,1.021h0.84c3.72,0,6.72-0.9,8.58-2.64c2.04-1.86,2.22-3.96,2.22-4.74
		c0-0.42-0.06-0.72-0.12-0.96c-0.06-0.12-0.06-0.24-0.06-0.42c0-0.12-0.06-0.24-0.06-0.42l-0.36-1.681l1.68-0.18
		C40.409,111.3,42.449,111.181,44.489,111.181"/>
	<path clip-path="url(#SVGID_2_)" fill="#A87E2C" d="M69.149,103.26c1.5-0.779,7.56,2.28,7.199,9.12
		c-0.359,6.84-8.699,5.28-8.699,5.28l-3.78-8.7c0,0-1.5-16.68-1.14-25.38c0.359-8.7-5.7-14.76-5.7-14.76s2.64-0.36,6.06-0.36
		s5.4-0.96,5.4-0.96s2.939,3.601,3.3,15.72C72.209,95.34,67.649,104.04,69.149,103.26"/>
	<path clip-path="url(#SVGID_2_)" fill="#A87E2C" d="M60.809,9.36c3.42,3.42,8.28,15.36,8.28,15.36s-8.52-0.9-12.18-4.32
		c-2.101-1.98-11.88-18.12-11.88-18.12C48.029,2.16,57.389,5.94,60.809,9.36"/>
	<path clip-path="url(#SVGID_2_)" fill="#A87E2C" d="M42.629,1.56c0,0,11.76,17.7,11.64,24.12c-0.18,9.36-16.5,7.14-5.88,32.88
		c2.641,6.42-3.419,11.76-12.12,10.2c-3.96-0.659-11.34,1.141-11.34,12.9s-0.78,27.3-0.78,27.3l-3.42,8.7c0,0-8.34,1.14-8.34-3.78
		s2.28-6.42,5.7-9.12c3.42-2.64-0.36-6.96-0.36-6.96S5.969,80.88,5.549,78.24c-0.42-2.64,4.14-6.06,4.14-6.06s5.52,11.52,6.72,12.6
		c1.2,1.08,0.84-14.82,3.12-17.1c2.28-2.28,3.42-57.181,3.42-57.181S24.749,4.02,42.629,1.56"/>
	<path clip-path="url(#SVGID_2_)" d="M67.649,119.16c-2.521,0-4.92-0.96-6.78-2.76c-10.62-3.061-22.14-3.061-33.42,0
		c-1.86,1.8-4.26,2.76-6.78,2.76c-4.56,0-10.2,0-10.2-6.78c0-4.439,3.3-8.16,6.84-9.96c-0.36-1.26-0.72-2.52-1.02-3.899
		c-8.64-9.78-15.6-26.28-13.32-31.681c0.54-1.319,1.62-2.1,2.94-2.159c3.36-0.181,4.32,3,5.28,6.42c0.78,2.64,1.74,6,3.96,9.54
		c0.66-7.44,2.76-14.341,5.94-19.86c4.38-7.44,10.68-12.12,18.24-13.44l0.54,2.94c-15.78,2.82-21.72,20.4-21.96,34.62l-0.06,3.899
		l-2.58-2.939c-4.44-5.101-5.88-10.2-6.96-13.86c-0.96-3.3-1.38-4.26-2.22-4.26c-0.18,0-0.24,0-0.36,0.3
		c-1.5,3.601,4.38,19.2,13.08,28.86l0.24,0.3l0.06,0.36c0.42,1.92,0.9,3.659,1.5,5.279l0.48,1.44l-1.44,0.479
		c-3.06,1.021-6.18,4.2-6.18,7.681c0,3.3,1.56,3.779,7.2,3.779c1.86,0,3.6-0.779,4.92-2.159l0.3-0.301l0.42-0.119
		c12-3.36,24.36-3.301,35.76,0l0.359,0.119l0.301,0.301c1.319,1.38,3.06,2.159,4.92,2.159c5.699,0,7.199-0.479,7.199-3.779
		c0-3.48-3.119-6.601-6.18-7.681l-1.38-0.479l0.48-1.38c3.6-11.22,3.359-24.181-0.601-34.8l2.82-1.08
		c4.08,10.8,4.439,23.939,1.08,35.46c3.54,1.739,6.84,5.52,6.84,9.96C77.849,119.16,72.209,119.16,67.649,119.16"/>
	<path clip-path="url(#SVGID_2_)" fill="#FFFFFF" d="M25.229,80.16c0,0-0.36,24.6-1.14,28.8c-0.78,4.141-9.12,13.62,1.5,14.04
		c10.62,0.36,12.9-6.06,12.12-9.12c-0.78-3.06-1.5-25.739-1.5-25.739"/>
	<path clip-path="url(#SVGID_2_)" d="M26.489,123.9h-0.9c-2.1-0.061-3.66-0.48-4.74-1.32s-1.56-2.1-1.5-3.24
		c0-1.92,0.96-3.96,1.8-5.88c0.9-1.92,1.86-3.72,1.98-4.68c0.18-0.9,0.36-3.24,0.48-6.12c0.18-2.88,0.24-6.36,0.36-9.72
		c0.18-6.66,0.24-4.86,0.24-7.681c0-2.819,0.96-5.159,0.96-5.159s0.96,1.92,0.96,5.159c0,2.4-0.24,8.7-0.66,17.4
		c-0.18,2.94-0.3,5.22-0.54,6.36c-0.3,1.56-1.26,3.359-2.16,5.16c-0.9,1.859-1.68,3.779-1.62,5.039c0,0.78,0.24,1.261,0.78,1.74
		c0.54,0.48,1.74,0.9,3.66,0.9h0.84c4.14,0,6.72-1.141,8.28-2.521s2.1-3.12,2.1-4.439c0-0.36-0.06-0.66-0.12-0.9
		c-0.24-0.96-0.42-2.88-0.54-5.46c-0.18-2.58-0.36-5.7-0.48-8.76c-0.3-6.061-0.18-4.68-0.18-7.14s0.66-4.681,0.66-4.681
		s1.2,2.641,1.2,5.28s-0.18-2.16,0,1.979c0.18,4.141,0.42,9.24,0.66,13.08c0.18,2.521,0.36,4.561,0.54,5.16
		c0.12,0.42,0.18,0.9,0.18,1.38c0,1.801-0.78,4.08-2.7,5.88C34.109,122.641,30.989,123.9,26.489,123.9"/>
	<path clip-path="url(#SVGID_2_)" fill="#FFFFFF" d="M62.729,80.16c0,0,0.36,24.6,1.141,28.8c0.78,4.141,9.479,13.62-1.141,14.04
		c-10.619,0.36-13.26-6.06-12.479-9.12c0.78-3.06,1.5-25.739,1.5-25.739"/>
	<path clip-path="url(#SVGID_2_)" d="M52.049,120.84c-2.04-1.8-2.88-4.08-2.88-5.88c0-0.479,0.061-0.899,0.18-1.26
		c0.181-0.54,0.36-2.64,0.54-5.16c0.181-2.52,0.36-5.7,0.48-8.7c0.24-6.06,0.479-5.1,0.479-7.319c0-2.221,1.2-4.38,1.2-4.38
		s0.721,1.979,0.721,4.439s-0.421,8.4-0.96,16.08c-0.181,2.58-0.36,4.56-0.54,5.46c-0.061,0.24-0.061,0.48-0.061,0.78
		c0,1.26,0.601,3.06,2.22,4.5c1.62,1.439,4.32,2.64,8.58,2.64h0.84c1.86-0.06,3-0.479,3.54-0.899c0.54-0.421,0.721-0.9,0.78-1.62
		c0.061-1.261-0.78-3.24-1.8-5.101c-0.96-1.92-1.98-3.72-2.34-5.279c-0.181-1.2-0.36-3.421-0.48-6.36
		c-0.18-2.94-0.239-6.36-0.359-9.72c-0.181-6.66-0.301-7.44-0.301-9.78c0-2.4,0.36-4.74,0.36-4.74s1.5,2.7,1.5,4.74
		s0.061,0.36,0.18,4.92c0.12,4.56,0.24,10.2,0.48,14.52c0.18,2.881,0.3,5.221,0.479,6.12c0.181,1.021,1.2,2.88,2.101,4.801
		c0.96,1.92,1.92,3.96,1.979,5.939c0,1.2-0.479,2.4-1.5,3.12c-1.08,0.78-2.52,1.2-4.62,1.26h-0.899
		C57.27,123.9,54.029,122.641,52.049,120.84"/>
	<path clip-path="url(#SVGID_2_)" d="M58.77,69.72c-3.36,0-6.78-0.3-10.2-0.96l0.54-2.939c12,2.22,23.88,0.3,31.8-5.16
		c4.62-3.18,7.439-7.32,8.34-11.94c1.74-9.6-6.18-18.36-21.18-23.52l-0.721-0.24l-0.239-0.78c-3.84-13.62-12.54-21.12-24.42-21.12
		c-12.18,0-22.08,8.16-22.08,18.18h-3c0-11.64,11.28-21.18,25.08-21.18c13.14,0,22.74,7.98,27.121,22.56
		c16.079,5.7,24.479,15.6,22.439,26.64c-1.02,5.46-4.32,10.26-9.54,13.86C76.349,67.44,67.829,69.72,58.77,69.72"/>
	<path clip-path="url(#SVGID_2_)" d="M74.989,41.263c-0.63-3.691,2.593-7.321,7.199-8.107c4.605-0.786,8.851,1.57,9.48,5.261
		c0.63,3.691-2.594,7.321-7.2,8.107C79.863,47.31,75.619,44.954,74.989,41.263"/>
	<path clip-path="url(#SVGID_2_)" d="M82.709,47.88c-4.5,0-8.28-2.7-8.88-6.42c-0.36-2.16,0.3-4.32,1.92-6.12
		c1.561-1.74,3.78-2.94,6.3-3.36c0.66-0.12,1.32-0.18,1.98-0.18c4.5,0,8.28,2.7,8.88,6.42c0.36,2.16-0.3,4.32-1.92,6.12
		c-1.561,1.74-3.78,2.94-6.3,3.36C84.029,47.82,83.369,47.88,82.709,47.88 M83.969,34.26c-0.54,0-1.08,0.06-1.56,0.12
		c-1.98,0.36-3.72,1.26-4.86,2.58c-1.14,1.26-1.62,2.7-1.38,4.14c0.42,2.58,3.18,4.44,6.54,4.44c0.54,0,1.08-0.06,1.561-0.12
		c1.979-0.36,3.72-1.26,4.859-2.58c1.141-1.26,1.62-2.7,1.38-4.14C90.089,36.06,87.329,34.26,83.969,34.26"/>
	<path clip-path="url(#SVGID_2_)" fill="#A87E2C" d="M39.689,37.32c8.28,21.96-4.38,28.56-14.88,28.56
		c-19.44,0-26.28-14.459-19.08-28.38c8.7-16.8,8.52-28.38,19.08-28.38C35.309,9.12,34.169,22.62,39.689,37.32"/>
	<path clip-path="url(#SVGID_2_)" d="M24.809,67.38c-9.6,0-16.98-3.42-20.76-9.66c-3.6-5.88-3.42-13.5,0.42-20.94
		c2.64-5.16,4.44-9.72,6.06-13.8c3.48-8.94,6.06-15.42,14.34-15.42c8.58,0.06,10.44,7.8,12.66,16.8c0.9,3.78,1.98,8.04,3.6,12.36
		c3.72,9.9,3.72,17.76-0.12,23.22C37.769,64.681,31.889,67.38,24.809,67.38 M24.809,10.62c-6,0-7.86,4.14-11.52,13.5
		c-1.62,4.14-3.48,8.82-6.18,14.1c-3.36,6.48-3.54,13.02-0.48,18c3.24,5.28,9.66,8.22,18.24,8.22c2.88,0,9.96-0.6,13.74-6.06
		c3.24-4.68,3.12-11.52-0.24-20.46c-1.68-4.5-2.76-8.82-3.72-12.72C32.249,15.6,30.749,10.62,24.809,10.62"/>
	<path clip-path="url(#SVGID_2_)" fill="#FFFFFF" d="M77.289,38.611c-0.352-0.93,1.824-2.616,4.86-3.767
		c3.037-1.151,5.784-1.33,6.137-0.401c0.353,0.93-1.824,2.616-4.86,3.767S77.642,39.541,77.289,38.611"/>
	<path clip-path="url(#SVGID_2_)" d="M43.889,19.38c2.452,0,4.44,1.37,4.44,3.06c0,1.69-1.988,3.06-4.44,3.06s-4.44-1.37-4.44-3.06
		C39.449,20.75,41.437,19.38,43.889,19.38"/>
	<path clip-path="url(#SVGID_2_)" d="M43.889,26.7c-3.18,0-5.64-1.86-5.64-4.26c0-2.4,2.46-4.26,5.64-4.26s5.64,1.86,5.64,4.26
		C49.529,24.84,47.069,26.7,43.889,26.7 M43.889,20.64c-1.92,0-3.24,0.96-3.24,1.86c0,0.9,1.32,1.86,3.24,1.86s3.24-0.96,3.24-1.86
		C47.129,21.6,45.809,20.64,43.889,20.64"/>
	<path clip-path="url(#SVGID_2_)" d="M67.589,19.44c0,1.8-1.02,3.24-3.42,3.24c-2.399,0-4.38-1.44-4.38-3.24
		c0-1.8,1.98-3.24,4.38-3.24C66.569,16.2,67.589,17.64,67.589,19.44"/>
	<path clip-path="url(#SVGID_2_)" fill="#FFFFFF" d="M42.209,19.98c0.762,0,1.38,0.51,1.38,1.14s-0.618,1.14-1.38,1.14
		c-0.762,0-1.38-0.51-1.38-1.14S41.447,19.98,42.209,19.98"/>
	<path clip-path="url(#SVGID_2_)" fill="#FFFFFF" d="M62.309,17.58c0.663,0,1.2,0.457,1.2,1.02s-0.537,1.02-1.2,1.02
		c-0.662,0-1.199-0.457-1.199-1.02S61.646,17.58,62.309,17.58"/>
	<path clip-path="url(#SVGID_2_)" d="M61.829,63.9c12.54,3.84,28.08-0.06,28.68-15.78c0,0,0.301-3.36-0.54-1.74
		C86.189,53.7,77.31,57,63.27,58.8c-1.98,0.24-6.24,0.3-6.48,2.16C56.669,61.86,57.989,62.7,61.829,63.9"/>
	<path clip-path="url(#SVGID_2_)" fill="#F26422" d="M86.609,53.34c5.76,3.84,4.199,12.36-1.08,13.44
		c-5.88,1.2-6.12-6.78-11.04-7.74c0,0,4.979-1.02,7.68-2.46C84.929,55.14,86.609,53.34,86.609,53.34"/>
	<path clip-path="url(#SVGID_2_)" d="M84.449,68.4c-3.3,0-5.04-2.46-6.42-4.5c-1.141-1.68-2.16-3.06-3.78-3.42v-2.94
		c0.061,0,4.8-1.02,7.26-2.34c2.46-1.26,4.021-2.94,4.021-2.94l0.84-0.96l1.08,0.72c3.3,2.16,4.92,6.06,4.14,9.9
		c-0.66,3.299-2.819,5.7-5.76,6.24C85.349,68.34,84.869,68.4,84.449,68.4 M78.389,59.58c0.78,0.78,1.44,1.74,2.04,2.58
		c1.381,1.98,2.341,3.18,3.96,3.18c0.24,0,0.54,0,0.841-0.06c2.04-0.42,3.06-2.28,3.42-3.9c0.359-1.86,0-4.26-1.92-6.12
		c-0.841,0.72-2.16,1.74-3.841,2.64C81.629,58.56,79.949,59.16,78.389,59.58"/>
	<path clip-path="url(#SVGID_2_)" fill="#A74724" d="M82.829,57.18c0,0,4.08,2.22,4.44,7.86c0,0-1.08-3.42-1.98-4.56
		C84.449,59.28,82.829,57.18,82.829,57.18"/>
	<path clip-path="url(#SVGID_2_)" fill="#886327" d="M38.909,45c0,0,3.96,19.86-20.46,16.5c0,0,9.12-4.56,12.48-7.38
		C34.289,51.3,38.909,45,38.909,45"/>
</g>
</svg>
