<?xml version="1.0" encoding="utf-8"?>
<!-- Generator: Adobe Illustrator 16.0.0, SVG Export Plug-In . SVG Version: 6.00 Build 0)  -->
<!DOCTYPE svg PUBLIC "-//W3C//DTD SVG 1.1//EN" "http://www.w3.org/Graphics/SVG/1.1/DTD/svg11.dtd">
<svg version="1.1" id="Layer_1" xmlns="http://www.w3.org/2000/svg" xmlns:xlink="http://www.w3.org/1999/xlink" x="0px" y="0px"
	 width="102.063px" height="29.691px" viewBox="0 0 102.063 29.691" enable-background="new 0 0 102.063 29.691"
	 xml:space="preserve">
<g>
	<defs>
		<rect id="SVGID_1_" y="0" width="102.063" height="29.692"/>
	</defs>
	<clipPath id="SVGID_2_">
		<use xlink:href="#SVGID_1_"  overflow="visible"/>
	</clipPath>
	<path clip-path="url(#SVGID_2_)" fill="#292A4E" d="M88.78,0.081c0.81-0.302,1.788,0.276,1.915,1.129
		c0.189,0.852-0.548,1.749-1.422,1.722c-0.583,0.037-1.127-0.352-1.363-0.87c-0.136-0.278-0.13-0.601-0.091-0.901
		C87.924,0.669,88.305,0.247,88.78,0.081"/>
	<path clip-path="url(#SVGID_2_)" fill="#292A4E" d="M22.909,5.517c1.479-0.314,3.045-0.258,4.483,0.218
		c0.971,0.31,1.909,0.788,2.651,1.498c0.401,0.38,0.743,0.823,1.023,1.3c-0.462,0.3-0.928,0.595-1.406,0.873
		c-0.794-1.053-1.918-1.869-3.206-2.192c-1.252-0.312-2.599-0.297-3.827,0.109c-1.22,0.407-2.267,1.27-2.957,2.348
		c-0.669,1.051-0.911,2.342-0.756,3.57c0.144,1.181,0.686,2.303,1.496,3.173c0.896,0.941,2.132,1.524,3.415,1.689
		c1.451,0.183,2.99-0.072,4.224-0.883c0.622-0.388,1.14-0.91,1.613-1.465c0.48,0.287,0.942,0.605,1.406,0.92
		c-0.602,0.917-1.45,1.665-2.419,2.177c-1.31,0.711-2.823,0.971-4.302,0.922c-1.45-0.02-2.908-0.428-4.113-1.245
		c-1.113-0.755-2.036-1.808-2.587-3.037c-0.968-2.25-0.685-4.983,0.723-6.987C19.416,6.965,21.094,5.899,22.909,5.517"/>
	<path clip-path="url(#SVGID_2_)" fill="#292A4E" d="M60.825,5.372c1.169-0.16,2.41,0.039,3.416,0.676
		c0.863,0.532,1.54,1.35,1.905,2.294c0.342,0.907,0.425,1.883,0.492,2.843c0.031,0.753,0.018,1.507,0.021,2.262
		c0.002,1.989-0.005,3.978,0.004,5.967c-0.574,0.031-1.151,0.013-1.727,0.011l-0.033-0.043c-0.008-2.323,0-4.647-0.004-6.97
		c-0.002-0.693-0.04-1.386-0.099-2.076c-0.106-1.007-0.485-2.058-1.308-2.698c-0.771-0.594-1.798-0.751-2.745-0.648
		c-1.146,0.107-2.195,0.736-2.949,1.588c-0.627,0.702-1.053,1.588-1.186,2.521c-0.142,0.948-0.14,1.91-0.173,2.865
		c0.001,1.819-0.004,3.638,0.002,5.457c-0.578,0.017-1.157,0.011-1.733,0.003l-0.033-0.041c-0.011-4.563,0.005-9.127-0.008-13.69
		c0.591-0.039,1.182-0.031,1.772-0.006c0.008,0.8-0.013,1.6,0.009,2.399c0.409-0.458,0.798-0.938,1.273-1.331
		C58.598,6.012,59.681,5.501,60.825,5.372"/>
	<path clip-path="url(#SVGID_2_)" fill="#292A4E" d="M95.556,5.625c1.015-0.42,2.19-0.398,3.201,0.025
		c0.84,0.345,1.569,0.907,2.223,1.53c-0.381,0.392-0.746,0.803-1.148,1.174c-0.463-0.421-0.953-0.829-1.533-1.083
		c-0.528-0.249-1.138-0.352-1.714-0.235c-0.533,0.109-0.998,0.454-1.305,0.895c-0.297,0.422-0.359,0.984-0.208,1.471
		c0.166,0.508,0.531,0.929,0.958,1.24c0.839,0.647,1.838,1.032,2.722,1.609c0.542,0.348,1.07,0.737,1.481,1.24
		c0.42,0.54,0.689,1.207,0.738,1.892c0.022,0.51,0.016,1.031-0.14,1.521c-0.267,0.945-0.925,1.753-1.747,2.275
		c-0.646,0.405-1.413,0.602-2.174,0.599c-1.578,0.045-3.163-0.69-4.138-1.935c0.352-0.438,0.735-0.848,1.107-1.268
		c0.302,0.291,0.589,0.602,0.937,0.843c0.568,0.411,1.255,0.693,1.965,0.672c0.678,0.015,1.354-0.259,1.836-0.736
		c0.41-0.389,0.69-0.938,0.676-1.511c0.029-0.626-0.269-1.243-0.749-1.637c-0.84-0.701-1.864-1.114-2.795-1.673
		c-0.573-0.355-1.139-0.751-1.571-1.274c-0.678-0.825-0.924-1.957-0.729-2.998C93.627,7.093,94.479,6.083,95.556,5.625"/>
	<path clip-path="url(#SVGID_2_)" fill="#292A4E" d="M88.359,5.667c0.597,0.001,1.196-0.025,1.793,0.014
		c-0.005,4.574-0.006,9.149,0,13.722c-0.597,0.036-1.196,0.013-1.796,0.013C88.354,14.833,88.351,10.25,88.359,5.667"/>
	<path clip-path="url(#SVGID_2_)" fill="#292A4E" d="M12.129,15.012c-0.317,0.533-0.674,1.043-1.092,1.502
		c-0.469,0.506-1.063,0.884-1.693,1.156c-1.178,0.514-2.532,0.642-3.775,0.3c-1.112-0.302-2.072-1.043-2.734-1.976
		c-0.677-0.956-0.995-2.137-0.999-3.301c4.112-0.004,8.226,0.014,12.337-0.008c0.003-0.717-0.081-1.434-0.257-2.128
		c-0.396-1.64-1.44-3.095-2.819-4.057C9.91,5.669,8.439,5.306,7,5.322c-1.439,0-2.902,0.406-4.058,1.283
		c-1.253,0.95-2.187,2.313-2.638,3.818c-0.315,1.082-0.382,2.233-0.215,3.347c0.24,1.594,1.049,3.076,2.183,4.21
		c0.978,0.977,2.306,1.557,3.667,1.726c1.637,0.199,3.381,0.037,4.831-0.804c1.31-0.726,2.307-1.922,2.953-3.257
		c-0.48-0.246-0.948-0.516-1.434-0.747C12.206,14.846,12.168,14.964,12.129,15.012 M3.829,8.14c1.087-0.896,2.558-1.254,3.944-1.073
		c1.193,0.161,2.355,0.697,3.191,1.573c0.659,0.688,1.02,1.597,1.26,2.504c-1.718,0.032-3.439,0.004-5.159,0.013
		c-1.682,0-3.364,0.002-5.046,0C2.323,10.014,2.883,8.886,3.829,8.14"/>
	<path clip-path="url(#SVGID_2_)" fill="#292A4E" d="M84.4,5.69c-0.583-0.038-1.167-0.016-1.751-0.015
		c-0.017,0.824,0.006,1.649-0.009,2.474c-0.43-0.511-0.854-1.034-1.387-1.443c-1.056-0.865-2.406-1.332-3.765-1.38
		c-1.357-0.055-2.746,0.255-3.908,0.974c-1.061,0.657-1.959,1.578-2.587,2.657c-0.795,1.364-1.048,3-0.854,4.555
		c0.137,1.198,0.584,2.36,1.303,3.329c0.744,1.007,1.724,1.853,2.87,2.366c1.222,0.552,2.603,0.682,3.921,0.495
		c1.321-0.187,2.564-0.81,3.544-1.711c0.32-0.257,0.557-0.596,0.864-0.866c0.008,0.767-0.005,1.533,0.006,2.299
		c0.585,0.002,1.17,0.021,1.754-0.009C84.394,14.84,84.397,10.265,84.4,5.69 M81.817,15.83c-0.674,0.996-1.72,1.71-2.858,2.074
		c-1.276,0.409-2.711,0.33-3.919-0.259c-1.086-0.511-1.979-1.4-2.519-2.469c-0.78-1.438-0.862-3.226-0.225-4.731
		c0.443-1.078,1.214-2.03,2.218-2.631c0.616-0.384,1.318-0.617,2.035-0.727c1.188-0.143,2.439,0.03,3.481,0.647
		c1.142,0.678,2.05,1.766,2.453,3.037C82.99,12.442,82.82,14.371,81.817,15.83"/>
	<path clip-path="url(#SVGID_2_)" fill="#292A4E" d="M43.138,4.547c5.29,0,9.578,4.282,9.578,9.565c0,1.526-0.359,2.967-0.996,4.248
		c0.913-1.471,1.438-3.192,1.438-5.035c0-5.384-4.486-9.748-10.02-9.748c-5.534,0-10.02,4.364-10.02,9.748
		c0,1.841,0.525,3.562,1.437,5.032c-0.636-1.279-0.995-2.721-0.995-4.245C33.561,8.829,37.85,4.547,43.138,4.547"/>
	<path clip-path="url(#SVGID_2_)" fill="#292A4E" d="M43.031,6.648c4.504,0,8.153,3.749,8.153,8.375
		c0,1.335-0.307,2.598-0.848,3.719c0.777-1.286,1.226-2.797,1.226-4.41c0-4.713-3.82-8.535-8.531-8.535
		c-4.71,0-8.531,3.822-8.531,8.535c0,1.613,0.448,3.122,1.224,4.407c-0.54-1.119-0.847-2.381-0.847-3.716
		C34.877,10.396,38.528,6.648,43.031,6.648"/>
	<path clip-path="url(#SVGID_2_)" fill="#292A4E" d="M36.224,15.552c0-3.885,3.048-7.035,6.807-7.035
		c3.761,0,6.809,3.15,6.809,7.035c0,1.121-0.256,2.182-0.708,3.123c0.649-1.082,1.023-2.348,1.023-3.702
		c0-3.96-3.19-7.17-7.124-7.17s-7.123,3.21-7.123,7.17c0,1.354,0.375,2.621,1.024,3.702C36.479,17.734,36.224,16.673,36.224,15.552"
		/>
	<path clip-path="url(#SVGID_2_)" fill="#292A4E" d="M43.051,10.298c3.18,0,5.757,2.653,5.757,5.926
		c0,0.939-0.218,1.826-0.598,2.615c0.545-0.907,0.864-1.968,0.864-3.104c0-3.336-2.697-6.039-6.023-6.039
		c-3.325,0-6.021,2.703-6.021,6.039c0,1.136,0.318,2.195,0.863,3.104c-0.379-0.789-0.597-1.676-0.597-2.615
		C37.296,12.951,39.873,10.298,43.051,10.298"/>
	<path clip-path="url(#SVGID_2_)" fill="#CC9038" d="M3.099,27.662c0,0.143-0.113,0.255-0.255,0.255H1.069
		c-0.142,0-0.255-0.112-0.255-0.255c0-0.142,0.113-0.255,0.255-0.255h0.639v-4.03H1.069c-0.142,0-0.255-0.112-0.255-0.255
		c0-0.142,0.113-0.255,0.255-0.255h1.774c0.142,0,0.255,0.113,0.255,0.255c0,0.143-0.113,0.255-0.255,0.255H2.211v4.03h0.632
		C2.985,27.407,3.099,27.521,3.099,27.662"/>
	<path clip-path="url(#SVGID_2_)" fill="#CC9038" d="M6.383,25.748v1.965c0,0.134-0.114,0.247-0.249,0.247
		c-0.141,0-0.255-0.113-0.255-0.247v-1.965c0-0.385-0.305-0.688-0.688-0.688c-0.376,0-0.689,0.219-0.689,0.603v2.05
		c0,0.135-0.113,0.248-0.247,0.248C4.113,27.96,4,27.847,4,27.712v-2.908c0-0.134,0.113-0.248,0.255-0.248
		c0.134,0,0.247,0.114,0.247,0.248v0.014c0.164-0.163,0.427-0.262,0.689-0.262C5.851,24.556,6.383,25.088,6.383,25.748"/>
	<path clip-path="url(#SVGID_2_)" fill="#CC9038" d="M9.638,26.989v0.014c0,0.539-0.404,0.957-0.929,0.957
		c-0.518,0-0.923-0.418-0.923-0.957v-1.901H7.347c-0.142,0-0.256-0.113-0.256-0.256c0-0.135,0.114-0.248,0.256-0.248h0.439V23.08
		c0-0.142,0.114-0.255,0.256-0.255c0.134,0,0.249,0.113,0.249,0.255v1.518h0.722c0.142,0,0.256,0.113,0.256,0.248
		c0,0.143-0.114,0.256-0.256,0.256H8.291v1.901c0,0.256,0.183,0.453,0.418,0.453c0.241,0,0.425-0.197,0.425-0.453v-0.014
		c0-0.135,0.114-0.248,0.248-0.248C9.524,26.741,9.638,26.854,9.638,26.989"/>
	<path clip-path="url(#SVGID_2_)" fill="#CC9038" d="M12.702,25.761v0.489c0,0.136-0.114,0.249-0.256,0.249h-1.624v0.27
		c0,0.376,0.305,0.688,0.688,0.688c0.262,0,0.512-0.156,0.617-0.397c0.065-0.128,0.214-0.184,0.342-0.128
		c0.127,0.064,0.177,0.213,0.119,0.34c-0.19,0.42-0.616,0.689-1.078,0.689c-0.66,0-1.198-0.532-1.198-1.191v-1.021
		c0-0.653,0.538-1.192,1.198-1.192C12.163,24.556,12.702,25.094,12.702,25.761 M10.822,25.996h1.37v-0.248
		c0-0.377-0.306-0.688-0.682-0.688c-0.383,0-0.688,0.312-0.688,0.688V25.996z"/>
	<path clip-path="url(#SVGID_2_)" fill="#CC9038" d="M15.909,25.669c0,0.135-0.114,0.249-0.256,0.249
		c-0.141,0-0.255-0.114-0.255-0.249c0-0.382-0.305-0.646-0.681-0.646c-0.384,0-0.688,0.271-0.688,0.646v2.037
		c0,0.141-0.114,0.254-0.256,0.254c-0.141,0-0.255-0.113-0.255-0.254v-2.902c0-0.134,0.114-0.248,0.255-0.248
		c0.12,0,0.256,0.085,0.256,0.248v0.143c0.156-0.306,0.468-0.405,0.716-0.405C15.398,24.541,15.909,24.989,15.909,25.669"/>
	<path clip-path="url(#SVGID_2_)" fill="#CC9038" d="M18.966,25.748v1.965c0,0.134-0.113,0.247-0.249,0.247
		c-0.141,0-0.255-0.113-0.255-0.247v-1.965c0-0.385-0.304-0.688-0.688-0.688c-0.376,0-0.688,0.219-0.688,0.603v2.05
		c0,0.135-0.113,0.248-0.248,0.248c-0.142,0-0.255-0.113-0.255-0.248v-2.908c0-0.134,0.113-0.248,0.255-0.248
		c0.135,0,0.248,0.114,0.248,0.248v0.014c0.164-0.163,0.426-0.262,0.688-0.262C18.434,24.556,18.966,25.088,18.966,25.748"/>
	<path clip-path="url(#SVGID_2_)" fill="#CC9038" d="M22.208,25.761v0.489c0,0.136-0.114,0.249-0.256,0.249h-1.624v0.27
		c0,0.376,0.305,0.688,0.688,0.688c0.263,0,0.511-0.156,0.617-0.397c0.064-0.128,0.213-0.184,0.34-0.128
		c0.128,0.064,0.178,0.213,0.121,0.34c-0.192,0.42-0.617,0.689-1.078,0.689c-0.66,0-1.2-0.532-1.2-1.191v-1.021
		c0-0.653,0.54-1.192,1.2-1.192C21.668,24.556,22.208,25.094,22.208,25.761 M20.328,25.996h1.368v-0.248
		c0-0.377-0.304-0.688-0.68-0.688c-0.383,0-0.688,0.312-0.688,0.688V25.996z"/>
	<path clip-path="url(#SVGID_2_)" fill="#CC9038" d="M25.393,26.989v0.014c0,0.539-0.405,0.957-0.929,0.957
		c-0.518,0-0.923-0.418-0.923-0.957v-1.901h-0.439c-0.143,0-0.256-0.113-0.256-0.256c0-0.135,0.113-0.248,0.256-0.248h0.439V23.08
		c0-0.142,0.114-0.255,0.256-0.255c0.135,0,0.248,0.113,0.248,0.255v1.518h0.724c0.141,0,0.255,0.113,0.255,0.248
		c0,0.143-0.114,0.256-0.255,0.256h-0.724v1.901c0,0.256,0.185,0.453,0.419,0.453c0.241,0,0.426-0.197,0.426-0.453v-0.014
		c0-0.135,0.112-0.248,0.248-0.248C25.278,26.741,25.393,26.854,25.393,26.989"/>
	<path clip-path="url(#SVGID_2_)" fill="#CC9038" d="M27.966,26.762v-1.014c0-0.66,0.532-1.192,1.192-1.192
		c0.659,0,1.192,0.532,1.192,1.192v1.014c0,0.66-0.533,1.198-1.192,1.198C28.498,27.96,27.966,27.422,27.966,26.762 M28.47,25.748
		v1.014c0,0.383,0.312,0.688,0.688,0.688c0.384,0,0.688-0.305,0.688-0.688v-1.014c0-0.376-0.304-0.688-0.688-0.688
		C28.782,25.06,28.47,25.372,28.47,25.748"/>
	<path clip-path="url(#SVGID_2_)" fill="#CC9038" d="M33.407,24.853c0,0.128-0.099,0.249-0.247,0.249h-0.902v2.604
		c0,0.141-0.113,0.254-0.248,0.254c-0.141,0-0.255-0.113-0.255-0.254v-2.604h-0.44c-0.141,0-0.256-0.105-0.256-0.249
		c0-0.142,0.115-0.254,0.256-0.254h0.44V23.91c0-0.291,0.099-0.561,0.291-0.768c0.191-0.205,0.461-0.318,0.752-0.318h0.362
		c0.142,0,0.255,0.113,0.255,0.248c0,0.142-0.113,0.257-0.255,0.257h-0.362c-0.305,0-0.54,0.248-0.54,0.581v0.688h0.902
		C33.292,24.599,33.407,24.712,33.407,24.853"/>
	<path clip-path="url(#SVGID_2_)" fill="#CC9038" d="M38.288,22.867c0.141,0,0.255,0.114,0.255,0.249
		c0,0.142-0.114,0.255-0.255,0.255h-0.966v4.335c0,0.14-0.113,0.254-0.255,0.254c-0.134,0-0.248-0.114-0.248-0.254v-4.335h-0.965
		c-0.142,0-0.255-0.113-0.255-0.255c0-0.136,0.113-0.249,0.255-0.249H38.288z"/>
	<path clip-path="url(#SVGID_2_)" fill="#CC9038" d="M41.636,25.748v1.958c0,0.141-0.114,0.254-0.256,0.254
		c-0.141,0-0.256-0.113-0.256-0.254v-1.958c0-0.385-0.303-0.688-0.68-0.688c-0.384,0-0.688,0.219-0.688,0.603v2.044
		c0,0.141-0.114,0.254-0.255,0.254c-0.142,0-0.249-0.113-0.249-0.254v-4.634c0-0.135,0.107-0.248,0.249-0.248
		c0.141,0,0.255,0.113,0.255,0.248v1.745c0.183-0.163,0.425-0.262,0.688-0.262C41.097,24.556,41.636,25.088,41.636,25.748"/>
	<path clip-path="url(#SVGID_2_)" fill="#CC9038" d="M43.352,23.696c0,0.214-0.184,0.39-0.404,0.39c-0.213,0-0.39-0.176-0.39-0.39
		c0-0.219,0.177-0.404,0.39-0.404C43.167,23.292,43.352,23.478,43.352,23.696 M43.196,24.812v2.894c0,0.142-0.115,0.255-0.249,0.255
		c-0.142,0-0.256-0.113-0.256-0.255v-2.894c0-0.143,0.114-0.256,0.256-0.256C43.082,24.556,43.196,24.669,43.196,24.812"/>
	<path clip-path="url(#SVGID_2_)" fill="#CC9038" d="M46.764,25.748v1.965c0,0.134-0.114,0.247-0.249,0.247
		c-0.142,0-0.255-0.113-0.255-0.247v-1.965c0-0.385-0.304-0.688-0.689-0.688c-0.375,0-0.687,0.219-0.687,0.603v2.05
		c0,0.135-0.114,0.248-0.248,0.248c-0.142,0-0.256-0.113-0.256-0.248v-2.908c0-0.134,0.114-0.248,0.256-0.248
		c0.134,0,0.248,0.114,0.248,0.248v0.014c0.164-0.163,0.425-0.262,0.687-0.262C46.231,24.556,46.764,25.088,46.764,25.748"/>
	<path clip-path="url(#SVGID_2_)" fill="#CC9038" d="M49.97,24.804V28.5c0,0.652-0.538,1.191-1.19,1.191
		c-0.661,0-1.2-0.539-1.2-1.191c0-0.142,0.113-0.255,0.255-0.255c0.143,0,0.256,0.113,0.256,0.255c0,0.376,0.305,0.681,0.689,0.681
		c0.374,0,0.68-0.305,0.68-0.681v-0.809c-0.185,0.163-0.426,0.269-0.68,0.269c-0.661,0-1.2-0.538-1.2-1.198v-1.014
		c0-0.66,0.539-1.192,1.2-1.192c0.254,0,0.495,0.1,0.68,0.263v-0.015c0-0.134,0.114-0.248,0.255-0.248
		C49.855,24.556,49.97,24.669,49.97,24.804 M49.459,26.854v-1.192c0-0.383-0.306-0.603-0.68-0.603c-0.384,0-0.689,0.313-0.689,0.688
		v1.014c0,0.383,0.305,0.688,0.689,0.688C49.154,27.45,49.459,27.23,49.459,26.854"/>
	<path clip-path="url(#SVGID_2_)" fill="#CC9038" d="M50.814,27.279c-0.065-0.12-0.014-0.276,0.114-0.333
		c0.127-0.065,0.275-0.015,0.34,0.106c0.17,0.348,0.553,0.403,0.766,0.403c0.176,0,0.582-0.043,0.582-0.438
		c0-0.271-0.199-0.362-0.703-0.525c-0.17-0.058-0.34-0.115-0.511-0.191c-0.248-0.12-0.582-0.342-0.582-0.831
		c0-0.518,0.469-0.914,1.093-0.914c0.533,0,0.944,0.262,1.101,0.701c0.049,0.136-0.022,0.277-0.15,0.327
		c-0.134,0.043-0.275-0.021-0.325-0.155c-0.086-0.234-0.313-0.369-0.625-0.369c-0.177,0-0.334,0.049-0.439,0.135
		c-0.064,0.05-0.149,0.141-0.149,0.275c0,0.157,0.049,0.256,0.298,0.377c0.135,0.063,0.298,0.112,0.489,0.178
		c0.22,0.071,0.454,0.147,0.633,0.276c0.255,0.177,0.382,0.418,0.382,0.717c0,0.333-0.147,0.595-0.419,0.766
		c-0.247,0.156-0.531,0.177-0.673,0.177C51.474,27.96,51.034,27.712,50.814,27.279"/>
	<path clip-path="url(#SVGID_2_)" fill="#CC9038" d="M54.524,27.57c0,0.213-0.187,0.39-0.406,0.39c-0.213,0-0.389-0.177-0.389-0.39
		c0-0.22,0.176-0.404,0.389-0.404C54.338,27.166,54.524,27.351,54.524,27.57"/>
	<path clip-path="url(#SVGID_2_)" fill="#CC9038" d="M59.538,22.867c0.142,0,0.256,0.114,0.256,0.249
		c0,0.142-0.114,0.255-0.256,0.255h-0.964v4.335c0,0.14-0.114,0.254-0.255,0.254c-0.137,0-0.249-0.114-0.249-0.254v-4.335h-0.966
		c-0.141,0-0.254-0.113-0.254-0.255c0-0.136,0.113-0.249,0.254-0.249H59.538z"/>
	<path clip-path="url(#SVGID_2_)" fill="#CC9038" d="M62.886,25.748v1.958c0,0.141-0.112,0.254-0.254,0.254
		c-0.143,0-0.256-0.113-0.256-0.254v-1.958c0-0.385-0.306-0.688-0.681-0.688c-0.383,0-0.688,0.219-0.688,0.603v2.044
		c0,0.141-0.113,0.254-0.256,0.254c-0.141,0-0.249-0.113-0.249-0.254v-4.634c0-0.135,0.108-0.248,0.249-0.248
		c0.143,0,0.256,0.113,0.256,0.248v1.745c0.184-0.163,0.427-0.262,0.688-0.262C62.348,24.556,62.886,25.088,62.886,25.748"/>
	<path clip-path="url(#SVGID_2_)" fill="#CC9038" d="M64.603,23.696c0,0.214-0.184,0.39-0.403,0.39c-0.214,0-0.391-0.176-0.391-0.39
		c0-0.219,0.177-0.404,0.391-0.404C64.419,23.292,64.603,23.478,64.603,23.696 M64.448,24.812v2.894
		c0,0.142-0.115,0.255-0.249,0.255c-0.143,0-0.255-0.113-0.255-0.255v-2.894c0-0.143,0.112-0.256,0.255-0.256
		C64.333,24.556,64.448,24.669,64.448,24.812"/>
	<path clip-path="url(#SVGID_2_)" fill="#CC9038" d="M68.016,25.748v1.965c0,0.134-0.113,0.247-0.248,0.247
		c-0.144,0-0.256-0.113-0.256-0.247v-1.965c0-0.385-0.306-0.688-0.688-0.688c-0.377,0-0.689,0.219-0.689,0.603v2.05
		c0,0.135-0.112,0.248-0.248,0.248c-0.142,0-0.255-0.113-0.255-0.248v-2.908c0-0.134,0.113-0.248,0.255-0.248
		c0.136,0,0.248,0.114,0.248,0.248v0.014c0.163-0.163,0.426-0.262,0.689-0.262C67.482,24.556,68.016,25.088,68.016,25.748"/>
	<path clip-path="url(#SVGID_2_)" fill="#CC9038" d="M71.156,27.96c-0.092,0-0.176-0.049-0.225-0.134l-0.881-1.633
		c-0.496,0.519-0.503,0.519-0.503,0.525v0.987c0,0.141-0.114,0.254-0.249,0.254c-0.142,0-0.255-0.113-0.255-0.254v-4.633
		c0-0.135,0.113-0.248,0.255-0.248c0.135,0,0.249,0.113,0.249,0.248v2.915l1.317-1.355c0.094-0.099,0.258-0.106,0.355-0.007
		c0.1,0.101,0.106,0.255,0.007,0.355l-0.802,0.823l0.952,1.78C71.463,27.748,71.355,27.96,71.156,27.96"/>
	<path clip-path="url(#SVGID_2_)" fill="#CC9038" d="M78.697,23.15l-1.348,4.625c-0.028,0.115-0.127,0.185-0.241,0.185
		c-0.106,0-0.206-0.069-0.24-0.171l-0.625-1.893l-0.632,1.893c-0.035,0.107-0.143,0.171-0.247,0.171
		c-0.107,0-0.206-0.077-0.234-0.185l-1.348-4.625c-0.043-0.135,0.035-0.276,0.17-0.312c0.128-0.035,0.269,0.021,0.313,0.171
		l1.12,3.852l0.59-1.767l-0.647-1.938c-0.05-0.147,0.059-0.332,0.235-0.332c0.105,0,0.206,0.069,0.248,0.177l0.434,1.29l0.432-1.29
		c0.036-0.106,0.136-0.177,0.241-0.177c0.164,0,0.284,0.169,0.234,0.332l-0.645,1.938l0.588,1.767l1.121-3.852
		c0.028-0.107,0.128-0.185,0.233-0.185C78.606,22.825,78.754,22.98,78.697,23.15"/>
	<path clip-path="url(#SVGID_2_)" fill="#CC9038" d="M80.278,23.696c0,0.214-0.184,0.39-0.404,0.39c-0.213,0-0.391-0.176-0.391-0.39
		c0-0.219,0.178-0.404,0.391-0.404C80.095,23.292,80.278,23.478,80.278,23.696 M80.123,24.812v2.894
		c0,0.142-0.114,0.255-0.249,0.255c-0.142,0-0.255-0.113-0.255-0.255v-2.894c0-0.143,0.113-0.256,0.255-0.256
		C80.009,24.556,80.123,24.669,80.123,24.812"/>
	<path clip-path="url(#SVGID_2_)" fill="#CC9038" d="M81.131,26.697c0-0.142,0.112-0.254,0.246-0.254
		c0.145,0,0.257,0.112,0.257,0.254c0,0.369,0.306,0.759,0.88,0.759c0.546,0,0.894-0.297,0.894-0.744
		c0-0.334-0.043-0.617-0.581-0.951c-0.646-0.375-0.796-0.461-0.943-0.56c-0.435-0.299-0.71-0.646-0.71-1.163
		c0-0.76,0.616-1.213,1.326-1.213c0.745,0,1.348,0.538,1.348,1.262c0,0.143-0.113,0.256-0.254,0.256
		c-0.143,0-0.258-0.113-0.258-0.256c0-0.376-0.282-0.758-0.836-0.758c-0.567,0-0.816,0.354-0.816,0.702c0,0.176,0,0.411,0.448,0.729
		c0.105,0.079,0.389,0.248,0.943,0.567c0.545,0.312,0.843,0.773,0.843,1.384c0,0.795-0.688,1.248-1.403,1.248
		C81.647,27.96,81.131,27.322,81.131,26.697"/>
	<path clip-path="url(#SVGID_2_)" fill="#CC9038" d="M88.655,25.748v1.958c0,0.141-0.112,0.254-0.254,0.254
		c-0.136,0-0.248-0.113-0.248-0.254v-1.958c0-0.376-0.229-0.688-0.604-0.688s-0.604,0.228-0.604,0.603v2.044
		c0,0.141-0.113,0.254-0.248,0.254c-0.142,0-0.256-0.113-0.256-0.254v-1.958c0-0.376-0.219-0.688-0.603-0.688
		c-0.375,0-0.598,0.228-0.598,0.603v2.044c0,0.141-0.11,0.254-0.253,0.254c-0.142,0-0.256-0.113-0.256-0.254v-2.895
		c0-0.142,0.114-0.256,0.256-0.256c0.143,0,0.253,0.114,0.253,0.256v0.006c0.158-0.163,0.336-0.262,0.598-0.262
		c0.34,0,0.609,0.155,0.83,0.375c0.143-0.177,0.462-0.375,0.88-0.375C88.21,24.556,88.655,25.094,88.655,25.748"/>
	<path clip-path="url(#SVGID_2_)" fill="#CC9038" d="M91.892,24.804v2.902c0,0.141-0.114,0.254-0.256,0.254
		c-0.134,0-0.249-0.113-0.249-0.254v-0.015c-0.191,0.163-0.426,0.269-0.687,0.269c-0.661,0-1.192-0.538-1.192-1.198v-1.014
		c0-0.66,0.531-1.192,1.192-1.192c0.261,0,0.495,0.1,0.687,0.263v-0.015c0-0.134,0.115-0.248,0.249-0.248
		C91.777,24.556,91.892,24.669,91.892,24.804 M91.387,26.854v-1.192c0-0.383-0.312-0.603-0.687-0.603
		c-0.384,0-0.689,0.313-0.689,0.688v1.014c0,0.383,0.306,0.688,0.689,0.688C91.075,27.45,91.387,27.23,91.387,26.854"/>
	<path clip-path="url(#SVGID_2_)" fill="#CC9038" d="M95.238,25.669c0,0.135-0.112,0.249-0.254,0.249
		c-0.143,0-0.257-0.114-0.257-0.249c0-0.382-0.305-0.646-0.681-0.646c-0.384,0-0.688,0.271-0.688,0.646v2.037
		c0,0.141-0.112,0.254-0.254,0.254c-0.143,0-0.257-0.113-0.257-0.254v-2.902c0-0.134,0.114-0.248,0.257-0.248
		c0.12,0,0.254,0.085,0.254,0.248v0.143c0.156-0.306,0.468-0.405,0.717-0.405C94.728,24.541,95.238,24.989,95.238,25.669"/>
	<path clip-path="url(#SVGID_2_)" fill="#CC9038" d="M98.246,26.989v0.014c0,0.539-0.403,0.957-0.93,0.957
		c-0.519,0-0.922-0.418-0.922-0.957v-1.901h-0.438c-0.143,0-0.256-0.113-0.256-0.256c0-0.135,0.113-0.248,0.256-0.248h0.438V23.08
		c0-0.142,0.113-0.255,0.256-0.255c0.134,0,0.248,0.113,0.248,0.255v1.518h0.723c0.143,0,0.256,0.113,0.256,0.248
		c0,0.143-0.113,0.256-0.256,0.256h-0.723v1.901c0,0.256,0.185,0.453,0.418,0.453c0.243,0,0.426-0.197,0.426-0.453v-0.014
		c0-0.135,0.114-0.248,0.249-0.248C98.133,26.741,98.246,26.854,98.246,26.989"/>
	<path clip-path="url(#SVGID_2_)" fill="#CC9038" d="M100.161,23.022c0,0.107-0.085,0.191-0.191,0.191h-0.375v1.803
		c0,0.106-0.086,0.19-0.192,0.19s-0.199-0.084-0.199-0.19v-1.803h-0.367c-0.107,0-0.2-0.084-0.2-0.191
		c0-0.114,0.093-0.197,0.2-0.197h1.134C100.076,22.825,100.161,22.909,100.161,23.022 M102.063,23.022v1.994
		c0,0.106-0.085,0.19-0.192,0.19c-0.104,0-0.198-0.084-0.198-0.19v-1.001l-0.333,0.824c-0.027,0.07-0.1,0.12-0.178,0.12
		s-0.149-0.05-0.178-0.12l-0.341-0.824v1.001c0,0.106-0.084,0.19-0.19,0.19c-0.107,0-0.191-0.084-0.191-0.19v-1.994
		c0-0.092,0.063-0.177,0.157-0.191c0.09-0.021,0.183,0.028,0.211,0.113l0.532,1.307l0.525-1.307
		c0.036-0.085,0.127-0.134,0.219-0.113C101.999,22.846,102.063,22.932,102.063,23.022"/>
</g>
</svg>
