<?xml version="1.0" encoding="utf-8"?>
<!-- Generator: Adobe Illustrator 19.0.0, SVG Export Plug-In . SVG Version: 6.00 Build 0)  -->
<svg version="1.1" id="Layer_1" xmlns="http://www.w3.org/2000/svg" xmlns:xlink="http://www.w3.org/1999/xlink" x="0px" y="0px"
	 viewBox="-218 309 175 175" style="enable-background:new -218 309 175 175;" xml:space="preserve">
<style type="text/css">
	.st0{fill:#FF9933;}
</style>
<g id="Ñëîé_1">
</g>
<g id="_xB9_Ï_xBC_h_x5F_1">
</g>
<g>
	<g>
		<g>
			<path class="st0" d="M-153.7,412.6h-10.1v-21.5c0-1.6,0.8-3,2.1-3.8v-23.7c-0.5-0.7-0.8-1.5-0.8-2.3c0-2.1,1.7-3.8,3.8-3.8
				c2.1,0,3.8,1.7,3.8,3.8c0,0.8-0.3,1.7-0.8,2.3v23.6c1.3,0.9,2.1,2.3,2.1,3.8L-153.7,412.6L-153.7,412.6z M-162.3,411.1h7.1v-20
				c0-1.1-0.7-2.2-1.7-2.7l-0.4-0.2v-25.1l0.2-0.2c0.3-0.3,0.6-0.8,0.6-1.5c0-1.2-1-2.3-2.3-2.3c-1.3,0-2.3,1-2.3,2.3
				c0,0.6,0.2,1.1,0.6,1.5l0.2,0.2v25.1l-0.4,0.2c-1,0.5-1.7,1.6-1.7,2.7L-162.3,411.1L-162.3,411.1z"/>
			<path class="st0" d="M-153.1,413.1h-11.2v-22c0-1.6,0.8-3.1,2.1-4.1v-23.2c-0.5-0.8-0.8-1.7-0.8-2.5c0-2.4,1.9-4.3,4.3-4.3
				c2.4,0,4.3,1.9,4.3,4.3c0,0.9-0.3,1.8-0.8,2.5V387c1.3,1,2.1,2.5,2.1,4.1V413.1z M-163.3,412.1h9.2V391c0-1.3-0.7-2.6-1.9-3.4
				l-0.2-0.1v-24l0.1-0.1c0.4-0.5,0.7-1.3,0.7-2c0-1.8-1.5-3.3-3.3-3.3s-3.3,1.5-3.3,3.3c0,0.7,0.2,1.4,0.7,2l0.1,0.1v24.1l-0.2,0.1
				c-1.2,0.7-1.9,2-1.9,3.4C-163.3,391.1-163.3,412.1-163.3,412.1z M-154.7,411.6h-8.2v-20.5c0-1.3,0.8-2.6,2-3.1l0.1-0.1v-24.6
				l-0.1-0.1c-0.5-0.5-0.7-1.1-0.7-1.9c0-1.6,1.2-2.8,2.8-2.8c1.5,0,2.8,1.3,2.8,2.8c0,1-0.5,1.6-0.7,1.9l-0.1,0.1v24.6l0.1,0.1
				c1.2,0.6,2,1.9,2,3.1C-154.7,391.1-154.7,411.6-154.7,411.6z M-161.9,410.6h6.2v-19.5c0-0.9-0.6-1.8-1.4-2.3l-0.7-0.3v-25.6
				l0.3-0.3c0.2-0.2,0.5-0.5,0.5-1.1c0-1-0.8-1.8-1.8-1.8s-1.8,0.8-1.8,1.8c0,0.5,0.1,0.8,0.5,1.1l0.3,0.3v25.6l-0.7,0.3
				c-0.8,0.4-1.4,1.3-1.4,2.3C-161.9,391.1-161.9,410.6-161.9,410.6z"/>
		</g>
	</g>
	<g>
		<path class="st0" d="M-82.5,449.2h-96.4c-2.9,0-5.3-3.3-5.3-7.3V438h107v3.9C-77.2,445.9-79.6,449.2-82.5,449.2z M-182.7,440.1
			v1.8c0,2.9,1.7,5.3,3.8,5.3h96.4c2.1,0,3.8-2.4,3.8-5.3v-1.8H-182.7z"/>
		<path class="st0" d="M-82.5,449.9h-96.4c-3.2,0-5.8-3.6-5.8-8v-4.6h108v4.6C-76.7,446.3-79.3,449.9-82.5,449.9z M-183.7,438.7v3.2
			c0,3.6,2.2,6.6,4.8,6.6h96.4c2.6,0,4.8-3,4.8-6.6v-3.2H-183.7z M-82.5,447.8h-96.4c-2.4,0-4.3-2.6-4.3-6v-2.5h105v2.5
			C-78.2,445.2-80.1,447.8-82.5,447.8z M-182.2,440.8v1.1c0,2.5,1.5,4.6,3.3,4.6h96.4c1.8,0,3.3-2.1,3.3-4.6v-1.1H-182.2z"/>
	</g>
	<g>
		<path class="st0" d="M-77.2,439.4h-107v-13.5h107V439.4z M-182.7,437.9h104v-10.5h-104V437.9z M-89.3,436.4
			c-2.1,0-3.8-1.7-3.8-3.8s1.7-3.8,3.8-3.8s3.8,1.7,3.8,3.8S-87.2,436.4-89.3,436.4z M-89.3,430.3c-1.2,0-2.3,1-2.3,2.3
			c0,1.2,1,2.3,2.3,2.3s2.3-1,2.3-2.3C-87,431.4-88,430.3-89.3,430.3z M-99.7,436.4c-2.1,0-3.8-1.7-3.8-3.8s1.7-3.8,3.8-3.8
			s3.8,1.7,3.8,3.8C-96,434.7-97.7,436.4-99.7,436.4z M-99.7,430.3c-1.2,0-2.3,1-2.3,2.3c0,1.2,1,2.3,2.3,2.3s2.3-1,2.3-2.3
			C-97.5,431.4-98.5,430.3-99.7,430.3z M-110.2,436.4c-2.1,0-3.8-1.7-3.8-3.8s1.7-3.8,3.8-3.8s3.8,1.7,3.8,3.8
			C-106.4,434.7-108.1,436.4-110.2,436.4z M-110.2,430.3c-1.2,0-2.3,1-2.3,2.3c0,1.2,1,2.3,2.3,2.3s2.3-1,2.3-2.3
			C-107.9,431.4-108.9,430.3-110.2,430.3z"/>
		<path class="st0" d="M-76.7,439.9h-108v-14.5h108V439.9z M-183.7,438.9h106v-12.5h-106V438.9z M-78.2,438.4h-105v-11.5h105V438.4z
			 M-182.2,437.4h103v-9.5h-103V437.4z M-89.3,436.9c-2.4,0-4.3-1.9-4.3-4.3s1.9-4.3,4.3-4.3s4.3,1.9,4.3,4.3
			S-86.9,436.9-89.3,436.9z M-89.3,429.3c-1.8,0-3.3,1.5-3.3,3.3s1.5,3.3,3.3,3.3s3.3-1.5,3.3-3.3S-87.5,429.3-89.3,429.3z
			 M-99.7,436.9c-2.4,0-4.3-1.9-4.3-4.3s1.9-4.3,4.3-4.3s4.3,1.9,4.3,4.3C-95.5,435-97.4,436.9-99.7,436.9z M-99.7,429.3
			c-1.8,0-3.3,1.5-3.3,3.3s1.5,3.3,3.3,3.3c1.7,0,3.2-1.5,3.3-3.3C-96.4,430.8-97.9,429.3-99.7,429.3z M-110.2,436.9
			c-2.4,0-4.3-1.9-4.3-4.3s1.9-4.3,4.3-4.3s4.3,1.9,4.3,4.3S-107.8,436.9-110.2,436.9z M-110.2,429.3c-1.8,0-3.3,1.5-3.3,3.3
			s1.5,3.3,3.3,3.3s3.3-1.5,3.3-3.3C-106.9,430.8-108.4,429.3-110.2,429.3z M-89.3,435.4c-1.5,0-2.8-1.3-2.8-2.8s1.3-2.8,2.8-2.8
			s2.8,1.3,2.8,2.8C-86.5,434.2-87.7,435.4-89.3,435.4z M-89.3,430.8c-1,0-1.8,0.8-1.8,1.8s0.8,1.8,1.8,1.8s1.8-0.8,1.8-1.8
			S-88.3,430.8-89.3,430.8z M-99.7,435.4c-1.5,0-2.8-1.3-2.8-2.8s1.3-2.8,2.8-2.8c1.4,0,2.7,1.2,2.8,2.8
			C-96.9,434.2-98.1,435.4-99.7,435.4z M-99.7,430.8c-1,0-1.8,0.8-1.8,1.8s0.8,1.8,1.8,1.8s1.8-0.8,1.8-1.8
			C-98,431.6-98.8,430.8-99.7,430.8z M-110.2,435.4c-1.5,0-2.8-1.3-2.8-2.8s1.3-2.8,2.8-2.8s2.8,1.3,2.8,2.8
			C-107.4,434.2-108.6,435.4-110.2,435.4z M-110.2,430.8c-1,0-1.8,0.8-1.8,1.8s0.8,1.8,1.8,1.8s1.8-0.8,1.8-1.8
			C-108.4,431.6-109.2,430.8-110.2,430.8z"/>
		<circle class="st0" cx="-110.2" cy="432.9" r="4.3"/>
		<circle class="st0" cx="-99.7" cy="432.9" r="4.3"/>
		<circle class="st0" cx="-89.3" cy="432.6" r="4.3"/>
	</g>
	<g>
		<path class="st0" d="M-77.2,427.6h-107v-4c0-4.1,2.4-7.6,5.3-7.6h96.4c2.9,0,5.3,3.4,5.3,7.6V427.6z M-182.7,425.4h104v-1.9
			c0-3-1.7-5.4-3.8-5.4h-96.4c-2.1,0-3.8,2.4-3.8,5.4V425.4z"/>
		<path class="st0" d="M-76.7,428.3h-108v-4.7c0-4.6,2.6-8.3,5.8-8.3h96.4c3.2,0,5.8,3.7,5.8,8.3V428.3z M-183.7,426.9h106v-3.3
			c0-3.7-2.2-6.9-4.8-6.9h-96.4c-2.6,0-4.8,3.1-4.8,6.9C-183.7,423.6-183.7,426.9-183.7,426.9z M-78.2,426.2h-105v-2.6
			c0-3.4,1.9-6.1,4.3-6.1h96.4c2.4,0,4.3,2.7,4.3,6.1V426.2z M-182.2,424.7h103v-1.1c0-2.6-1.5-4.7-3.3-4.7h-96.4
			c-1.8,0-3.3,2.1-3.3,4.7V424.7z"/>
	</g>
	<g>
		<path class="st0" d="M-150.7,369.7c-0.6,0-1.2-0.3-1.6-0.8c-0.7-0.9-0.5-2.2,0.4-2.9c1.5-1.2,2.4-2.9,2.4-4.9
			c0-1.8-0.8-3.6-2.2-4.7c-0.4-0.3-0.7-0.8-0.7-1.4c-0.1-0.5,0.1-1.1,0.5-1.5c0.7-0.8,2-1,2.9-0.3c2.4,2,3.7,4.8,3.7,7.9
			c0,3.2-1.5,6.1-4,8.1C-149.8,369.6-150.3,369.7-150.7,369.7z"/>
	</g>
	<g>
		<path class="st0" d="M-166.7,369.8c-0.5,0-0.9-0.1-1.2-0.4c-2.6-2-4-4.9-4-8.1c0-3,1.3-5.9,3.6-7.8c0.8-0.7,2.2-0.6,2.9,0.2
			c0.4,0.4,0.5,0.9,0.5,1.5c0,0.6-0.3,1-0.7,1.4c-1.4,1.2-2.2,2.9-2.2,4.7c0,1.9,0.9,3.7,2.4,4.9c0.4,0.3,0.7,0.8,0.8,1.4
			c0.1,0.6-0.1,1.1-0.4,1.5C-165.5,369.5-166,369.8-166.7,369.8z"/>
	</g>
	<g>
		<path class="st0" d="M-146.9,374.8c-0.6,0-1.2-0.3-1.6-0.8c-0.3-0.4-0.5-1-0.4-1.5c0.1-0.5,0.3-1,0.8-1.4c3.1-2.4,4.9-6,4.9-9.9
			c0-3.8-1.7-7.3-4.6-9.7c-0.9-0.7-1-2-0.3-2.9c0.7-0.8,2-1,2.9-0.3c3.9,3.2,6.1,7.8,6.1,12.8c0,5.2-2.4,10-6.5,13.1
			C-146,374.6-146.5,374.8-146.9,374.8z"/>
	</g>
	<g>
		<path class="st0" d="M-170.6,374.7c-0.5,0-0.9-0.1-1.2-0.4c-4.1-3.2-6.4-7.9-6.4-13.1c0-5,2.2-9.6,6-12.8c0.8-0.7,2.2-0.6,2.9,0.3
			c0.3,0.4,0.5,1,0.5,1.5s-0.3,1-0.7,1.4c-2.9,2.4-4.5,5.9-4.5,9.6c0,3.9,1.8,7.5,4.9,9.9c0.9,0.7,1.1,2,0.4,2.9
			C-169.4,374.4-169.9,374.7-170.6,374.7z"/>
	</g>
	<g>
		<path class="st0" d="M-143,379.4c-0.6,0-1.2-0.3-1.6-0.8c-0.7-0.9-0.5-2.2,0.3-2.9c4.5-3.5,7-8.8,7-14.5c0-5.6-2.5-10.9-6.9-14.4
			c-0.9-0.7-1-2-0.3-2.9c0.7-0.8,2-1,2.9-0.3c5.4,4.3,8.5,10.7,8.5,17.6c0,7-3.1,13.4-8.6,17.7C-142.1,379.2-142.6,379.4-143,379.4z
			"/>
	</g>
	<g>
		<path class="st0" d="M-174.5,379.4c-0.5,0-0.9-0.2-1.3-0.4c-5.4-4.3-8.5-10.8-8.5-17.7c0-6.9,3.1-13.3,8.5-17.7
			c0.8-0.7,2.2-0.6,2.9,0.3c0.3,0.4,0.5,1,0.4,1.5s-0.3,1-0.8,1.4c-4.4,3.5-7,8.8-7,14.5c0,5.7,2.6,11,7,14.5c0.9,0.7,1,2,0.3,2.9
			C-173.3,379.1-173.9,379.4-174.5,379.4z"/>
	</g>
</g>
</svg>
