<?xml version="1.0" encoding="utf-8"?>
<!-- Generator: Adobe Illustrator 16.0.0, SVG Export Plug-In . SVG Version: 6.00 Build 0)  -->
<!DOCTYPE svg PUBLIC "-//W3C//DTD SVG 1.1//EN" "http://www.w3.org/Graphics/SVG/1.1/DTD/svg11.dtd">
<svg version="1.1" id="Layer_1" xmlns="http://www.w3.org/2000/svg" xmlns:xlink="http://www.w3.org/1999/xlink" x="0px" y="0px"
	 width="175px" height="175px" viewBox="0 0 175 175" enable-background="new 0 0 175 175" xml:space="preserve">
<g id="Isolation_Mode">
</g>
<g id="Ñëîé_1">
</g>
<g id="_xB9_Ï_xBC_h_x5F_1">
</g>
<g id="Layer_1_1_">
	<g>
		<path fill="#FF9933" d="M55.1,122.3V51.7h70.6v70.6H55.1z M121.8,118.5v-4.6h-3c-0.7,1.199-2,2.1-3.5,2.1
			c-2.2,0-3.899-1.8-3.899-3.9c0-2.199,1.8-3.899,3.899-3.899c1.5,0,2.8,0.8,3.5,2.1h3V105.9H102c-0.8,1.199-2,1.8-3.4,1.8
			c-2.199,0-3.899-1.8-3.899-3.9c0-2.1,1.8-3.899,3.899-3.899c1.601,0,3,0.899,3.601,2.399h19.6v-4.8h-15.6l-6.4-6.4
			c-0.3,0.101-0.7,0.2-1.2,0.2c-2.199,0-3.899-1.8-3.899-3.9c0-2.2,1.8-3.9,3.899-3.9c2.101,0,3.9,1.8,3.9,3.9
			c0,0.4-0.1,0.8-0.2,1.2l5.3,5.301h14V89h-3c-0.699,1.2-2,2.1-3.5,2.1c-2.199,0-3.899-1.8-3.899-3.899c0-2.2,1.8-3.9,3.899-3.9
			c1.5,0,2.801,0.8,3.5,2.1h3V72.2H94c-0.7,1.2-2,2.1-3.5,2.1c-2.2,0-3.9-1.8-3.9-3.9c0-2.2,1.8-3.9,3.9-3.9c1.5,0,2.8,0.8,3.5,2.1
			h27.8V64h-11.3c-0.7,1.2-2,2.1-3.5,2.1c-2.2,0-3.9-1.8-3.9-3.9c0-2.2,1.801-3.9,3.9-3.9c1.5,0,2.8,0.8,3.5,2.1h11.3v-4.6h-63v4.6
			h3c0.7-1.3,2-2.2,3.5-2.2c2.2,0,3.9,1.8,3.9,3.9c0,2.2-1.8,3.9-3.9,3.9c-1.4,0-2.8-0.8-3.4-2h-3v4.5h5.8l8.3-8.2h22.2
			c0.7-1.3,2-2.2,3.5-2.2c2.2,0,3.899,1.8,3.899,3.9c0,2.2-1.8,3.9-3.899,3.9c-1.4,0-2.8-0.8-3.5-2H74.5l-8.3,8.3h-7.4v4.6h14
			l5.3-5.3c0-0.5-0.1-0.9-0.1-1.3c0-2.2,1.8-3.9,3.9-3.9c2.2,0,3.9,1.8,3.9,3.9c0,2.1-1.8,3.9-3.9,3.9c-0.4,0-0.8-0.1-1.2-0.2
			l-6.4,6.4H58.8V85h7.3l6.4,6.4c0.3-0.101,0.7-0.2,1.2-0.2c2.2,0,3.9,1.8,3.9,3.899c0,2.2-1.8,3.9-3.9,3.9c-2.2,0-3.9-1.8-3.9-3.9
			c0-0.399,0.1-0.8,0.2-1.199L64.7,88.6H59v12.9h22.4l5.3-5.3c-0.1-0.3-0.2-0.7-0.2-1.2c0-2.2,1.8-3.9,3.9-3.9
			c2.1,0,3.899,1.801,3.899,3.9c0,2.2-1.8,3.9-3.899,3.9c-0.4,0-0.801-0.101-1.2-0.2l-6.4,6.399h-24v4.801h11.3
			c0.7-1.2,2-2.101,3.5-2.101c2.2,0,3.9,1.8,3.9,3.9c0,2.2-1.8,3.899-3.9,3.899c-1.5,0-2.8-0.8-3.5-2.1H58.8v4.6h63V118.5z
			 M115.4,111.8c-0.101,0-0.2,0.101-0.2,0.2s0.1,0.2,0.2,0.2c0.1,0,0.199-0.101,0.199-0.2S115.5,111.8,115.4,111.8z M73.6,111.8
			c-0.1,0-0.2,0.101-0.2,0.2s0.1,0.2,0.2,0.2s0.2-0.101,0.2-0.2C73.9,111.9,73.8,111.8,73.6,111.8z M98.7,103.5
			c-0.101,0-0.2,0.1-0.2,0.2c0,0.1,0.1,0.2,0.2,0.2c0.1,0,0.2-0.101,0.2-0.2C98.9,103.6,98.8,103.5,98.7,103.5z M90.3,95.1
			c-0.1,0-0.2,0.101-0.2,0.2c0,0.101,0.101,0.2,0.2,0.2c0.101,0,0.2-0.1,0.2-0.2C90.5,95.2,90.5,95.1,90.3,95.1z M73.6,95.1
			c-0.1,0-0.2,0.101-0.2,0.2c0,0.101,0.1,0.2,0.2,0.2s0.2-0.1,0.2-0.2C73.9,95.2,73.8,95.1,73.6,95.1z M115.4,86.8
			c-0.101,0-0.2,0.1-0.2,0.2s0.1,0.2,0.2,0.2c0.1,0,0.199-0.1,0.199-0.2S115.5,86.8,115.4,86.8z M98.7,86.8
			c-0.101,0-0.2,0.1-0.2,0.2s0.1,0.2,0.2,0.2c0.1,0,0.2-0.1,0.2-0.2S98.8,86.8,98.7,86.8z M90.6,70.1c-0.1,0-0.199,0.1-0.199,0.2
			c0,0.1,0.1,0.2,0.199,0.2c0.101,0,0.2-0.1,0.2-0.2C90.8,70.2,90.7,70.1,90.6,70.1z M82,70.1c-0.1,0-0.2,0.1-0.2,0.2
			c0,0.1,0.1,0.2,0.2,0.2s0.2-0.1,0.2-0.2C82.2,70.2,82.1,70.1,82,70.1z M107,61.7c-0.1,0-0.2,0.1-0.2,0.2s0.101,0.2,0.2,0.2
			s0.2-0.1,0.2-0.2S107.2,61.7,107,61.7z M98.7,61.7c-0.101,0-0.2,0.1-0.2,0.2s0.1,0.2,0.2,0.2c0.1,0,0.2-0.1,0.2-0.2
			S98.8,61.7,98.7,61.7z M65.3,61.7c-0.1,0-0.2,0.1-0.2,0.2s0.1,0.2,0.2,0.2c0.1,0,0.2-0.1,0.2-0.2S65.4,61.7,65.3,61.7z"/>
		<path fill="#FF9933" d="M56.1,121.3V52.7h68.6v68.6C124.6,121.3,56.1,121.3,56.1,121.3z M57.8,119.5h65v-6.6h-4.6L118.1,113.1
			c-0.5,1.101-1.6,1.801-2.8,1.801c-1.6,0-2.899-1.301-2.899-2.9s1.3-2.9,2.899-2.9c1.2,0,2.3,0.7,2.8,1.801l0.101,0.199h4.6V104.7
			H101.4l-0.101,0.2c-0.5,1-1.5,1.6-2.7,1.6c-1.6,0-2.899-1.3-2.899-2.9c0-1.6,1.3-2.899,2.899-2.899c1.301,0,2.4,0.8,2.801,2.1
			l0.1,0.3h21.3v-6.8h-16.2l-6.6-6.6l-0.2,0.1C99.5,90,99,90,98.6,90C97,90,95.7,88.7,95.7,87.1s1.3-2.9,2.899-2.9
			c1.601,0,2.9,1.3,2.9,2.9c0,0.4-0.1,0.8-0.2,1.2l-0.1,0.2l6.1,6.1h15.4V88H118.1l-0.1,0.2c-0.5,1.1-1.6,1.8-2.8,1.8
			c-1.601,0-2.9-1.3-2.9-2.9s1.3-2.9,2.9-2.9c1.2,0,2.3,0.7,2.8,1.8l0.1,0.2h4.601v-15H93.4L93.3,71.4c-0.5,1.1-1.6,1.8-2.8,1.8
			c-1.6,0-2.9-1.3-2.9-2.9c0-1.6,1.3-2.9,2.9-2.9c1.2,0,2.3,0.7,2.8,1.8l0.101,0.2H122.8v-6.6H109.9L109.8,63
			c-0.5,1.1-1.6,1.8-2.8,1.8c-1.6,0-2.9-1.3-2.9-2.9S105.4,59,107,59c1.2,0,2.3,0.7,2.8,1.8L109.9,61H122.8v-6.6h-65V61h4.6l0.1-0.3
			c0.5-1.2,1.6-1.9,2.8-1.9c1.6,0,2.9,1.3,2.9,2.9c0,1.6-1.3,2.9-2.9,2.9c-1.2,0-2.3-0.7-2.7-1.8l-0.1-0.2h-4.6v6.5h7.2l8.3-8.2
			h22.5l0.1-0.3c0.5-1.2,1.6-1.9,2.8-1.9c1.601,0,2.9,1.3,2.9,2.9s-1.3,2.9-2.9,2.9c-1.2,0-2.3-0.7-2.7-1.8L96,62.5H74.1l-8.3,8.3
			h-8v6.6h15.4l6.1-6.1l-0.1-0.2C79.1,71,79,70.6,79,70.2c0-1.6,1.3-2.9,2.9-2.9s2.9,1.3,2.9,2.9c0,1.6-1.3,2.9-2.9,2.9
			c-0.4,0-0.8-0.1-1.2-0.2l-0.2-0.1L74,79.4H57.8V86h7.9l6.6,6.6l0.2-0.1c0.3-0.2,0.8-0.2,1.2-0.2c1.6,0,2.9,1.3,2.9,2.9
			c0,1.6-1.3,2.899-2.9,2.899c-1.6,0-2.9-1.3-2.9-2.899c0-0.4,0.1-0.8,0.2-1.2l0.1-0.2L65,87.7h-7.1V102.6h23.8l6.1-6.1l-0.1-0.2
			c-0.2-0.3-0.2-0.8-0.2-1.2c0-1.6,1.3-2.899,2.9-2.899c1.6,0,2.899,1.3,2.899,2.899C93.3,96.7,92,98,90.4,98
			c-0.4,0-0.801-0.1-1.2-0.2L89,97.7l-6.6,6.6H57.8v6.8h12.9l0.1-0.199c0.5-1.101,1.6-1.801,2.8-1.801c1.6,0,2.9,1.301,2.9,2.9
			s-1.3,2.9-2.9,2.9c-1.2,0-2.3-0.7-2.8-1.801l-0.1-0.199H57.8V119.5L57.8,119.5z M115.4,110.8c-0.601,0-1.2,0.5-1.2,1.2
			c0,0.6,0.5,1.2,1.2,1.2c0.6,0,1.199-0.5,1.199-1.2C116.6,111.4,116,110.8,115.4,110.8z M73.6,110.8c-0.6,0-1.2,0.5-1.2,1.2
			c0,0.6,0.5,1.2,1.2,1.2c0.6,0,1.2-0.5,1.2-1.2C74.9,111.4,74.3,110.8,73.6,110.8z M98.7,102.5c-0.601,0-1.2,0.5-1.2,1.2
			c0,0.6,0.5,1.2,1.2,1.2c0.6,0,1.2-0.5,1.2-1.2S99.3,102.5,98.7,102.5z M90.3,94.1c-0.6,0-1.2,0.5-1.2,1.2s0.5,1.2,1.2,1.2
			c0.601,0,1.2-0.5,1.2-1.2S91,94.1,90.3,94.1z M73.6,94.1c-0.6,0-1.2,0.5-1.2,1.2s0.5,1.2,1.2,1.2c0.6,0,1.2-0.5,1.2-1.2
			S74.3,94.1,73.6,94.1z M115.4,85.8c-0.601,0-1.2,0.5-1.2,1.2s0.5,1.2,1.2,1.2c0.6,0,1.199-0.5,1.199-1.2S116,85.8,115.4,85.8z
			 M98.7,85.8c-0.601,0-1.2,0.5-1.2,1.2s0.5,1.2,1.2,1.2c0.6,0,1.2-0.5,1.2-1.2S99.3,85.8,98.7,85.8z M90.6,69.1
			c-0.6,0-1.199,0.5-1.199,1.2c0,0.6,0.5,1.2,1.199,1.2c0.601,0,1.2-0.5,1.2-1.2C91.8,69.6,91.3,69.1,90.6,69.1z M82,69.1
			c-0.6,0-1.2,0.5-1.2,1.2c0,0.6,0.5,1.2,1.2,1.2c0.6,0,1.2-0.5,1.2-1.2C83.2,69.6,82.6,69.1,82,69.1z M107,60.7
			c-0.6,0-1.2,0.5-1.2,1.2c0,0.7,0.5,1.2,1.2,1.2c0.6,0,1.2-0.5,1.2-1.2C108.2,61.2,107.7,60.7,107,60.7z M98.7,60.7
			c-0.601,0-1.2,0.5-1.2,1.2c0,0.7,0.5,1.2,1.2,1.2c0.6,0,1.2-0.5,1.2-1.2C99.9,61.2,99.3,60.7,98.7,60.7z M65.3,60.7
			c-0.6,0-1.2,0.5-1.2,1.2c0,0.7,0.5,1.2,1.2,1.2c0.6,0,1.2-0.5,1.2-1.2C66.5,61.3,66,60.7,65.3,60.7z"/>
		<path fill="#FF9933" d="M79.9,91.8c-2.2,0-3.9-1.8-3.9-3.9s1.8-3.9,3.9-3.9c0.4,0,0.8,0.1,1.2,0.2l6.4-6.4h14
			c0.7-1.2,2-2.1,3.5-2.1c2.2,0,3.9,1.8,3.9,3.9s-1.801,3.9-3.9,3.9c-1.5,0-2.8-0.8-3.5-2.1H89.1l-5.3,5.2c0.1,0.3,0.2,0.7,0.2,1.2
			c0,1.101-0.4,2.101-1.2,2.8C82,91.4,81,91.8,79.9,91.8z M79.9,87.7c-0.1,0-0.2,0.1-0.2,0.2s0.1,0.2,0.2,0.2s0.2-0.1,0.2-0.2
			C80.1,87.7,80.1,87.7,79.9,87.7z M105,79.3c-0.1,0-0.2,0.1-0.2,0.2s0.101,0.2,0.2,0.2s0.2-0.1,0.2-0.2S105.1,79.3,105,79.3z"/>
		<path fill="#FF9933" d="M79.9,90.8c-1.6,0-2.9-1.3-2.9-2.9s1.3-2.9,2.9-2.9c0.4,0,0.8,0.1,1.2,0.2l0.2,0.1l6.6-6.6h14.2l0.101-0.2
			c0.5-1.1,1.6-1.8,2.8-1.8c1.6,0,2.9,1.3,2.9,2.9s-1.301,2.9-2.9,2.9c-1.2,0-2.3-0.7-2.8-1.8l-0.101-0.2H88.7l-6.1,6l0.1,0.2
			c0.2,0.3,0.2,0.8,0.2,1.2C82.9,89.5,81.6,90.8,79.9,90.8z M79.9,86.7c-0.6,0-1.2,0.5-1.2,1.2s0.5,1.2,1.2,1.2
			c0.6,0,1.2-0.5,1.2-1.2S80.6,86.7,79.9,86.7z M105,78.3c-0.6,0-1.2,0.5-1.2,1.2s0.5,1.2,1.2,1.2c0.6,0,1.2-0.5,1.2-1.2
			S105.6,78.3,105,78.3z"/>
		<path fill="#FF9933" d="M106.9,116c-1.5,0-2.801-0.8-3.5-2.1H85.5c-0.7,1.199-2,2.1-3.5,2.1c-2.2,0-3.9-1.8-3.9-3.9
			c0-2.199,1.8-3.899,3.9-3.899c1.5,0,2.8,0.8,3.5,2.1h17.9c0.699-1.2,2-2.1,3.5-2.1c2.199,0,3.899,1.8,3.899,3.899
			C110.9,114.2,109.1,116,106.9,116z M106.9,111.8c-0.101,0-0.2,0.101-0.2,0.2s0.1,0.2,0.2,0.2c0.1,0,0.199-0.101,0.199-0.2
			S107,111.8,106.9,111.8z M82,111.8c-0.1,0-0.2,0.101-0.2,0.2s0.1,0.2,0.2,0.2s0.2-0.101,0.2-0.2S82.2,111.8,82,111.8z"/>
		<path fill="#FF9933" d="M106.9,115c-1.2,0-2.301-0.7-2.801-1.8L104,113H84.9l-0.1,0.2c-0.5,1.1-1.6,1.8-2.8,1.8
			c-1.6,0-2.9-1.3-2.9-2.9c0-1.6,1.3-2.899,2.9-2.899c1.2,0,2.3,0.7,2.8,1.8l0.1,0.2h19.2l0.101-0.2c0.5-1.1,1.6-1.8,2.8-1.8
			c1.6,0,2.9,1.3,2.9,2.899C109.9,113.7,108.6,115,106.9,115z M106.9,110.8c-0.601,0-1.2,0.5-1.2,1.2c0,0.6,0.5,1.2,1.2,1.2
			c0.6,0,1.199-0.5,1.199-1.2S107.6,110.8,106.9,110.8z M82,110.8c-0.6,0-1.2,0.5-1.2,1.2c0,0.6,0.5,1.2,1.2,1.2
			c0.6,0,1.2-0.5,1.2-1.2S82.7,110.8,82,110.8z"/>
		<path fill="#FF9933" d="M92.6,147.3v-16.7H88v16.7H75.9v-16.7h-4.6v16.7H59.2v-16.7H46.7v-12.5H30V106h16.7v-4.6H30V89.3h16.7
			v-4.6H30V72.6h16.7V68H30V55.9h16.7V43.4h12.5V26.6h12.1v16.7h4.6V26.6H88v16.7h4.6V26.6H104.7v16.7h4.6V26.6H121.4v16.7H134v12.5
			h16.7V68H134v4.6h16.7v12.1H134v4.6h16.7V101.4H134v4.6h16.7v12H134v12.6h-12.5v16.7h-12.1v-16.7H104.8v16.7H92.6z M117.7,143.5
			v-12.9H113.1v12.9H117.7z M101,143.5v-12.9h-4.6v12.9H101z M84.3,143.5v-12.9h-4.6v12.9H84.3z M67.6,143.5v-12.9H63v12.9H67.6z
			 M130.2,126.8V47.1H50.5v79.7H130.2z M146.9,114.3v-4.6H134v4.6H146.9z M46.7,114.3v-4.6H33.8v4.6H46.7z M146.9,97.6V93H134v4.6
			H146.9z M46.7,97.6V93H33.8v4.6H46.7z M146.9,80.9v-4.6H134v4.6H146.9z M46.7,80.9v-4.6H33.8v4.6H46.7z M146.9,64.2v-4.6H134v4.6
			H146.9z M46.7,64.2v-4.6H33.8v4.6H46.7z M117.7,43.4v-13H113.1v13H117.7z M101,43.4v-13h-4.6v13H101z M84.3,43.4v-13h-4.6v13H84.3
			z M67.6,43.4v-13H63v13H67.6z"/>
		<path fill="#FF9933" d="M110.3,146.3v-16.7h-6.6v16.7H93.6v-16.7H87v16.7H76.9v-16.7h-6.6v16.7H60.2v-16.7H47.7v-12.5H31V107h16.7
			v-6.6H31V90.3h16.7v-6.6H31V73.6h16.7V67H31V56.9h16.7V44.4h12.5V27.6h10.1v16.7h6.6V27.6H87v16.7h6.6V27.6H103.7v16.7h6.6V27.6
			H120.4v16.7H133v12.5h16.7V67H133v6.6h16.7v10.1H133v6.6h16.7V100.4H133v6.6h16.7v10H133v12.6h-12.5v16.7H110.3L110.3,146.3z
			 M112.1,144.5h6.601v-14.9H112.1V144.5z M95.4,144.5h6.6v-14.9h-6.6V144.5z M78.7,144.5h6.6v-14.9h-6.6V144.5z M62,144.5h6.6
			v-14.9H62V144.5z M49.5,127.8h81.7V46.1H49.5V127.8z M133,115.3h14.9v-6.6H133V115.3z M32.8,115.3h14.9v-6.6H32.8V115.3z
			 M133,98.6h14.9V92H133V98.6z M32.8,98.6h14.9V92H32.8V98.6z M133,81.9h14.9v-6.6H133V81.9z M32.8,81.9h14.9v-6.6H32.8V81.9z
			 M133,65.2h14.9v-6.6H133V65.2z M32.8,65.2h14.9v-6.6H32.8V65.2z M112.1,44.4h6.601v-15H112.1V44.4z M95.4,44.4h6.6v-15h-6.6V44.4
			z M78.7,44.4h6.6v-15h-6.6V44.4z M62,44.4h6.6v-15H62V44.4z"/>
	</g>
</g>
</svg>
