<?xml version="1.0" encoding="utf-8"?>
<!-- Generator: Adobe Illustrator 16.0.0, SVG Export Plug-In . SVG Version: 6.00 Build 0)  -->
<!DOCTYPE svg PUBLIC "-//W3C//DTD SVG 1.1//EN" "http://www.w3.org/Graphics/SVG/1.1/DTD/svg11.dtd">
<svg version="1.1" id="Layer_1" xmlns="http://www.w3.org/2000/svg" xmlns:xlink="http://www.w3.org/1999/xlink" x="0px" y="0px"
	 width="292.67px" height="193.605px" viewBox="0 0 292.67 193.605" enable-background="new 0 0 292.67 193.605"
	 xml:space="preserve">
<g>
	<defs>
		<rect id="SVGID_1_" width="292.67" height="193.605"/>
	</defs>
	<clipPath id="SVGID_2_">
		<use xlink:href="#SVGID_1_"  overflow="visible"/>
	</clipPath>
	<path clip-path="url(#SVGID_2_)" fill="#127CC1" d="M291.384,54.984c-13.78-67.174-143.762-71.428-227.549-20.25v5.652
		C147.512-2.806,266.244-2.531,277.05,59.347c3.641,20.499-7.826,41.819-28.386,54.086v16.054
		C273.414,120.405,298.713,91.014,291.384,54.984 M139.022,172.596c-57.824,5.352-118.073-3.072-126.508-48.434
		c-4.189-22.336,6.009-46.044,19.46-60.753v-7.875C7.72,76.883-5.456,103.886,2.151,135.77
		c9.702,40.915,61.407,64.075,140.344,56.364c31.254-3.019,72.157-13.116,100.543-28.783v-22.257
		C217.241,156.542,174.575,169.306,139.022,172.596"/>
	<path clip-path="url(#SVGID_2_)" fill="#127CC1" d="M238.408,45.273H223.25v67.813c0,7.965,3.804,14.892,15.158,15.989"/>
	<path clip-path="url(#SVGID_2_)" fill="#127CC1" d="M57.826,70.056H42.667v44.291c0,7.968,3.804,14.892,15.159,15.99"/>
	<rect x="42.667" y="47.334" clip-path="url(#SVGID_2_)" fill="#127CC1" width="15.159" height="14.426"/>
	<path clip-path="url(#SVGID_2_)" fill="#127CC1" d="M148.668,129.625c-12.291,0-17.473-8.574-17.473-17.036V53.763h14.994v16.293
		h11.354v12.199h-11.354v29.427c0,3.46,1.653,5.358,5.235,5.358h6.119v12.584H148.668"/>
	<path clip-path="url(#SVGID_2_)" fill="#127CC1" d="M188.522,81.515c-5.126,0-9.093,2.664-10.748,6.264
		c-0.992,2.17-1.323,3.819-1.487,6.486h23.207C199.163,87.751,196.239,81.515,188.522,81.515 M176.287,104.54
		c0,7.721,4.849,13.406,13.337,13.406c6.673,0,9.979-1.868,13.837-5.685l9.263,8.93c-5.954,5.878-12.184,9.45-23.207,9.45
		c-14.386,0-28.168-7.886-28.168-30.856c0-19.644,12.016-30.744,27.837-30.744c16.041,0,25.245,12.996,25.245,30.059v5.441
		L176.287,104.54"/>
	<path clip-path="url(#SVGID_2_)" fill="#127CC1" d="M98.673,82.255c4.409,0,6.229,2.171,6.229,5.715v41.736h15.049v-41.79
		c0-8.491-4.521-17.861-17.695-17.861H71.222v59.65h14.993V82.254"/>
	<g clip-path="url(#SVGID_2_)" enable-background="new    ">
		<g>
			<defs>
				<rect id="SVGID_3_" x="246.993" y="43.271" width="10.47" height="16.425"/>
			</defs>
			<clipPath id="SVGID_4_">
				<use xlink:href="#SVGID_3_"  overflow="visible"/>
			</clipPath>
			<g clip-path="url(#SVGID_4_)" enable-background="new    ">
				<g>
					<defs>
						<rect id="SVGID_5_" x="246.993" y="43.271" width="10.47" height="16.425"/>
					</defs>
					<clipPath id="SVGID_6_">
						<use xlink:href="#SVGID_5_"  overflow="visible"/>
					</clipPath>
					<g clip-path="url(#SVGID_6_)">
						<text transform="matrix(1.0217 0 0 1 246.9941 55.187)" fill="#127CC1" font-family="'ArialMT'" font-size="13.8854">®</text>
					</g>
				</g>
			</g>
		</g>
	</g>
</g>
</svg>
