<?xml version="1.0" encoding="utf-8"?>
<!-- Generator: Adobe Illustrator 16.0.0, SVG Export Plug-In . SVG Version: 6.00 Build 0)  -->
<!DOCTYPE svg PUBLIC "-//W3C//DTD SVG 1.1//EN" "http://www.w3.org/Graphics/SVG/1.1/DTD/svg11.dtd">
<svg version="1.1" id="Layer_1" xmlns="http://www.w3.org/2000/svg" xmlns:xlink="http://www.w3.org/1999/xlink" x="0px" y="0px"
	 width="175px" height="175px" viewBox="0 0 175 175" enable-background="new 0 0 175 175" xml:space="preserve">
<g id="Isolation_Mode">
	<path fill="#FF9933" d="M50.6,143.3c-0.5,0-1.1,0-1.7,0s-1.2,0-1.7,0c-0.4,0-0.8,0-1.1,0c-22,0-40-17.899-40-40
		c0-10.5,4.1-20.5,11.4-28c7.1-7.2,16.4-11.4,26.3-11.9c1.6-7.9,5.6-15.2,11.4-20.8c7.5-7.3,17.4-11.3,27.8-11.3
		c6.9,0,13.7,1.8,19.7,5.2c3.399,1.4,6.6,3.3,9.399,5.5c3.801-1.5,7.9-2.2,12-2.2c18.301,0,33.2,14.9,33.2,33.2c0,0.6,0,1.2,0,1.7
		c5.5,3.9,9.9,8.6,13,14.1c4.5,7.9,4.8,14.7,4.8,16.7c0.601,17.8-8.899,27.3-17,32c-7,4.2-14.1,5.4-16.899,5.8l-0.7,0.101H57.3
		c-0.3,0-0.5,0-0.8,0c-0.6,0-1.5,0-2.4,0C53,143.3,51.7,143.3,50.6,143.3L50.6,143.3z M45.3,66.8C25.6,67.2,9.6,83.6,9.6,103.3
		c0,20.101,16.4,36.5,36.5,36.5c0.4,0,1,0,1.6,0c0.9,0,1.9,0,2.9,0c1.8,0,4.4-0.1,5.9-0.1H141h0.1c2.5-0.3,9.101-1.5,15.4-5.3
		c7.3-4.301,15.8-12.9,15.2-29c0-2.2-0.4-8.101-4.4-15c-3.1-5.3-7.399-9.9-12.8-13.5l-0.9-0.6l0.101-1c0-0.7,0.1-1.6,0.1-2.4
		c0-16.4-13.3-29.7-29.7-29.7c-3.899,0-7.899,0.8-11.6,2.3l-1,0.4l-0.8-0.7c-2.8-2.3-6-4.2-9.5-5.6l-0.2-0.1l-0.1-0.1
		c-5.5-3.1-11.801-4.8-18-4.8c-9.5,0-18.6,3.7-25.4,10.3c-5.6,5.5-9.4,12.7-10.6,20.4l-0.3,1.4h-1.3V66.8z"/>
	<path fill="#FF9933" d="M46.1,142.3c-21.5,0-39-17.5-39-39c0-10.3,4-20,11.1-27.3c7.1-7.2,16.5-11.3,26.5-11.7
		c1.4-8,5.4-15.4,11.3-21.1c7.3-7.1,17-11,27.1-11c6.8,0,13.4,1.7,19.2,5.1c3.4,1.4,6.7,3.3,9.7,5.7c3.8-1.6,8-2.4,12.1-2.4
		c17.801,0,32.2,14.4,32.2,32.2c0,0.8,0,1.5-0.1,2.3c5.6,3.8,10.1,8.5,13.2,14.1c4.199,7.3,4.699,13.7,4.699,16.2
		c0.601,17.3-8.6,26.5-16.5,31.1c-8.1,4.8-16.3,5.6-16.6,5.7l-0.5,0.1H57.3c-1.1-0.1-4.1,0.101-6.7,0.101
		C49,142.3,47.1,142.3,46.1,142.3z M83.1,33.7c-9.8,0-19.1,3.8-26.1,10.6c-5.8,5.6-9.6,13-10.9,20.9L46,65.8h-0.6
		C25.1,66.2,8.6,83.1,8.6,103.3c0,20.7,16.8,37.5,37.5,37.5c0.9,0,2.8-0.1,4.5-0.1c2.1-0.101,4.5-0.101,5.9-0.101c0.3,0,0.6,0,0.9,0
		h0.1h83.2h0.399c0.301-0.1,8.2-0.8,16-5.399c7.5-4.4,16.301-13.2,15.7-29.9c0-2.3-0.5-8.399-4.5-15.5c-3.1-5.4-7.5-10.1-13.1-13.9
		l-0.3-0.2l0.1-0.4c0.1-0.9,0.1-1.7,0.1-2.5c0-17-13.8-30.7-30.699-30.7c-4,0-8.2,0.9-12,2.4l-0.4,0.2l-0.3-0.3
		c-3-2.4-6.3-4.3-9.8-5.8l-0.101-0.1C96,35.3,89.6,33.7,83.1,33.7z"/>
	<path fill="#FF9933" d="M50.3,136.4c-18.5,0-33.6-15.101-33.6-33.601s15.1-33.6,33.6-33.6h0.2c1-7.4,4.5-14.4,9.9-19.6
		c6.3-6.1,14.6-9.5,23.4-9.5c5.8,0,11.601,1.5,16.601,4.4c3.399,1.4,6.5,3.3,9.3,5.6c3.5-1.6,7.399-2.4,11.3-2.4
		c15.1,0,27.4,12.3,27.4,27.4c0,1.1,0,2-0.101,2.9c5.3,3.4,9.4,7.7,12.3,12.8c3.601,6.3,4,11.8,4,13.8
		c0.5,14.9-7.399,22.7-14.1,26.601c-5.9,3.5-11.9,4.6-14.2,4.899h-0.2H59.6c-1.4,0-3.7,0.101-5.4,0.101c-0.6,0-1.1,0-1.6,0
		c-0.6,0-1.1,0-1.6,0C50.8,136.4,50.5,136.4,50.3,136.4z M50.3,72.3c-16.8,0-30.4,13.7-30.4,30.4c0,16.8,13.7,30.399,30.4,30.399
		c0.3,0,0.8,0,1.3,0c0.8,0,1.7,0,2.7,0c2-0.1,4.2-0.1,5.5-0.1H136c0,0,6.5-0.6,12.9-4.4c5.899-3.5,12.899-10.5,12.5-23.899
		c0-1.8-0.4-6.7-3.601-12.3c-2.7-4.8-6.8-8.9-12-12.2l-0.899-0.5l0.1-1c0.2-1.3,0.3-2.5,0.3-3.5c0-13.4-10.899-24.3-24.3-24.3
		c-3.8,0-7.5,0.9-10.8,2.5l-1,0.5l-0.8-0.8c-2.801-2.5-6-4.4-9.301-5.7L99,47.3c-4.7-2.7-9.9-4.1-15.2-4.1c-7.9,0-15.4,3-21.2,8.6
		c-5.2,5.1-8.5,11.9-9.1,19.1l-0.1,1.5h-1.5c-0.3,0-0.6,0-0.8,0C50.8,72.3,50.5,72.3,50.3,72.3z"/>
</g>
<g id="Ñëîé_1">
</g>
<g id="_xB9_Ï_xBC_h_x5F_1">
</g>
<g id="Layer_1_1_">
</g>
</svg>
