<?xml version="1.0" encoding="utf-8"?>
<!-- Generator: Adobe Illustrator 16.0.0, SVG Export Plug-In . SVG Version: 6.00 Build 0)  -->
<!DOCTYPE svg PUBLIC "-//W3C//DTD SVG 1.1//EN" "http://www.w3.org/Graphics/SVG/1.1/DTD/svg11.dtd">
<svg version="1.1" id="Layer_1" xmlns="http://www.w3.org/2000/svg" xmlns:xlink="http://www.w3.org/1999/xlink" x="0px" y="0px"
	 width="347.504px" height="227.278px" viewBox="0 0 347.504 227.278" enable-background="new 0 0 347.504 227.278"
	 xml:space="preserve">
<g>
	<defs>
		<rect id="SVGID_1_" width="347.504" height="227.278"/>
	</defs>
	<clipPath id="SVGID_2_">
		<use xlink:href="#SVGID_1_"  overflow="visible"/>
	</clipPath>
	<path clip-path="url(#SVGID_2_)" fill="#86BC76" d="M208.855,227.278c-2.487-0.362-4.982-0.671-7.459-1.094
		c-7.869-1.343-15.467-3.717-23.043-6.165c-0.986-0.319-2.013-0.586-2.917-1.071c-3.482-1.869-4.677-6.301-2.511-9.599
		c0.911-1.387,2.086-2.631,3.284-3.792c4.257-4.125,8.497-8.28,11.882-13.159c2.958-4.267,5.631-8.732,8.397-13.13
		c6.68-10.614,14.995-19.611,25.838-26.091c5.671-3.391,11.729-5.807,18.405-5.968c8.156-0.195,14.565,3.103,18.786,10.258
		c0.284,0.48,0.541,0.978,0.813,1.465c0.016,0.026,0.065,0.034,0.256,0.125c-0.341-7.407-1.349-14.477-6.863-19.998
		c-3.2-3.203-7.256-4.593-11.639-5.122c-8.911-1.074-17.332,0.99-25.534,4.208c-10.632,4.171-20.129,10.203-28.267,18.189
		c-7.072,6.943-13.76,14.277-20.736,21.32c-6.47,6.531-12.933,13.085-19.706,19.294c-5.354,4.907-11.021,9.507-16.826,13.876
		c-6.516,4.905-13.588,8.995-21.647,10.807c-9.408,2.114-18.723,1.644-27.573-2.479c-9.216-4.294-14.537-11.865-17.186-21.473
		c-1.174-4.258-1.635-8.617-1.749-13.04c-0.259-10.054,1.297-19.754,5.266-29.027c4.441-10.376,11.03-19.154,19.686-26.382
		c6.175-5.155,12.982-9.202,20.73-11.514c5.645-1.686,11.418-2.232,17.31-1.905c10.368,0.576,20.243,3.346,30.048,6.486
		c1.104,0.353,2.199,0.743,3.316,1.048c5.694,1.553,7.483,7.329,3.612,11.811c-0.965,1.117-2.031,2.156-3.114,3.161
		c-7.786,7.227-13.842,15.741-19.193,24.883c-6.614,11.299-15.458,20.557-26.887,27.14c-5.789,3.335-11.935,5.641-18.759,5.52
		c-8.056-0.143-14.043-3.771-17.999-10.778c-0.156-0.275-0.306-0.554-0.752-0.797c0.085,1.222,0.151,2.444,0.257,3.663
		c0.323,3.694,1.125,7.278,2.718,10.639c2.895,6.11,7.888,9.364,14.44,10.43c7.228,1.174,14.171,0.042,20.927-2.597
		c10.168-3.97,19.2-9.846,27.605-16.701c4.147-3.383,8.185-6.929,12.005-10.671c4.882-4.783,9.48-9.854,14.224-14.777
		c5.161-5.356,10.236-10.8,15.548-16.002c9.046-8.859,18.985-16.548,30.391-22.199c7.116-3.527,14.593-5.771,22.584-5.768
		c9.398,0.003,18.189,2.024,25.457,8.498c4.13,3.678,6.949,8.236,8.799,13.396c2.665,7.433,3.152,15.13,2.671,22.948
		c-0.388,6.307-1.512,12.455-3.636,18.411c-4.078,11.434-10.736,21.111-19.836,29.129c-5.882,5.181-12.37,9.407-19.824,11.901
		c-3.388,1.135-6.979,1.664-10.478,2.468c-0.347,0.079-0.694,0.15-1.042,0.227H208.855z M82.359,156.819
		c5.853-6.285,12.639-11.288,20.338-15.038c7.72-3.762,15.866-6.208,24.371-7.315c3.146-0.409,6.376-0.492,9.544-0.313
		c2.581,0.146,3.263,1.917,1.924,4.16c-0.301,0.503-0.727,0.957-1.176,1.34c-1.544,1.319-3.407,1.948-5.38,2.156
		c-4.8,0.507-9.274,2.049-13.596,4.11c-7.791,3.718-14.743,8.666-21.056,14.516c-3.349,3.103-6.531,6.399-8.731,10.45
		c-0.701,1.291-1.481,2.963-1.231,4.271c1.017,5.325,3.927,7.992,9.348,7.363c5.204-0.604,9.668-3.025,13.861-5.948
		c7.899-5.508,14.155-12.566,18.973-20.874c4.044-6.973,8.454-13.668,13.866-19.669c0.81-0.897,1.605-1.81,2.472-2.79
		c-0.365-0.167-0.535-0.271-0.719-0.325c-7.987-2.268-16.034-4.104-24.428-3.808c-5.216,0.184-10.094,1.543-14.698,3.949
		c-5.985,3.127-11.172,7.294-15.71,12.269C87.168,148.79,84.464,152.595,82.359,156.819 M190.934,209.731
		c0.208,0.186,0.283,0.298,0.385,0.337c0.374,0.14,0.752,0.271,1.136,0.378c5.98,1.658,12.005,3.038,18.228,3.479
		c6.427,0.456,12.605-0.338,18.456-3.148c8.971-4.308,16.119-10.745,21.857-18.805c1.05-1.475,1.949-3.057,2.917-4.588
		c-0.474,0.075-0.737,0.301-0.979,0.548c-8.749,8.988-19.283,15.078-31.072,19.122c-5.827,1.998-11.864,2.951-17.984,3.382
		c-1.579,0.111-3.205,0.022-4.771-0.226c-2.086-0.329-2.828-1.727-1.809-3.576c0.582-1.06,1.554-2.131,2.616-2.646
		c1.661-0.803,3.518-1.383,5.348-1.626c4.913-0.653,9.49-2.265,13.843-4.521c9.398-4.874,17.663-11.254,24.584-19.275
		c1.889-2.189,3.443-4.696,4.957-7.176c2.522-4.131-1.613-11.091-6.875-10.896c-4.358,0.162-8.227,1.571-11.896,3.679
		c-9.492,5.449-16.712,13.225-22.274,22.529c-3.845,6.431-7.771,12.777-12.652,18.483
		C193.652,206.698,192.313,208.171,190.934,209.731"/>
	<path clip-path="url(#SVGID_2_)" fill="#86BC76" d="M270.785,52.719c0,1.275-0.016,2.549,0.006,3.824
		c0.012,0.753-0.304,1.094-1.071,1.083c-1.599-0.021-3.199-0.021-4.798,0.002c-0.753,0.011-1.125-0.292-1.094-1.059
		c0.013-0.32-0.005-0.64-0.005-0.96c0-17.675,0-35.35,0-53.026c0.001-2.097,0.003-2.098,2.133-2.099
		c1.159-0.001,2.321,0.049,3.478-0.014c1.064-0.057,1.377,0.392,1.372,1.412c-0.033,5.999-0.016,11.997-0.016,17.995
		c0,0.436,0,0.871,0,1.303c0.164,0.012,0.283,0.047,0.302,0.019c2.291-3.683,5.871-5.176,9.938-5.696
		c5.079-0.649,9.894,0.055,14.13,3.216c2.838,2.118,4.857,4.871,6.078,8.161c2.772,7.469,2.69,14.924-0.765,22.139
		c-3.407,7.113-10.749,10.168-18.038,9.403c-4.533-0.475-8.534-2.028-11.386-5.858C270.962,52.616,270.874,52.667,270.785,52.719
		 M295.778,36.333c-0.07-0.733-0.129-1.933-0.318-3.111c-0.171-1.061-0.427-2.118-0.749-3.143c-1.668-5.302-5.849-8.51-11.251-8.682
		c-5.428-0.172-9.729,2.727-11.66,8.045c-1.452,3.996-1.599,8.116-0.771,12.286c1.16,5.834,4.926,10.373,11.578,10.717
		c4.031,0.208,7.509-0.914,10.001-4.285C295.105,44.78,295.63,40.843,295.778,36.333"/>
	<path clip-path="url(#SVGID_2_)" fill="#86BC76" d="M119.876,52.506c-2.96,3.251-6.38,4.996-10.366,5.692
		c-2.912,0.508-5.807,0.453-8.698-0.136c-6.283-1.278-9.777-6.277-9.026-12.671c0.599-5.097,3.445-8.337,8.186-9.718
		c3.666-1.068,7.497-1.574,11.254-2.33c1.682-0.338,3.42-0.513,5.035-1.053c3.558-1.19,4.62-5.46,2.021-8.212
		c-0.864-0.915-2.077-1.707-3.276-2.062c-3.334-0.986-6.711-0.811-10.029,0.292c-2.723,0.905-4.213,2.826-4.542,5.617
		c-0.12,1.019-0.509,1.392-1.51,1.354c-1.438-0.054-2.88-0.046-4.318-0.004c-0.965,0.028-1.289-0.396-1.188-1.309
		c0.559-5.056,3.007-8.787,7.707-10.888c4.34-1.941,8.934-1.964,13.551-1.607c1.269,0.099,2.546,0.312,3.777,0.633
		c5.202,1.354,8.039,4.981,8.067,10.357c0.039,7.318,0.011,14.637,0.02,21.955c0.001,0.718,0.005,1.445,0.114,2.152
		c0.254,1.641,0.945,2.11,2.572,1.843c1.434-0.236,1.436-0.236,1.442,1.255c0.004,0.92-0.04,1.842,0.011,2.759
		c0.048,0.876-0.367,1.337-1.151,1.574c-1.95,0.591-3.923,0.806-5.907,0.227c-2.116-0.617-3.193-2.147-3.545-4.256
		C120.014,53.59,119.972,53.208,119.876,52.506 M119.435,36.94c-2.272,0.487-4.473,1.014-6.696,1.419
		c-1.846,0.336-3.757,0.371-5.568,0.826c-1.873,0.47-3.802,1.042-5.451,2.007c-2.49,1.456-2.935,4.015-2.417,6.643
		c0.472,2.402,2.187,3.854,4.541,4.211c1.95,0.295,3.978,0.365,5.944,0.204c4.867-0.396,9.021-3.792,9.588-8.01
		C119.702,41.816,119.435,39.313,119.435,36.94"/>
	<path clip-path="url(#SVGID_2_)" fill="#86BC76" d="M253.482,52.188c0,1.711,0.056,3.223-0.041,4.725
		c-0.022,0.35-0.501,0.838-0.872,0.969c-2.035,0.718-4.129,0.984-6.235,0.317c-1.833-0.58-2.927-1.876-3.379-3.726
		c-0.13-0.531-0.219-1.073-0.357-1.765c-0.361,0.297-0.615,0.471-0.829,0.684c-4.296,4.279-9.635,5.449-15.437,5.047
		c-1.615-0.112-3.253-0.478-4.793-0.99c-4.204-1.398-6.784-5.106-6.961-9.534c-0.149-3.723,0.575-7.084,3.465-9.693
		c1.897-1.714,4.201-2.656,6.645-3.155c3.639-0.742,7.313-1.3,10.97-1.957c0.98-0.176,1.965-0.375,2.922-0.652
		c4.071-1.178,5.286-5.592,2.295-8.647c-0.825-0.842-2.007-1.517-3.146-1.835c-3.307-0.924-6.641-0.761-9.92,0.312
		c-2.666,0.873-4.201,2.704-4.548,5.465c-0.142,1.126-0.566,1.619-1.757,1.536c-1.353-0.094-2.719-0.062-4.077-0.01
		c-1.022,0.039-1.296-0.345-1.19-1.357c0.548-5.25,3.143-9.075,8.064-10.976c5.855-2.261,11.914-2.309,17.89-0.5
		c4.668,1.413,7.002,4.84,7.023,9.727c0.027,6.118-0.008,12.236,0.018,18.354c0.009,1.956,0.101,3.913,0.196,5.868
		c0.082,1.658,0.868,2.256,2.532,2.008C252.386,52.339,252.813,52.283,253.482,52.188 M242.122,37.091
		c-3.021,0.531-5.949,1.078-8.89,1.552c-2.718,0.439-5.492,0.623-7.976,1.993c-2.484,1.371-3.724,3.776-3.339,6.496
		c0.377,2.668,1.939,4.293,4.813,4.971c2.586,0.61,5.185,0.513,7.705-0.229c3.715-1.094,6.877-3.091,7.603-7.166
		C242.49,42.164,242.122,39.474,242.122,37.091"/>
	<path clip-path="url(#SVGID_2_)" fill="#86BC76" d="M67.613,39.111c-4.558,0-9.116-0.003-13.674,0.002
		c-1.538,0.002-1.607,0.084-1.573,1.647c0.135,6.269,4.647,11.119,10.917,11.538c1.844,0.123,3.766,0.02,5.567-0.37
		c3.318-0.718,5.448-2.933,6.427-6.156c0.331-1.088,0.855-1.477,1.96-1.401c1.233,0.086,2.477,0.013,3.717,0.022
		c1.479,0.012,1.577,0.15,1.205,1.63c-1.722,6.862-6.749,11.333-13.768,12.273c-3.616,0.485-7.19,0.342-10.668-0.8
		c-5.091-1.671-8.718-5.033-10.653-10.001c-2.663-6.837-3.176-13.815-0.12-20.663c3.149-7.054,8.614-10.998,16.451-11.511
		c10.323-0.676,16.723,6.19,18.773,14.579c0.619,2.535,0.657,5.213,0.963,7.825c0.121,1.035-0.327,1.409-1.37,1.401
		C77.049,39.089,72.332,39.11,67.613,39.111 M64.1,32.884c3.476,0,6.952-0.033,10.426,0.02c1.064,0.016,1.306-0.357,1.124-1.342
		c-0.445-2.414-1.343-4.619-3.048-6.4c-3.427-3.577-7.621-4.599-12.288-3.161c-4.59,1.414-6.902,4.906-7.856,9.444
		c-0.215,1.026,0.11,1.467,1.216,1.454C57.148,32.857,60.624,32.883,64.1,32.884"/>
	<path clip-path="url(#SVGID_2_)" fill="#86BC76" d="M329.181,15.346c4.082,0.03,8.082,0.419,11.558,2.876
		c3.19,2.255,4.468,5.531,4.814,9.256c0.024,0.256-0.525,0.801-0.826,0.815c-1.716,0.078-3.438,0.066-5.156,0.007
		c-0.305-0.01-0.813-0.345-0.864-0.603c-0.966-4.771-4.585-5.902-8.665-6.246c-2.445-0.206-4.876,0.095-7.104,1.295
		c-3.063,1.65-3.335,5.427-0.394,7.303c1.458,0.93,3.132,1.626,4.802,2.097c3.306,0.932,6.691,1.583,10.017,2.45
		c2.53,0.659,4.869,1.717,6.925,3.429c4.594,3.827,3.819,11.713,0.5,15.328c-2.89,3.145-6.608,4.368-10.652,4.918
		c-3.555,0.484-7.092,0.342-10.61-0.405c-6.453-1.372-10.203-5.359-11.123-11.888c-0.182-1.293-0.006-1.535,1.242-1.553
		c1.48-0.021,2.964-0.066,4.438,0.038c0.416,0.029,1.095,0.492,1.15,0.837c0.696,4.269,3.535,6.146,7.46,6.836
		c3.236,0.569,6.457,0.509,9.583-0.592c2.638-0.93,3.914-2.762,3.854-5.308c-0.04-1.681-0.663-3.126-2.185-3.878
		c-1.778-0.881-3.628-1.689-5.529-2.239c-2.685-0.775-5.488-1.144-8.161-1.952c-2.238-0.677-4.473-1.535-6.515-2.662
		c-6.118-3.377-5.464-11.97-1.779-15.606c3.1-3.061,6.912-4.169,11.063-4.544C327.735,15.291,328.461,15.346,329.181,15.346"/>
	<path clip-path="url(#SVGID_2_)" fill="#86BC76" d="M169.507,29.071c0-8.918-0.001-17.836,0.001-26.754
		c0-1.793,0.038-1.828,1.798-1.832c1.56-0.004,3.12,0.03,4.679-0.01c0.937-0.024,1.267,0.363,1.255,1.284
		c-0.036,2.839-0.012,5.678-0.012,8.518c0,13.037,0,26.074,0.001,39.111c0,1.716,0.005,1.72,1.733,1.72
		c8.918,0.002,17.836,0,26.754,0.002c1.716,0,1.717,0.006,1.722,1.749c0.002,1,0.002,2,0,2.999
		c-0.005,1.762-0.006,1.765-1.825,1.766c-4.039,0.002-8.078,0.001-12.116,0.001c-7.438,0-14.878,0.001-22.315-0.001
		c-1.645-0.001-1.672-0.027-1.673-1.679C169.505,46.987,169.507,38.029,169.507,29.071"/>
	<path clip-path="url(#SVGID_2_)" fill="#86BC76" d="M0,29.021C0,20.102,0,11.183,0.001,2.263c0-1.773,0.005-1.775,1.821-1.778
		c1.56-0.002,3.12,0.022,4.679-0.004c0.865-0.015,1.244,0.351,1.223,1.216c-0.026,1.039-0.003,2.08-0.003,3.12
		c0.001,14.799,0,29.598,0.001,44.398c0,1.892,0.003,1.894,1.933,1.894c8.8,0.001,17.6,0,26.399,0.002
		c1.718,0,1.719,0.007,1.724,1.749c0.003,1,0.003,2,0,3c-0.005,1.761-0.006,1.764-1.828,1.765c-3.88,0.002-7.76,0.001-11.64,0.001
		c-7.559,0-15.119,0.001-22.679-0.002c-1.587-0.001-1.629-0.041-1.629-1.603C-0.001,47.021,0,38.021,0,29.021"/>
	<path clip-path="url(#SVGID_2_)" fill="#86BC76" d="M150.559,39.956c0,5.358,0.003,10.716-0.002,16.074
		c-0.001,1.56-0.036,1.588-1.634,1.594c-1.32,0.005-2.642-0.049-3.958,0.016c-1.055,0.053-1.394-0.366-1.389-1.395
		c0.032-5.758,0.015-11.516,0.015-17.274c-0.001-5.038-0.028-10.077,0.02-15.115c0.01-1.136-0.334-1.586-1.502-1.522
		c-1.435,0.079-2.879-0.006-4.317,0.026c-0.816,0.018-1.171-0.313-1.155-1.13c0.024-1.279,0.024-2.559,0-3.838
		c-0.016-0.829,0.367-1.133,1.17-1.115c1.359,0.031,2.719,0.009,4.078,0.006c1.7-0.005,1.684-0.007,1.71-1.759
		c0.027-1.877,0.026-3.757,0.145-5.629c0.345-5.411,3.911-8.367,9.01-8.838c1.85-0.17,3.741,0.084,5.612,0.177
		c0.904,0.046,1.346,0.514,1.3,1.483c-0.058,1.236-0.027,2.478-0.012,3.718c0.009,0.778-0.265,0.999-1.094,0.92
		c-1.537-0.146-3.114-0.286-4.633-0.098c-2.217,0.274-3.197,1.458-3.32,3.716c-0.095,1.755-0.016,3.518-0.047,5.277
		c-0.014,0.793,0.365,1.046,1.103,1.038c1.839-0.021,3.679,0.029,5.517-0.016c0.969-0.024,1.393,0.315,1.345,1.316
		c-0.054,1.158-0.055,2.321,0,3.478c0.049,1.018-0.408,1.325-1.361,1.299c-1.678-0.046-3.362,0.052-5.037-0.033
		c-1.194-0.061-1.603,0.315-1.589,1.55C150.593,29.239,150.559,34.598,150.559,39.956"/>
	<path clip-path="url(#SVGID_2_)" fill="#86BC76" d="M60.246,83.708c1.585-1.687,3.372-2.313,5.516-1.874
		c1.783,0.365,2.861,1.247,2.968,3.101c0.182,3.146,0.125,6.305,0.163,9.458c0.011,0.853-0.564,0.915-1.221,0.921
		c-0.707,0.007-1.153-0.189-1.148-1.003c0.013-2.277,0-4.555-0.002-6.832c-0.001-0.28,0.002-0.56-0.004-0.839
		c-0.044-1.988-0.767-2.84-2.432-2.866c-1.865-0.03-3.263,1.136-3.306,2.886c-0.059,2.396-0.032,4.795-0.022,7.192
		c0.004,0.831-0.041,1.48-1.178,1.481c-1.099,0.001-1.229-0.568-1.22-1.44c0.026-2.318,0.015-4.635,0.006-6.953
		c-0.009-2.188-0.664-3.097-2.25-3.163c-1.815-0.075-3.432,1.356-3.488,3.226c-0.069,2.316-0.06,4.635-0.013,6.952
		c0.021,1.051-0.374,1.439-1.412,1.365c-0.721-0.051-0.987-0.37-0.986-1.05c0.007-3.716,0.006-7.432,0-11.148
		c-0.001-0.652,0.201-1.02,0.946-1.088c1.067-0.098,1.281,0.53,1.291,1.095c1.336-0.475,2.647-1.189,4.027-1.365
		C57.959,81.575,59.43,82.041,60.246,83.708"/>
	<path clip-path="url(#SVGID_2_)" fill="#86BC76" d="M130.609,83.382c0-1.871,0.02-3.5-0.009-5.128
		c-0.014-0.821,0.221-1.253,1.147-1.265c0.955-0.013,1.259,0.379,1.255,1.285c-0.021,5.158-0.001,10.316-0.02,15.474
		c-0.002,0.582,0.262,1.41-0.702,1.521c-0.816,0.094-1.798,0.311-1.729-1.119c-2.365,1.743-4.812,2.02-7.19,0.647
		c-2.783-1.608-3.291-4.385-2.996-7.319C120.925,81.898,126.56,80.112,130.609,83.382 M130.681,89.044
		c-0.06-0.831-0.052-1.356-0.142-1.865c-0.364-2.055-1.806-3.35-3.747-3.404c-2.002-0.055-3.389,0.943-3.752,3.119
		c-0.222,1.328-0.132,2.784,0.166,4.104c0.37,1.636,1.846,2.559,3.496,2.583c1.687,0.024,2.982-0.837,3.561-2.499
		C130.522,90.341,130.586,89.532,130.681,89.044"/>
	<path clip-path="url(#SVGID_2_)" fill="#86BC76" d="M75.654,83.259c2.453-1.779,5.219-2.047,7.273-0.737
		c2.711,1.729,3.266,4.412,2.985,7.348c-0.54,5.663-6.229,7.238-9.978,4.334c-0.305,0.36-0.543,0.905-0.925,1.039
		c-1.166,0.407-1.734-0.049-1.736-1.289c-0.01-5.198,0.002-10.396-0.011-15.595c-0.003-0.825,0.132-1.362,1.164-1.375
		c1.085-0.013,1.256,0.537,1.237,1.425C75.63,79.963,75.654,81.519,75.654,83.259 M83.688,88.643
		c-0.26-0.956-0.393-1.882-0.761-2.702c-0.645-1.435-1.848-2.161-3.434-2.159c-1.538,0.002-2.718,0.684-3.327,2.107
		c-0.824,1.923-0.835,3.893,0.104,5.784c0.692,1.394,1.941,1.941,3.458,1.908c1.493-0.033,2.645-0.674,3.194-2.086
		C83.277,90.581,83.44,89.591,83.688,88.643"/>
	<path clip-path="url(#SVGID_2_)" fill="#86BC76" d="M114.259,83.453c0-1.878,0.011-3.461-0.004-5.043
		c-0.008-0.785,0.04-1.415,1.111-1.418c1.057-0.003,1.131,0.596,1.129,1.398c-0.011,5.155,0,10.311-0.012,15.467
		c-0.002,0.602,0.183,1.345-0.806,1.443c-0.866,0.086-1.523-0.07-1.484-1.427c-1.315,1.49-2.803,1.722-4.409,1.703
		c-2.379-0.029-4.078-1.159-5.064-3.225c-1.097-2.301-1.158-4.745-0.161-7.1c1.506-3.559,5.802-4.669,8.935-2.388
		C113.652,82.978,113.805,83.102,114.259,83.453 M114.406,88.753c-0.189-0.849-0.287-1.732-0.586-2.54
		c-0.652-1.762-2.333-2.677-4.195-2.399c-2.201,0.329-3.363,2.25-3.241,5.36c0.1,2.548,1.544,4.279,3.671,4.402
		C112.626,93.727,114.277,91.854,114.406,88.753"/>
	<path clip-path="url(#SVGID_2_)" fill="#86BC76" d="M162.029,83.358c0-1.872,0.014-3.506-0.006-5.14
		c-0.009-0.749,0.178-1.209,1.062-1.222c0.897-0.012,1.186,0.371,1.183,1.224c-0.019,5.236-0.005,10.473-0.015,15.709
		c-0.001,0.572,0.148,1.284-0.761,1.357c-0.809,0.065-1.624,0.111-1.454-1.484c-1.335,1.485-2.758,1.796-4.324,1.771
		c-3.192-0.05-5.491-2.057-5.896-5.46c-0.157-1.318-0.105-2.752,0.247-4.024c1.178-4.256,5.762-5.721,9.346-3.099
		C161.532,83.079,161.669,83.145,162.029,83.358 M162.244,88.716c-0.292-1.021-0.459-2.1-0.905-3.048
		c-0.636-1.35-1.88-1.895-3.346-1.889c-1.378,0.005-2.541,0.522-3.148,1.796c-0.98,2.054-1.044,4.152,0.059,6.208
		c0.597,1.112,1.57,1.672,2.799,1.784C160.323,93.804,162.03,91.911,162.244,88.716"/>
	<path clip-path="url(#SVGID_2_)" fill="#86BC76" d="M148.605,91.102c-0.053,2.233-1.858,4.095-4.195,4.408
		c-3.242,0.434-5.583-0.606-6.822-3.033c-1.5-2.938-1.092-6.746,0.949-8.864c1.757-1.822,3.904-2.291,6.268-1.63
		c2.394,0.669,3.495,2.56,3.992,4.815c0.554,2.508,0.491,2.528-2.076,2.528c-2.077,0.001-4.155-0.011-6.232,0.007
		c-1.177,0.009-1.41,0.332-1.147,1.47c0.344,1.49,1.595,2.548,3.256,2.754c1.727,0.213,2.938-0.339,3.676-1.813
		C146.862,90.569,147.737,90.989,148.605,91.102 M142.83,87.332c0.879,0,1.757-0.008,2.636,0.002
		c0.93,0.011,1.089-0.447,0.806-1.235c-0.491-1.365-1.918-2.334-3.457-2.322c-1.576,0.012-2.941,0.979-3.399,2.385
		c-0.241,0.74-0.08,1.174,0.778,1.17C141.073,87.327,141.951,87.331,142.83,87.332"/>
	<path clip-path="url(#SVGID_2_)" fill="#86BC76" d="M205.775,89.331c-1.317,0-2.636,0.012-3.953-0.005
		c-0.777-0.01-1.072,0.274-0.931,1.094c0.272,1.581,1.36,2.772,2.942,3.091c1.847,0.371,3.194-0.204,4.096-1.713
		c0.174-0.291,0.417-0.695,0.682-0.741c0.48-0.084,1.074-0.064,1.469,0.17c0.171,0.102,0.062,0.88-0.09,1.286
		c-1.516,4.033-8.026,3.888-10.203,0.928c-1.829-2.486-1.953-6.656-0.155-9.151c1.563-2.169,3.738-2.928,6.319-2.434
		c2.442,0.468,3.733,2.189,4.367,4.441c0.819,2.908,0.699,3.029-2.266,3.029c-0.759,0-1.518,0-2.277,0V89.331z M201.004,87.304
		c2.172,0,4.348,0.019,6.522-0.038c0.166-0.005,0.491-0.584,0.448-0.848c-0.259-1.6-2.136-2.822-3.912-2.62
		C202.251,84.004,201.003,85.365,201.004,87.304"/>
	<path clip-path="url(#SVGID_2_)" fill="#86BC76" d="M96.253,89.332c-1.32,0-2.639,0.01-3.959-0.003
		c-0.69-0.007-0.895,0.299-0.818,0.973c0.187,1.629,1.361,2.879,3.096,3.212c1.776,0.341,3.198-0.228,3.919-1.753
		c0.48-1.014,1.253-0.839,2.02-0.704c0.151,0.027,0.36,0.59,0.293,0.839c-0.367,1.377-1.196,2.429-2.479,3.08
		c-3.867,1.961-8.223-0.117-9.145-4.34c-0.51-2.337-0.309-4.57,1.162-6.509c1.646-2.168,3.922-2.839,6.52-2.196
		c2.525,0.624,3.679,2.57,4.184,4.922c0.527,2.456,0.461,2.473-2.034,2.473c-0.92,0-1.84,0-2.759,0V89.332z M95.068,87.332
		c0.879,0,1.757-0.009,2.636,0.002c0.931,0.012,1.089-0.447,0.805-1.235c-0.491-1.365-1.918-2.334-3.456-2.322
		c-1.581,0.012-2.941,0.976-3.399,2.384c-0.24,0.739-0.08,1.175,0.778,1.171C93.311,87.327,94.189,87.331,95.068,87.332"/>
	<path clip-path="url(#SVGID_2_)" fill="#86BC76" d="M183.665,89.332c-1.279,0-2.56,0.007-3.839-0.002
		c-0.735-0.006-0.986,0.319-0.871,1.051c0.251,1.602,1.424,2.836,3.051,3.139c1.751,0.326,3.134-0.289,3.998-1.699
		c0.206-0.337,0.564-0.713,0.917-0.794c0.42-0.097,1.007-0.022,1.329,0.227c0.173,0.134,0.087,0.899-0.135,1.188
		c-0.66,0.865-1.3,1.906-2.209,2.396c-2.96,1.595-8.096,1.085-9.247-4.181c-0.978-4.479,1.251-8.291,5.315-8.896
		c3.702-0.552,7.308,3.049,6.689,6.747c-0.054,0.321-0.665,0.749-1.044,0.777c-1.313,0.096-2.636,0.037-3.955,0.037V89.332z
		 M182.481,87.331c0.959,0,1.919-0.005,2.878,0.002c0.691,0.004,0.93-0.266,0.728-0.971c-0.427-1.489-1.985-2.617-3.654-2.584
		c-1.498,0.029-3.002,1.225-3.366,2.625c-0.162,0.621-0.001,0.927,0.657,0.926C180.643,87.328,181.563,87.329,182.481,87.331"/>
	<path clip-path="url(#SVGID_2_)" fill="#86BC76" d="M41.915,89.327c-1.24,0.001-2.48-0.016-3.719,0.006
		c-1.131,0.02-1.324,0.303-1.04,1.415c0.392,1.531,1.636,2.611,3.235,2.807c1.762,0.217,2.926-0.36,3.777-1.872
		c0.357-0.635,1.515-1.027,2.039-0.605c0.189,0.153,0.254,0.643,0.171,0.918c-0.441,1.456-1.362,2.583-2.79,3.099
		c-3.72,1.342-7.864,0.13-8.82-4.452c-0.723-3.462,0.49-6.795,3.069-8.164c3.631-1.926,7.521-0.271,8.652,3.681
		c0.833,2.91,0.648,3.166-2.294,3.166C43.435,89.326,42.675,89.326,41.915,89.327 M44.191,87.319
		c0.196-1.821-1.456-3.362-3.11-3.527c-1.777-0.177-3.356,0.836-3.87,2.508c-0.164,0.535-0.177,1.002,0.532,1.01
		C39.879,87.334,42.015,87.319,44.191,87.319"/>
	<path clip-path="url(#SVGID_2_)" fill="#86BC76" d="M259.784,88.476c0.021,2.849-0.75,5.176-3.267,6.398
		c-2.269,1.102-4.669,1.148-6.861-0.314c-2.921-1.947-3.679-7.215-1.542-10.274c1.882-2.694,6.144-3.448,8.907-1.545
		C259.089,84.167,259.822,86.242,259.784,88.476 M249.141,88.701c0.361,1.11,0.523,2.211,1.048,3.099
		c1.442,2.447,5.1,2.386,6.439-0.12c1.105-2.067,1.108-4.251-0.199-6.266c-1.434-2.208-4.79-2.212-6.159,0.036
		C249.695,86.392,249.518,87.576,249.141,88.701"/>
	<path clip-path="url(#SVGID_2_)" fill="#86BC76" d="M310.647,85.812c-1.168,0.266-1.96,0.242-2.586-0.935
		c-0.717-1.348-3.81-1.506-4.875-0.413c-0.609,0.626-0.515,1.534,0.341,2.02c0.647,0.367,1.402,0.56,2.126,0.771
		c1.036,0.302,2.108,0.487,3.127,0.833c1.416,0.482,2.418,1.385,2.563,2.993c0.154,1.707-0.54,3.031-2.04,3.751
		c-2.36,1.135-4.854,1.167-7.148-0.082c-0.839-0.456-1.359-1.576-1.889-2.473c-0.159-0.269,0.143-0.81,0.234-1.227
		c0.637,0.165,1.586,0.122,1.854,0.529c1.167,1.762,2.917,2.498,5.026,1.829c0.811-0.258,1.618-0.741,1.446-1.638
		c-0.117-0.619-0.715-1.344-1.292-1.632c-0.909-0.453-1.989-0.555-2.984-0.85c-0.839-0.248-1.72-0.45-2.478-0.864
		c-2.27-1.243-2.409-4.358-0.215-5.738c2.195-1.38,4.594-1.343,6.883-0.272C310.032,83.018,310.748,84.196,310.647,85.812"/>
	<path clip-path="url(#SVGID_2_)" fill="#86BC76" d="M265.742,83.737c1.652-1.838,3.43-2.261,5.448-1.909
		c1.797,0.314,3.043,1.293,3.168,3.094c0.221,3.178,0.182,6.375,0.221,9.564c0.011,0.891-0.695,0.797-1.298,0.824
		c-0.78,0.036-1.063-0.352-1.061-1.09c0.013-2.436,0.004-4.872-0.001-7.308c-0.004-1.927-0.478-2.706-1.844-3.054
		c-1.527-0.388-3.34,0.313-3.961,1.741c-0.385,0.887-0.556,1.916-0.604,2.892c-0.094,1.832-0.041,3.673-0.024,5.509
		c0.007,0.767-0.109,1.307-1.083,1.323c-1.035,0.017-1.164-0.542-1.16-1.367c0.019-3.474,0.001-6.949,0.013-10.423
		c0.003-0.648-0.174-1.404,0.891-1.492C265.45,81.959,265.846,82.403,265.742,83.737"/>
	<path clip-path="url(#SVGID_2_)" fill="#86BC76" d="M297.078,90.553c0.226,2.353-1.849,4.667-4.397,4.968
		c-3.317,0.391-5.718-0.747-6.827-3.236c-1.344-3.016-0.643-7.235,1.519-9.143c2.828-2.496,7.968-1.701,9.394,1.5
		c0.208,0.467,0.139,1.556-0.02,1.601c-0.754,0.218-1.686,0.506-2.119-0.609c-0.544-1.393-1.662-1.867-3.051-1.853
		c-1.486,0.016-2.677,0.672-3.288,2.015c-0.922,2.025-0.954,4.104,0.13,6.113c0.686,1.272,1.843,1.701,3.214,1.67
		c1.357-0.03,2.499-0.606,2.938-1.882C295.063,90.267,295.956,90.295,297.078,90.553"/>
	<path clip-path="url(#SVGID_2_)" fill="#86BC76" d="M213.107,88.698c0.379-1.323,0.579-2.734,1.176-3.951
		c1.047-2.135,3.005-3.073,5.316-3.042c1.998,0.027,3.914,0.462,5.039,2.419c0.119,0.207,0.302,0.42,0.313,0.638
		c0.029,0.526,0.063,1.487-0.063,1.514c-0.732,0.154-1.636,0.446-2.084-0.545c-0.74-1.639-2.059-2.148-3.728-1.905
		c-1.707,0.248-2.683,1.327-3.048,2.962c-0.355,1.584-0.42,3.175,0.289,4.692c0.652,1.397,1.755,2.143,3.326,2.1
		c1.54-0.042,2.734-0.642,3.184-2.214c0.335-1.176,1.215-0.984,2.02-0.85c0.178,0.03,0.414,0.615,0.37,0.904
		c-0.332,2.148-2.23,3.877-4.424,4.105C216.012,96.022,213.357,93.607,213.107,88.698"/>
	<path clip-path="url(#SVGID_2_)" fill="#86BC76" d="M233.067,95.311c-2.53-0.019-3.245-0.676-3.298-3.128
		c-0.049-2.276-0.027-4.555,0.004-6.832c0.013-0.864-0.202-1.404-1.194-1.328c-0.712,0.055-0.998-0.314-0.996-1.014
		c0.003-0.739,0.384-1.006,1.055-0.96c0.932,0.063,1.175-0.452,1.13-1.264c-0.027-0.478,0.015-0.96-0.005-1.438
		c-0.034-0.848,0.212-1.35,1.204-1.361c1.001-0.01,1.249,0.477,1.188,1.338c-0.024,0.358,0.035,0.724-0.01,1.078
		c-0.154,1.214,0.266,1.823,1.577,1.657c0.659-0.084,1.048,0.2,1.061,0.945c0.015,0.805-0.394,1.105-1.111,1.016
		c-1.244-0.153-1.587,0.403-1.541,1.584c0.081,2.074,0.033,4.154,0.02,6.232c-0.004,0.769,0.199,1.359,1.071,1.443
		c0.787,0.075,1.712-0.061,1.546,1.217C234.606,95.735,233.617,95.138,233.067,95.311"/>
	<path clip-path="url(#SVGID_2_)" fill="#86BC76" d="M240.431,84.383c1.108-1.412,2.106-2.491,3.742-2.604
		c0.54-0.037,1.118-0.135,1.127,0.646c0.007,0.703,0.344,1.661-0.826,1.778c-3.166,0.317-3.858,2.578-3.914,4.817
		c-0.044,1.715-0.039,3.433-0.005,5.148c0.018,0.915-0.419,1.157-1.251,1.156c-0.824-0.001-1.146-0.336-1.144-1.142
		c0.014-3.592,0.005-7.185,0.002-10.778c-0.001-0.717,0.01-1.35,1.029-1.37c1.029-0.021,1.209,0.526,1.16,1.359
		C240.338,83.621,240.386,83.852,240.431,84.383"/>
	<path clip-path="url(#SVGID_2_)" fill="#86BC76" d="M194.501,86.157c0,2.557-0.007,5.113,0.004,7.67
		c0.004,0.813,0.006,1.512-1.15,1.498c-1.085-0.013-1.09-0.667-1.089-1.436c0.007-5.153,0.006-10.306,0-15.459
		c-0.001-0.767,0-1.424,1.086-1.438c1.154-0.015,1.158,0.679,1.154,1.495C194.493,81.044,194.501,83.6,194.501,86.157"/>
	<path clip-path="url(#SVGID_2_)" fill="#86BC76" d="M279.146,88.557c0-1.757,0.021-3.515-0.009-5.271
		c-0.014-0.826,0.23-1.264,1.153-1.252c0.859,0.012,1.093,0.424,1.09,1.194c-0.015,3.634-0.015,7.268,0,10.902
		c0.003,0.772-0.233,1.18-1.093,1.192c-0.924,0.012-1.162-0.43-1.15-1.254C279.165,92.231,279.146,90.394,279.146,88.557"/>
	<path clip-path="url(#SVGID_2_)" fill="#86BC76" d="M279.158,78.367c-0.089-0.835,0.098-1.384,1.128-1.374
		c0.967,0.01,1.105,0.534,1.096,1.31c-0.011,0.769-0.009,1.43-1.092,1.436C279.264,79.744,279.069,79.205,279.158,78.367"/>
</g>
</svg>
