<?xml version="1.0" encoding="utf-8"?>
<!-- Generator: Adobe Illustrator 16.0.0, SVG Export Plug-In . SVG Version: 6.00 Build 0)  -->
<!DOCTYPE svg PUBLIC "-//W3C//DTD SVG 1.1//EN" "http://www.w3.org/Graphics/SVG/1.1/DTD/svg11.dtd">
<svg version="1.1" id="Layer_1" xmlns="http://www.w3.org/2000/svg" xmlns:xlink="http://www.w3.org/1999/xlink" x="0px" y="0px"
	 width="136.286px" height="171.34px" viewBox="0 0 136.286 171.34" enable-background="new 0 0 136.286 171.34"
	 xml:space="preserve">
<g>
	<defs>
		<rect id="SVGID_1_" width="136.286" height="171.34"/>
	</defs>
	<clipPath id="SVGID_2_">
		<use xlink:href="#SVGID_1_"  overflow="visible"/>
	</clipPath>
	<path clip-path="url(#SVGID_2_)" fill-rule="evenodd" clip-rule="evenodd" d="M76.162,0.004c0.984-0.042,1.989,0.244,2.967,0.335
		c1.639,0.351,3.303,0.819,4.851,1.484c0.979,0.404,1.84,1.084,2.835,1.414c1.335,0.675,2.243,1.883,3.504,2.632
		c0.867,0.904,1.59,1.51,2.425,2.425c0.431,0.532,0.808,1.011,1.213,1.553c0.165,0.681,0.808,1.175,1.01,1.883
		c0.347,0.787,0.665,1.654,0.809,2.563c0.233,1.026,0.463,2.063,0.474,3.1c-0.149,8.036-0.25,16.081,0,24.133
		c0.409,2.372,0.191,4.844,0.877,7.142c0.346,1.717,0.602,3.478,1.345,4.855c1.282,2.303,2.292,4.759,3.712,7.078
		c0.782,0.845,1.389,1.792,2.154,2.696c1.537,2.202,2.819,4.775,4.451,6.807c1.048,2.095,2.191,4.143,3.366,6.201
		c0.878,2.642,2.383,5.068,3.037,7.817c0.866,3.095,1.823,6.136,2.292,9.572c1.005,5.439,1.712,10.832,2.354,16.31
		c-0.036,2.961-0.409,5.934-0.265,8.896c-0.272,0.994-0.085,1.963-0.341,2.968c-0.313,1.393-1.116,2.669-1.414,4.047
		c0.122,0.771-0.277,1.51-0.133,2.292c0.633,1.292,0.681,2.775,1.01,4.174c0.526,0.319,0.803,0.952,1.415,1.352
		c1.042-0.192,2.047,0.303,3.1,0.133c1.256-0.335,2.564-0.309,3.776-0.537c1.488-0.165,2.951,0.282,4.445,0.133
		c0.973,0.616,2.101,1.085,2.968,1.686c0.776,0.463,1.101,1.457,1.888,2.021c-0.272,1.324,0.032,2.711-0.335,3.977
		c-1.362,1.883-2.542,3.936-3.845,5.798c-2.196,2.19-3.951,4.791-6.068,7.076c-2.574,2.654-4.85,5.526-7.476,8.158
		c-3.085,1.767-5.356,4.547-8.291,6.536c-1.319,0.579-2.377,1.632-3.776,1.888c-1.159,0.361-2.436,0.584-3.642,0.739h-3.165
		c-0.983-0.335-2.084-0.378-3.036-0.739c-0.612-0.355-1.282-0.511-1.889-0.808c-1.121-0.644-1.925-1.638-2.962-2.362
		c-0.244-0.707-0.883-1.218-1.351-1.817c-0.547-1.208-1.111-2.414-1.414-3.707c-0.006-0.628-0.229-1.176-0.336-1.755
		c-2.594,0.213-5.216,0.266-7.822,0.543c-2.696-0.14-5.396-0.165-8.088-0.14c-3.505-0.505-7.015-0.67-10.514-1.414
		c-2.494-0.568-4.961-1.106-7.413-1.888c-1.829-0.793-3.754-1.442-5.525-2.223c-0.277-0.409-0.877-0.457-1.149-0.809
		c-0.867,0.712-1.356,1.766-2.223,2.627c-0.606,1.611-1.659,3.026-2.494,4.521c-0.345,0.415-0.856,0.813-0.877,1.345
		c-0.723,0.601-1.26,1.212-1.957,1.888c-1.303,0.506-2.452,1.415-3.84,1.549c-0.351,0.44-1.26-0.032-1.617,0.408
		c-1.196,0.282-2.387-0.308-3.573-0.068c-1.446-0.649-3.042-1.08-4.382-1.755c-2.419-1.372-4.834-2.724-7.28-3.979
		c-4.866-3.621-9.673-7.333-14.422-11.188c-1.484-1.479-2.967-2.961-4.451-4.445c-0.404-1.181-0.819-2.324-1.074-3.505
		c0.303-0.851,0.595-1.627,0.808-2.494c0.41-0.366,0.793-0.92,1.212-1.281c0.532-1.085,2.011-1.133,2.968-1.617
		c1.095-0.372,2.148-0.346,3.233-0.542c1.308-0.006,2.266-0.733,3.372-0.941c0.101-0.404,0.409-0.648,0.537-1.079
		c0.255-1.415-0.404-2.835-0.271-4.244c0.324-0.803,0.563-1.59,0.877-2.43c0.223-0.59,0.851-1.187,1.351-1.479
		c0.393-0.139,0.489-0.511,1.011-0.473c1.036-0.103,2.254-0.103,3.233,0c1.01,0.361,2.031,0.706,3.031,1.143
		c0.494,0.244,1.255,0.096,1.888,0.139c0.616-0.404,0.941-1.347,1.552-1.687c0.75-1.637,1.713-3.153,2.829-4.515
		c0.325-0.145,0.394-0.479,0.745-0.542c0.479-0.271,0.303-0.968,0.335-1.213c-0.505-3.271-0.096-6.563-0.133-9.844
		c0.261-2.61,0.542-5.285,1.01-7.816c0.457-2.367,1.096-4.717,1.548-7.078c0.978-2.835,2.228-5.669,3.303-8.424
		c5.312-10.79,11.332-21.202,16.921-31.811c1.042-1.484,1.792-3.143,2.829-4.584v-0.271c-0.181-1.404,0.473-2.819,0.271-4.18V32.762
		c-0.276-2.425-0.048-4.861-0.271-7.28c-0.043-0.271-0.096-0.537-0.133-0.808v-6.876c0.196-0.054,0.106-0.176,0.133-0.267
		c-0.176-0.675,0.298-1.154,0.133-1.824c0.361-0.771,0.526-1.669,0.675-2.494c0.809-1.691,1.84-3.259,3.101-4.647
		c1.148-1.165,2.42-2.117,3.642-3.169c1.643-1.335,3.531-2.324,5.393-3.303c1.244-0.404,2.318-1.101,3.77-1.346
		C72.599,0.206,74.412-0.028,76.162,0.004"/>
	<path clip-path="url(#SVGID_2_)" fill-rule="evenodd" clip-rule="evenodd" fill="#FFFFFF" d="M83.714,26.157
		c0.813,0.516,1.542,1.127,2.425,1.616c0.675,1.511-0.027,3.143,0.133,4.717c-0.734,1.968-1.239,4.281-3.232,5.393
		c-1.177,0.016-2.394-0.431-3.506-0.808c1.037-0.357,2.494-0.883,2.969-2.154c0.59-0.883,0.893-1.926,0.939-2.968
		c-0.095-1.239-0.329-2.547-1.079-3.573c-0.665-0.761-1.515-1.266-2.425-1.484c-1.558-0.292-2.76,0.692-3.504,1.686
		c-0.372,0.734-0.755,1.483-0.878,2.292c-0.308,1.728,0.335,3.541,1.144,4.988c-0.686-0.729-1.968-0.803-2.355-1.75
		c-1.122-2.557-1.075-5.451-0.069-7.955C77.326,25.146,80.65,24.955,83.714,26.157"/>
	<path clip-path="url(#SVGID_2_)" fill-rule="evenodd" clip-rule="evenodd" fill="#FFFFFF" d="M62.814,26.088
		c0.638,0.478,1.622,0.346,2.159,1.01c0.973,2.479,1.148,5.159,0.537,7.685c-0.734-0.038-1.361,1.281-1.749,0.675
		c0.829-1.92,0.803-4.238-0.336-6.068c-0.59-0.765-1.398-1.574-2.361-1.617c-0.723,0.309-1.51,0.378-2.02,1.08
		c-1.176,1.362-1.33,3.303-1.213,4.988c0.255,1.691,1.35,3.196,2.898,3.909c-0.713,0.399-1.382,0.739-2.159,0.941
		c-0.983-1.186-1.494-2.659-1.957-4.11c-0.643-2.09-0.276-4.186-0.266-6.27c0.771-0.872,1.771-1.516,2.83-1.952
		C60.007,25.758,61.704,26.082,62.814,26.088"/>
	<path clip-path="url(#SVGID_2_)" fill-rule="evenodd" clip-rule="evenodd" fill="#FFFFFF" d="M84.251,49.072
		c0.86,2.51,1.335,5.105,2.021,7.684c0.804,2.867,2.233,5.489,3.303,8.227c1.175,2.234,2.328,4.478,3.303,6.871
		c0.042,0.096,0.095,0.175,0.138,0.271c2.345,5.094,4.648,10.178,7.009,15.299c1.446,3.817,2.754,7.658,3.775,11.662
		c0.085,2.037,0.936,4.005,0.67,6.067c-1.085,3.877-1.882,7.865-3.233,11.662c-0.313,0.707-0.563,1.441-1.143,1.952
		c-0.277-0.006-0.266,0.276-0.543,0.271c-0.542,0.473-0.984,1.01-1.281,1.686c-0.452,1.313-0.686,2.733-0.67,4.11
		c-0.601-0.074-1.01-0.457-1.483-0.744c-0.995-0.256-1.946-0.596-2.968-0.809c-1.17,0.144-3.281-0.713-3.638,0.744
		c-0.548,0.712-1.005,0.941-1.483,1.687c-0.616,3.717-1.011,7.477-1.213,11.253c0.134,2.51-0.287,5.03-0.138,7.551
		c-1.643,1.09-3.483,1.866-5.392,2.494c-1.475,0.463-2.899,1.016-4.719,1.079c-1.615,0.261-3.27,0.282-4.85,0.538
		c-2.429,0.127-4.86,0.015-7.279,0.067c-1.755-0.195-3.675-0.542-5.26-0.675c-3.398-0.771-6.748-1.69-9.838-3.371
		c0.054-1.195,0.697-2.532,0.266-3.84c-1.787-5.03-4.286-9.763-6.333-14.693c-1.83-4.658-3.239-9.461-5.058-14.087
		c-1.122-2.388-2.153-4.807-2.967-7.279c-0.463-0.634-0.005-1.389,0.138-2.026c0.665-3.404,2.149-6.456,3.372-9.705
		c2.015-4.031,3.791-8.173,6.2-11.997c1.186-1.973,1.138-4.265,1.819-6.403c0.792-2.601,2.116-4.914,3.233-7.343
		c1.675-2.66,2.893-5.558,4.515-8.227c1.436-2.973,2.463-6.329,3.978-9.03c0.936,0.856,1.952,1.542,2.898,2.425
		c1.287,0.622,2.659,1.26,4.111,1.212c1.978,0.298,3.951,0.011,5.934,0c2.671-0.441,5.329-1.042,7.686-2.356
		c1.67-0.845,3.265-1.957,4.919-2.632C84.118,48.806,84.181,48.938,84.251,49.072"/>
	<path clip-path="url(#SVGID_2_)" fill-rule="evenodd" clip-rule="evenodd" fill="#FFFFFF" d="M34.779,86.685
		c0.037-0.133,0.096-0.271,0.133-0.404C34.875,86.414,34.816,86.552,34.779,86.685"/>
	<path clip-path="url(#SVGID_2_)" fill-rule="evenodd" clip-rule="evenodd" fill="#FFFFFF" d="M33.971,89.248v-0.139V89.248z"/>
	<path clip-path="url(#SVGID_2_)" fill-rule="evenodd" clip-rule="evenodd" fill="#E7BF5D" d="M70.701,33.033
		c0.797,0.25,1.707,0.33,2.36,0.808c0.202,0.373,0.682,0.612,0.809,1.011c2.69,1.478,5.317,3.004,8.359,3.637
		c1.414-0.165,2.803,0.436,4.041,1.149c0.347,0.431,0.72,0.776,1.08,1.143c0.165,0.974,0.814,1.75,0.475,2.899
		c-0.24,0.579-0.31,1.319-0.745,1.755c-0.612,0.531-0.867,1.281-1.548,1.749c-2.761,1.276-5.131,3.116-8.02,4.249
		c-3.015,1.313-6.817,1.617-10.652,1.818c-1.106-0.196-2.291-0.186-3.302-0.536c-0.744-0.176-1.462-0.676-2.09-0.947
		c-1.686-1.441-3.669-2.585-4.988-4.446c-0.075-0.579-0.436-0.702-0.606-1.212c-0.532-0.899-0.447-2.85-0.069-3.845
		c0.053-0.638,0.579-1.154,0.675-1.686c2.148-1.489,4.669-2.18,6.807-3.637c1.053-1.415,3.037-1.782,4.047-3.101
		C68.44,33.549,69.515,32.618,70.701,33.033"/>
	<path clip-path="url(#SVGID_2_)" fill-rule="evenodd" clip-rule="evenodd" d="M83.847,44.488c-1.345,1.409-3.233,1.75-4.988,2.361
		c-4.228,0.702-8.45,1.25-12.672,1.484c-1.692,0.101-3.702,0.101-5.392,0c-1.192-0.197-2.357-0.771-3.372-1.415
		c-0.505-0.627-1.276-1.207-1.346-2.026c1.436,0.612,2.159,2.356,3.909,2.494c3.68,0.713,7.365,0.117,11.055-0.133
		C75.396,46.881,80.178,45.695,83.847,44.488"/>
	<path clip-path="url(#SVGID_2_)" fill-rule="evenodd" clip-rule="evenodd" fill="#C6C7C9" d="M54.056,17.797
		c0.037-0.09,0.09-0.175,0.133-0.266C54.162,17.623,54.253,17.745,54.056,17.797"/>
	<path clip-path="url(#SVGID_2_)" fill-rule="evenodd" clip-rule="evenodd" fill="#C6C7C9" d="M81.89,21.706
		c0.537,0.117,0.851,0.681,1.42,0.675c0.605,0.649,1.147,1.34,1.749,2.021c0.224,1.154,1.202,2.117,1.08,3.372
		c-0.883-0.489-1.611-1.101-2.425-1.617c-3.063-1.202-6.388-1.01-9.439,0c0.09-0.75,0.776-1.335,0.946-2.021
		c0.745-1.074,1.878-1.887,3.101-2.361C79.406,21.095,80.715,21.515,81.89,21.706"/>
	<path clip-path="url(#SVGID_2_)" fill-rule="evenodd" clip-rule="evenodd" fill="#C6C7C9" d="M61.198,22.722
		c0.516,0.143,0.835,0.665,1.351,0.739c0.643,0.755,1.409,1.42,1.888,2.292c0.356,0.378,0.255,0.968,0.537,1.345
		c-0.537-0.664-1.521-0.531-2.159-1.01c-1.112-0.006-2.808-0.33-3.638,0.271c-1.058,0.436-2.058,1.08-2.829,1.952v-0.942
		c0.261-1.137,0.691-2.243,1.213-3.233c0.611-0.393,0.866-1.079,1.616-1.281C59.608,22.509,60.629,22.658,61.198,22.722"/>
	<path clip-path="url(#SVGID_2_)" fill-rule="evenodd" clip-rule="evenodd" fill="#C6C7C9" d="M54.189,25.482
		c-0.133-0.271-0.133-0.537-0.133-0.808C54.093,24.945,54.146,25.211,54.189,25.482"/>
	<path clip-path="url(#SVGID_2_)" fill-rule="evenodd" clip-rule="evenodd" fill="#C6C7C9" d="M54.189,48.806
		c-0.133-0.096-0.133-0.176,0-0.271V48.806z"/>
	<path clip-path="url(#SVGID_2_)" fill-rule="evenodd" clip-rule="evenodd" fill="#C6C7C9" d="M93.015,72.125
		c-0.043-0.096-0.097-0.175-0.139-0.271C93.072,71.848,92.987,72.028,93.015,72.125"/>
	<path clip-path="url(#SVGID_2_)" fill-rule="evenodd" clip-rule="evenodd" fill="#C6C7C9" d="M35.991,83.584
		c0.043-0.096,0.096-0.175,0.133-0.272C36.087,83.41,36.034,83.489,35.991,83.584"/>
	<path clip-path="url(#SVGID_2_)" fill-rule="evenodd" clip-rule="evenodd" fill="#C6C7C9" d="M66.458,89.583
		c0.133,0.734,0.085,1.612,0.271,2.223c-0.925,5.558-1.547,11.088-2.09,16.714c-0.516,4.627-0.377,9.27-1.149,13.891
		c-0.132,0.403-0.43,0.94-0.877,1.213c-0.383,0.09-0.595-0.128-0.739-0.341c-0.234-0.494-0.479-0.866-0.474-1.547
		c-0.276-1.006-0.106-1.979-0.132-2.969c0.175-6.221,0.866-12.427,1.616-18.601c0.5-3.303,0.713-6.626,1.755-9.844
		c0.165-0.463,0.436-0.813,0.808-1.074c0.256-0.064,0.309-0.191,0.607-0.138C66.187,89.275,66.324,89.418,66.458,89.583"/>
	<path clip-path="url(#SVGID_2_)" fill-rule="evenodd" clip-rule="evenodd" fill="#E7BF5D" d="M32.96,118.635
		c0.713,0.261,1.148,0.92,1.819,1.281c0.659,1.627,1.569,3.026,2.223,4.648c1.973,5.137,3.61,10.359,5.259,15.639
		c0.128,0.889,0.542,1.612,0.67,2.559c0.165,4.105,1.287,8.131,1.351,12.268c-0.208,1.011,0.175,2.399-0.335,3.17
		c-0.41,1.644-1.229,2.999-2.026,4.516c-0.841,0.771-1.511,1.653-2.696,1.957c-0.612,0.366-1.341,0.638-2.154,0.808
		c-1.463,0.436-3.372,0.569-5.127,0.404c-1.239-0.457-2.558-0.819-3.77-1.282c-2.67-1.643-5.52-2.999-8.227-4.45
		c-4.515-3.563-9.226-7.047-13.614-10.646c-1.616-1.644-3.233-3.276-4.855-4.92c-0.207-0.94-0.564-1.897-0.941-2.765
		c0.298-1.021,0.803-1.978,1.079-2.967c0.436-0.33,0.904-0.861,1.213-1.145c1.069-0.397,2.085-1.01,3.233-1.079
		c1.207-0.329,2.792-0.144,3.908-0.676c0.841-0.462,2.117-0.473,2.431-1.482c0.106-0.437,0.277-0.734,0.537-1.08
		c-0.074-0.867-0.329-1.755-0.335-2.627c-0.064-0.532-0.213-1.5,0.133-1.889c-0.005-0.903,0.76-1.61,0.878-2.425
		c0.446-0.245,0.802-0.601,1.345-0.738c0.718,0.059,1.308-0.399,2.026-0.139c0.712,0.117,1.447-0.006,2.154,0.404
		c0.734,0.447,1.76,0.372,2.43,0.947c0.521,0.127,1.117,0.037,1.681,0.063c0.845-0.68,1.249-1.542,2.089-2.222
		c0.569-1.08,1.107-2.175,1.825-3.17c0.356-0.542,0.771-1,1.212-1.479c0.627-0.239,1.005-0.771,1.617-0.946
		c0.829-0.489,1.786-0.804,2.765-0.809C32.758,118.539,32.923,118.47,32.96,118.635"/>
	<path clip-path="url(#SVGID_2_)" fill-rule="evenodd" clip-rule="evenodd" fill="#E7BF5D" d="M94.36,124.229
		c0.596,0.037,1.233,0.362,1.755,0.469c0.403,0.213,0.643,0.67,1.212,0.675c0.202,1.601-0.234,3.239,0.202,4.855
		c0.154,0.738,0.537,1.462,0.878,2.089c0.84,1.074,2.18,1.597,3.164,2.494c1.292,0.58,2.558,1.314,3.978,1.548
		c1.149,0.304,3.074,0.606,4.18,0c0.334-0.275,0.852-0.403,1.148-0.605c0.835-0.761,1.404-1.649,2.09-2.494
		c0.915-2.111,2.085-4.095,3.102-6.132c0.377,0.148,0.457,0.601,0.808,0.809c1.048,1.611,0.58,3.786,1.749,5.323
		c0.516,0.329,0.819,1.052,1.484,1.079c0.931,0.171,2.073-0.069,2.897,0.202c2.696-0.559,5.479-0.675,8.222-0.404
		c0.872,0.213,1.681,0.877,2.494,1.08c0.675,0.665,1.25,1.515,1.889,2.154c0.021,1.286-0.027,2.609-0.405,3.844
		c-1.43,2.048-2.627,4.121-4.041,6.131c-2.457,2.325-4.51,5.154-6.605,7.686c-1.829,1.596-3.249,3.686-4.854,5.392
		c-0.633,0.58-1.292,1.085-1.888,1.755c-0.841,0.378-1.341,1.17-2.224,1.479c-1.68,1.558-3.6,2.728-5.189,4.45
		c-1.011,0.42-1.969,1.059-2.968,1.554c-2.292,0.818-4.76,1.185-7.142,1.143c-1.223-0.462-2.569-0.186-3.776-0.878
		c-0.644-0.388-1.426-0.563-2.021-1.01c-1.26-0.968-2.361-2.144-3.371-3.372c-0.484-0.707-0.707-1.351-1.011-2.153
		c-1.021-4.281-1.829-8.566-2.766-12.875c0.069-4.961-0.17-10.178,0.202-14.895c0.197-1.404-0.128-3.121,0.271-4.313
		c0.16-1.94,0.713-3.871,0.877-5.796c0.639-0.426,0.941-1.08,1.479-1.622C91.573,124.001,93.354,123.612,94.36,124.229"/>
	<path clip-path="url(#SVGID_2_)" fill-rule="evenodd" clip-rule="evenodd" fill="#E7BF5D" d="M44.553,148.292
		c1.196,1.01,2.824,1.479,3.435,3.101c0.191,0.511,0.473,1.158,0.404,1.75c-1.255,1.658-3.244,2.893-3.637,5.126
		c0.404-3.426-0.043-6.85-0.676-10.247C44.164,148.149,44.505,148.079,44.553,148.292"/>
	<path clip-path="url(#SVGID_2_)" fill-rule="evenodd" clip-rule="evenodd" fill="#FFFFFF" d="M34.779,86.685
		c-0.027,0.106-0.043,0.229-0.069,0.335C34.736,86.914,34.752,86.791,34.779,86.685"/>
	<path clip-path="url(#SVGID_2_)" fill-rule="evenodd" clip-rule="evenodd" fill="#FFFFFF" d="M33.971,89.248
		c-0.043,0.09-0.096,0.17-0.341,0.394C33.875,89.418,33.928,89.338,33.971,89.248"/>
	<path clip-path="url(#SVGID_2_)" fill-rule="evenodd" clip-rule="evenodd" fill="#FFFFFF" d="M34.641,87.089
		c-0.027,0.106-0.037,0.229-0.064,0.335C34.604,87.317,34.613,87.195,34.641,87.089"/>
	<path clip-path="url(#SVGID_2_)" fill-rule="evenodd" clip-rule="evenodd" fill="#FFFFFF" d="M34.709,87.02
		c-0.027,0.027-0.043,0.043-0.069,0.069C34.667,87.063,34.683,87.047,34.709,87.02"/>
	<path clip-path="url(#SVGID_2_)" fill-rule="evenodd" clip-rule="evenodd" fill="#FFFFFF" d="M34.508,87.493
		c-0.027,0.106-0.043,0.229-0.069,0.335C34.465,87.723,34.481,87.6,34.508,87.493"/>
	<path clip-path="url(#SVGID_2_)" fill-rule="evenodd" clip-rule="evenodd" fill="#FFFFFF" d="M34.577,87.424
		c-0.026,0.027-0.043,0.043-0.069,0.069C34.534,87.467,34.55,87.451,34.577,87.424"/>
	<path clip-path="url(#SVGID_2_)" fill-rule="evenodd" clip-rule="evenodd" fill="#FFFFFF" d="M33.162,91.535v0.403V91.535z"/>
	<path clip-path="url(#SVGID_2_)" fill-rule="evenodd" clip-rule="evenodd" fill="#FFFFFF" d="M34.375,87.897
		c-0.027,0.105-0.043,0.229-0.069,0.335C34.332,88.126,34.348,88.003,34.375,87.897"/>
	<path clip-path="url(#SVGID_2_)" fill-rule="evenodd" clip-rule="evenodd" fill="#FFFFFF" d="M34.438,87.828
		c-0.027,0.027-0.038,0.043-0.064,0.069C34.401,87.871,34.412,87.855,34.438,87.828"/>
	<path clip-path="url(#SVGID_2_)" fill-rule="evenodd" clip-rule="evenodd" fill="#FFFFFF" d="M33.024,96.863
		c-0.064,0,0.042,0.632,0.101,1.287c0.069-0.043,0.101,0.574,0.069,1.233c-0.106-0.676-0.196-1.298-0.17-1.238
		c-0.037-0.123-0.112-0.58-0.149-0.942c-0.08-0.366-0.149-0.941-0.085-0.553c-0.128-0.585,0.037-1.425,0.053-2.122
		c0.048-0.303,0.043-0.026,0.202-2.244c0.255-1.69,0.755-3.451,3.021-8.854c-2.297,6.148-2.542,7.142-2.516,7.339
		c-0.154,0.36-0.26,1.605-0.335,2.445C33.12,93.901,32.965,95.709,33.024,96.863"/>
	<path clip-path="url(#SVGID_2_)" fill-rule="evenodd" clip-rule="evenodd" fill="#FFFFFF" d="M103.597,73.273
		c-0.043,0.037-0.096,0.09-0.138,0.133C103.501,73.363,103.554,73.31,103.597,73.273"/>
	<path clip-path="url(#SVGID_2_)" fill-rule="evenodd" clip-rule="evenodd" fill="#FFFFFF" d="M105.889,80.756
		c0.708,1.893,0.745,4.11,0.872,5.929c0.261,3.229-0.005,6.473,0,9.705c-0.515,5.398-1.249,10.827-2.425,16.177
		c-0.101,0.724-0.633,1.256-0.809,1.889c-0.133,0.148-0.271,0.148-0.403,0c0.128-0.447,0.398-0.729,0.537-1.149
		c0.696-3.09,1.25-6.254,1.823-9.364c0.378-2.415,0.432-4.828,0.606-7.217c0.038-0.037,0.091-0.09,0.133-0.133
		c-0.18-1.686,0.303-3.377,0.133-5.057c0.197-0.134,0.112-0.361,0.14-0.537c0.133-2.292-0.389-4.589-0.272-6.876
		c-0.105-1.904-0.967-3.691-1.143-5.525c-0.271-1.809-1.08-3.478-3.489-9.95c1.963,4.828,2.042,4.892,2.059,4.908
		c0.309,0.942,0.882,1.702,1.026,2.617C105.182,77.533,105.586,79.245,105.889,80.756"/>
	<path clip-path="url(#SVGID_2_)" fill-rule="evenodd" clip-rule="evenodd" fill="#FFFFFF" d="M34.236,88.302
		c-0.027,0.105-0.037,0.229-0.064,0.335C34.199,88.53,34.209,88.407,34.236,88.302"/>
	<path clip-path="url(#SVGID_2_)" fill-rule="evenodd" clip-rule="evenodd" fill="#FFFFFF" d="M34.305,88.232
		c-0.026,0.026-0.042,0.043-0.069,0.068C34.263,88.275,34.279,88.259,34.305,88.232"/>
	<path clip-path="url(#SVGID_2_)" fill-rule="evenodd" clip-rule="evenodd" fill="#FFFFFF" d="M34.172,88.637
		c-0.027,0.031-0.043,0.043-0.069,0.068C34.129,88.68,34.146,88.668,34.172,88.637"/>
</g>
</svg>
