<?xml version="1.0" encoding="utf-8"?>
<!-- Generator: Adobe Illustrator 16.0.0, SVG Export Plug-In . SVG Version: 6.00 Build 0)  -->
<!DOCTYPE svg PUBLIC "-//W3C//DTD SVG 1.1//EN" "http://www.w3.org/Graphics/SVG/1.1/DTD/svg11.dtd">
<svg version="1.1" id="Layer_1" xmlns="http://www.w3.org/2000/svg" xmlns:xlink="http://www.w3.org/1999/xlink" x="0px" y="0px"
	 width="233.712px" height="297.759px" viewBox="0 0 233.712 297.759" enable-background="new 0 0 233.712 297.759"
	 xml:space="preserve">
<g>
	<defs>
		<rect id="SVGID_1_" width="233.712" height="297.759"/>
	</defs>
	<clipPath id="SVGID_2_">
		<use xlink:href="#SVGID_1_"  overflow="visible"/>
	</clipPath>
	<path clip-path="url(#SVGID_2_)" d="M63.156,0.009c-1.5,0-3.15,0.6-4.95,2.1c-4.5-1.8-8.85-2.4-12.75,1.2
		c-6-0.75-7.95,0.9-9.45,2.7c-1.35,0-9.9-1.35-13.8,4.5c-9.9-1.2-13.05,5.85-9.45,12.3c-1.95,3.15-4.05,6.3,0.6,12.15
		c-1.65,3.3-0.6,6.9,3.3,11.25c-1.05,4.65,1.05,7.95,4.65,10.5c-0.75,6.45,5.85,10.05,7.8,11.4c0.75,3.75,2.25,7.2,9.75,9.15
		c1.2,5.55,5.7,6.45,10.05,7.65c-14.4,8.4-26.7,19.35-26.7,46.35l-2.1,3.75c-16.5,10.05-31.35,42.3-8.1,68.55
		c1.5,8.25,4.05,14.101,6.3,20.7c3.45,26.25,25.5,38.55,31.35,40.05c8.55,6.45,17.7,12.75,30,16.95c11.55,12,24.15,16.5,36.9,16.5
		h0.6c12.6,0,25.2-4.5,36.9-16.5c12.3-4.35,21.449-10.5,30-16.95c5.85-1.5,27.899-13.8,31.35-40.05c2.25-6.6,4.8-12.45,6.3-20.7
		c23.25-26.25,8.4-58.5-8.1-68.55l-2.101-3.75c0.15-27-12.3-38.1-26.699-46.35c4.35-1.2,8.85-2.1,10.05-7.65
		c7.5-1.95,9-5.4,9.75-9.15c1.95-1.35,8.55-5.1,7.8-11.4c3.6-2.55,5.7-5.85,4.65-10.5c3.899-4.35,4.949-7.95,3.3-11.25
		c4.8-6,2.7-9,0.6-12.15c3.601-6.6,0.45-13.5-9.45-12.3c-3.899-5.85-12.6-4.5-13.8-4.5c-1.5-1.95-3.45-3.45-9.45-2.7
		c-3.899-3.6-8.25-3-12.75-1.2c-5.399-4.2-8.85-0.9-12.899,0.45c-6.45-2.1-7.95,0.75-11.101,1.95c-7.05-1.5-9.149,1.8-12.6,5.25
		l-3.9-0.15c-11.1,6.15-16.35,19.05-18.3,25.65c-1.8-6.6-7.2-19.5-17.85-25.8l-3.9,0.15c-3.45-3.45-5.55-6.75-12.6-5.25
		c-3.15-1.2-4.65-4.05-11.1-1.95C68.556,1.659,66.006-0.141,63.156,0.009"/>
	<path clip-path="url(#SVGID_2_)" fill="#75A928" d="M42.006,27.609c28.35,14.55,44.7,26.4,53.85,36.45
		c-4.65,18.45-28.65,19.35-37.5,18.9c1.8-0.9,3.3-1.8,3.9-3.45c-2.25-1.5-10.05-0.15-15.45-3.3c2.1-0.45,3.15-0.9,4.05-2.4
		c-5.1-1.65-10.8-3-13.95-5.85c1.8,0,3.45,0.45,5.7-1.2c-4.65-2.55-9.6-4.5-13.35-8.25c2.4,0,4.95,0,5.7-0.9
		c-4.2-2.7-7.8-5.55-10.8-8.7c3.3,0.45,4.8,0,5.55-0.6c-3.15-3.3-7.2-6-9.15-10.05c2.55,0.9,4.8,1.2,6.45-0.15
		c-1.05-2.4-5.7-3.9-8.4-9.6c2.55,0.3,5.4,0.6,6,0c-1.2-4.95-3.3-7.8-5.4-10.65c5.55-0.15,14.1,0,13.65-0.45l-3.45-3.6
		c5.4-1.5,11.1,0.3,15.15,1.5c1.8-1.5,0-3.3-2.25-5.1c4.65,0.6,8.85,1.65,12.6,3.15c2.1-1.8-1.35-3.6-3-5.55
		c6.9,1.65,10.05,3.45,13.05,5.4c2.25-2.1,0.15-3.9-1.35-5.7c5.4,1.95,8.25,4.65,11.1,7.2c1.05-1.35,2.55-2.4,0.75-5.55
		c3.9,2.25,6.75,4.8,8.85,7.8c2.4-1.5,1.35-3.6,1.5-5.55c4.05,3.3,6.6,6.75,9.6,10.05c0.6-0.45,1.2-1.95,1.65-4.5
		c9.6,9.3,22.95,32.55,3.45,41.85C83.856,45.009,63.906,35.109,42.006,27.609"/>
	<path clip-path="url(#SVGID_2_)" fill="#75A928" d="M192.156,27.609c-28.35,14.55-44.7,26.4-53.7,36.45
		c4.65,18.45,28.65,19.35,37.5,18.9c-1.8-0.9-3.3-1.8-3.899-3.45c2.25-1.5,10.05-0.15,15.449-3.3c-2.1-0.45-3.149-0.9-4.05-2.4
		c5.101-1.65,10.8-3,13.95-5.85c-1.8,0-3.45,0.45-5.7-1.2c4.65-2.55,9.601-4.5,13.351-8.25c-2.4,0-4.95,0-5.7-0.9
		c4.2-2.7,7.8-5.55,10.8-8.7c-3.3,0.45-4.8,0-5.55-0.6c3.149-3.3,7.2-6,9.149-10.05c-2.55,0.9-4.8,1.2-6.449-0.15
		c1.05-2.4,5.699-3.9,8.399-9.6c-2.55,0.3-5.399,0.6-6,0c1.2-4.95,3.3-7.8,5.4-10.65c-5.55-0.15-14.101,0-13.65-0.45l3.45-3.6
		c-5.4-1.5-11.1,0.3-15.15,1.5c-1.8-1.5,0-3.3,2.25-5.1c-4.649,0.6-8.85,1.65-12.6,3.15c-2.1-1.8,1.35-3.6,3-5.55
		c-7.2,1.35-10.2,3.3-13.2,5.25c-2.25-2.1-0.149-3.9,1.351-5.7c-5.4,1.95-8.25,4.65-11.101,7.2c-1.05-1.35-2.55-2.4-0.75-5.55
		c-3.899,2.25-6.75,4.8-8.85,7.8c-2.4-1.5-1.351-3.6-1.5-5.55c-4.05,3.3-6.601,6.75-9.601,10.05c-0.6-0.45-1.199-1.95-1.649-4.5
		c-9.601,9.3-22.95,32.55-3.45,41.85C150.307,45.009,170.106,35.109,192.156,27.609"/>
	<path clip-path="url(#SVGID_2_)" fill="#BC1142" d="M151.356,216.009c0.149,17.25-15,31.35-33.75,31.5s-34.05-13.8-34.05-31.05
		v-0.3c-0.15-17.25,15-31.351,33.75-31.5c18.75-0.15,34.05,13.8,34.05,31.05C151.356,215.858,151.356,216.009,151.356,216.009"/>
	<path clip-path="url(#SVGID_2_)" fill="#BC1142" d="M97.806,126.759c14.1,9.15,16.65,30,5.7,46.65
		c-10.95,16.649-31.2,22.5-45.3,13.199c-14.1-9.149-16.65-30-5.7-46.649C63.456,123.309,83.706,117.609,97.806,126.759"/>
	<path clip-path="url(#SVGID_2_)" fill="#BC1142" d="M135.756,125.109c-14.1,9.15-16.649,30-5.699,46.65
		c10.949,16.65,31.199,22.5,45.3,13.2c14.1-9.15,16.649-30,5.7-46.65C170.106,121.809,149.856,115.809,135.756,125.109"/>
	<path clip-path="url(#SVGID_2_)" fill="#BC1142" d="M27.606,141.759c15.15-4.05,5.1,62.7-7.2,57.3
		C6.756,188.108,2.406,156.159,27.606,141.759"/>
	<path clip-path="url(#SVGID_2_)" fill="#BC1142" d="M202.956,141.009c-15.149-4.05-5.1,62.7,7.2,57.3
		C223.656,187.358,228.006,155.409,202.956,141.009"/>
	<path clip-path="url(#SVGID_2_)" fill="#BC1142" d="M151.356,91.209c26.25-4.35,48,11.1,47.1,39.45
		C197.557,141.609,141.756,92.859,151.356,91.209"/>
	<path clip-path="url(#SVGID_2_)" fill="#BC1142" d="M79.056,90.309c-26.25-4.35-48,11.1-47.1,39.6
		C32.856,140.709,88.656,91.959,79.056,90.309"/>
	<path clip-path="url(#SVGID_2_)" fill="#BC1142" d="M116.556,83.709c-15.6-0.3-30.6,11.7-30.6,18.6c0,8.4,12.3,17.1,30.75,17.4
		c18.75,0.15,30.75-6.9,30.9-15.6C147.606,94.059,130.506,83.559,116.556,83.709"/>
	<path clip-path="url(#SVGID_2_)" fill="#BC1142" d="M117.606,257.259c13.649-0.6,31.95,4.35,31.95,10.95
		c0.3,6.45-16.65,20.85-32.851,20.7c-16.8,0.75-33.3-13.801-33.15-18.9C83.256,262.659,104.106,256.959,117.606,257.259"/>
	<path clip-path="url(#SVGID_2_)" fill="#BC1142" d="M67.206,218.108c9.75,11.7,14.1,32.25,6,38.25
		c-7.65,4.65-26.25,2.7-39.45-16.199c-8.85-15.9-7.8-32.101-1.5-36.9C41.706,197.409,56.106,205.209,67.206,218.108"/>
	<path clip-path="url(#SVGID_2_)" fill="#BC1142" d="M165.906,214.358c-10.5,12.301-16.35,34.65-8.7,42
		c7.351,5.551,27,4.801,41.55-15.3c10.5-13.5,7.051-36.149,1.051-42.149C190.807,191.858,177.906,200.709,165.906,214.358"/>
</g>
</svg>
