<?xml version="1.0" encoding="utf-8"?>
<!-- Generator: Adobe Illustrator 18.0.0, SVG Export Plug-In . SVG Version: 6.00 Build 0)  -->
<!DOCTYPE svg PUBLIC "-//W3C//DTD SVG 1.1//EN" "http://www.w3.org/Graphics/SVG/1.1/DTD/svg11.dtd">
<svg version="1.1" id="Layer_1" xmlns="http://www.w3.org/2000/svg" xmlns:xlink="http://www.w3.org/1999/xlink" x="0px" y="0px"
	 width="175px" height="175px" viewBox="0 0 175 175" enable-background="new 0 0 175 175" xml:space="preserve">
<g id="Isolation_Mode">
</g>
<g id="Ñëîé_1">
</g>
<g id="_xB9_Ï_xBC_h_x5F_1">
	<g>
		<path fill="#CCCCCC" d="M28.5,144.6c-1.1,0-1.9-0.8-1.9-1.9V88.8h-5.1c-1.1,0-1.9-0.8-1.9-1.9V67.3c0-1.1,0.8-1.9,1.9-1.9h25V65
			c0-3.2,2.2-6,5.3-6.7V37.4c0-3.4,2.8-6.3,6.3-6.3h56.2c3.4,0,6.3,2.8,6.3,6.3v20.9c3.1,0.8,5.3,3.5,5.3,6.7v0.3h25
			c0.5,0,1,0.2,1.4,0.6s0.6,0.8,0.6,1.4v19.6c0,1.1-0.8,1.9-1.9,1.9h-5.1v53.9c0,1.1-0.8,1.9-1.9,1.9H28.5z M142.1,140.7V88.8h-19.8
			V100c0,1.1-0.8,1.9-1.9,1.9h-12c-1.1,0-1.9-0.8-1.9-1.9V88.8H66V100c0,1.1-0.8,1.9-1.9,1.9h-12c-1.1,0-1.9-0.8-1.9-1.9V88.8H30.4
			v51.9H142.1z M118.3,98.1V81h-8.2v17.1H118.3z M62.1,98.1V81H54v17.1H62.1z M106.4,85v-5.8c0-1.1,0.8-1.9,1.9-1.9h12
			c1.1,0,1.9,0.8,1.9,1.9v5.8h26.6V69.2H23.4V85h26.7v-5.8c0-1.1,0.8-1.9,1.9-1.9h12c1.1,0,1.9,0.8,1.9,1.9V85H106.4z M122,65.4
			v-0.3c0-1.7-1.4-3.2-3.1-3.2h-9.1c-1.8,0-3.2,1.4-3.2,3.2v0.3H122z M65.8,65.4v-0.3c0-1.8-1.4-3.2-3.2-3.2h-9.1
			c-1.8,0-3.2,1.4-3.2,3.2v0.3H65.8z M102.8,65.4V65c0-3.2,2.2-6,5.3-6.7V43.6H64.3v14.7c3.1,0.8,5.3,3.5,5.3,6.7v0.3H102.8z
			 M116.6,58.1V37.4c0-1.3-1.1-2.4-2.4-2.4H58c-1.3,0-2.4,1.1-2.4,2.4v20.7h4.8V41.7c0-1.1,0.8-1.9,1.9-1.9h47.5
			c1.1,0,1.9,0.8,1.9,1.9v16.4H116.6z"/>
		<path fill="#CCCCCC" d="M150.8,66.4h-26V65c0-3.1-2.3-5.5-5.3-5.9V37.4c0-2.9-2.4-5.3-5.3-5.3H58c-2.9,0-5.3,2.4-5.3,5.3v21.8
			c-2.9,0.3-5.3,2.9-5.3,5.9v1.3h-26c-0.5,0-0.9,0.4-0.9,0.9v19.6c0,0.5,0.4,0.9,0.9,0.9h6.1v54.9c0,0.5,0.4,0.9,0.9,0.9h115.3
			c0.5,0,0.9-0.4,0.9-0.9V87.8h6.1c0.5,0,0.9-0.4,0.9-0.9V67.3C151.7,66.8,151.3,66.4,150.8,66.4z M123,65.1v1.3h-17.4v-1.3
			c0-2.3,1.8-4.2,4.2-4.2h0.2h8.7h0.2C121.1,60.9,123,62.8,123,65.1z M68.6,66.4V65c0-3.1-2.3-5.5-5.3-5.9V42.6H109v16.5
			c-2.9,0.3-5.3,2.9-5.3,5.9v1.3H68.6z M54.6,37.4c0-1.9,1.6-3.4,3.4-3.4h56.2c1.9,0,3.4,1.6,3.4,3.4v21.7h-6.9V41.7
			c0-0.5-0.4-0.9-0.9-0.9H62.4c-0.5,0-0.9,0.4-0.9,0.9v17.4h-6.8V37.4z M49.3,65.1c0-2.3,1.8-4.2,4.2-4.2h9.1c2.3,0,4.2,1.8,4.2,4.2
			v1.3H49.3V65.1z M142.9,141.7H29.4V87.8h21.8V100c0,0.5,0.4,0.9,0.9,0.9h12c0.5,0,0.9-0.4,0.9-0.9V87.8h42.4V100
			c0,0.5,0.4,0.9,0.9,0.9h12c0.5,0,0.9-0.4,0.9-0.9V87.8h21.8v53.9H142.9L142.9,141.7z M63.1,99.1H53V80h10.2
			C63.1,80,63.1,99.1,63.1,99.1z M119.4,99.1h-10.2V80h10.2L119.4,99.1L119.4,99.1L119.4,99.1z M149.9,85.9h-28.7v-6.8
			c0-0.5-0.4-0.9-0.9-0.9h-12c-0.5,0-0.9,0.4-0.9,0.9V86H65v-6.8c0-0.5-0.4-0.9-0.9-0.9H52c-0.5,0-0.9,0.4-0.9,0.9V86H22.4V68.2
			h127.5L149.9,85.9L149.9,85.9z"/>
		<g>
			<polygon fill="#CCCCCC" points="57.2,121.1 57.2,118.6 75.4,106.1 75.4,110.7 62.2,119.6 75.4,127.4 75.4,132 			"/>
			<path fill="#CCCCCC" d="M74.4,130.2l-16.3-9.7v-1.4L74.4,108v2.2l-14.1,9.5l14.1,8.3V130.2z"/>
			<polygon fill="#CCCCCC" points="79.2,133.2 89.5,105.6 93.4,105.6 83.2,133.2 			"/>
			<path fill="#CCCCCC" d="M92,106.6l-9.5,25.6h-1.8l9.5-25.6C90.2,106.6,92,106.6,92,106.6z"/>
			<polygon fill="#CCCCCC" points="95.4,127.4 108.6,119.6 95.4,110.7 95.4,106.1 113.7,118.6 113.7,121.1 95.4,132 			"/>
			<path fill="#CCCCCC" d="M96.4,128l14.1-8.3l-14.1-9.5V108l16.3,11.1v1.4l-16.3,9.7V128z"/>
		</g>
	</g>
</g>
<g id="Layer_1_1_">
</g>
</svg>
